<?xml version='1.0' encoding='UTF-8' standalone='no'?>
<svg xmlns="http://www.w3.org/2000/svg" gorn="0" height="0.73318005in" id="svg7" version="1.2" viewBox="0 0 36.998003 73.318002" width="0.36998004in" x="0px"  y="0px">
    <defs id="defs7" />
    <desc id="desc1" >
        <referenceFile >mosfet_n_channel.svg</referenceFile>
    </desc>
    <g gorn="0.2" id="g1" >
        <rect fill="none" gorn="0.2.0" height="1" id="connector0pin" width="3" x="7"  y="59.500999"/>
        <rect fill="none" gorn="0.2.1" height="1" id="connector1pin" width="3" x="16.998001"  y="59.500999"/>
        <rect fill="none" gorn="0.2.2" height="1" id="connector2pin" width="3" x="26.996"  y="59.500999"/>
        <line fill="none" gorn="0.2.3" id="connector0leg" stroke="#8c8c8c" stroke-linecap="round" stroke-width="3" x1="8.5" x2="8.5"  y1="61.818001" y2="71.818001"/>
        <line fill="none" gorn="0.2.4" id="connector1leg" stroke="#8c8c8c" stroke-linecap="round" stroke-width="3" x1="18.498001" x2="18.498001"  y1="61.818001" y2="71.818001"/>
        <line fill="none" gorn="0.2.5" id="connector2leg" stroke="#8c8c8c" stroke-linecap="round" stroke-width="3" x1="28.496" x2="28.496"  y1="61.818001" y2="71.818001"/>
        <path d="M 33.496,0.001 H 18.498 v 2.502 c 4.354,0 7.875,2.47 7.875,5.516 -0.002,3.044 -3.523,5.513 -7.875,5.513 v 8.087 h 14.998 z" fill="#bfbcbc" gorn="0.2.6" id="path1" />
        <path d="m 10.625,8.015 c 0,-3.047 3.523,-5.514 7.873,-5.514 V 0 H 3.5 v 21.611 h 14.998 v -8.086 c -4.35,0.002 -7.873,-2.465 -7.873,-5.51 z" fill="#808080" gorn="0.2.7" id="path2" />
        <rect fill="#8c8c8c" gorn="0.2.8" height="15.787" id="rect4" width="3" x="7"  y="46.030998"/>
        <rect fill="#8c8c8c" gorn="0.2.9" height="15.787" id="rect6" width="3" x="16.998001"  y="46.030998"/>
        <rect fill="#8c8c8c" gorn="0.2.10" height="15.787" id="rect8" width="3" x="26.996"  y="46.030998"/>
        <g transform="translate(-0.50099999,-0.499)" >
            <g >
                <g >
                    <polygon fill="#cccccc" gorn="0.2.11.0.0.0" id="polygon10" points="0.501,4.525 0.501,17.865 4.001,17.865 4.001,0.5 " />
                </g>
            </g>
        </g>
        <g transform="translate(-0.50099999,-0.499)" >
            <g >
                <g >
                    <polygon fill="#999999" gorn="0.2.12.0.0.0" id="polygon12" points="37.497,4.525 33.997,0.5 33.997,17.865 37.497,17.865 " />
                </g>
            </g>
        </g>
        <g transform="translate(-0.50099999,-0.499)" >
            <g >
                <g >
                    <polygon fill="#8c8c8c" gorn="0.2.13.0.0.0" id="polygon21" points="5.501,44.495 12.501,44.495 12.501,56.675 10.261,57.675 7.741,57.675 5.501,56.675 " />
                </g>
            </g>
        </g>
        <g transform="translate(-0.50099999,-0.499)" >
            <g >
                <g >
                    <polygon fill="#8c8c8c" gorn="0.2.14.0.0.0" id="polygon23" points="15.499,44.495 22.499,44.495 22.499,56.675 20.259,57.675 17.74,57.675 15.499,56.675 " />
                </g>
            </g>
        </g>
        <g transform="translate(-0.50099999,-0.499)" >
            <g >
                <g >
                    <polygon fill="#8c8c8c" gorn="0.2.15.0.0.0" id="polygon25" points="25.499,44.495 32.497,44.495 32.497,56.675 30.257,57.675 27.739,57.675 25.499,56.675 " />
                </g>
            </g>
        </g>
        <rect fill="#141414" gorn="0.2.16" height="22.222" id="rect2" width="12" x="24.998001"  y="31.022999"/>
        <rect fill="#333333" gorn="0.2.17" height="22.222" id="rect3" width="12" x="-2.8746032e-09"  y="31.022999"/>
        <path d="m 1e-8,39.16 v 7.176 C 2.83,46.336 5.125,44.732 5.125,42.748 5.125,40.767 2.83,39.16 1e-8,39.16 Z" fill="#262626" gorn="0.2.18" id="path40_1_" />
        <path d="m 36.996,39.16 c -2.83,0 -5.125,1.604 -5.125,3.588 0,1.979 2.295,3.588 5.125,3.588 z" gorn="0.2.19" id="path47" />
        <path d="m 1e-8,31.023 v 9.888 C 2.83,40.911 5.125,42.517 5.125,44.499 5.125,46.481 2.83,48.087 1e-8,48.087 v 5.158 H 36.998 V 31.023 Z M 36.996,48.086 c -2.83,0 -5.125,-1.604 -5.125,-3.588 0,-1.979 2.295,-3.588 5.125,-3.588 z" fill="#1a1a1a" gorn="0.2.20" id="path3" />
        <rect gorn="0.2.21" height="4.6490002" id="rect49" width="36.998001" x="-2.8746032e-09"  y="26.372999"/>
        <rect fill="#333333" gorn="0.2.22" height="5.7480001" id="rect51" width="36.998001" x="-2.8746032e-09"  y="20.625"/>
        <rect fill="#b2b2b2" gorn="0.2.23" height="4.25" id="rect53" width="29.997999" x="3.5"  y="0.001"/>
        <path d="M 33.496,3.26 H 3.5 L 1e-8,7.284 v 13.34 H 36.996 V 7.284 Z M 18.498,16.787 c -4.35,0 -7.873,-2.468 -7.873,-5.513 0,-3.044 3.523,-5.511 7.873,-5.511 4.354,0 7.875,2.468 7.875,5.511 -0.002,3.044 -3.523,5.513 -7.875,5.513 z" fill="#8c8c8c" gorn="0.2.24" id="path55" />
        <g fill="#ff6600" font-size="6.56168" gorn="0.2.25" id="text7" stroke-width="1.04167" style="font-weight:bold;line-height:1.25;font-family:OCRA;-inkscape-font-specification:'OCRA Bold';" xml:space="preserve"  xmlns:xml="http://www.w3.org/XML/1998/namespace">
            <text fill="#ff6600" font-size="6.56168" gorn="0.2.25.0" id="tspan7" stroke-width="1.04167" x="1.8152786"  y="37.129925">IRFZ24N</text>
        </g>
    </g>
</svg>
