<?xml version="1.0" encoding="UTF-8" standalone="no"?>
<!-- Generator: Adobe Illustrator 13.0.2, SVG Export Plug-In . SVG Version: 6.00 Build 14948)  -->

<svg
   width="2.4000001in"
   x="0px"
   version="1.1"
   y="0px"
   height="1.4in"
   viewBox="0 0 172.79863 100.79919"
   id="svg548"
   sodipodi:docname="BatteryPack_3xAAA-breadboard.svg"
   inkscape:version="1.2.2 (b0a8486541, 2022-12-01)"
   xmlns:inkscape="http://www.inkscape.org/namespaces/inkscape"
   xmlns:sodipodi="http://sodipodi.sourceforge.net/DTD/sodipodi-0.dtd"
   xmlns="http://www.w3.org/2000/svg"
   xmlns:svg="http://www.w3.org/2000/svg">
  <defs
     id="defs552">
    <clipPath
       clipPathUnits="userSpaceOnUse"
       id="clipPath4028">
      <rect
         style="font-variation-settings:normal;opacity:1;vector-effect:none;fill:#c9c9c9;fill-opacity:1;fill-rule:evenodd;stroke-width:0.99612;stroke-linecap:butt;stroke-linejoin:miter;stroke-miterlimit:4;stroke-dasharray:none;stroke-dashoffset:0;stroke-opacity:1;-inkscape-stroke:none;stop-color:#000000;stop-opacity:1"
         id="rect4030"
         width="160.00563"
         height="98.161911"
         x="1.3704981"
         y="1.0278735" />
    </clipPath>
    <clipPath
       clipPathUnits="userSpaceOnUse"
       id="clipPath1590">
      <g
         id="g1594">
        <rect
           style="font-variation-settings:normal;opacity:1;vector-effect:none;fill:#c9c9c9;fill-opacity:1;fill-rule:evenodd;stroke-width:0.996121;stroke-linecap:butt;stroke-linejoin:miter;stroke-miterlimit:4;stroke-dasharray:none;stroke-dashoffset:0;stroke-opacity:1;-inkscape-stroke:none;stop-color:#000000;stop-opacity:1"
           id="rect1592"
           width="159.4917"
           height="98.161911"
           x="0.1713241"
           y="-112.37993" />
      </g>
    </clipPath>
    <clipPath
       clipPathUnits="userSpaceOnUse"
       id="clipPath1596">
      <g
         id="g1600"
         transform="matrix(1,0,0,1.0078024,-0.1713242,113.60205)">
        <rect
           style="font-variation-settings:normal;opacity:1;vector-effect:none;fill:#c9c9c9;fill-opacity:1;fill-rule:evenodd;stroke-width:0.996121;stroke-linecap:butt;stroke-linejoin:miter;stroke-miterlimit:4;stroke-dasharray:none;stroke-dashoffset:0;stroke-opacity:1;-inkscape-stroke:none;stop-color:#000000;stop-opacity:1"
           id="rect1598"
           width="159.4917"
           height="98.161911"
           x="0.1713241"
           y="-112.37993" />
      </g>
    </clipPath>
    <clipPath
       clipPathUnits="userSpaceOnUse"
       id="clipPath1602">
      <g
         id="g1606"
         transform="matrix(1,0,0,1.0078024,-0.1713242,113.60205)">
        <rect
           style="font-variation-settings:normal;opacity:1;vector-effect:none;fill:#c9c9c9;fill-opacity:1;fill-rule:evenodd;stroke-width:0.996121;stroke-linecap:butt;stroke-linejoin:miter;stroke-miterlimit:4;stroke-dasharray:none;stroke-dashoffset:0;stroke-opacity:1;-inkscape-stroke:none;stop-color:#000000;stop-opacity:1"
           id="rect1604"
           width="159.4917"
           height="98.161911"
           x="0.1713241"
           y="-112.37993" />
      </g>
    </clipPath>
    <clipPath
       clipPathUnits="userSpaceOnUse"
       id="clipPath1608">
      <g
         id="g1612"
         transform="matrix(1,0,0,1.0078024,-0.1713242,113.60205)">
        <rect
           style="font-variation-settings:normal;opacity:1;vector-effect:none;fill:#c9c9c9;fill-opacity:1;fill-rule:evenodd;stroke-width:0.996121;stroke-linecap:butt;stroke-linejoin:miter;stroke-miterlimit:4;stroke-dasharray:none;stroke-dashoffset:0;stroke-opacity:1;-inkscape-stroke:none;stop-color:#000000;stop-opacity:1"
           id="rect1610"
           width="159.4917"
           height="98.161911"
           x="0.1713241"
           y="-112.37993" />
      </g>
    </clipPath>
    <clipPath
       clipPathUnits="userSpaceOnUse"
       id="clipPath1614">
      <g
         id="g1618"
         transform="matrix(1,0,0,1.0078024,-0.1713242,113.60205)">
        <rect
           style="font-variation-settings:normal;opacity:1;vector-effect:none;fill:#c9c9c9;fill-opacity:1;fill-rule:evenodd;stroke-width:0.996121;stroke-linecap:butt;stroke-linejoin:miter;stroke-miterlimit:4;stroke-dasharray:none;stroke-dashoffset:0;stroke-opacity:1;-inkscape-stroke:none;stop-color:#000000;stop-opacity:1"
           id="rect1616"
           width="159.4917"
           height="98.161911"
           x="0.1713241"
           y="-112.37993" />
      </g>
    </clipPath>
    <clipPath
       clipPathUnits="userSpaceOnUse"
       id="clipPath1620">
      <g
         id="g1624">
        <rect
           style="font-variation-settings:normal;opacity:1;vector-effect:none;fill:#c9c9c9;fill-opacity:1;fill-rule:evenodd;stroke-width:0.996121;stroke-linecap:butt;stroke-linejoin:miter;stroke-miterlimit:4;stroke-dasharray:none;stroke-dashoffset:0;stroke-opacity:1;-inkscape-stroke:none;stop-color:#000000;stop-opacity:1"
           id="rect1622"
           width="159.4917"
           height="98.161911"
           x="0.1713241"
           y="-112.37993" />
      </g>
    </clipPath>
    <clipPath
       clipPathUnits="userSpaceOnUse"
       id="clipPath1626">
      <g
         id="g1630">
        <rect
           style="font-variation-settings:normal;opacity:1;vector-effect:none;fill:#c9c9c9;fill-opacity:1;fill-rule:evenodd;stroke-width:0.996121;stroke-linecap:butt;stroke-linejoin:miter;stroke-miterlimit:4;stroke-dasharray:none;stroke-dashoffset:0;stroke-opacity:1;-inkscape-stroke:none;stop-color:#000000;stop-opacity:1"
           id="rect1628"
           width="159.4917"
           height="98.161911"
           x="0.1713241"
           y="-112.37993" />
      </g>
    </clipPath>
    <clipPath
       clipPathUnits="userSpaceOnUse"
       id="clipPath1632">
      <g
         id="g1636">
        <rect
           style="font-variation-settings:normal;opacity:1;vector-effect:none;fill:#c9c9c9;fill-opacity:1;fill-rule:evenodd;stroke-width:0.996121;stroke-linecap:butt;stroke-linejoin:miter;stroke-miterlimit:4;stroke-dasharray:none;stroke-dashoffset:0;stroke-opacity:1;-inkscape-stroke:none;stop-color:#000000;stop-opacity:1"
           id="rect1634"
           width="159.4917"
           height="98.161911"
           x="0.1713241"
           y="-112.37993" />
      </g>
    </clipPath>
    <clipPath
       clipPathUnits="userSpaceOnUse"
       id="clipPath1638">
      <g
         id="g1642">
        <rect
           style="font-variation-settings:normal;opacity:1;vector-effect:none;fill:#c9c9c9;fill-opacity:1;fill-rule:evenodd;stroke-width:0.996121;stroke-linecap:butt;stroke-linejoin:miter;stroke-miterlimit:4;stroke-dasharray:none;stroke-dashoffset:0;stroke-opacity:1;-inkscape-stroke:none;stop-color:#000000;stop-opacity:1"
           id="rect1640"
           width="159.4917"
           height="98.161911"
           x="0.1713241"
           y="-112.37993" />
      </g>
    </clipPath>
    <clipPath
       clipPathUnits="userSpaceOnUse"
       id="clipPath1644">
      <g
         id="g1648">
        <rect
           style="font-variation-settings:normal;opacity:1;vector-effect:none;fill:#c9c9c9;fill-opacity:1;fill-rule:evenodd;stroke-width:0.996121;stroke-linecap:butt;stroke-linejoin:miter;stroke-miterlimit:4;stroke-dasharray:none;stroke-dashoffset:0;stroke-opacity:1;-inkscape-stroke:none;stop-color:#000000;stop-opacity:1"
           id="rect1646"
           width="159.4917"
           height="98.161911"
           x="0.1713241"
           y="-112.37993" />
      </g>
    </clipPath>
    <clipPath
       clipPathUnits="userSpaceOnUse"
       id="clipPath1650">
      <g
         id="g1654">
        <rect
           style="font-variation-settings:normal;opacity:1;vector-effect:none;fill:#c9c9c9;fill-opacity:1;fill-rule:evenodd;stroke-width:0.996121;stroke-linecap:butt;stroke-linejoin:miter;stroke-miterlimit:4;stroke-dasharray:none;stroke-dashoffset:0;stroke-opacity:1;-inkscape-stroke:none;stop-color:#000000;stop-opacity:1"
           id="rect1652"
           width="159.4917"
           height="98.161911"
           x="0.1713241"
           y="-112.37993" />
      </g>
    </clipPath>
    <clipPath
       clipPathUnits="userSpaceOnUse"
       id="clipPath1656">
      <g
         id="g1660">
        <rect
           style="font-variation-settings:normal;opacity:1;vector-effect:none;fill:#c9c9c9;fill-opacity:1;fill-rule:evenodd;stroke-width:0.996121;stroke-linecap:butt;stroke-linejoin:miter;stroke-miterlimit:4;stroke-dasharray:none;stroke-dashoffset:0;stroke-opacity:1;-inkscape-stroke:none;stop-color:#000000;stop-opacity:1"
           id="rect1658"
           width="159.4917"
           height="98.161911"
           x="0.1713241"
           y="-112.37993" />
      </g>
    </clipPath>
  </defs>
  <sodipodi:namedview
     id="namedview550"
     pagecolor="#ffffff"
     bordercolor="#666666"
     borderopacity="1.0"
     inkscape:showpageshadow="2"
     inkscape:pageopacity="0.0"
     inkscape:pagecheckerboard="0"
     inkscape:deskcolor="#d1d1d1"
     inkscape:document-units="in"
     showgrid="false"
     inkscape:zoom="4.3779706"
     inkscape:cx="83.486171"
     inkscape:cy="-67.497027"
     inkscape:window-width="1920"
     inkscape:window-height="991"
     inkscape:window-x="-9"
     inkscape:window-y="-9"
     inkscape:window-maximized="1"
     inkscape:current-layer="svg548" />
  <rect
     width="3"
     x="150.59732"
     y="-87.017113"
     fill="none"
     height="0.99225807"
     id="connector1pin"
     style="stroke-width:0.996122"
     clip-path="url(#clipPath1656)" />
  <line
     id="connector1leg"
     stroke-linecap="round"
     x1="153.27133"
     y1="-87.017113"
     x2="158.27133"
     y2="-87.017113"
     fill="none"
     stroke="#ff0000"
     stroke-width="2.49369"
     clip-path="url(#clipPath1650)" />
  <path
     fill="#1a1a1a"
     d="m 147.62132,17.311877 c 0,1.006149 -1.094,1.704699 -2.055,1.704699 H 2.2303242 c -1.362,0 -2.057,-0.571541 -2.057,-1.704699 V -111.02083 c 0,-0.89799 0.848,-1.70172 2.057,-1.70172 H 145.56632 c 1.113,0 2.055,0.67672 2.055,1.70172 v 62.738495 z"
     id="path347"
     style="stroke-width:0.996122"
     clip-path="url(#clipPath1644)"
     transform="translate(-0.34262177,93.193121)" />
  <path
     fill="none"
     stroke="#c9c9c9"
     stroke-width="0.831263"
     d="m 2.3163242,-65.753022 v -39.726048 c 0,-0.58543 0.388,-1.07163 0.863,-1.07163 0.475,0 0.86,0.48521 0.86,1.07163 l 0.913,19.375827 c 0,0.589401 0.391,1.071639 0.863,1.071639 0.472,0 0.863,-0.482238 0.863,-1.071639 l 0.913,-15.010877 c 0,-0.58841 0.389,-1.07164 0.861,-1.07164 0.475,0 0.861,0.48323 0.861,1.07164 v 11.794969"
     id="path349"
     clip-path="url(#clipPath1638)" />
  <path
     fill="none"
     stroke="#c9c9c9"
     stroke-width="0.831263"
     d="m 144.88632,-102.43184 v 14.344081 c 0,0.589401 0.583,1.071639 1.295,1.071639 h 1.465"
     id="path351"
     clip-path="url(#clipPath1632)" />
  <rect
     width="3.46"
     x="1.8773242"
     y="-69.99691"
     fill="#c9c9c9"
     height="11.931903"
     id="rect353"
     style="stroke-width:0.996122"
     clip-path="url(#clipPath1626)" />
  <rect
     width="2.95"
     x="142.04033"
     y="-102.36834"
     fill="#c9c9c9"
     height="11.935872"
     id="rect355"
     style="stroke-width:0.996122"
     clip-path="url(#clipPath1620)" />
  <g
     id="g393"
     transform="matrix(1,0,0,0.99225806,0.1713242,-112.72255)"
     clip-path="url(#clipPath1614)">
    <path
       fill="#353535"
       d="m 139.273,28.955 c 0,1.784 -1.747,3.24 -3.883,3.24 H 13.464 c -2.136,0 -3.883,-1.456 -3.883,-3.24 V 5.195 c 0,-1.781 1.747,-3.239 3.883,-3.239 H 135.39 c 2.137,0 3.884,1.458 3.884,3.239 z"
       id="path357" />
    <path
       fill="#ce925d"
       d="m 101.94,2.005 h 33.709 c 2.136,0 3.883,1.457 3.883,3.24 v 23.766 c 0,1.782 -1.747,3.24 -3.883,3.24 H 101.94 Z"
       id="path359" />
    <path
       opacity="0.35"
       enable-background="new    "
       d="m 13.758,30.957 c -1.607,0 -3.658,-1.242 -3.658,-2.714 v -6.801 c 0,1.474 2.051,3.784 3.658,3.784 h 121.041 c 1.608,0 3.659,-2.31 3.659,-3.784 v 6.802 c 0,1.474 -2.051,2.714 -3.659,2.714 z"
       id="path361" />
    <path
       fill="#b2b2b2"
       d="m 139.164,16.875 c 0,6.774 -0.31,12.263 -0.691,12.263 -0.381,0 -0.382,-24.524 0,-24.524 0.382,0 0.691,5.489 0.691,12.261"
       id="path363" />
    <path
       fill="#7c7c7c"
       d="m 138.906,21.055 c -0.254,0 -0.254,-9.061 0,-9.061 h -0.008 c 0,0.559 0.543,1.011 1.212,1.011 h 0.549 c 0.668,0 1.211,0.453 1.211,1.012 v 5.011 c 0,0.557 -0.543,1.012 -1.211,1.012 h -0.549 c -0.669,0 -1.212,0.452 -1.212,1.01 z"
       id="path365" />
    <g
       id="g389">
      <g
         id="g387">
        <path
           fill="#e0e0e0"
           d="m 35.434,14.8 -0.515,1.295 h -1.632 l 2.727,-6.852 h 2.322 l 2.781,6.852 H 39.518 L 38.982,14.8 Z m 1.784,-4.55 h -0.022 l -1.401,3.555 h 2.836 z"
           id="path367" />
        <path
           fill="#e0e0e0"
           d="m 27.472,14.8 -0.515,1.295 h -1.632 l 2.727,-6.852 h 2.322 l 2.781,6.852 H 31.556 L 31.021,14.8 Z m 1.784,-4.55 h -0.022 l -1.401,3.555 h 2.836 z"
           id="path369" />
        <path
           fill="#e0e0e0"
           d="m 43.203,14.8 -0.515,1.295 h -1.629 l 2.724,-6.852 h 2.322 l 2.782,6.852 H 47.288 L 46.752,14.8 Z m 1.784,-4.55 h -0.021 l -1.403,3.555 h 2.836 z"
           id="path371" />
        <path
           fill="#e0e0e0"
           d="M 53.417,16.098 V 9.246 h 4.088 c 1.61,0 2.417,0.272 2.417,1.783 0,0.783 -0.173,1.316 -1.169,1.515 v 0.038 c 1.15,0.11 1.369,0.741 1.369,1.606 0,1.517 -0.745,1.911 -2.476,1.911 z m 1.577,-3.984 h 2.264 c 0.891,0 1.085,-0.229 1.085,-0.959 0,-0.731 -0.351,-0.786 -1.128,-0.786 h -2.224 z m 0,2.86 h 2.158 c 0.938,0 1.389,-0.055 1.389,-0.896 0,-0.749 -0.197,-0.968 -1.125,-0.968 h -2.42 z"
           id="path373" />
        <path
           fill="#e0e0e0"
           d="m 64.998,15.494 h -0.033 c -0.274,0.642 -1.117,0.658 -1.786,0.658 -1.303,0 -2.146,-0.229 -2.146,-1.526 0,-1.151 0.723,-1.471 2.146,-1.471 0.702,0 1.391,0.009 1.72,0.548 h 0.044 v -0.622 c 0,-0.777 -0.077,-1.051 -1.227,-1.051 -0.603,0 -1.085,0.048 -1.085,0.667 H 61.25 c 0,-1.398 1.153,-1.451 2.464,-1.451 1.843,0 2.606,0.238 2.606,1.846 v 3.004 h -1.382 z m -2.585,-0.868 c 0,0.676 0.326,0.741 1.259,0.741 0.733,0 1.271,-0.053 1.271,-0.741 0,-0.667 -0.59,-0.685 -1.271,-0.685 -0.701,0 -1.259,0 -1.259,0.685 z"
           id="path375" />
        <path
           fill="#e0e0e0"
           d="m 66.994,11.3 h 0.724 v -1.088 h 1.38 V 11.3 h 2.201 v 0.877 h -2.201 v 2.458 c 0.013,0.439 0.013,0.639 0.59,0.639 0.778,0 0.69,-0.511 0.69,-1.011 h 1.216 c 0.022,1.45 -0.417,1.889 -1.906,1.889 -1.511,0 -1.972,-0.292 -1.972,-1.508 v -2.467 h -0.724 z"
           id="path377" />
        <path
           fill="#e0e0e0"
           d="m 71.652,11.3 h 0.723 v -1.088 h 1.38 V 11.3 h 2.202 v 0.877 h -2.202 v 2.458 c 0.011,0.439 0.011,0.639 0.59,0.639 0.779,0 0.691,-0.511 0.691,-1.011 h 1.216 c 0.021,1.45 -0.417,1.889 -1.907,1.889 -1.509,0 -1.969,-0.292 -1.969,-1.508 v -2.467 h -0.724 z"
           id="path379" />
        <path
           fill="#e0e0e0"
           d="m 82.125,14.572 c 0,1.508 -1.042,1.581 -2.683,1.581 -2.202,0 -2.647,-0.585 -2.647,-2.439 0,-1.719 0.326,-2.465 2.647,-2.465 2.368,0 2.683,0.576 2.683,2.668 h -3.954 c 0,1.032 0.033,1.362 1.27,1.362 0.767,0 1.306,0.009 1.306,-0.706 z m -1.38,-1.389 c 0,-0.987 -0.175,-1.062 -1.306,-1.062 -1.194,0 -1.27,0.21 -1.27,1.062 z"
           id="path381" />
        <path
           fill="#e0e0e0"
           d="m 84.505,11.3 -0.03,0.631 h 0.055 c 0.274,-0.53 0.866,-0.684 1.533,-0.684 1.216,0 1.512,0.604 1.512,1.508 v 0.384 h -1.292 v -0.247 c 0,-0.484 -0.056,-0.768 -0.702,-0.768 -0.821,0 -1.062,0.396 -1.042,1.015 V 16.1 h -1.381 v -4.798 z"
           id="path383" />
        <path
           fill="#e0e0e0"
           d="m 91.702,16.29 c -0.32,1.088 -0.584,1.935 -2.19,1.935 -0.197,0 -0.394,-0.025 -0.591,-0.037 V 17.32 c 0.099,0.009 0.201,0.028 0.295,0.028 0.865,0 0.997,-0.695 1.12,-1.254 h -0.667 l -1.895,-4.798 h 1.427 l 1.456,4.085 h 0.02 l 1.119,-4.085 h 1.402 z"
           id="path385" />
      </g>
    </g>
    <path
       opacity="0.35"
       fill="#ffffff"
       enable-background="new    "
       d="m 135.506,10.888 c 0,1.08 -1.406,1.956 -3.141,1.956 H 16.089 c -1.732,0 -3.14,-0.8 -3.14,-1.88 V 5.069 c 0,-1.081 1.406,-2.033 3.14,-2.033 h 116.275 c 1.735,0 3.143,0.876 3.143,1.957 v 5.895 z"
       id="path391" />
  </g>
  <g
     id="g431"
     transform="matrix(1,0,0,0.99225806,0.1713242,-112.72255)"
     clip-path="url(#clipPath1608)">
    <path
       fill="#353535"
       d="m 7.764,61.726 c 0,1.781 1.746,3.24 3.883,3.24 h 121.924 c 2.136,0 3.883,-1.459 3.883,-3.24 V 37.963 c 0,-1.781 -1.747,-3.24 -3.883,-3.24 H 11.647 c -2.137,0 -3.883,1.458 -3.883,3.24 z"
       id="path395" />
    <path
       fill="#ce925d"
       d="M 45.356,34.726 H 11.647 c -2.137,0 -3.883,1.458 -3.883,3.239 v 23.763 c 0,1.781 1.746,3.24 3.883,3.24 h 33.709 z"
       id="path397" />
    <path
       opacity="0.35"
       enable-background="new    "
       d="m 133.278,63.729 c 1.607,0 3.657,-1.244 3.657,-2.715 v -6.801 c 0,1.473 -2.05,3.782 -3.657,3.782 H 12.235 c -1.607,0 -3.658,-2.309 -3.658,-3.782 v 6.801 c 0,1.474 2.051,2.715 3.658,2.715 z"
       id="path399" />
    <path
       fill="#b2b2b2"
       d="m 7.873,49.645 c 0,6.774 0.311,12.263 0.693,12.263 0.383,0 0.383,-24.524 0,-24.524 -0.383,0 -0.693,5.49 -0.693,12.261"
       id="path401" />
    <path
       fill="#7c7c7c"
       d="m 8.131,53.827 c 0.253,0 0.253,-9.062 0,-9.062 l 0.007,10e-4 c 0,0.558 -0.542,1.011 -1.209,1.011 H 6.377 c -0.666,0 -1.212,0.455 -1.212,1.012 V 51.8 c 0,0.557 0.546,1.012 1.212,1.012 h 0.551 c 0.667,0 1.209,0.452 1.209,1.012 z"
       id="path403" />
    <g
       id="g427">
      <g
         id="g425">
        <path
           fill="#e0e0e0"
           d="m 112.387,50.167 0.516,-1.297 h 1.632 l -2.728,6.853 h -2.322 l -2.781,-6.853 h 1.6 l 0.537,1.297 z m -1.784,4.55 h 0.021 l 1.402,-3.555 h -2.837 z"
           id="path405" />
        <path
           fill="#e0e0e0"
           d="m 120.387,50.167 0.516,-1.297 h 1.632 l -2.728,6.853 h -2.322 l -2.781,-6.853 h 1.6 l 0.537,1.297 z m -1.784,4.55 h 0.021 l 1.402,-3.555 h -2.837 z"
           id="path407" />
        <path
           fill="#e0e0e0"
           d="m 104.618,50.167 0.515,-1.297 h 1.633 l -2.728,6.853 h -2.322 L 98.935,48.87 h 1.599 l 0.537,1.297 z m -1.785,4.55 h 0.022 l 1.401,-3.555 h -2.838 z"
           id="path409" />
        <path
           fill="#e0e0e0"
           d="m 94.406,48.867 v 6.853 h -4.09 c -1.609,0 -2.417,-0.271 -2.417,-1.782 0,-0.784 0.173,-1.316 1.169,-1.514 v -0.039 c -1.15,-0.11 -1.368,-0.741 -1.368,-1.606 0,-1.518 0.742,-1.91 2.477,-1.91 z m -1.578,1.125 h -2.157 c -0.939,0 -1.39,0.055 -1.39,0.895 0,0.749 0.198,0.969 1.127,0.969 h 2.418 z m 0,2.86 h -2.266 c -0.89,0 -1.084,0.228 -1.084,0.96 0,0.731 0.35,0.787 1.127,0.787 h 2.224 z"
           id="path411" />
        <path
           fill="#e0e0e0"
           d="m 82.824,49.471 h 0.033 c 0.273,-0.643 1.116,-0.658 1.785,-0.658 1.304,0 2.148,0.228 2.148,1.525 0,1.152 -0.723,1.472 -2.148,1.472 -0.701,0 -1.39,-0.009 -1.718,-0.549 H 82.88 v 0.622 c 0,0.777 0.077,1.05 1.226,1.05 0.603,0 1.085,-0.046 1.085,-0.666 h 1.384 c 0,1.397 -1.151,1.45 -2.466,1.45 -1.838,0 -2.605,-0.238 -2.605,-1.847 v -3.005 h 1.38 z m 2.584,0.868 c 0,-0.676 -0.326,-0.74 -1.259,-0.74 -0.735,0 -1.271,0.052 -1.271,0.74 0,0.667 0.589,0.686 1.271,0.686 0.702,0 1.259,0 1.259,-0.686 z"
           id="path413" />
        <path
           fill="#e0e0e0"
           d="m 80.828,53.666 h -0.723 v 1.087 H 78.724 V 53.666 H 76.523 V 52.79 h 2.201 v -2.46 c -0.013,-0.439 -0.013,-0.642 -0.59,-0.642 -0.778,0 -0.69,0.513 -0.69,1.016 h -1.215 c -0.022,-1.452 0.417,-1.89 1.906,-1.89 1.511,0 1.972,0.292 1.972,1.507 v 2.467 h 0.723 z"
           id="path415" />
        <path
           fill="#e0e0e0"
           d="m 76.17,53.666 h -0.723 v 1.087 h -1.38 V 53.666 H 71.865 V 52.79 h 2.202 v -2.46 c -0.011,-0.439 -0.011,-0.642 -0.589,-0.642 -0.78,0 -0.691,0.513 -0.691,1.016 H 71.57 c -0.02,-1.452 0.418,-1.89 1.908,-1.89 1.508,0 1.969,0.292 1.969,1.507 v 2.467 h 0.723 z"
           id="path417" />
        <path
           fill="#e0e0e0"
           d="m 65.697,50.394 c 0,-1.508 1.042,-1.581 2.683,-1.581 2.202,0 2.647,0.585 2.647,2.44 0,1.72 -0.326,2.466 -2.647,2.466 -2.368,0 -2.683,-0.576 -2.683,-2.669 h 3.954 c 0,-1.032 -0.033,-1.362 -1.27,-1.362 -0.768,0 -1.306,-0.009 -1.306,0.706 z m 1.38,1.389 c 0,0.987 0.175,1.063 1.306,1.063 1.195,0 1.271,-0.209 1.271,-1.063 z"
           id="path419" />
        <path
           fill="#e0e0e0"
           d="m 63.317,53.666 0.03,-0.631 h -0.055 c -0.274,0.531 -0.866,0.684 -1.534,0.684 -1.215,0 -1.511,-0.604 -1.511,-1.508 v -0.384 h 1.292 v 0.247 c 0,0.484 0.055,0.768 0.701,0.768 0.821,0 1.062,-0.396 1.043,-1.014 v -2.961 h 1.38 v 4.797 z"
           id="path421" />
        <path
           fill="#e0e0e0"
           d="m 56.12,48.674 c 0.32,-1.088 0.583,-1.936 2.189,-1.936 0.197,0 0.395,0.025 0.592,0.036 v 0.869 c -0.099,-0.009 -0.2,-0.027 -0.296,-0.027 -0.866,0 -0.997,0.695 -1.121,1.254 h 0.668 l 1.895,4.798 H 58.62 l -1.457,-4.085 h -0.021 l -1.118,4.085 h -1.402 z"
           id="path423" />
      </g>
    </g>
    <path
       opacity="0.35"
       fill="#ffffff"
       enable-background="new    "
       d="m 11.53,43.658 c 0,1.082 1.406,1.955 3.139,1.955 h 116.276 c 1.732,0 3.141,-0.799 3.141,-1.879 v -5.895 c 0,-1.081 -1.408,-2.033 -3.141,-2.033 H 14.671 c -1.732,0 -3.14,0.876 -3.14,1.957 z"
       id="path429" />
  </g>
  <g
     id="g523"
     transform="matrix(1,0,0,0.99225806,0.1713242,-112.72255)"
     clip-path="url(#clipPath1602)">
    <path
       fill="#1a1a1a"
       d="m 7.357,0.109 1.79,1.16 c 0,0 1.276,1.206 2.389,2.492 0.663,0.767 1.218,3.466 2.036,4.151 0.821,0.683 1.993,0.831 2.987,0.831 0.277,0 23.058,0 23.335,0 0.995,0 2.164,-0.145 2.986,-0.831 0.82,-0.685 1.378,-3.384 2.039,-4.151 1.111,-1.286 2.389,-2.492 2.389,-2.492 l 1.79,-1.16 z"
       id="path519" />
    <path
       opacity="0.2"
       fill="#ffffff"
       enable-background="new    "
       d="m 9.941,0.984 0.466,0.145 c 0,0 0,0.539 1.037,1.111 0.623,0.342 1.138,0.492 1.904,0.798 0.768,0.305 1.858,0.37 2.791,0.37 0.258,0 23.918,0 24.181,0 0.932,0 2.021,-0.065 2.787,-0.37 0.768,-0.306 1.286,-0.456 1.904,-0.798 1.041,-0.573 1.04,-1.111 1.04,-1.111 l 0.458,-0.144 z"
       id="path521" />
  </g>
  <g
     id="g529"
     transform="matrix(1,0,0,0.99225806,0.1713242,-112.72255)"
     clip-path="url(#clipPath1596)">
    <path
       fill="#1a1a1a"
       d="m 98.374,0.109 1.79,1.16 c 0,0 1.276,1.206 2.389,2.492 0.663,0.767 1.219,3.466 2.036,4.151 0.82,0.683 1.993,0.831 2.987,0.831 0.278,0 23.058,0 23.334,0 0.996,0 2.165,-0.145 2.988,-0.831 0.818,-0.685 1.376,-3.384 2.036,-4.151 1.112,-1.286 2.39,-2.492 2.39,-2.492 l 1.79,-1.16 z"
       id="path525" />
    <path
       opacity="0.2"
       fill="#ffffff"
       enable-background="new    "
       d="m 100.958,0.984 0.468,0.145 c 0,0 0,0.539 1.036,1.111 0.623,0.342 1.138,0.492 1.904,0.798 0.771,0.305 1.858,0.37 2.791,0.37 0.258,0 23.919,0 24.182,0 0.932,0 2.021,-0.065 2.788,-0.37 0.768,-0.306 1.284,-0.456 1.905,-0.798 1.039,-0.573 1.038,-1.111 1.038,-1.111 l 0.458,-0.144 z"
       id="path527" />
  </g>
  <path
     fill="none"
     stroke="#ff0000"
     stroke-width="2.49369"
     d="m 147.63832,-87.017113 h 5.633"
     id="path545"
     clip-path="url(#clipPath1590)" />
  <g
     inkscape:groupmode="layer"
     id="layer3"
     inkscape:label="Layer 1"
     style="display:inline">
    <path
       fill="none"
       stroke="#000000"
       stroke-width="2.49369"
       d="m 149.05181,65.526936 h 5.633"
       id="path543"
       style="display:inline" />
    <rect
       style="font-variation-settings:normal;opacity:1;vector-effect:none;fill:#c9c9c9;fill-opacity:1;fill-rule:evenodd;stroke-width:0.996122;stroke-linecap:butt;stroke-linejoin:miter;stroke-miterlimit:4;stroke-dasharray:none;stroke-dashoffset:0;stroke-opacity:1;-inkscape-stroke:none;stop-color:#000000;stop-opacity:1"
       id="rect2509"
       width="136.70717"
       height="1.0278735"
       x="5.8246164"
       y="66.811775" />
    <rect
       style="font-variation-settings:normal;opacity:1;vector-effect:none;fill:#c9c9c9;fill-opacity:1;fill-rule:evenodd;stroke-width:0.996122;stroke-linecap:butt;stroke-linejoin:miter;stroke-miterlimit:4;stroke-dasharray:none;stroke-dashoffset:0;stroke-opacity:1;-inkscape-stroke:none;stop-color:#000000;stop-opacity:1"
       id="rect2511"
       width="3.5975571"
       height="21.585344"
       x="138.93423"
       y="45.569057" />
    <rect
       style="font-variation-settings:normal;opacity:1;vector-effect:none;fill:#c9c9c9;fill-opacity:1;fill-rule:evenodd;stroke-width:0.996122;stroke-linecap:butt;stroke-linejoin:miter;stroke-miterlimit:4;stroke-dasharray:none;stroke-dashoffset:0;stroke-opacity:1;-inkscape-stroke:none;stop-color:#000000;stop-opacity:1"
       id="rect2513"
       width="2.9123082"
       height="23.127153"
       x="3.7688694"
       y="66.811775" />
  </g>
  <g
     id="nizhbat"
     style="display:inline"
     transform="translate(1.4982061,-31.998497)">
    <path
       fill="#353535"
       d="m 7.764,127.822 c 0,1.78 1.746,3.24 3.883,3.24 h 121.924 c 2.136,0 3.883,-1.46 3.883,-3.24 v -23.763 c 0,-1.781 -1.747,-3.24 -3.883,-3.24 H 11.647 c -2.137,0 -3.883,1.459 -3.883,3.24 z"
       id="path481" />
    <path
       fill="#ce925d"
       d="M 45.356,100.822 H 11.647 c -2.137,0 -3.883,1.458 -3.883,3.239 v 23.764 c 0,1.781 1.746,3.239 3.883,3.239 h 33.709 z"
       id="path483" />
    <path
       opacity="0.35"
       enable-background="new    "
       d="m 133.278,129.825 c 1.607,0 3.657,-1.244 3.657,-2.715 v -6.802 c 0,1.474 -2.05,3.782 -3.657,3.782 H 12.235 c -1.607,0 -3.658,-2.309 -3.658,-3.782 v 6.802 c 0,1.474 2.051,2.715 3.658,2.715 z"
       id="path485" />
    <path
       fill="#b2b2b2"
       d="m 7.873,115.741 c 0,6.773 0.311,12.264 0.693,12.264 0.383,0 0.383,-24.525 0,-24.525 -0.383,-0.001 -0.693,5.489 -0.693,12.261"
       id="path487" />
    <path
       fill="#7c7c7c"
       d="m 8.131,119.922 c 0.253,0 0.253,-9.062 0,-9.062 l 0.007,0.001 c 0,0.559 -0.542,1.011 -1.209,1.011 H 6.377 c -0.666,0 -1.212,0.455 -1.212,1.012 v 5.012 c 0,0.557 0.546,1.012 1.212,1.012 h 0.551 c 0.667,0 1.209,0.452 1.209,1.013 z"
       id="path489" />
    <g
       id="g513">
      <g
         id="g511">
        <path
           fill="#e0e0e0"
           d="m 112.387,116.262 0.516,-1.297 h 1.632 l -2.728,6.853 h -2.322 l -2.781,-6.853 h 1.6 l 0.537,1.297 z m -1.784,4.551 h 0.021 l 1.402,-3.555 h -2.837 z"
           id="path491" />
        <path
           fill="#e0e0e0"
           d="m 120.387,116.262 0.516,-1.297 h 1.632 l -2.728,6.853 h -2.322 l -2.781,-6.853 h 1.6 l 0.537,1.297 z m -1.784,4.551 h 0.021 l 1.402,-3.555 h -2.837 z"
           id="path493" />
        <path
           fill="#e0e0e0"
           d="m 104.618,116.262 0.515,-1.297 h 1.633 l -2.728,6.853 h -2.322 l -2.781,-6.853 h 1.599 l 0.537,1.297 z m -1.785,4.551 h 0.022 l 1.401,-3.555 h -2.838 z"
           id="path495" />
        <path
           fill="#e0e0e0"
           d="m 94.406,114.963 v 6.852 h -4.09 c -1.609,0 -2.417,-0.271 -2.417,-1.781 0,-0.784 0.173,-1.316 1.169,-1.515 v -0.039 c -1.15,-0.11 -1.368,-0.741 -1.368,-1.606 0,-1.518 0.742,-1.91 2.477,-1.91 h 4.229 z m -1.578,1.125 h -2.157 c -0.939,0 -1.39,0.055 -1.39,0.895 0,0.749 0.198,0.969 1.127,0.969 h 2.418 z m 0,2.86 h -2.266 c -0.89,0 -1.084,0.229 -1.084,0.96 0,0.731 0.35,0.786 1.127,0.786 h 2.224 z"
           id="path497" />
        <path
           fill="#e0e0e0"
           d="m 82.824,115.567 h 0.033 c 0.273,-0.643 1.116,-0.658 1.785,-0.658 1.304,0 2.148,0.228 2.148,1.525 0,1.151 -0.723,1.472 -2.148,1.472 -0.701,0 -1.39,-0.009 -1.718,-0.55 H 82.88 v 0.623 c 0,0.776 0.077,1.05 1.226,1.05 0.603,0 1.085,-0.046 1.085,-0.666 h 1.384 c 0,1.397 -1.151,1.45 -2.466,1.45 -1.838,0 -2.605,-0.238 -2.605,-1.847 v -3.005 h 1.38 z m 2.584,0.867 c 0,-0.676 -0.326,-0.739 -1.259,-0.739 -0.735,0 -1.271,0.052 -1.271,0.739 0,0.668 0.589,0.686 1.271,0.686 0.702,0.002 1.259,0.002 1.259,-0.686 z"
           id="path499" />
        <path
           fill="#e0e0e0"
           d="m 80.828,119.762 h -0.723 v 1.087 h -1.381 v -1.087 h -2.201 v -0.877 h 2.201 v -2.459 c -0.013,-0.439 -0.013,-0.643 -0.59,-0.643 -0.778,0 -0.69,0.514 -0.69,1.016 h -1.215 c -0.022,-1.451 0.417,-1.89 1.906,-1.89 1.511,0 1.972,0.292 1.972,1.507 v 2.467 h 0.723 z"
           id="path501" />
        <path
           fill="#e0e0e0"
           d="m 76.17,119.762 h -0.723 v 1.087 h -1.38 v -1.087 h -2.202 v -0.877 h 2.202 v -2.459 c -0.011,-0.439 -0.011,-0.643 -0.589,-0.643 -0.78,0 -0.691,0.514 -0.691,1.016 H 71.57 c -0.02,-1.451 0.418,-1.89 1.908,-1.89 1.508,0 1.969,0.292 1.969,1.507 v 2.467 h 0.723 z"
           id="path503" />
        <path
           fill="#e0e0e0"
           d="m 65.697,116.489 c 0,-1.508 1.042,-1.58 2.683,-1.58 2.202,0 2.647,0.585 2.647,2.439 0,1.721 -0.326,2.467 -2.647,2.467 -2.368,0 -2.683,-0.576 -2.683,-2.67 h 3.954 c 0,-1.031 -0.033,-1.361 -1.27,-1.361 -0.768,0 -1.306,-0.01 -1.306,0.705 z m 1.38,1.39 c 0,0.986 0.175,1.062 1.306,1.062 1.195,0 1.271,-0.209 1.271,-1.062 z"
           id="path505" />
        <path
           fill="#e0e0e0"
           d="m 63.317,119.762 0.03,-0.631 h -0.055 c -0.274,0.531 -0.866,0.684 -1.534,0.684 -1.215,0 -1.511,-0.604 -1.511,-1.508 v -0.385 h 1.292 v 0.246 c 0,0.484 0.055,0.768 0.701,0.768 0.821,0 1.062,-0.396 1.043,-1.014 v -2.961 h 1.38 v 4.797 z"
           id="path507" />
        <path
           fill="#e0e0e0"
           d="m 56.12,114.77 c 0.32,-1.088 0.583,-1.936 2.189,-1.936 0.197,0 0.395,0.025 0.592,0.036 v 0.868 c -0.099,-0.009 -0.2,-0.027 -0.296,-0.027 -0.866,0 -0.997,0.695 -1.121,1.254 h 0.668 l 1.895,4.799 H 58.62 l -1.457,-4.086 h -0.021 l -1.118,4.086 h -1.402 z"
           id="path509" />
      </g>
    </g>
    <path
       opacity="0.35"
       fill="#ffffff"
       enable-background="new    "
       d="m 11.53,109.753 c 0,1.082 1.406,1.955 3.139,1.955 h 116.276 c 1.732,0 3.141,-0.799 3.141,-1.88 v -5.895 c 0,-1.08 -1.408,-2.033 -3.141,-2.033 H 14.671 c -1.732,0 -3.14,0.877 -3.14,1.957 z"
       id="path515" />
  </g>
  <path
     fill="#1a1a1a"
     d="m 101.18997,101.67409 1.79,-1.15201 c 0,0 1.276,-1.195666 2.389,-2.472703 0.663,-0.76007 1.219,-3.439167 2.036,-4.117871 0.82,-0.679697 1.993,-0.823574 2.987,-0.823574 0.278,0 23.058,0 23.334,0 0.996,0 2.165,0.141893 2.988,0.823574 0.819,0.680689 1.376,3.358794 2.036,4.117871 1.112,1.277037 2.39,2.472703 2.39,2.472703 l 1.79,1.15201 z"
     id="path537"
     style="display:inline;stroke-width:0.996122"
     clip-path="url(#clipPath4028)" />
  <path
     fill="none"
     stroke="#c9c9c9"
     stroke-width="0.8345"
     d="m 139.40422,74.328321 v 11.887 c 0,0.594 0.39,1.081 0.861,1.081 0.476,0 0.862,-0.487 0.862,-1.081 l 0.914,-15.128 c 0,-0.594 0.387,-1.08 0.861,-1.08 0.474,0 0.86,0.486 0.86,1.08 l 0.913,19.528 c 0,0.592 0.391,1.078 0.862,1.078 0.473,0 0.863,-0.486 0.863,-1.078 v -23.965 c 0,-0.59 0.584,-1.079 1.295,-1.079 h 1.465"
     id="pravPrukont"
     style="display:inline" />
  <rect
     width="2.9989998"
     x="134.86505"
     y="105.88878"
     fill="none"
     height="0.99225807"
     id="connector0pin"
     style="display:inline;stroke-width:0.996122" />
  <rect
     width="2.9989998"
     x="149.5265"
     y="66.145432"
     fill="none"
     height="0.99225807"
     id="connector0pin-0"
     style="display:inline;stroke-width:0.996122" />
  <line
     id="connector0leg"
     stroke-linecap="round"
     x1="154.67899"
     y1="65.526939"
     x2="159.67899"
     y2="65.526939"
     fill="none"
     stroke="#000000"
     stroke-width="2.49369"
     style="display:inline" />
  <g
     id="g535"
     style="display:inline"
     transform="matrix(0.99999996,0,0,0.99225809,0.55295902,-32.377749)">
    <path
       fill="#1a1a1a"
       d="m 7.357,132.767 1.79,-1.161 c 0,0 1.276,-1.205 2.389,-2.492 0.663,-0.766 1.218,-3.466 2.036,-4.15 0.821,-0.685 1.993,-0.83 2.987,-0.83 0.277,0 23.058,0 23.335,0 0.995,0 2.164,0.143 2.986,0.83 0.82,0.685 1.378,3.385 2.039,4.15 1.111,1.287 2.389,2.492 2.389,2.492 l 1.79,1.161 z"
       id="path531" />
    <path
       d="m 9.941,131.893 0.466,-0.145 c 0,0 0,-0.539 1.037,-1.111 0.623,-0.344 1.138,-0.492 1.904,-0.798 0.768,-0.306 1.858,-0.37 2.791,-0.37 0.258,0 23.918,0 24.181,0 0.932,0 2.021,0.064 2.787,0.37 0.768,0.304 1.286,0.454 1.904,0.798 1.041,0.572 1.04,1.111 1.04,1.111 l 0.458,0.141 z"
       id="path533" />
  </g>
</svg>
