<?xml version='1.0' encoding='UTF-8' standalone='no'?>
<!-- Created with Inkscape (http://www.inkscape.org/) -->
<svg xmlns="http://www.w3.org/2000/svg" width="210mm" viewBox="0 0 210 297" height="297mm" version="1.1"  gorn="0" id="svg777">
    <desc >
        <referenceFile >Battery3aaa.svg</referenceFile>
    </desc>
    <defs  id="defs774">
        <clipPath clipPathUnits="userSpaceOnUse"  id="clipPath1656">
            <g  gorn="0.1.0.0" id="g1660">
                <rect stroke-width="0.996121" width="159.4917" height="98.161911" x="0.1713241"  y="-112.37993" stroke="none" gorn="0.1.0.0.0" id="rect1658" style="font-variation-settings:normal;opacity:1;vector-effect:none;fill-rule:evenodd;stroke-linecap:butt;stroke-linejoin:miter;stroke-miterlimit:4;stroke-dasharray:none;stroke-dashoffset:0;-inkscape-stop-color:#000000;stop-opacity:1" fill="#c9c9c9" stroke-opacity="1" fill-opacity="1"/>
            </g>
        </clipPath>
        <clipPath clipPathUnits="userSpaceOnUse"  id="clipPath1626">
            <g  gorn="0.1.1.0" id="g1630">
                <rect stroke-width="0.996121" width="159.4917" height="98.161911" x="0.1713241"  y="-112.37993" stroke="none" gorn="0.1.1.0.0" id="rect1628" style="font-variation-settings:normal;opacity:1;vector-effect:none;fill-rule:evenodd;stroke-linecap:butt;stroke-linejoin:miter;stroke-miterlimit:4;stroke-dasharray:none;stroke-dashoffset:0;-inkscape-stop-color:#000000;stop-opacity:1" fill="#c9c9c9" stroke-opacity="1" fill-opacity="1"/>
            </g>
        </clipPath>
        <clipPath clipPathUnits="userSpaceOnUse"  id="clipPath2414">
            <g  gorn="0.1.2.0" id="g2420">
                <g  transform="matrix(0.3527806,0,0,0.35278062,16.783265,48.652055)">
                    <g >
                        <g  gorn="0.1.2.0.0.0.0" id="g2418">
                            <rect stroke-width="0.996121" width="159.4917" height="98.161911" x="0.1713241"  y="-112.37993" stroke="none" gorn="0.1.2.0.0.0.0.0" id="rect2416" style="font-variation-settings:normal;opacity:1;vector-effect:none;fill-rule:evenodd;stroke-linecap:butt;stroke-linejoin:miter;stroke-miterlimit:4;stroke-dasharray:none;stroke-dashoffset:0;-inkscape-stop-color:#000000;stop-opacity:1" fill="#c9c9c9" stroke-opacity="1" fill-opacity="1"/>
                        </g>
                    </g>
                </g>
            </g>
        </clipPath>
        <clipPath clipPathUnits="userSpaceOnUse"  id="clipPath2446">
            <g  gorn="0.1.3.0" id="g2452">
                <g  transform="matrix(0.3527806,0,0,0.35278062,16.783265,48.652055)">
                    <g >
                        <g  gorn="0.1.3.0.0.0.0" id="g2450">
                            <rect stroke-width="0.996121" width="159.4917" height="98.161911" x="0.1713241"  y="-112.37993" stroke="none" gorn="0.1.3.0.0.0.0.0" id="rect2448" style="font-variation-settings:normal;opacity:1;vector-effect:none;fill-rule:evenodd;stroke-linecap:butt;stroke-linejoin:miter;stroke-miterlimit:4;stroke-dasharray:none;stroke-dashoffset:0;-inkscape-stop-color:#000000;stop-opacity:1" fill="#c9c9c9" stroke-opacity="1" fill-opacity="1"/>
                        </g>
                    </g>
                </g>
            </g>
        </clipPath>
        <clipPath clipPathUnits="userSpaceOnUse"  id="clipPath2502">
            <g  transform="matrix(2.834623,0,0,2.8567398,-47.745553,-25.384208)">
                <g >
                    <g  gorn="0.1.4.0.0.0" id="g2508">
                        <g  transform="matrix(0.3527806,0,0,0.35278062,16.783265,48.652055)">
                            <g >
                                <g  gorn="0.1.4.0.0.0.0.0.0" id="g2506">
                                    <rect stroke-width="0.996121" width="159.4917" height="98.161911" x="0.1713241"  y="-112.37993" stroke="none" gorn="0.1.4.0.0.0.0.0.0.0" id="rect2504" style="font-variation-settings:normal;opacity:1;vector-effect:none;fill-rule:evenodd;stroke-linecap:butt;stroke-linejoin:miter;stroke-miterlimit:4;stroke-dasharray:none;stroke-dashoffset:0;-inkscape-stop-color:#000000;stop-opacity:1" fill="#c9c9c9" stroke-opacity="1" fill-opacity="1"/>
                                </g>
                            </g>
                        </g>
                    </g>
                </g>
            </g>
        </clipPath>
        <clipPath clipPathUnits="userSpaceOnUse"  id="clipPath2534">
            <g  gorn="0.1.5.0" id="g2540">
                <g  transform="matrix(0.3527806,0,0,0.35278062,16.783265,48.652055)">
                    <g >
                        <g  gorn="0.1.5.0.0.0.0" id="g2538">
                            <rect stroke-width="0.996121" width="159.4917" height="98.161911" x="0.1713241"  y="-112.37993" stroke="none" gorn="0.1.5.0.0.0.0.0" id="rect2536" style="font-variation-settings:normal;opacity:1;vector-effect:none;fill-rule:evenodd;stroke-linecap:butt;stroke-linejoin:miter;stroke-miterlimit:4;stroke-dasharray:none;stroke-dashoffset:0;-inkscape-stop-color:#000000;stop-opacity:1" fill="#c9c9c9" stroke-opacity="1" fill-opacity="1"/>
                        </g>
                    </g>
                </g>
            </g>
        </clipPath>
        <clipPath clipPathUnits="userSpaceOnUse"  id="clipPath2582">
            <g  gorn="0.1.6.0" id="g2588">
                <g  transform="matrix(0.3527806,0,0,0.35278062,16.783265,48.652055)">
                    <g >
                        <g  gorn="0.1.6.0.0.0.0" id="g2586">
                            <rect stroke-width="0.996121" width="159.4917" height="98.161911" x="0.1713241"  y="-112.37993" stroke="none" gorn="0.1.6.0.0.0.0.0" id="rect2584" style="font-variation-settings:normal;opacity:1;vector-effect:none;fill-rule:evenodd;stroke-linecap:butt;stroke-linejoin:miter;stroke-miterlimit:4;stroke-dasharray:none;stroke-dashoffset:0;-inkscape-stop-color:#000000;stop-opacity:1" fill="#c9c9c9" stroke-opacity="1" fill-opacity="1"/>
                        </g>
                    </g>
                </g>
            </g>
        </clipPath>
    </defs>
    <g  gorn="0.2" id="layer1">
        <rect stroke-width="0.351413" width="48.227638" height="0.36261383" x="18.440828"  y="31.898308" stroke="none" gorn="0.2.0" id="rect2509" style="font-variation-settings:normal;display:inline;vector-effect:none;fill-rule:evenodd;stroke-linecap:butt;stroke-linejoin:miter;stroke-miterlimit:4;stroke-dasharray:none;stroke-dashoffset:0;-inkscape-stop-color:#000000" fill="#c9c9c9" stroke-opacity="1" fill-opacity="1"/>
        <rect stroke-width="0.351413" width="1.2691483" height="7.6148906" x="65.39933"  y="24.311939" stroke="none" gorn="0.2.1" id="rect2511-2" style="font-variation-settings:normal;display:inline;vector-effect:none;fill-rule:evenodd;stroke-linecap:butt;stroke-linejoin:miter;stroke-miterlimit:4;stroke-dasharray:none;stroke-dashoffset:0;-inkscape-stop-color:#000000" fill="#c9c9c9" stroke-opacity="1" fill-opacity="1"/>
        <rect stroke-width="0.351413" width="1.0274059" height="8.1588106" x="17.715601"  y="31.898308" stroke="none" gorn="0.2.2" id="rect2513" style="font-variation-settings:normal;display:inline;vector-effect:none;fill-rule:evenodd;stroke-linecap:butt;stroke-linejoin:miter;stroke-miterlimit:4;stroke-dasharray:none;stroke-dashoffset:0;-inkscape-stop-color:#000000" fill="#c9c9c9" stroke-opacity="1" fill-opacity="1"/>
        <path stroke-width="0.352781"  gorn="0.2.3" d="m 19.653547,42.133076 c 0,0.627949 0.615955,1.143009 1.369847,1.143009 h 43.012422 c 0.753539,0 1.369847,-0.51506 1.369847,-1.143009 V 33.74995 c 0,-0.628302 -0.616308,-1.143009 -1.369847,-1.143009 H 21.023394 c -0.753892,0 -1.369847,0.514707 -1.369847,1.143009 z" id="path481" fill="#353535"/>
        <path stroke-width="0.352781"  gorn="0.2.4" d="M 32.915275,32.607999 H 21.023394 c -0.753892,0 -1.369847,0.514354 -1.369847,1.142657 v 8.383478 c 0,0.628302 0.615955,1.142656 1.369847,1.142656 h 11.891881 z" id="path483" fill="#ce925d"/>
        <path stroke-width="0.352781" opacity="0.35"  gorn="0.2.5" enable-background="new    " d="m 63.932451,42.839695 c 0.566918,0 1.290118,-0.438859 1.290118,-0.957799 v -2.399614 c 0,0.519999 -0.7232,1.334216 -1.290118,1.334216 H 21.230829 c -0.566919,0 -1.290472,-0.81457 -1.290472,-1.334216 v 2.399614 c 0,0.519998 0.723553,0.957799 1.290472,0.957799 z" id="path485"/>
        <path stroke-width="0.352781"  gorn="0.2.6" d="m 19.692,37.871133 c 0,2.389383 0.109714,4.326501 0.244477,4.326501 0.135115,0 0.135115,-8.651944 0,-8.651944 C 19.801362,33.545337 19.692,35.482103 19.692,37.871133" id="path487" fill="#b2b2b2"/>
        <path stroke-width="0.352781"  gorn="0.2.7" d="m 19.783017,39.346109 c 0.08925,0 0.08925,-3.196898 0,-3.196898 l 0.0025,3.53e-4 c 0,0.197204 -0.191208,0.356661 -0.426512,0.356661 H 19.16424 c -0.234952,0 -0.42757,0.160515 -0.42757,0.357014 v 1.768136 c 0,0.196499 0.192618,0.357014 0.42757,0.357014 h 0.194382 c 0.235305,0 0.426512,0.159457 0.426512,0.357367 z" id="path489" fill="#7c7c7c"/>
        <g  transform="matrix(0.3527806,0,0,0.3527806,16.914558,-2.9600463)">
            <g >
                <g  gorn="0.2.8.0.0" id="g513">
                    <g  gorn="0.2.8.0.0.0" id="g511">
                        <path  gorn="0.2.8.0.0.0.0" d="m 112.387,116.262 0.516,-1.297 h 1.632 l -2.728,6.853 h -2.322 l -2.781,-6.853 h 1.6 l 0.537,1.297 z m -1.784,4.551 h 0.021 l 1.402,-3.555 h -2.837 z" id="path491" fill="#e0e0e0"/>
                        <path  gorn="0.2.8.0.0.0.1" d="m 120.387,116.262 0.516,-1.297 h 1.632 l -2.728,6.853 h -2.322 l -2.781,-6.853 h 1.6 l 0.537,1.297 z m -1.784,4.551 h 0.021 l 1.402,-3.555 h -2.837 z" id="path493" fill="#e0e0e0"/>
                        <path  gorn="0.2.8.0.0.0.2" d="m 104.618,116.262 0.515,-1.297 h 1.633 l -2.728,6.853 h -2.322 l -2.781,-6.853 h 1.599 l 0.537,1.297 z m -1.785,4.551 h 0.022 l 1.401,-3.555 h -2.838 z" id="path495" fill="#e0e0e0"/>
                        <path  gorn="0.2.8.0.0.0.3" d="m 94.406,114.963 v 6.852 h -4.09 c -1.609,0 -2.417,-0.271 -2.417,-1.781 0,-0.784 0.173,-1.316 1.169,-1.515 v -0.039 c -1.15,-0.11 -1.368,-0.741 -1.368,-1.606 0,-1.518 0.742,-1.91 2.477,-1.91 h 4.229 z m -1.578,1.125 h -2.157 c -0.939,0 -1.39,0.055 -1.39,0.895 0,0.749 0.198,0.969 1.127,0.969 h 2.418 z m 0,2.86 h -2.266 c -0.89,0 -1.084,0.229 -1.084,0.96 0,0.731 0.35,0.786 1.127,0.786 h 2.224 z" id="path497" fill="#e0e0e0"/>
                        <path  gorn="0.2.8.0.0.0.4" d="m 82.824,115.567 h 0.033 c 0.273,-0.643 1.116,-0.658 1.785,-0.658 1.304,0 2.148,0.228 2.148,1.525 0,1.151 -0.723,1.472 -2.148,1.472 -0.701,0 -1.39,-0.009 -1.718,-0.55 H 82.88 v 0.623 c 0,0.776 0.077,1.05 1.226,1.05 0.603,0 1.085,-0.046 1.085,-0.666 h 1.384 c 0,1.397 -1.151,1.45 -2.466,1.45 -1.838,0 -2.605,-0.238 -2.605,-1.847 v -3.005 h 1.38 z m 2.584,0.867 c 0,-0.676 -0.326,-0.739 -1.259,-0.739 -0.735,0 -1.271,0.052 -1.271,0.739 0,0.668 0.589,0.686 1.271,0.686 0.702,0.002 1.259,0.002 1.259,-0.686 z" id="path499" fill="#e0e0e0"/>
                        <path  gorn="0.2.8.0.0.0.5" d="m 80.828,119.762 h -0.723 v 1.087 h -1.381 v -1.087 h -2.201 v -0.877 h 2.201 v -2.459 c -0.013,-0.439 -0.013,-0.643 -0.59,-0.643 -0.778,0 -0.69,0.514 -0.69,1.016 h -1.215 c -0.022,-1.451 0.417,-1.89 1.906,-1.89 1.511,0 1.972,0.292 1.972,1.507 v 2.467 h 0.723 z" id="path501" fill="#e0e0e0"/>
                        <path  gorn="0.2.8.0.0.0.6" d="m 76.17,119.762 h -0.723 v 1.087 h -1.38 v -1.087 h -2.202 v -0.877 h 2.202 v -2.459 c -0.011,-0.439 -0.011,-0.643 -0.589,-0.643 -0.78,0 -0.691,0.514 -0.691,1.016 H 71.57 c -0.02,-1.451 0.418,-1.89 1.908,-1.89 1.508,0 1.969,0.292 1.969,1.507 v 2.467 h 0.723 z" id="path503" fill="#e0e0e0"/>
                        <path  gorn="0.2.8.0.0.0.7" d="m 65.697,116.489 c 0,-1.508 1.042,-1.58 2.683,-1.58 2.202,0 2.647,0.585 2.647,2.439 0,1.721 -0.326,2.467 -2.647,2.467 -2.368,0 -2.683,-0.576 -2.683,-2.67 h 3.954 c 0,-1.031 -0.033,-1.361 -1.27,-1.361 -0.768,0 -1.306,-0.01 -1.306,0.705 z m 1.38,1.39 c 0,0.986 0.175,1.062 1.306,1.062 1.195,0 1.271,-0.209 1.271,-1.062 z" id="path505" fill="#e0e0e0"/>
                        <path  gorn="0.2.8.0.0.0.8" d="m 63.317,119.762 0.03,-0.631 h -0.055 c -0.274,0.531 -0.866,0.684 -1.534,0.684 -1.215,0 -1.511,-0.604 -1.511,-1.508 v -0.385 h 1.292 v 0.246 c 0,0.484 0.055,0.768 0.701,0.768 0.821,0 1.062,-0.396 1.043,-1.014 v -2.961 h 1.38 v 4.797 z" id="path507" fill="#e0e0e0"/>
                        <path  gorn="0.2.8.0.0.0.9" d="m 56.12,114.77 c 0.32,-1.088 0.583,-1.936 2.189,-1.936 0.197,0 0.395,0.025 0.592,0.036 v 0.868 c -0.099,-0.009 -0.2,-0.027 -0.296,-0.027 -0.866,0 -0.997,0.695 -1.121,1.254 h 0.668 l 1.895,4.799 H 58.62 l -1.457,-4.086 h -0.021 l -1.118,4.086 h -1.402 z" id="path509" fill="#e0e0e0"/>
                    </g>
                </g>
            </g>
        </g>
        <path stroke-width="0.352781" opacity="0.35"  gorn="0.2.9" enable-background="new    " d="m 20.982118,35.758683 c 0,0.381709 0.49601,0.689686 1.107379,0.689686 h 41.019917 c 0.611016,0 1.108084,-0.281872 1.108084,-0.663228 V 33.7055 c 0,-0.381003 -0.496716,-0.717203 -1.108084,-0.717203 H 22.090202 c -0.611016,0 -1.107731,0.309388 -1.107731,0.690391 z" id="path515" fill="#ffffff"/>
        <g  transform="matrix(0.3527806,0,0,0.3527806,16.38602,8.3284037)">
            <g >
                <path stroke-width="0.996122" clip-path="url(#clipPath4028-2)"  gorn="0.2.10.0.0" d="m 101.18997,101.67409 1.79,-1.15201 c 0,0 1.276,-1.195666 2.389,-2.472703 0.663,-0.76007 1.219,-3.439167 2.036,-4.117871 0.82,-0.679697 1.993,-0.823574 2.987,-0.823574 0.278,0 23.058,0 23.334,0 0.996,0 2.165,0.141893 2.988,0.823574 0.819,0.680689 1.376,3.358794 2.036,4.117871 1.112,1.277037 2.39,2.472703 2.39,2.472703 l 1.79,1.15201 z" id="path537-2" fill="#1a1a1a" style="display:inline;"/>
            </g>
        </g>
        <path stroke-width="0.294395"  stroke="#c9c9c9" gorn="0.2.11" d="m 65.565128,34.549998 v 4.1935 c 0,0.20955 0.13758,0.38136 0.30374,0.38136 0.16792,0 0.3041,-0.17181 0.3041,-0.38136 l 0.32244,-5.33686 c 0,-0.20955 0.13652,-0.38101 0.30374,-0.38101 0.16722,0 0.30339,0.17146 0.30339,0.38101 l 0.32209,6.8891 c 0,0.20884 0.13794,0.38029 0.3041,0.38029 0.16687,0 0.30445,-0.17145 0.30445,-0.38029 v -8.45439 c 0,-0.20814 0.20602,-0.38065 0.45685,-0.38065 h 0.51682" id="pravPrukont-5" fill="none" style="display:inline"/>
        <rect stroke-width="0.351413" width="1.057989" height="0.35004941" x="69.13607"  y="31.663223" gorn="0.2.12" id="connector0pin-0-0" fill="none" style="display:inline;"/>
        <path stroke-width="0.351412"  gorn="0.2.13" d="m 19.1765,43.381172 0.631477,-0.406407 c 0,0 0.450148,-0.421809 0.842793,-0.872323 0.233893,-0.268138 0.429687,-1.213271 0.718261,-1.452705 0.289633,-0.239784 0.703092,-0.290541 1.053756,-0.290541 0.09772,0 8.134415,0 8.232135,0 0.351017,0 0.763417,0.05006 1.053403,0.290541 0.28928,0.239784 0.486131,1.184917 0.719319,1.452705 0.39194,0.450514 0.842793,0.872323 0.842793,0.872323 l 0.631477,0.406407 z" id="path531" fill="#1a1a1a"/>
        <path stroke-width="0.351412"  gorn="0.2.14" d="m 20.088085,43.075229 0.164396,-0.05076 c 0,0 0,-0.188677 0.365833,-0.388905 0.219782,-0.120417 0.401464,-0.172224 0.671694,-0.279339 0.270936,-0.107115 0.655467,-0.129519 0.984611,-0.129519 0.09102,0 8.437806,0 8.530587,0 0.328792,0 0.71297,0.0224 0.9832,0.129519 0.270935,0.106415 0.453676,0.158922 0.671694,0.279339 0.367245,0.200228 0.366892,0.388905 0.366892,0.388905 l 0.161573,0.04936 z" id="path533"/>
        <g  transform="matrix(0.3527806,0,0,0.3527806,16.783265,48.652055)">
            <g >
                <rect stroke-width="0.996122" width="3" height="0.99225807" clip-path="url(#clipPath1656)" x="150.59732"  y="-87.017113" gorn="0.2.15.0.0" id="connector1pin" fill="none"/>
            </g>
        </g>
        <g  transform="matrix(0.3527806,0,0,0.3527806,16.783265,48.652055)">
            <g >
                <path stroke-width="0.831263" clip-path="url(#clipPath1638)"  stroke="#c9c9c9" gorn="0.2.16.0.0" d="m 2.3163242,-65.753022 v -39.726048 c 0,-0.58543 0.388,-1.07163 0.863,-1.07163 0.475,0 0.86,0.48521 0.86,1.07163 l 0.913,19.375827 c 0,0.589401 0.391,1.071639 0.863,1.071639 0.472,0 0.863,-0.482238 0.863,-1.071639 l 0.913,-15.010877 c 0,-0.58841 0.389,-1.07164 0.861,-1.07164 0.475,0 0.861,0.48323 0.861,1.07164 v 11.794969" id="path349" fill="none"/>
            </g>
        </g>
        <g  transform="matrix(0.3527806,0,0,0.3527806,16.783265,48.652055)">
            <g >
                <path stroke-width="0.831263" clip-path="url(#clipPath1632)"  stroke="#c9c9c9" gorn="0.2.17.0.0" d="m 144.88632,-102.43184 v 14.344081 c 0,0.589401 0.583,1.071639 1.295,1.071639 h 1.465" id="path351" fill="none"/>
            </g>
        </g>
        <g  transform="matrix(0.3527806,0,0,0.3527806,16.783265,48.652055)">
            <g >
                <rect stroke-width="0.996122" width="3.46" height="11.931903" clip-path="url(#clipPath1626)" x="1.8773242"  y="-69.99691" gorn="0.2.18.0.0" id="rect353" fill="#c9c9c9"/>
            </g>
        </g>
        <g  transform="matrix(0.3527806,0,0,0.3527806,16.783265,48.652055)">
            <g >
                <rect stroke-width="0.996122" width="2.95" height="11.935872" clip-path="url(#clipPath1620)" x="142.04033"  y="-102.36834" gorn="0.2.19.0.0" id="rect355" fill="#c9c9c9"/>
            </g>
        </g>
        <path stroke-width="0.351412" clip-path="url(#clipPath2462)"  gorn="0.2.20" d="m 65.976518,19.021407 c 0,0.624488 -0.616308,1.13416 -1.369848,1.13416 H 21.593543 c -0.753539,0 -1.369847,-0.509672 -1.369847,-1.13416 v -8.317174 c 0,-0.623438 0.616308,-1.1338099 1.369847,-1.1338099 H 64.60667 c 0.753893,0 1.3702,0.5103719 1.3702,1.1338099 z" id="path357" fill="#353535"/>
        <path stroke-width="0.351412" clip-path="url(#clipPath2454)"  gorn="0.2.21" d="m 52.806159,9.5875755 h 11.891882 c 0.753539,0 1.369847,0.5100215 1.369847,1.1341605 v 8.319273 c 0,0.623788 -0.616308,1.13416 -1.369847,1.13416 H 52.806159 Z" id="path359" fill="#ce925d"/>
        <path stroke-width="0.351412" clip-path="url(#clipPath2446)" opacity="0.35"  gorn="0.2.22" enable-background="new    " d="m 21.69726,19.722205 c -0.566918,0 -1.290471,-0.434761 -1.290471,-0.950034 v -2.380685 c 0,0.515972 0.723553,1.324586 1.290471,1.324586 h 42.700917 c 0.567271,0 1.290824,-0.808614 1.290824,-1.324586 v 2.381035 c 0,0.515973 -0.723553,0.950035 -1.290824,0.950035 z" id="path361"/>
        <path stroke-width="0.351412" clip-path="url(#clipPath2438)"  gorn="0.2.23" d="m 65.938064,14.79281 c 0,2.371235 -0.109362,4.292656 -0.243771,4.292656 -0.134409,0 -0.134762,-8.584612 0,-8.584612 0.134762,0 0.243771,1.921421 0.243771,4.291956" id="path363" fill="#b2b2b2"/>
        <path stroke-width="0.351412" clip-path="url(#clipPath2430)"  gorn="0.2.24" d="m 65.847047,16.256016 c -0.08961,0 -0.08961,-3.171797 0,-3.171797 h -0.0028 c 0,0.195677 0.19156,0.3539 0.42757,0.3539 h 0.193676 c 0.235658,0 0.427218,0.158572 0.427218,0.35425 v 1.754097 c 0,0.194978 -0.19156,0.35425 -0.427218,0.35425 h -0.193676 c -0.23601,0 -0.42757,0.158223 -0.42757,0.35355 z" id="path365" fill="#7c7c7c"/>
        <g  transform="matrix(0.3527806,0,0,0.35004939,16.843705,8.8857265)">
            <g >
                <g clip-path="url(#clipPath2422)"  gorn="0.2.25.0.0" id="g389">
                    <g  gorn="0.2.25.0.0.0" id="g387">
                        <path  gorn="0.2.25.0.0.0.0" d="m 35.434,14.8 -0.515,1.295 h -1.632 l 2.727,-6.852 h 2.322 l 2.781,6.852 H 39.518 L 38.982,14.8 Z m 1.784,-4.55 h -0.022 l -1.401,3.555 h 2.836 z" id="path367" fill="#e0e0e0"/>
                        <path  gorn="0.2.25.0.0.0.1" d="m 27.472,14.8 -0.515,1.295 h -1.632 l 2.727,-6.852 h 2.322 l 2.781,6.852 H 31.556 L 31.021,14.8 Z m 1.784,-4.55 h -0.022 l -1.401,3.555 h 2.836 z" id="path369" fill="#e0e0e0"/>
                        <path  gorn="0.2.25.0.0.0.2" d="m 43.203,14.8 -0.515,1.295 h -1.629 l 2.724,-6.852 h 2.322 l 2.782,6.852 H 47.288 L 46.752,14.8 Z m 1.784,-4.55 h -0.021 l -1.403,3.555 h 2.836 z" id="path371" fill="#e0e0e0"/>
                        <path  gorn="0.2.25.0.0.0.3" d="M 53.417,16.098 V 9.246 h 4.088 c 1.61,0 2.417,0.272 2.417,1.783 0,0.783 -0.173,1.316 -1.169,1.515 v 0.038 c 1.15,0.11 1.369,0.741 1.369,1.606 0,1.517 -0.745,1.911 -2.476,1.911 z m 1.577,-3.984 h 2.264 c 0.891,0 1.085,-0.229 1.085,-0.959 0,-0.731 -0.351,-0.786 -1.128,-0.786 h -2.224 z m 0,2.86 h 2.158 c 0.938,0 1.389,-0.055 1.389,-0.896 0,-0.749 -0.197,-0.968 -1.125,-0.968 h -2.42 z" id="path373" fill="#e0e0e0"/>
                        <path  gorn="0.2.25.0.0.0.4" d="m 64.998,15.494 h -0.033 c -0.274,0.642 -1.117,0.658 -1.786,0.658 -1.303,0 -2.146,-0.229 -2.146,-1.526 0,-1.151 0.723,-1.471 2.146,-1.471 0.702,0 1.391,0.009 1.72,0.548 h 0.044 v -0.622 c 0,-0.777 -0.077,-1.051 -1.227,-1.051 -0.603,0 -1.085,0.048 -1.085,0.667 H 61.25 c 0,-1.398 1.153,-1.451 2.464,-1.451 1.843,0 2.606,0.238 2.606,1.846 v 3.004 h -1.382 z m -2.585,-0.868 c 0,0.676 0.326,0.741 1.259,0.741 0.733,0 1.271,-0.053 1.271,-0.741 0,-0.667 -0.59,-0.685 -1.271,-0.685 -0.701,0 -1.259,0 -1.259,0.685 z" id="path375" fill="#e0e0e0"/>
                        <path  gorn="0.2.25.0.0.0.5" d="m 66.994,11.3 h 0.724 v -1.088 h 1.38 V 11.3 h 2.201 v 0.877 h -2.201 v 2.458 c 0.013,0.439 0.013,0.639 0.59,0.639 0.778,0 0.69,-0.511 0.69,-1.011 h 1.216 c 0.022,1.45 -0.417,1.889 -1.906,1.889 -1.511,0 -1.972,-0.292 -1.972,-1.508 v -2.467 h -0.724 z" id="path377" fill="#e0e0e0"/>
                        <path  gorn="0.2.25.0.0.0.6" d="m 71.652,11.3 h 0.723 v -1.088 h 1.38 V 11.3 h 2.202 v 0.877 h -2.202 v 2.458 c 0.011,0.439 0.011,0.639 0.59,0.639 0.779,0 0.691,-0.511 0.691,-1.011 h 1.216 c 0.021,1.45 -0.417,1.889 -1.907,1.889 -1.509,0 -1.969,-0.292 -1.969,-1.508 v -2.467 h -0.724 z" id="path379" fill="#e0e0e0"/>
                        <path  gorn="0.2.25.0.0.0.7" d="m 82.125,14.572 c 0,1.508 -1.042,1.581 -2.683,1.581 -2.202,0 -2.647,-0.585 -2.647,-2.439 0,-1.719 0.326,-2.465 2.647,-2.465 2.368,0 2.683,0.576 2.683,2.668 h -3.954 c 0,1.032 0.033,1.362 1.27,1.362 0.767,0 1.306,0.009 1.306,-0.706 z m -1.38,-1.389 c 0,-0.987 -0.175,-1.062 -1.306,-1.062 -1.194,0 -1.27,0.21 -1.27,1.062 z" id="path381" fill="#e0e0e0"/>
                        <path  gorn="0.2.25.0.0.0.8" d="m 84.505,11.3 -0.03,0.631 h 0.055 c 0.274,-0.53 0.866,-0.684 1.533,-0.684 1.216,0 1.512,0.604 1.512,1.508 v 0.384 h -1.292 v -0.247 c 0,-0.484 -0.056,-0.768 -0.702,-0.768 -0.821,0 -1.062,0.396 -1.042,1.015 V 16.1 h -1.381 v -4.798 z" id="path383" fill="#e0e0e0"/>
                        <path  gorn="0.2.25.0.0.0.9" d="m 91.702,16.29 c -0.32,1.088 -0.584,1.935 -2.19,1.935 -0.197,0 -0.394,-0.025 -0.591,-0.037 V 17.32 c 0.099,0.009 0.201,0.028 0.295,0.028 0.865,0 0.997,-0.695 1.12,-1.254 h -0.667 l -1.895,-4.798 h 1.427 l 1.456,4.085 h 0.02 l 1.119,-4.085 h 1.402 z" id="path385" fill="#e0e0e0"/>
                    </g>
                </g>
            </g>
        </g>
        <path stroke-width="0.351412" clip-path="url(#clipPath2414)" opacity="0.35"  gorn="0.2.26" enable-background="new    " d="m 64.647593,12.697064 c 0,0.378054 -0.49601,0.684697 -1.108084,0.684697 H 22.519592 c -0.611016,0 -1.107731,-0.28004 -1.107731,-0.658093 v -2.063541 c 0,-0.378404 0.49601,-0.7116506 1.107731,-0.7116506 h 41.019564 c 0.612075,0 1.10879,0.3066436 1.10879,0.6850466 v 2.063541 z" id="path391" fill="#ffffff"/>
        <path stroke-width="0.351412" clip-path="url(#clipPath2542)"  gorn="0.2.27" d="m 19.582694,30.492875 c 0,0.623438 0.615955,1.13416 1.369847,1.13416 h 43.012422 c 0.753539,0 1.369847,-0.510722 1.369847,-1.13416 v -8.318224 c 0,-0.623437 -0.616308,-1.13416 -1.369847,-1.13416 H 20.952541 c -0.753892,0 -1.369847,0.510372 -1.369847,1.13416 z" id="path395" fill="#353535"/>
        <path stroke-width="0.351412" clip-path="url(#clipPath2534)"  gorn="0.2.28" d="M 32.844422,21.041542 H 20.952541 c -0.753892,0 -1.369847,0.510372 -1.369847,1.13381 v 8.318223 c 0,0.623438 0.615955,1.13416 1.369847,1.13416 h 11.891881 z" id="path397" fill="#ce925d"/>
        <path stroke-width="0.351412" clip-path="url(#clipPath2526)" opacity="0.35"  gorn="0.2.29" enable-background="new    " d="m 63.861598,31.194024 c 0.566918,0 1.290118,-0.435461 1.290118,-0.950384 v -2.380686 c 0,0.515623 -0.7232,1.323887 -1.290118,1.323887 H 21.159976 c -0.566919,0 -1.290472,-0.808264 -1.290472,-1.323887 v 2.380686 c 0,0.515973 0.723553,0.950384 1.290472,0.950384 z" id="path399"/>
        <path stroke-width="0.351412" clip-path="url(#clipPath2518)"  gorn="0.2.30" d="m 19.621147,26.263928 c 0,2.371235 0.109714,4.292656 0.244477,4.292656 0.135115,0 0.135115,-8.584611 0,-8.584611 -0.135115,0 -0.244477,1.921771 -0.244477,4.291955" id="path401" fill="#b2b2b2"/>
        <path stroke-width="0.351412" clip-path="url(#clipPath2510)"  gorn="0.2.31" d="m 19.712164,27.727835 c 0.08925,0 0.08925,-3.172148 0,-3.172148 l 0.0025,3.5e-4 c 0,0.195328 -0.191208,0.3539 -0.426512,0.3539 h -0.194735 c -0.234952,0 -0.42757,0.159273 -0.42757,0.35425 v 1.754098 c 0,0.194977 0.192618,0.35425 0.42757,0.35425 h 0.194382 c 0.235305,0 0.426512,0.158222 0.426512,0.35425 z" id="path403" fill="#7c7c7c"/>
        <g  transform="matrix(0.3527806,0,0,0.35004939,16.843705,8.8857265)">
            <g >
                <g clip-path="url(#clipPath2502)"  gorn="0.2.32.0.0" id="g427">
                    <g  gorn="0.2.32.0.0.0" id="g425">
                        <path  gorn="0.2.32.0.0.0.0" d="m 112.387,50.167 0.516,-1.297 h 1.632 l -2.728,6.853 h -2.322 l -2.781,-6.853 h 1.6 l 0.537,1.297 z m -1.784,4.55 h 0.021 l 1.402,-3.555 h -2.837 z" id="path405" fill="#e0e0e0"/>
                        <path  gorn="0.2.32.0.0.0.1" d="m 120.387,50.167 0.516,-1.297 h 1.632 l -2.728,6.853 h -2.322 l -2.781,-6.853 h 1.6 l 0.537,1.297 z m -1.784,4.55 h 0.021 l 1.402,-3.555 h -2.837 z" id="path407" fill="#e0e0e0"/>
                        <path  gorn="0.2.32.0.0.0.2" d="m 104.618,50.167 0.515,-1.297 h 1.633 l -2.728,6.853 h -2.322 L 98.935,48.87 h 1.599 l 0.537,1.297 z m -1.785,4.55 h 0.022 l 1.401,-3.555 h -2.838 z" id="path409" fill="#e0e0e0"/>
                        <path  gorn="0.2.32.0.0.0.3" d="m 94.406,48.867 v 6.853 h -4.09 c -1.609,0 -2.417,-0.271 -2.417,-1.782 0,-0.784 0.173,-1.316 1.169,-1.514 v -0.039 c -1.15,-0.11 -1.368,-0.741 -1.368,-1.606 0,-1.518 0.742,-1.91 2.477,-1.91 z m -1.578,1.125 h -2.157 c -0.939,0 -1.39,0.055 -1.39,0.895 0,0.749 0.198,0.969 1.127,0.969 h 2.418 z m 0,2.86 h -2.266 c -0.89,0 -1.084,0.228 -1.084,0.96 0,0.731 0.35,0.787 1.127,0.787 h 2.224 z" id="path411" fill="#e0e0e0"/>
                        <path  gorn="0.2.32.0.0.0.4" d="m 82.824,49.471 h 0.033 c 0.273,-0.643 1.116,-0.658 1.785,-0.658 1.304,0 2.148,0.228 2.148,1.525 0,1.152 -0.723,1.472 -2.148,1.472 -0.701,0 -1.39,-0.009 -1.718,-0.549 H 82.88 v 0.622 c 0,0.777 0.077,1.05 1.226,1.05 0.603,0 1.085,-0.046 1.085,-0.666 h 1.384 c 0,1.397 -1.151,1.45 -2.466,1.45 -1.838,0 -2.605,-0.238 -2.605,-1.847 v -3.005 h 1.38 z m 2.584,0.868 c 0,-0.676 -0.326,-0.74 -1.259,-0.74 -0.735,0 -1.271,0.052 -1.271,0.74 0,0.667 0.589,0.686 1.271,0.686 0.702,0 1.259,0 1.259,-0.686 z" id="path413" fill="#e0e0e0"/>
                        <path  gorn="0.2.32.0.0.0.5" d="m 80.828,53.666 h -0.723 v 1.087 H 78.724 V 53.666 H 76.523 V 52.79 h 2.201 v -2.46 c -0.013,-0.439 -0.013,-0.642 -0.59,-0.642 -0.778,0 -0.69,0.513 -0.69,1.016 h -1.215 c -0.022,-1.452 0.417,-1.89 1.906,-1.89 1.511,0 1.972,0.292 1.972,1.507 v 2.467 h 0.723 z" id="path415" fill="#e0e0e0"/>
                        <path  gorn="0.2.32.0.0.0.6" d="m 76.17,53.666 h -0.723 v 1.087 h -1.38 V 53.666 H 71.865 V 52.79 h 2.202 v -2.46 c -0.011,-0.439 -0.011,-0.642 -0.589,-0.642 -0.78,0 -0.691,0.513 -0.691,1.016 H 71.57 c -0.02,-1.452 0.418,-1.89 1.908,-1.89 1.508,0 1.969,0.292 1.969,1.507 v 2.467 h 0.723 z" id="path417" fill="#e0e0e0"/>
                        <path  gorn="0.2.32.0.0.0.7" d="m 65.697,50.394 c 0,-1.508 1.042,-1.581 2.683,-1.581 2.202,0 2.647,0.585 2.647,2.44 0,1.72 -0.326,2.466 -2.647,2.466 -2.368,0 -2.683,-0.576 -2.683,-2.669 h 3.954 c 0,-1.032 -0.033,-1.362 -1.27,-1.362 -0.768,0 -1.306,-0.009 -1.306,0.706 z m 1.38,1.389 c 0,0.987 0.175,1.063 1.306,1.063 1.195,0 1.271,-0.209 1.271,-1.063 z" id="path419" fill="#e0e0e0"/>
                        <path  gorn="0.2.32.0.0.0.8" d="m 63.317,53.666 0.03,-0.631 h -0.055 c -0.274,0.531 -0.866,0.684 -1.534,0.684 -1.215,0 -1.511,-0.604 -1.511,-1.508 v -0.384 h 1.292 v 0.247 c 0,0.484 0.055,0.768 0.701,0.768 0.821,0 1.062,-0.396 1.043,-1.014 v -2.961 h 1.38 v 4.797 z" id="path421" fill="#e0e0e0"/>
                        <path  gorn="0.2.32.0.0.0.9" d="m 56.12,48.674 c 0.32,-1.088 0.583,-1.936 2.189,-1.936 0.197,0 0.395,0.025 0.592,0.036 v 0.869 c -0.099,-0.009 -0.2,-0.027 -0.296,-0.027 -0.866,0 -0.997,0.695 -1.121,1.254 h 0.668 l 1.895,4.798 H 58.62 l -1.457,-4.085 h -0.021 l -1.118,4.085 h -1.402 z" id="path423" fill="#e0e0e0"/>
                    </g>
                </g>
            </g>
        </g>
        <path stroke-width="0.351412" clip-path="url(#clipPath2494)" opacity="0.35"  gorn="0.2.33" enable-background="new    " d="m 20.911265,24.168183 c 0,0.378753 0.49601,0.684346 1.107379,0.684346 h 41.019917 c 0.611016,0 1.108084,-0.279689 1.108084,-0.657742 v -2.063542 c 0,-0.378403 -0.496716,-0.71165 -1.108084,-0.71165 H 22.019349 c -0.611016,0 -1.107731,0.306643 -1.107731,0.685047 z" id="path429" fill="#ffffff"/>
        <path stroke-width="0.351412" clip-path="url(#clipPath2566)"  gorn="0.2.34" d="m 19.439112,8.9238819 0.631477,0.4060573 c 0,0 0.450148,0.4221595 0.842793,0.8723228 0.233894,0.268488 0.429687,1.213271 0.718261,1.453055 0.289633,0.239084 0.703092,0.290891 1.053756,0.290891 0.09772,0 8.134415,0 8.232135,0 0.351017,0 0.763417,-0.05076 1.053403,-0.290891 0.28928,-0.239784 0.486132,-1.184567 0.71932,-1.453055 0.391939,-0.4501633 0.842793,-0.8723228 0.842793,-0.8723228 l 0.631477,-0.4060573 z" id="path519" fill="#1a1a1a"/>
        <path stroke-width="0.351412" clip-path="url(#clipPath2558)" opacity="0.2"  gorn="0.2.35" enable-background="new    " d="m 20.350697,9.2301751 0.164396,0.050757 c 0,0 0,0.1886766 0.365833,0.3889048 0.219783,0.1197169 0.401465,0.1722243 0.671694,0.2793394 0.270936,0.1067657 0.655467,0.1295187 0.984611,0.1295187 0.09102,0 8.437806,0 8.530588,0 0.328791,0 0.712969,-0.02275 0.983199,-0.1295187 0.270936,-0.1071151 0.453676,-0.1596225 0.671695,-0.2793394 0.367244,-0.2005783 0.366891,-0.3889048 0.366891,-0.3889048 l 0.161574,-0.050407 z" id="path521" fill="#ffffff"/>
        <path stroke-width="0.351412" clip-path="url(#clipPath2590)"  gorn="0.2.36" d="m 51.548144,8.9238819 0.631477,0.4060573 c 0,0 0.450148,0.4221595 0.842793,0.8723228 0.233893,0.268488 0.430039,1.213271 0.718261,1.453055 0.28928,0.239084 0.703092,0.290891 1.053756,0.290891 0.09807,0 8.134415,0 8.231782,0 0.35137,0 0.76377,-0.05076 1.054109,-0.290891 0.288574,-0.239784 0.485426,-1.184567 0.718261,-1.453055 0.392292,-0.4501633 0.843146,-0.8723228 0.843146,-0.8723228 l 0.631477,-0.4060573 z" id="path525" fill="#1a1a1a"/>
        <path stroke-width="0.351412" clip-path="url(#clipPath2582)" opacity="0.2"  gorn="0.2.37" enable-background="new    " d="m 52.459729,9.2301751 0.165101,0.050757 c 0,0 0,0.1886766 0.365481,0.3889048 0.219782,0.1197169 0.401464,0.1722243 0.671694,0.2793394 0.271994,0.1067657 0.655466,0.1295187 0.984611,0.1295187 0.09102,0 8.438159,0 8.53094,0 0.328792,0 0.71297,-0.02275 0.983553,-0.1295187 0.270935,-0.1071151 0.45297,-0.1596225 0.672047,-0.2793394 0.366539,-0.2005783 0.366186,-0.3889048 0.366186,-0.3889048 l 0.161573,-0.050407 z" id="path527" fill="#ffffff"/>
        <rect stroke-width="0.367524" width="57.922733" height="0.5" x="15.019423"  y="8.4576969" stroke="none" gorn="0.2.38" id="rect3114" style="fill-rule:evenodd;-inkscape-stop-color:#000000" fill="#999999"/>
        <rect stroke-width="0.367524" width="57.922733" height="0.5" x="14.986771"  y="43.428871" stroke="none" gorn="0.2.39" id="rect3114-1" style="fill-rule:evenodd;-inkscape-stop-color:#000000" fill="#999999"/>
        <rect stroke-width="0.351408" width="0.5" height="35.197689" x="15.019423"  y="8.6851444" stroke="none" gorn="0.2.40" id="rect3138" style="fill-rule:evenodd;-inkscape-stop-color:#000000" fill="#999999"/>
        <rect stroke-width="0.351409" width="0.5" height="35.197689" x="72.441887"  y="8.6524944" stroke="none" gorn="0.2.41" id="rect3138-4" style="fill-rule:evenodd;-inkscape-stop-color:#000000" fill="#999999"/>
        <g  transform="matrix(0.85651802,0,-0.15966254,0.7055612,-75.447354,79.154098)">
            <g >
                <line stroke-width="2.49369" y1="-87.017113" y2="-87.017113" clip-path="url(#clipPath1650)" x2="158.27133"  stroke-linecap="round" stroke="#ff0000" gorn="0.2.42.0.0" id="connector1leg" fill="none" x1="153.27133"/>
            </g>
        </g>
        <g  transform="matrix(0.85651802,0,-0.15966254,0.7055612,-75.547606,92.675479)">
            <g >
                <line stroke-width="2.49369" y1="-87.017113" y2="-87.017113" clip-path="url(#clipPath1650-8)" x2="158.27133"  stroke-linecap="round" stroke="#ff0000" gorn="0.2.43.0.0" id="connector1leg-4" fill="none" style="fill:#0000ff;stroke:#0000ff" x1="153.27133"/>
            </g>
        </g>
    </g>
</svg>
