<?xml version='1.0' encoding='utf-8'?>
<!DOCTYPE svg>
<!-- Generator: Adobe Illustrator 16.0.0, SVG Export Plug-In . SVG Version: 6.00 Build 0)  -->
<svg xmlns="http://www.w3.org/2000/svg" y="0px" gorn="0" xml:space="preserve" xmlns:xml="http://www.w3.org/XML/1998/namespace"  version="1.1" x="0px" viewBox="0 0 129.839 100.914" height="1.40158in" id="Ebene_1" enable-background="new 0 0 129.839 100.914" width="1.80332in">
    <desc >
        <referenceFile >miniBreadboard.svg</referenceFile>
    </desc>
    <g gorn="0.1"  id="breadboardbreadboard">
        <g gorn="0.1.0"  id="background">
            <rect  height="100.914" fill="#D9D9D9" width="129.839"/>
        </g>
        <rect y="46.83"  x="19.67" height="7.252" fill="#CCC9C9" width="90.5"/>
        <g  transform="translate(-4.5, -9)">
            <g >
                <g gorn="0.1.2.0.0"  id="sockets">
                    <g gorn="0.1.2.0.0.0"  id="A1pin">
                        <path  d="M9.427,19.858c0-1.322,1.071-2.396,2.395-2.396c1.324,0,2.394,1.072,2.394,2.396" fill="#BFBFBF"/>
                        <path  d="M14.214,19.858c0,1.319-1.07,2.393-2.394,2.393c-1.324,0-2.395-1.072-2.395-2.393" fill="#E6E6E6"/>
                        <circle cy="19.857" r="1.196"  cx="11.822" fill="#383838"/>
                    </g>
                    <g gorn="0.1.2.0.0.1"  id="B1pin">
                        <path  d="M9.427,27.058c0-1.322,1.071-2.396,2.395-2.396c1.324,0,2.394,1.071,2.394,2.396" fill="#BFBFBF"/>
                        <path  d="M14.214,27.058c0,1.321-1.07,2.393-2.394,2.393c-1.324,0-2.395-1.07-2.395-2.393l0,0" fill="#E6E6E6"/>
                        <circle cy="27.057" r="1.197"  cx="11.822" fill="#383838"/>
                    </g>
                    <g gorn="0.1.2.0.0.2"  id="C1pin">
                        <path  d="M9.427,34.256c0-1.319,1.071-2.394,2.395-2.394c1.324,0,2.394,1.072,2.394,2.394" fill="#BFBFBF"/>
                        <path  d="M14.214,34.256c0,1.322-1.07,2.396-2.394,2.396c-1.324,0-2.395-1.072-2.395-2.396" fill="#E6E6E6"/>
                        <circle cy="34.257" r="1.196"  cx="11.822" fill="#383838"/>
                    </g>
                    <g gorn="0.1.2.0.0.3"  id="D1pin">
                        <path  d="M9.427,41.457c0-1.322,1.071-2.396,2.395-2.396c1.324,0,2.394,1.072,2.394,2.396" fill="#BFBFBF"/>
                        <path  d="M14.214,41.457c0,1.321-1.07,2.394-2.394,2.394c-1.324,0-2.395-1.07-2.395-2.394l0,0" fill="#E6E6E6"/>
                        <circle cy="41.457" r="1.197"  cx="11.822" fill="#383838"/>
                    </g>
                    <g gorn="0.1.2.0.0.4"  id="E1pin">
                        <path  d="M9.427,48.657c0-1.322,1.071-2.394,2.395-2.394c1.324,0,2.394,1.07,2.394,2.394" fill="#BFBFBF"/>
                        <path  d="M14.214,48.657c0,1.322-1.07,2.395-2.394,2.395c-1.324,0-2.395-1.072-2.395-2.395l0,0" fill="#E6E6E6"/>
                        <circle cy="48.657" r="1.197"  cx="11.822" fill="#383838"/>
                    </g>
                    <g gorn="0.1.2.0.0.5"  id="A2pin">
                        <path  d="M16.627,19.858c0-1.322,1.071-2.396,2.395-2.396c1.32,0,2.394,1.072,2.394,2.396" fill="#BFBFBF"/>
                        <path  d="M21.414,19.858c0,1.319-1.07,2.393-2.393,2.395c-1.322,0-2.396-1.07-2.396-2.393c0-0.002,0-0.002,0-0.002" fill="#E6E6E6"/>
                        <circle cy="19.857" r="1.196"  cx="19.022" fill="#383838"/>
                    </g>
                    <g gorn="0.1.2.0.0.6"  id="B2pin">
                        <path  d="M16.627,27.058c0-1.322,1.071-2.396,2.395-2.396c1.32,0,2.394,1.071,2.394,2.396" fill="#BFBFBF"/>
                        <path  d="M21.414,27.058c0,1.321-1.07,2.395-2.393,2.395c-1.322,0.002-2.396-1.07-2.396-2.393v-0.002" fill="#E6E6E6"/>
                        <circle cy="27.057" r="1.197"  cx="19.022" fill="#383838"/>
                    </g>
                    <g gorn="0.1.2.0.0.7"  id="C2pin">
                        <path  d="M16.627,34.256c0-1.319,1.071-2.394,2.395-2.394c1.32,0,2.394,1.072,2.394,2.394" fill="#BFBFBF"/>
                        <path  d="M21.414,34.256c0,1.322-1.07,2.396-2.393,2.396c-1.323,0-2.396-1.069-2.396-2.393c0-0.002,0-0.002,0-0.004" fill="#E6E6E6"/>
                        <circle cy="34.257" r="1.196"  cx="19.022" fill="#383838"/>
                    </g>
                    <g gorn="0.1.2.0.0.8"  id="D2pin">
                        <path  d="M16.627,41.457c0-1.322,1.071-2.396,2.395-2.396c1.32,0,2.394,1.072,2.394,2.396" fill="#BFBFBF"/>
                        <path  d="M21.414,41.457c0,1.321-1.07,2.396-2.393,2.396c-1.323,0-2.396-1.07-2.396-2.394v-0.002" fill="#E6E6E6"/>
                        <circle cy="41.457" r="1.197"  cx="19.022" fill="#383838"/>
                    </g>
                    <g gorn="0.1.2.0.0.9"  id="E2pin">
                        <path  d="M16.627,48.657c0-1.322,1.071-2.394,2.395-2.394c1.32,0,2.394,1.07,2.394,2.394" fill="#BFBFBF"/>
                        <path  d="M21.414,48.657c0,1.322-1.07,2.395-2.393,2.395c-1.322,0.002-2.396-1.07-2.396-2.391c0-0.002,0-0.002,0-0.004" fill="#E6E6E6"/>
                        <circle cy="48.657" r="1.197"  cx="19.022" fill="#383838"/>
                    </g>
                    <g gorn="0.1.2.0.0.10"  id="A3pin">
                        <path  d="M23.826,19.858c0-1.322,1.072-2.396,2.395-2.396c1.321,0,2.395,1.072,2.395,2.396" fill="#BFBFBF"/>
                        <path  d="M28.615,19.858c0,1.319-1.072,2.393-2.395,2.393c-1.321,0-2.395-1.072-2.395-2.393l0,0" fill="#E6E6E6"/>
                        <circle cy="19.857" r="1.196"  cx="26.221" fill="#383838"/>
                    </g>
                    <g gorn="0.1.2.0.0.11"  id="B3pin">
                        <path  d="M23.826,27.058c0-1.322,1.072-2.396,2.395-2.396c1.321,0,2.395,1.071,2.395,2.396" fill="#BFBFBF"/>
                        <path  d="M28.615,27.058c0,1.321-1.072,2.393-2.395,2.393c-1.321,0-2.395-1.07-2.395-2.393" fill="#E6E6E6"/>
                        <circle cy="27.057" r="1.197"  cx="26.221" fill="#383838"/>
                    </g>
                    <g gorn="0.1.2.0.0.12"  id="C3pin">
                        <path  d="M23.826,34.256c0-1.319,1.072-2.394,2.395-2.394c1.321,0,2.395,1.072,2.395,2.394" fill="#BFBFBF"/>
                        <path  d="M28.615,34.256c0,1.322-1.072,2.396-2.395,2.396c-1.321,0-2.395-1.072-2.395-2.396l0,0" fill="#E6E6E6"/>
                        <circle cy="34.257" r="1.196"  cx="26.221" fill="#383838"/>
                    </g>
                    <g gorn="0.1.2.0.0.13"  id="D3pin">
                        <path  d="M23.826,41.457c0-1.322,1.072-2.396,2.395-2.396c1.321,0,2.395,1.072,2.395,2.396" fill="#BFBFBF"/>
                        <path  d="M28.615,41.457c0,1.321-1.072,2.394-2.395,2.394c-1.321,0-2.395-1.07-2.395-2.394" fill="#E6E6E6"/>
                        <circle cy="41.457" r="1.197"  cx="26.221" fill="#383838"/>
                    </g>
                    <g gorn="0.1.2.0.0.14"  id="E3pin">
                        <path  d="M23.826,48.657c0-1.322,1.072-2.394,2.395-2.394c1.321,0,2.395,1.07,2.395,2.394" fill="#BFBFBF"/>
                        <path  d="M28.615,48.657c0,1.322-1.072,2.395-2.395,2.395c-1.321,0-2.395-1.072-2.395-2.395" fill="#E6E6E6"/>
                        <circle cy="48.657" r="1.197"  cx="26.221" fill="#383838"/>
                    </g>
                    <g gorn="0.1.2.0.0.15"  id="A4pin">
                        <path  d="M31.028,19.858c0-1.322,1.072-2.396,2.394-2.396c1.322,0,2.395,1.072,2.395,2.396" fill="#BFBFBF"/>
                        <path  d="M35.815,19.858c0,1.319-1.071,2.393-2.395,2.393c-1.32,0-2.394-1.072-2.394-2.393l0,0" fill="#E6E6E6"/>
                        <circle cy="19.857" r="1.196"  cx="33.42" fill="#383838"/>
                    </g>
                    <g gorn="0.1.2.0.0.16"  id="B4pin">
                        <path  d="M31.028,27.058c0-1.322,1.072-2.396,2.394-2.396c1.322,0,2.395,1.071,2.395,2.396" fill="#BFBFBF"/>
                        <path  d="M35.815,27.058c0,1.321-1.071,2.393-2.395,2.393c-1.32,0-2.394-1.07-2.394-2.393" fill="#E6E6E6"/>
                        <circle cy="27.057" r="1.197"  cx="33.42" fill="#383838"/>
                    </g>
                    <g gorn="0.1.2.0.0.17"  id="C4pin">
                        <path  d="M31.028,34.256c0-1.319,1.072-2.394,2.394-2.394c1.322,0,2.395,1.072,2.395,2.394" fill="#BFBFBF"/>
                        <path  d="M35.815,34.256c0,1.322-1.071,2.396-2.395,2.396c-1.32,0-2.394-1.072-2.394-2.396l0,0" fill="#E6E6E6"/>
                        <circle cy="34.257" r="1.196"  cx="33.42" fill="#383838"/>
                    </g>
                    <g gorn="0.1.2.0.0.18"  id="D4pin">
                        <path  d="M31.028,41.457c0-1.322,1.072-2.396,2.394-2.396c1.322,0,2.395,1.072,2.395,2.396" fill="#BFBFBF"/>
                        <path  d="M35.815,41.457c0,1.321-1.071,2.394-2.395,2.394c-1.32,0-2.394-1.07-2.394-2.394" fill="#E6E6E6"/>
                        <circle cy="41.457" r="1.197"  cx="33.42" fill="#383838"/>
                    </g>
                    <g gorn="0.1.2.0.0.19"  id="E4pin">
                        <path  d="M31.028,48.657c0-1.322,1.072-2.394,2.394-2.394c1.322,0,2.395,1.07,2.395,2.394" fill="#BFBFBF"/>
                        <path  d="M35.815,48.657c0,1.322-1.071,2.395-2.395,2.395c-1.32,0-2.394-1.072-2.394-2.395" fill="#E6E6E6"/>
                        <circle cy="48.657" r="1.197"  cx="33.42" fill="#383838"/>
                    </g>
                    <g gorn="0.1.2.0.0.20"  id="A5pin">
                        <path  d="M38.228,19.858c0-1.322,1.07-2.396,2.394-2.396c1.324,0,2.395,1.072,2.395,2.396" fill="#BFBFBF"/>
                        <path  d="M43.015,19.858c0,1.319-1.071,2.393-2.395,2.393c-1.324,0-2.394-1.072-2.394-2.393l0,0" fill="#E6E6E6"/>
                        <circle cy="19.857" r="1.196"  cx="40.62" fill="#383838"/>
                    </g>
                    <g gorn="0.1.2.0.0.21"  id="B5pin">
                        <path  d="M38.228,27.058c0-1.322,1.07-2.396,2.394-2.396c1.324,0,2.395,1.071,2.395,2.396" fill="#BFBFBF"/>
                        <path  d="M43.015,27.058c0,1.321-1.071,2.393-2.395,2.393c-1.324,0-2.394-1.07-2.394-2.393" fill="#E6E6E6"/>
                        <circle cy="27.057" r="1.197"  cx="40.62" fill="#383838"/>
                    </g>
                    <g gorn="0.1.2.0.0.22"  id="C5pin">
                        <path  d="M38.228,34.256c0-1.319,1.07-2.394,2.394-2.394c1.324,0,2.395,1.072,2.395,2.394" fill="#BFBFBF"/>
                        <path  d="M43.015,34.256c0,1.322-1.071,2.396-2.395,2.396c-1.324,0-2.394-1.072-2.394-2.396l0,0" fill="#E6E6E6"/>
                        <circle cy="34.257" r="1.196"  cx="40.62" fill="#383838"/>
                    </g>
                    <g gorn="0.1.2.0.0.23"  id="D5pin">
                        <path  d="M38.228,41.457c0-1.322,1.07-2.396,2.394-2.396c1.324,0,2.395,1.072,2.395,2.396" fill="#BFBFBF"/>
                        <path  d="M43.015,41.457c0,1.321-1.071,2.394-2.395,2.394c-1.324,0-2.394-1.07-2.394-2.394" fill="#E6E6E6"/>
                        <circle cy="41.457" r="1.197"  cx="40.62" fill="#383838"/>
                    </g>
                    <g gorn="0.1.2.0.0.24"  id="E5pin">
                        <path  d="M38.228,48.657c0-1.322,1.07-2.394,2.394-2.394c1.324,0,2.395,1.07,2.395,2.394" fill="#BFBFBF"/>
                        <path  d="M43.015,48.657c0,1.322-1.071,2.395-2.395,2.395c-1.324,0-2.394-1.072-2.394-2.395" fill="#E6E6E6"/>
                        <circle cy="48.657" r="1.197"  cx="40.62" fill="#383838"/>
                    </g>
                    <g gorn="0.1.2.0.0.25"  id="A6pin">
                        <path  d="M45.427,19.858c0-1.322,1.071-2.396,2.395-2.396c1.324,0,2.394,1.072,2.394,2.396" fill="#BFBFBF"/>
                        <path  d="M50.214,19.858c0,1.319-1.07,2.393-2.394,2.393c-1.324,0-2.395-1.072-2.395-2.393l0,0" fill="#E6E6E6"/>
                        <circle cy="19.857" r="1.196"  cx="47.822" fill="#383838"/>
                    </g>
                    <g gorn="0.1.2.0.0.26"  id="B6pin">
                        <path  d="M45.427,27.058c0-1.322,1.071-2.396,2.395-2.396c1.324,0,2.394,1.071,2.394,2.396" fill="#BFBFBF"/>
                        <path  d="M50.214,27.058c0,1.321-1.07,2.393-2.394,2.393c-1.324,0-2.395-1.07-2.395-2.393" fill="#E6E6E6"/>
                        <circle cy="27.057" r="1.197"  cx="47.822" fill="#383838"/>
                    </g>
                    <g gorn="0.1.2.0.0.27"  id="C6pin">
                        <path  d="M45.427,34.256c0-1.319,1.071-2.394,2.395-2.394c1.324,0,2.394,1.072,2.394,2.394" fill="#BFBFBF"/>
                        <path  d="M50.214,34.256c0,1.322-1.07,2.396-2.394,2.396c-1.324,0-2.395-1.072-2.395-2.396l0,0" fill="#E6E6E6"/>
                        <circle cy="34.257" r="1.196"  cx="47.822" fill="#383838"/>
                    </g>
                    <g gorn="0.1.2.0.0.28"  id="D6pin">
                        <path  d="M45.427,41.457c0-1.322,1.071-2.396,2.395-2.396c1.324,0,2.394,1.072,2.394,2.396" fill="#BFBFBF"/>
                        <path  d="M50.214,41.457c0,1.321-1.07,2.394-2.394,2.394c-1.324,0-2.395-1.07-2.395-2.394" fill="#E6E6E6"/>
                        <circle cy="41.457" r="1.197"  cx="47.822" fill="#383838"/>
                    </g>
                    <g gorn="0.1.2.0.0.29"  id="E6pin">
                        <path  d="M45.427,48.657c0-1.322,1.071-2.394,2.395-2.394c1.324,0,2.394,1.07,2.394,2.394" fill="#BFBFBF"/>
                        <path  d="M50.214,48.657c0,1.322-1.07,2.395-2.394,2.395c-1.324,0-2.395-1.072-2.395-2.395" fill="#E6E6E6"/>
                        <circle cy="48.657" r="1.197"  cx="47.822" fill="#383838"/>
                    </g>
                    <g gorn="0.1.2.0.0.30"  id="A7pin">
                        <path  d="M52.627,19.858c0-1.322,1.071-2.396,2.395-2.396c1.32,0,2.394,1.072,2.394,2.396" fill="#BFBFBF"/>
                        <path  d="M57.414,19.858c0,1.319-1.072,2.393-2.394,2.393s-2.395-1.072-2.395-2.393l0,0" fill="#E6E6E6"/>
                        <circle cy="19.857" r="1.196"  cx="55.022" fill="#383838"/>
                    </g>
                    <g gorn="0.1.2.0.0.31"  id="B7pin">
                        <path  d="M52.627,27.058c0-1.322,1.071-2.396,2.395-2.396c1.32,0,2.394,1.071,2.394,2.396" fill="#BFBFBF"/>
                        <path  d="M57.414,27.058c0,1.321-1.072,2.393-2.394,2.393s-2.395-1.07-2.395-2.393" fill="#E6E6E6"/>
                        <circle cy="27.057" r="1.197"  cx="55.022" fill="#383838"/>
                    </g>
                    <g gorn="0.1.2.0.0.32"  id="C7pin">
                        <path  d="M52.627,34.256c0-1.319,1.071-2.394,2.395-2.394c1.32,0,2.394,1.072,2.394,2.394" fill="#BFBFBF"/>
                        <path  d="M57.414,34.256c0,1.322-1.072,2.396-2.394,2.396s-2.395-1.072-2.395-2.396l0,0" fill="#E6E6E6"/>
                        <circle cy="34.257" r="1.196"  cx="55.022" fill="#383838"/>
                    </g>
                    <g gorn="0.1.2.0.0.33"  id="D7pin">
                        <path  d="M52.627,41.457c0-1.322,1.071-2.396,2.395-2.396c1.32,0,2.394,1.072,2.394,2.396" fill="#BFBFBF"/>
                        <path  d="M57.414,41.457c0,1.321-1.072,2.394-2.394,2.394s-2.395-1.07-2.395-2.394" fill="#E6E6E6"/>
                        <circle cy="41.457" r="1.197"  cx="55.022" fill="#383838"/>
                    </g>
                    <g gorn="0.1.2.0.0.34"  id="E7pin">
                        <path  d="M52.627,48.657c0-1.322,1.071-2.394,2.395-2.394c1.32,0,2.394,1.07,2.394,2.394" fill="#BFBFBF"/>
                        <path  d="M57.414,48.657c0,1.322-1.072,2.395-2.394,2.395s-2.395-1.072-2.395-2.395" fill="#E6E6E6"/>
                        <circle cy="48.657" r="1.197"  cx="55.022" fill="#383838"/>
                    </g>
                    <g gorn="0.1.2.0.0.35"  id="A8pin">
                        <path  d="M59.826,19.858c0-1.322,1.072-2.396,2.395-2.396c1.321,0,2.393,1.072,2.393,2.396" fill="#BFBFBF"/>
                        <path  d="M64.614,19.858c0,1.319-1.07,2.393-2.393,2.393c-1.323,0-2.395-1.072-2.395-2.393l0,0" fill="#E6E6E6"/>
                        <circle cy="19.857" r="1.196"  cx="62.221" fill="#383838"/>
                    </g>
                    <g gorn="0.1.2.0.0.36"  id="B8pin">
                        <path  d="M59.826,27.058c0-1.322,1.072-2.396,2.395-2.396c1.321,0,2.393,1.071,2.393,2.396" fill="#BFBFBF"/>
                        <path  d="M64.614,27.058c0,1.321-1.07,2.393-2.393,2.393c-1.323,0-2.395-1.07-2.395-2.393" fill="#E6E6E6"/>
                        <circle cy="27.057" r="1.197"  cx="62.221" fill="#383838"/>
                    </g>
                    <g gorn="0.1.2.0.0.37"  id="C8pin">
                        <path  d="M59.826,34.256c0-1.319,1.072-2.394,2.395-2.394c1.321,0,2.393,1.072,2.393,2.394" fill="#BFBFBF"/>
                        <path  d="M64.614,34.256c0,1.322-1.07,2.396-2.393,2.396c-1.323,0-2.395-1.072-2.395-2.396l0,0" fill="#E6E6E6"/>
                        <circle cy="34.257" r="1.196"  cx="62.221" fill="#383838"/>
                    </g>
                    <g gorn="0.1.2.0.0.38"  id="D8pin">
                        <path  d="M59.826,41.457c0-1.322,1.072-2.396,2.395-2.396c1.321,0,2.393,1.072,2.393,2.396" fill="#BFBFBF"/>
                        <path  d="M64.614,41.457c0,1.321-1.07,2.394-2.393,2.394c-1.323,0-2.395-1.07-2.395-2.394" fill="#E6E6E6"/>
                        <circle cy="41.457" r="1.197"  cx="62.221" fill="#383838"/>
                    </g>
                    <g gorn="0.1.2.0.0.39"  id="E8pin">
                        <path  d="M59.826,48.657c0-1.322,1.072-2.394,2.395-2.394c1.321,0,2.393,1.07,2.393,2.394" fill="#BFBFBF"/>
                        <path  d="M64.614,48.657c0,1.322-1.07,2.395-2.393,2.395c-1.323,0-2.395-1.072-2.395-2.395" fill="#E6E6E6"/>
                        <circle cy="48.657" r="1.197"  cx="62.221" fill="#383838"/>
                    </g>
                    <g gorn="0.1.2.0.0.40"  id="A9pin">
                        <path  d="M67.028,19.858c0-1.322,1.072-2.396,2.393-2.396c1.323,0,2.396,1.072,2.396,2.396" fill="#BFBFBF"/>
                        <path  d="M71.815,19.858c0,1.319-1.071,2.393-2.396,2.393c-1.319,0-2.393-1.072-2.393-2.393l0,0" fill="#E6E6E6"/>
                        <circle cy="19.857" r="1.196"  cx="69.42" fill="#383838"/>
                    </g>
                    <g gorn="0.1.2.0.0.41"  id="B9pin">
                        <path  d="M67.028,27.058c0-1.322,1.072-2.396,2.393-2.396c1.323,0,2.396,1.071,2.396,2.396" fill="#BFBFBF"/>
                        <path  d="M71.815,27.058c0,1.321-1.071,2.393-2.396,2.393c-1.319,0-2.393-1.07-2.393-2.393" fill="#E6E6E6"/>
                        <circle cy="27.057" r="1.197"  cx="69.42" fill="#383838"/>
                    </g>
                    <g gorn="0.1.2.0.0.42"  id="C9pin">
                        <path  d="M67.028,34.256c0-1.319,1.072-2.394,2.393-2.394c1.323,0,2.396,1.072,2.396,2.394" fill="#BFBFBF"/>
                        <path  d="M71.815,34.256c0,1.322-1.071,2.396-2.396,2.396c-1.319,0-2.393-1.072-2.393-2.396l0,0" fill="#E6E6E6"/>
                        <circle cy="34.257" r="1.196"  cx="69.42" fill="#383838"/>
                    </g>
                    <g gorn="0.1.2.0.0.43"  id="D9pin">
                        <path  d="M67.028,41.457c0-1.322,1.072-2.396,2.393-2.396c1.323,0,2.396,1.072,2.396,2.396" fill="#BFBFBF"/>
                        <path  d="M71.815,41.457c0,1.321-1.071,2.394-2.396,2.394c-1.319,0-2.393-1.07-2.393-2.394" fill="#E6E6E6"/>
                        <circle cy="41.457" r="1.197"  cx="69.42" fill="#383838"/>
                    </g>
                    <g gorn="0.1.2.0.0.44"  id="E9pin">
                        <path  d="M67.028,48.657c0-1.322,1.072-2.394,2.393-2.394c1.323,0,2.396,1.07,2.396,2.394" fill="#BFBFBF"/>
                        <path  d="M71.815,48.657c0,1.322-1.071,2.395-2.396,2.395c-1.319,0-2.393-1.072-2.393-2.395" fill="#E6E6E6"/>
                        <circle cy="48.657" r="1.197"  cx="69.42" fill="#383838"/>
                    </g>
                    <g gorn="0.1.2.0.0.45"  id="A10pin">
                        <path  d="M74.227,19.858c0-1.322,1.071-2.396,2.396-2.396c1.323,0,2.394,1.072,2.394,2.396" fill="#BFBFBF"/>
                        <path  d="M79.014,19.858c0,1.319-1.07,2.393-2.394,2.393c-1.324,0-2.396-1.072-2.396-2.393l0,0" fill="#E6E6E6"/>
                        <circle cy="19.857" r="1.196"  cx="76.621" fill="#383838"/>
                    </g>
                    <g gorn="0.1.2.0.0.46"  id="B10pin">
                        <path  d="M74.227,27.058c0-1.322,1.071-2.396,2.396-2.396c1.323,0,2.394,1.071,2.394,2.396" fill="#BFBFBF"/>
                        <path  d="M79.014,27.058c0,1.321-1.07,2.393-2.394,2.393c-1.324,0-2.396-1.07-2.396-2.393" fill="#E6E6E6"/>
                        <circle cy="27.057" r="1.197"  cx="76.621" fill="#383838"/>
                    </g>
                    <g gorn="0.1.2.0.0.47"  id="C10pin">
                        <path  d="M74.227,34.256c0-1.319,1.071-2.394,2.396-2.394c1.323,0,2.394,1.072,2.394,2.394" fill="#BFBFBF"/>
                        <path  d="M79.014,34.256c0,1.322-1.07,2.396-2.394,2.396c-1.324,0-2.396-1.072-2.396-2.396l0,0" fill="#E6E6E6"/>
                        <circle cy="34.257" r="1.196"  cx="76.621" fill="#383838"/>
                    </g>
                    <g gorn="0.1.2.0.0.48"  id="D10pin">
                        <path  d="M74.227,41.457c0-1.322,1.071-2.396,2.396-2.396c1.323,0,2.394,1.072,2.394,2.396" fill="#BFBFBF"/>
                        <path  d="M79.014,41.457c0,1.321-1.07,2.394-2.394,2.394c-1.324,0-2.396-1.07-2.396-2.394" fill="#E6E6E6"/>
                        <circle cy="41.457" r="1.197"  cx="76.621" fill="#383838"/>
                    </g>
                    <g gorn="0.1.2.0.0.49"  id="E10pin">
                        <path  d="M74.227,48.657c0-1.322,1.071-2.394,2.396-2.394c1.323,0,2.394,1.07,2.394,2.394" fill="#BFBFBF"/>
                        <path  d="M79.014,48.657c0,1.322-1.07,2.395-2.394,2.395c-1.324,0-2.396-1.072-2.396-2.395" fill="#E6E6E6"/>
                        <circle cy="48.657" r="1.197"  cx="76.621" fill="#383838"/>
                    </g>
                    <g gorn="0.1.2.0.0.50"  id="A11pin">
                        <path  d="M81.428,19.858c0-1.322,1.069-2.396,2.394-2.396s2.395,1.072,2.395,2.396" fill="#BFBFBF"/>
                        <path  d="M86.214,19.858c0,1.319-1.07,2.393-2.395,2.393s-2.395-1.072-2.395-2.393l0,0" fill="#E6E6E6"/>
                        <circle cy="19.857" r="1.196"  cx="83.821" fill="#383838"/>
                    </g>
                    <g gorn="0.1.2.0.0.51"  id="B11pin">
                        <path  d="M81.428,27.058c0-1.322,1.069-2.396,2.394-2.396s2.395,1.071,2.395,2.396" fill="#BFBFBF"/>
                        <path  d="M86.214,27.058c0,1.321-1.07,2.393-2.395,2.393s-2.395-1.07-2.395-2.393" fill="#E6E6E6"/>
                        <circle cy="27.057" r="1.197"  cx="83.821" fill="#383838"/>
                    </g>
                    <g gorn="0.1.2.0.0.52"  id="C11pin">
                        <path  d="M81.428,34.256c0-1.319,1.069-2.394,2.394-2.394s2.395,1.072,2.395,2.394" fill="#BFBFBF"/>
                        <path  d="M86.214,34.256c0,1.322-1.07,2.396-2.395,2.396s-2.395-1.072-2.395-2.396l0,0" fill="#E6E6E6"/>
                        <circle cy="34.257" r="1.196"  cx="83.821" fill="#383838"/>
                    </g>
                    <g gorn="0.1.2.0.0.53"  id="D11pin">
                        <path  d="M81.428,41.457c0-1.322,1.069-2.396,2.394-2.396s2.395,1.072,2.395,2.396" fill="#BFBFBF"/>
                        <path  d="M86.214,41.457c0,1.321-1.07,2.394-2.395,2.394s-2.395-1.07-2.395-2.394" fill="#E6E6E6"/>
                        <circle cy="41.457" r="1.197"  cx="83.821" fill="#383838"/>
                    </g>
                    <g gorn="0.1.2.0.0.54"  id="E11pin">
                        <path  d="M81.428,48.657c0-1.322,1.069-2.394,2.394-2.394s2.395,1.07,2.395,2.394" fill="#BFBFBF"/>
                        <path  d="M86.214,48.657c0,1.322-1.07,2.395-2.395,2.395s-2.395-1.072-2.395-2.395" fill="#E6E6E6"/>
                        <circle cy="48.657" r="1.197"  cx="83.821" fill="#383838"/>
                    </g>
                    <g gorn="0.1.2.0.0.55"  id="A12pin">
                        <path  d="M88.626,19.858c0-1.322,1.072-2.396,2.396-2.396c1.318,0,2.393,1.072,2.393,2.396" fill="#BFBFBF"/>
                        <path  d="M93.414,19.858c0,1.319-1.072,2.393-2.393,2.393c-1.322,0-2.396-1.072-2.396-2.393l0,0" fill="#E6E6E6"/>
                        <circle cy="19.857" r="1.196"  cx="91.022" fill="#383838"/>
                    </g>
                    <g gorn="0.1.2.0.0.56"  id="B12pin">
                        <path  d="M88.626,27.058c0-1.322,1.072-2.396,2.396-2.396c1.318,0,2.393,1.071,2.393,2.396" fill="#BFBFBF"/>
                        <path  d="M93.414,27.058c0,1.321-1.072,2.393-2.393,2.393c-1.322,0-2.396-1.07-2.396-2.393" fill="#E6E6E6"/>
                        <circle cy="27.057" r="1.197"  cx="91.022" fill="#383838"/>
                    </g>
                    <g gorn="0.1.2.0.0.57"  id="C12pin">
                        <path  d="M88.626,34.256c0-1.319,1.072-2.394,2.396-2.394c1.318,0,2.393,1.072,2.393,2.394" fill="#BFBFBF"/>
                        <path  d="M93.414,34.256c0,1.322-1.072,2.396-2.393,2.396c-1.322,0-2.396-1.072-2.396-2.396l0,0" fill="#E6E6E6"/>
                        <circle cy="34.257" r="1.196"  cx="91.022" fill="#383838"/>
                    </g>
                    <g gorn="0.1.2.0.0.58"  id="D12pin">
                        <path  d="M88.626,41.457c0-1.322,1.072-2.396,2.396-2.396c1.318,0,2.393,1.072,2.393,2.396" fill="#BFBFBF"/>
                        <path  d="M93.414,41.457c0,1.321-1.072,2.394-2.393,2.394c-1.322,0-2.396-1.07-2.396-2.394" fill="#E6E6E6"/>
                        <circle cy="41.457" r="1.197"  cx="91.022" fill="#383838"/>
                    </g>
                    <g gorn="0.1.2.0.0.59"  id="E12pin">
                        <path  d="M88.626,48.657c0-1.322,1.072-2.394,2.396-2.394c1.318,0,2.393,1.07,2.393,2.394" fill="#BFBFBF"/>
                        <path  d="M93.414,48.657c0,1.322-1.072,2.395-2.393,2.395c-1.322,0-2.396-1.072-2.396-2.395" fill="#E6E6E6"/>
                        <circle cy="48.657" r="1.197"  cx="91.022" fill="#383838"/>
                    </g>
                    <g gorn="0.1.2.0.0.60"  id="A13pin">
                        <path  d="M95.826,19.858c0-1.322,1.072-2.396,2.396-2.396c1.322,0,2.393,1.072,2.393,2.396" fill="#BFBFBF"/>
                        <path  d="M100.614,19.858c0,1.319-1.069,2.393-2.393,2.393s-2.396-1.072-2.396-2.393l0,0" fill="#E6E6E6"/>
                        <circle cy="19.857" r="1.196"  cx="98.221" fill="#383838"/>
                    </g>
                    <g gorn="0.1.2.0.0.61"  id="B13pin">
                        <path  d="M95.826,27.058c0-1.322,1.072-2.396,2.396-2.396c1.322,0,2.393,1.071,2.393,2.396" fill="#BFBFBF"/>
                        <path  d="M100.614,27.058c0,1.321-1.069,2.393-2.393,2.393s-2.396-1.07-2.396-2.393" fill="#E6E6E6"/>
                        <circle cy="27.057" r="1.197"  cx="98.221" fill="#383838"/>
                    </g>
                    <g gorn="0.1.2.0.0.62"  id="C13pin">
                        <path  d="M95.826,34.256c0-1.319,1.072-2.394,2.396-2.394c1.322,0,2.393,1.072,2.393,2.394" fill="#BFBFBF"/>
                        <path  d="M100.614,34.256c0,1.322-1.069,2.396-2.393,2.396s-2.396-1.072-2.396-2.396l0,0" fill="#E6E6E6"/>
                        <circle cy="34.257" r="1.196"  cx="98.221" fill="#383838"/>
                    </g>
                    <g gorn="0.1.2.0.0.63"  id="D13pin">
                        <path  d="M95.826,41.457c0-1.322,1.072-2.396,2.396-2.396c1.322,0,2.393,1.072,2.393,2.396" fill="#BFBFBF"/>
                        <path  d="M100.614,41.457c0,1.321-1.069,2.394-2.393,2.394s-2.396-1.07-2.396-2.394" fill="#E6E6E6"/>
                        <circle cy="41.457" r="1.197"  cx="98.221" fill="#383838"/>
                    </g>
                    <g gorn="0.1.2.0.0.64"  id="E13pin">
                        <path  d="M95.826,48.657c0-1.322,1.072-2.394,2.396-2.394c1.322,0,2.393,1.07,2.393,2.394" fill="#BFBFBF"/>
                        <path  d="M100.614,48.657c0,1.322-1.069,2.395-2.393,2.395s-2.396-1.072-2.396-2.395" fill="#E6E6E6"/>
                        <circle cy="48.657" r="1.197"  cx="98.221" fill="#383838"/>
                    </g>
                    <g gorn="0.1.2.0.0.65"  id="A14pin">
                        <path  d="M103.028,19.858c0-1.322,1.07-2.396,2.394-2.396c1.322,0,2.396,1.072,2.396,2.396" fill="#BFBFBF"/>
                        <path  d="M107.815,19.858c0,1.319-1.071,2.393-2.396,2.393c-1.322,0-2.394-1.072-2.394-2.393l0,0" fill="#E6E6E6"/>
                        <circle cy="19.857" r="1.196"  cx="105.419" fill="#383838"/>
                    </g>
                    <g gorn="0.1.2.0.0.66"  id="B14pin">
                        <path  d="M103.028,27.058c0-1.322,1.07-2.396,2.394-2.396c1.322,0,2.396,1.071,2.396,2.396" fill="#BFBFBF"/>
                        <path  d="M107.815,27.058c0,1.321-1.071,2.393-2.396,2.393c-1.322,0-2.394-1.07-2.394-2.393" fill="#E6E6E6"/>
                        <circle cy="27.057" r="1.197"  cx="105.419" fill="#383838"/>
                    </g>
                    <g gorn="0.1.2.0.0.67"  id="C14pin">
                        <path  d="M103.028,34.256c0-1.319,1.07-2.394,2.394-2.394c1.322,0,2.396,1.072,2.396,2.394" fill="#BFBFBF"/>
                        <path  d="M107.815,34.256c0,1.322-1.071,2.396-2.396,2.396c-1.322,0-2.394-1.072-2.394-2.396l0,0" fill="#E6E6E6"/>
                        <circle cy="34.257" r="1.196"  cx="105.419" fill="#383838"/>
                    </g>
                    <g gorn="0.1.2.0.0.68"  id="D14pin">
                        <path  d="M103.028,41.457c0-1.322,1.07-2.396,2.394-2.396c1.322,0,2.396,1.072,2.396,2.396" fill="#BFBFBF"/>
                        <path  d="M107.815,41.457c0,1.321-1.071,2.394-2.396,2.394c-1.322,0-2.394-1.07-2.394-2.394" fill="#E6E6E6"/>
                        <circle cy="41.457" r="1.197"  cx="105.419" fill="#383838"/>
                    </g>
                    <g gorn="0.1.2.0.0.69"  id="E14pin">
                        <path  d="M103.028,48.657c0-1.322,1.07-2.394,2.394-2.394c1.322,0,2.396,1.07,2.396,2.394" fill="#BFBFBF"/>
                        <path  d="M107.815,48.657c0,1.322-1.071,2.395-2.396,2.395c-1.322,0-2.394-1.072-2.394-2.395" fill="#E6E6E6"/>
                        <circle cy="48.657" r="1.197"  cx="105.419" fill="#383838"/>
                    </g>
                    <g gorn="0.1.2.0.0.70"  id="A15pin">
                        <path  d="M110.227,19.858c0.002-1.322,1.075-2.394,2.397-2.392c1.317,0.002,2.387,1.07,2.39,2.392" fill="#BFBFBF"/>
                        <path  d="M115.014,19.858c0.002,1.319-1.068,2.395-2.39,2.396c-1.322,0.002-2.396-1.067-2.397-2.392c0-0.002,0-0.004,0-0.006" fill="#E6E6E6"/>
                        <circle cy="19.857" r="1.196"  cx="112.621" fill="#383838"/>
                    </g>
                    <g gorn="0.1.2.0.0.71"  id="B15pin">
                        <path  d="M110.227,27.058c0.002-1.322,1.075-2.394,2.397-2.392c1.317,0.002,2.387,1.071,2.39,2.392" fill="#BFBFBF"/>
                        <path  d="M115.014,27.058c0.002,1.321-1.068,2.395-2.39,2.396c-1.322,0.002-2.396-1.068-2.397-2.39c0-0.004,0-0.006,0-0.008" fill="#E6E6E6"/>
                        <circle cy="27.057" r="1.197"  cx="112.621" fill="#383838"/>
                    </g>
                    <g gorn="0.1.2.0.0.72"  id="C15pin">
                        <path  d="M110.227,34.256c0.002-1.319,1.075-2.392,2.397-2.39c1.317,0.003,2.387,1.07,2.39,2.39" fill="#BFBFBF"/>
                        <path  d="M115.014,34.256c0.002,1.322-1.068,2.396-2.39,2.397c-1.322,0.002-2.396-1.067-2.397-2.391c0-0.002,0-0.004,0-0.008" fill="#E6E6E6"/>
                        <circle cy="34.257" r="1.196"  cx="112.621" fill="#383838"/>
                    </g>
                    <g gorn="0.1.2.0.0.73"  id="D15pin">
                        <path  d="M110.227,41.457c0.002-1.322,1.075-2.394,2.397-2.392c1.317,0.002,2.387,1.07,2.39,2.392" fill="#BFBFBF"/>
                        <path  d="M115.014,41.457c0.002,1.321-1.068,2.396-2.39,2.396c-1.322,0.002-2.396-1.067-2.397-2.391c0-0.002,0-0.004,0-0.006" fill="#E6E6E6"/>
                        <circle cy="41.457" r="1.197"  cx="112.621" fill="#383838"/>
                    </g>
                    <g gorn="0.1.2.0.0.74"  id="E15pin">
                        <path  d="M110.227,48.657c0.002-1.322,1.075-2.394,2.397-2.391c1.317,0.002,2.387,1.071,2.39,2.391" fill="#BFBFBF"/>
                        <path  d="M115.014,48.657c0.002,1.322-1.068,2.395-2.39,2.396c-1.322,0.005-2.396-1.065-2.397-2.389c0-0.002,0-0.007,0-0.009" fill="#E6E6E6"/>
                        <circle cy="48.657" r="1.197"  cx="112.621" fill="#383838"/>
                    </g>
                    <g gorn="0.1.2.0.0.75"  id="A16pin">
                        <path  d="M117.428,19.858c0.003-1.322,1.073-2.394,2.396-2.392c1.318,0.002,2.389,1.07,2.391,2.392" fill="#BFBFBF"/>
                        <path  d="M122.214,19.858c0.002,1.319-1.066,2.395-2.391,2.396s-2.395-1.067-2.396-2.392c0-0.002,0-0.004,0-0.006" fill="#E6E6E6"/>
                        <circle cy="19.857" r="1.196"  cx="119.821" fill="#383838"/>
                    </g>
                    <g gorn="0.1.2.0.0.76"  id="B16pin">
                        <path  d="M117.428,27.058c0.003-1.322,1.073-2.394,2.396-2.392c1.318,0.002,2.389,1.071,2.391,2.392" fill="#BFBFBF"/>
                        <path  d="M122.214,27.058c0.002,1.321-1.066,2.395-2.391,2.396s-2.395-1.068-2.396-2.39c0-0.004,0-0.006,0-0.008" fill="#E6E6E6"/>
                        <circle cy="27.057" r="1.197"  cx="119.821" fill="#383838"/>
                    </g>
                    <g gorn="0.1.2.0.0.77"  id="C16pin">
                        <path  d="M117.428,34.256c0.003-1.319,1.073-2.392,2.396-2.39c1.318,0.003,2.389,1.07,2.391,2.39" fill="#BFBFBF"/>
                        <path  d="M122.214,34.256c0.002,1.322-1.066,2.396-2.391,2.397s-2.395-1.067-2.396-2.391c0-0.002,0-0.004,0-0.008" fill="#E6E6E6"/>
                        <circle cy="34.257" r="1.196"  cx="119.821" fill="#383838"/>
                    </g>
                    <g gorn="0.1.2.0.0.78"  id="D16pin">
                        <path  d="M117.428,41.457c0.003-1.322,1.073-2.394,2.396-2.392c1.318,0.002,2.389,1.07,2.391,2.392" fill="#BFBFBF"/>
                        <path  d="M122.214,41.457c0.002,1.321-1.066,2.396-2.391,2.396c-1.322,0.002-2.395-1.067-2.396-2.391c0-0.002,0-0.004,0-0.006" fill="#E6E6E6"/>
                        <circle cy="41.457" r="1.197"  cx="119.821" fill="#383838"/>
                    </g>
                    <g gorn="0.1.2.0.0.79"  id="E16pin">
                        <path  d="M117.428,48.657c0.003-1.322,1.073-2.394,2.396-2.391c1.318,0.002,2.389,1.071,2.391,2.391" fill="#BFBFBF"/>
                        <path  d="M122.214,48.657c0.002,1.322-1.066,2.395-2.391,2.396c-1.322,0.005-2.395-1.065-2.396-2.389c0-0.002,0-0.007,0-0.009" fill="#E6E6E6"/>
                        <circle cy="48.657" r="1.197"  cx="119.821" fill="#383838"/>
                    </g>
                    <g gorn="0.1.2.0.0.80"  id="A17pin">
                        <path  d="M124.626,19.858c0.002-1.322,1.074-2.394,2.396-2.392c1.318,0.002,2.389,1.07,2.391,2.392" fill="#BFBFBF"/>
                        <path  d="M129.414,19.858c0.002,1.319-1.067,2.395-2.392,2.396c-1.321,0.002-2.396-1.067-2.396-2.392c0-0.002,0-0.004,0-0.006" fill="#E6E6E6"/>
                        <circle cy="19.857" r="1.196"  cx="127.02" fill="#383838"/>
                    </g>
                    <g gorn="0.1.2.0.0.81"  id="B17pin">
                        <path  d="M124.626,27.058c0.002-1.322,1.074-2.394,2.396-2.392c1.318,0.002,2.389,1.071,2.391,2.392" fill="#BFBFBF"/>
                        <path  d="M129.414,27.058c0.002,1.321-1.067,2.395-2.392,2.396c-1.321,0.002-2.396-1.068-2.396-2.39c0-0.004,0-0.006,0-0.008" fill="#E6E6E6"/>
                        <circle cy="27.057" r="1.197"  cx="127.02" fill="#383838"/>
                    </g>
                    <g gorn="0.1.2.0.0.82"  id="C17pin">
                        <path  d="M124.626,34.256c0.002-1.319,1.074-2.392,2.396-2.39c1.318,0.003,2.389,1.07,2.391,2.39" fill="#BFBFBF"/>
                        <path  d="M129.414,34.256c0.002,1.322-1.067,2.396-2.392,2.397c-1.321,0.002-2.396-1.067-2.396-2.391c0-0.002,0-0.004,0-0.008" fill="#E6E6E6"/>
                        <circle cy="34.257" r="1.196"  cx="127.02" fill="#383838"/>
                    </g>
                    <g gorn="0.1.2.0.0.83"  id="D17pin">
                        <path  d="M124.626,41.457c0.002-1.322,1.074-2.394,2.396-2.392c1.318,0.002,2.389,1.07,2.391,2.392" fill="#BFBFBF"/>
                        <path  d="M129.414,41.457c0.002,1.321-1.067,2.396-2.392,2.396c-1.321,0.002-2.396-1.067-2.396-2.391c0-0.002,0-0.004,0-0.006" fill="#E6E6E6"/>
                        <circle cy="41.457" r="1.197"  cx="127.02" fill="#383838"/>
                    </g>
                    <g gorn="0.1.2.0.0.84"  id="E17pin">
                        <path  d="M124.626,48.657c0.002-1.322,1.074-2.394,2.396-2.391c1.318,0.002,2.389,1.071,2.391,2.391" fill="#BFBFBF"/>
                        <path  d="M129.414,48.657c0.002,1.322-1.067,2.395-2.392,2.396c-1.321,0.005-2.396-1.065-2.396-2.389c0-0.002,0-0.007,0-0.009" fill="#E6E6E6"/>
                        <circle cy="48.657" r="1.197"  cx="127.02" fill="#383838"/>
                    </g>
                    <g gorn="0.1.2.0.0.85"  id="F1pin">
                        <path  d="M9.427,70.256c0-1.32,1.071-2.395,2.395-2.395c1.324,0,2.394,1.07,2.394,2.395" fill="#BFBFBF"/>
                        <path  d="M14.214,70.256c0,1.322-1.07,2.396-2.394,2.396c-1.324,0-2.395-1.072-2.395-2.396l0,0" fill="#E6E6E6"/>
                        <circle cy="70.257" r="1.196"  cx="11.822" fill="#383838"/>
                    </g>
                    <g gorn="0.1.2.0.0.86"  id="G1pin">
                        <path  d="M9.427,77.457c0-1.322,1.071-2.396,2.395-2.396c1.324,0,2.394,1.072,2.394,2.396" fill="#BFBFBF"/>
                        <path  d="M14.214,77.457c0,1.32-1.07,2.395-2.394,2.395c-1.324,0-2.395-1.07-2.395-2.395l0,0" fill="#E6E6E6"/>
                        <circle cy="77.456" r="1.196"  cx="11.822" fill="#383838"/>
                    </g>
                    <g gorn="0.1.2.0.0.87"  id="H1pin">
                        <path  d="M9.427,84.657c0-1.322,1.071-2.394,2.395-2.394c1.324,0,2.394,1.069,2.394,2.394" fill="#BFBFBF"/>
                        <path  d="M14.214,84.657c0,1.321-1.07,2.395-2.394,2.395c-1.324,0-2.395-1.071-2.395-2.395" fill="#E6E6E6"/>
                        <circle cy="84.657" r="1.197"  cx="11.822" fill="#383838"/>
                    </g>
                    <g gorn="0.1.2.0.0.88"  id="I1pin">
                        <path  d="M9.427,91.857c0-1.321,1.071-2.396,2.395-2.396c1.324,0,2.394,1.072,2.394,2.396" fill="#BFBFBF"/>
                        <path  d="M14.214,91.857c0,1.319-1.07,2.394-2.394,2.394c-1.324,0-2.395-1.071-2.395-2.394l0,0" fill="#E6E6E6"/>
                        <circle cy="91.857" r="1.196"  cx="11.822" fill="#383838"/>
                    </g>
                    <g gorn="0.1.2.0.0.89"  id="J1pin">
                        <path  d="M9.427,99.059c0-1.322,1.071-2.396,2.395-2.396c1.324,0,2.394,1.07,2.394,2.396" fill="#BFBFBF"/>
                        <path  d="M14.214,99.059c0,1.32-1.07,2.393-2.394,2.393c-1.324,0-2.395-1.07-2.395-2.393l0,0" fill="#E6E6E6"/>
                        <circle cy="99.057" r="1.197"  cx="11.822" fill="#383838"/>
                    </g>
                    <g gorn="0.1.2.0.0.90"  id="F2pin">
                        <path  d="M16.627,70.256c0-1.32,1.071-2.395,2.395-2.395c1.32,0,2.394,1.07,2.394,2.395" fill="#BFBFBF"/>
                        <path  d="M21.414,70.256c0,1.322-1.07,2.396-2.393,2.396c-1.323,0-2.396-1.069-2.396-2.394c0-0.002,0-0.002,0-0.004" fill="#E6E6E6"/>
                        <circle cy="70.257" r="1.196"  cx="19.022" fill="#383838"/>
                    </g>
                    <g gorn="0.1.2.0.0.91"  id="G2pin">
                        <path  d="M16.627,77.457c0-1.322,1.071-2.396,2.395-2.396c1.32,0,2.394,1.072,2.394,2.396" fill="#BFBFBF"/>
                        <path  d="M21.414,77.457c0,1.32-1.07,2.396-2.393,2.396c-1.323,0-2.396-1.07-2.396-2.395v-0.002" fill="#E6E6E6"/>
                        <circle cy="77.456" r="1.196"  cx="19.022" fill="#383838"/>
                    </g>
                    <g gorn="0.1.2.0.0.92"  id="H2pin">
                        <path  d="M16.627,84.657c0-1.322,1.071-2.394,2.395-2.394c1.32,0,2.394,1.069,2.394,2.394" fill="#BFBFBF"/>
                        <path  d="M21.414,84.657c0,1.321-1.07,2.395-2.393,2.395c-1.322,0.003-2.396-1.069-2.396-2.393c0,0,0,0,0-0.002" fill="#E6E6E6"/>
                        <circle cy="84.657" r="1.197"  cx="19.022" fill="#383838"/>
                    </g>
                    <g gorn="0.1.2.0.0.93"  id="I2pin">
                        <path  d="M16.627,91.857c0-1.321,1.071-2.396,2.395-2.396c1.32,0,2.394,1.072,2.394,2.396" fill="#BFBFBF"/>
                        <path  d="M21.414,91.857c0,1.319-1.07,2.394-2.393,2.396c-1.322,0-2.396-1.069-2.396-2.394c0-0.002,0-0.002,0-0.002" fill="#E6E6E6"/>
                        <circle cy="91.857" r="1.196"  cx="19.022" fill="#383838"/>
                    </g>
                    <g gorn="0.1.2.0.0.94"  id="J2pin">
                        <path  d="M16.627,99.059c0-1.322,1.071-2.396,2.395-2.396c1.32,0,2.394,1.07,2.394,2.396" fill="#BFBFBF"/>
                        <path  d="M21.414,99.059c0,1.32-1.07,2.395-2.393,2.395c-1.323,0-2.396-1.07-2.396-2.393v-0.002" fill="#E6E6E6"/>
                        <circle cy="99.057" r="1.197"  cx="19.022" fill="#383838"/>
                    </g>
                    <g gorn="0.1.2.0.0.95"  id="F3pin">
                        <path  d="M23.826,70.256c0-1.32,1.072-2.395,2.395-2.395c1.321,0,2.395,1.07,2.395,2.395" fill="#BFBFBF"/>
                        <path  d="M28.615,70.256c0,1.322-1.072,2.396-2.395,2.396c-1.321,0-2.395-1.072-2.395-2.396" fill="#E6E6E6"/>
                        <circle cy="70.257" r="1.196"  cx="26.221" fill="#383838"/>
                    </g>
                    <g gorn="0.1.2.0.0.96"  id="G3pin">
                        <path  d="M23.826,77.457c0-1.322,1.072-2.396,2.395-2.396c1.321,0,2.395,1.072,2.395,2.396" fill="#BFBFBF"/>
                        <path  d="M28.615,77.457c0,1.32-1.072,2.395-2.395,2.395c-1.321,0-2.395-1.07-2.395-2.395" fill="#E6E6E6"/>
                        <circle cy="77.456" r="1.196"  cx="26.221" fill="#383838"/>
                    </g>
                    <g gorn="0.1.2.0.0.97"  id="H3pin">
                        <path  d="M23.826,84.657c0-1.322,1.072-2.394,2.395-2.394c1.321,0,2.395,1.069,2.395,2.394" fill="#BFBFBF"/>
                        <path  d="M28.615,84.657c0,1.321-1.072,2.395-2.395,2.395c-1.321,0-2.395-1.071-2.395-2.395l0,0" fill="#E6E6E6"/>
                        <circle cy="84.657" r="1.197"  cx="26.221" fill="#383838"/>
                    </g>
                    <g gorn="0.1.2.0.0.98"  id="I3pin">
                        <path  d="M23.826,91.857c0-1.321,1.072-2.396,2.395-2.396c1.321,0,2.395,1.072,2.395,2.396" fill="#BFBFBF"/>
                        <path  d="M28.615,91.857c0,1.319-1.072,2.394-2.395,2.394c-1.321,0-2.395-1.071-2.395-2.394" fill="#E6E6E6"/>
                        <circle cy="91.857" r="1.196"  cx="26.221" fill="#383838"/>
                    </g>
                    <g gorn="0.1.2.0.0.99"  id="J3pin">
                        <path  d="M23.826,99.059c0-1.322,1.072-2.396,2.395-2.396c1.321,0,2.395,1.07,2.395,2.396" fill="#BFBFBF"/>
                        <path  d="M28.615,99.059c0,1.32-1.072,2.393-2.395,2.393c-1.321,0-2.395-1.07-2.395-2.393l0,0" fill="#E6E6E6"/>
                        <circle cy="99.057" r="1.197"  cx="26.221" fill="#383838"/>
                    </g>
                    <g gorn="0.1.2.0.0.100"  id="F4pin">
                        <path  d="M31.028,70.256c0-1.32,1.072-2.395,2.394-2.395c1.322,0,2.395,1.07,2.395,2.395" fill="#BFBFBF"/>
                        <path  d="M35.815,70.256c0,1.322-1.071,2.396-2.395,2.396c-1.32,0-2.394-1.072-2.394-2.396" fill="#E6E6E6"/>
                        <circle cy="70.257" r="1.196"  cx="33.42" fill="#383838"/>
                    </g>
                    <g gorn="0.1.2.0.0.101"  id="G4pin">
                        <path  d="M31.028,77.457c0-1.322,1.072-2.396,2.394-2.396c1.322,0,2.395,1.072,2.395,2.396" fill="#BFBFBF"/>
                        <path  d="M35.815,77.457c0,1.32-1.071,2.395-2.395,2.395c-1.32,0-2.394-1.07-2.394-2.395" fill="#E6E6E6"/>
                        <circle cy="77.456" r="1.196"  cx="33.42" fill="#383838"/>
                    </g>
                    <g gorn="0.1.2.0.0.102"  id="H4pin">
                        <path  d="M31.028,84.657c0-1.322,1.072-2.394,2.394-2.394c1.322,0,2.395,1.069,2.395,2.394" fill="#BFBFBF"/>
                        <path  d="M35.815,84.657c0,1.321-1.071,2.395-2.395,2.395c-1.32,0-2.394-1.071-2.394-2.395l0,0" fill="#E6E6E6"/>
                        <circle cy="84.657" r="1.197"  cx="33.42" fill="#383838"/>
                    </g>
                    <g gorn="0.1.2.0.0.103"  id="I4pin">
                        <path  d="M31.028,91.857c0-1.321,1.072-2.396,2.394-2.396c1.322,0,2.395,1.072,2.395,2.396" fill="#BFBFBF"/>
                        <path  d="M35.815,91.857c0,1.319-1.071,2.394-2.395,2.394c-1.32,0-2.394-1.071-2.394-2.394" fill="#E6E6E6"/>
                        <circle cy="91.857" r="1.196"  cx="33.42" fill="#383838"/>
                    </g>
                    <g gorn="0.1.2.0.0.104"  id="J4pin">
                        <path  d="M31.028,99.059c0-1.322,1.072-2.396,2.394-2.396c1.322,0,2.395,1.07,2.395,2.396" fill="#BFBFBF"/>
                        <path  d="M35.815,99.059c0,1.32-1.071,2.393-2.395,2.393c-1.32,0-2.394-1.07-2.394-2.393l0,0" fill="#E6E6E6"/>
                        <circle cy="99.057" r="1.197"  cx="33.42" fill="#383838"/>
                    </g>
                    <g gorn="0.1.2.0.0.105"  id="F5pin">
                        <path  d="M38.228,70.256c0-1.32,1.07-2.395,2.394-2.395c1.324,0,2.395,1.07,2.395,2.395" fill="#BFBFBF"/>
                        <path  d="M43.015,70.256c0,1.322-1.071,2.396-2.395,2.396c-1.324,0-2.394-1.072-2.394-2.396" fill="#E6E6E6"/>
                        <circle cy="70.257" r="1.196"  cx="40.62" fill="#383838"/>
                    </g>
                    <g gorn="0.1.2.0.0.106"  id="G5pin">
                        <path  d="M38.228,77.457c0-1.322,1.07-2.396,2.394-2.396c1.324,0,2.395,1.072,2.395,2.396" fill="#BFBFBF"/>
                        <path  d="M43.015,77.457c0,1.32-1.071,2.395-2.395,2.395c-1.324,0-2.394-1.07-2.394-2.395" fill="#E6E6E6"/>
                        <circle cy="77.456" r="1.196"  cx="40.62" fill="#383838"/>
                    </g>
                    <g gorn="0.1.2.0.0.107"  id="H5pin">
                        <path  d="M38.228,84.657c0-1.322,1.07-2.394,2.394-2.394c1.324,0,2.395,1.069,2.395,2.394" fill="#BFBFBF"/>
                        <path  d="M43.015,84.657c0,1.321-1.071,2.395-2.395,2.395c-1.324,0-2.394-1.071-2.394-2.395l0,0" fill="#E6E6E6"/>
                        <circle cy="84.657" r="1.197"  cx="40.62" fill="#383838"/>
                    </g>
                    <g gorn="0.1.2.0.0.108"  id="I5pin">
                        <path  d="M38.228,91.857c0-1.321,1.07-2.396,2.394-2.396c1.324,0,2.395,1.072,2.395,2.396" fill="#BFBFBF"/>
                        <path  d="M43.015,91.857c0,1.319-1.071,2.394-2.395,2.394c-1.324,0-2.394-1.071-2.394-2.394" fill="#E6E6E6"/>
                        <circle cy="91.857" r="1.196"  cx="40.62" fill="#383838"/>
                    </g>
                    <g gorn="0.1.2.0.0.109"  id="J5pin">
                        <path  d="M38.228,99.059c0-1.322,1.07-2.396,2.394-2.396c1.324,0,2.395,1.07,2.395,2.396" fill="#BFBFBF"/>
                        <path  d="M43.015,99.059c0,1.32-1.071,2.393-2.395,2.393c-1.324,0-2.394-1.07-2.394-2.393l0,0" fill="#E6E6E6"/>
                        <circle cy="99.057" r="1.197"  cx="40.62" fill="#383838"/>
                    </g>
                    <g gorn="0.1.2.0.0.110"  id="F6pin">
                        <path  d="M45.427,70.256c0-1.32,1.071-2.395,2.395-2.395c1.324,0,2.394,1.07,2.394,2.395" fill="#BFBFBF"/>
                        <path  d="M50.214,70.256c0,1.322-1.07,2.396-2.394,2.396c-1.324,0-2.395-1.072-2.395-2.396" fill="#E6E6E6"/>
                        <circle cy="70.257" r="1.196"  cx="47.822" fill="#383838"/>
                    </g>
                    <g gorn="0.1.2.0.0.111"  id="G6pin">
                        <path  d="M45.427,77.457c0-1.322,1.071-2.396,2.395-2.396c1.324,0,2.394,1.072,2.394,2.396" fill="#BFBFBF"/>
                        <path  d="M50.214,77.457c0,1.32-1.07,2.395-2.394,2.395c-1.324,0-2.395-1.07-2.395-2.395" fill="#E6E6E6"/>
                        <circle cy="77.456" r="1.196"  cx="47.822" fill="#383838"/>
                    </g>
                    <g gorn="0.1.2.0.0.112"  id="H6pin">
                        <path  d="M45.427,84.657c0-1.322,1.071-2.394,2.395-2.394c1.324,0,2.394,1.069,2.394,2.394" fill="#BFBFBF"/>
                        <path  d="M50.214,84.657c0,1.321-1.07,2.395-2.394,2.395c-1.324,0-2.395-1.071-2.395-2.395l0,0" fill="#E6E6E6"/>
                        <circle cy="84.657" r="1.197"  cx="47.822" fill="#383838"/>
                    </g>
                    <g gorn="0.1.2.0.0.113"  id="I6pin">
                        <path  d="M45.427,91.857c0-1.321,1.071-2.396,2.395-2.396c1.324,0,2.394,1.072,2.394,2.396" fill="#BFBFBF"/>
                        <path  d="M50.214,91.857c0,1.319-1.07,2.394-2.394,2.394c-1.324,0-2.395-1.071-2.395-2.394" fill="#E6E6E6"/>
                        <circle cy="91.857" r="1.196"  cx="47.822" fill="#383838"/>
                    </g>
                    <g gorn="0.1.2.0.0.114"  id="J6pin">
                        <path  d="M45.427,99.059c0-1.322,1.071-2.396,2.395-2.396c1.324,0,2.394,1.07,2.394,2.396" fill="#BFBFBF"/>
                        <path  d="M50.214,99.059c0,1.32-1.07,2.393-2.394,2.393c-1.324,0-2.395-1.07-2.395-2.393l0,0" fill="#E6E6E6"/>
                        <circle cy="99.057" r="1.197"  cx="47.822" fill="#383838"/>
                    </g>
                    <g gorn="0.1.2.0.0.115"  id="F7pin">
                        <path  d="M52.627,70.256c0-1.32,1.071-2.395,2.395-2.395c1.32,0,2.394,1.07,2.394,2.395" fill="#BFBFBF"/>
                        <path  d="M57.414,70.256c0,1.322-1.072,2.396-2.394,2.396s-2.395-1.072-2.395-2.396" fill="#E6E6E6"/>
                        <circle cy="70.257" r="1.196"  cx="55.022" fill="#383838"/>
                    </g>
                    <g gorn="0.1.2.0.0.116"  id="G7pin">
                        <path  d="M52.627,77.457c0-1.322,1.071-2.396,2.395-2.396c1.32,0,2.394,1.072,2.394,2.396" fill="#BFBFBF"/>
                        <path  d="M57.414,77.457c0,1.32-1.072,2.395-2.394,2.395s-2.395-1.07-2.395-2.395" fill="#E6E6E6"/>
                        <circle cy="77.456" r="1.196"  cx="55.022" fill="#383838"/>
                    </g>
                    <g gorn="0.1.2.0.0.117"  id="H7pin">
                        <path  d="M52.627,84.657c0-1.322,1.071-2.394,2.395-2.394c1.32,0,2.394,1.069,2.394,2.394" fill="#BFBFBF"/>
                        <path  d="M57.414,84.657c0,1.321-1.072,2.395-2.394,2.395s-2.395-1.071-2.395-2.395l0,0" fill="#E6E6E6"/>
                        <circle cy="84.657" r="1.197"  cx="55.022" fill="#383838"/>
                    </g>
                    <g gorn="0.1.2.0.0.118"  id="I7pin">
                        <path  d="M52.627,91.857c0-1.321,1.071-2.396,2.395-2.396c1.32,0,2.394,1.072,2.394,2.396" fill="#BFBFBF"/>
                        <path  d="M57.414,91.857c0,1.319-1.072,2.394-2.394,2.394s-2.395-1.071-2.395-2.394" fill="#E6E6E6"/>
                        <circle cy="91.857" r="1.196"  cx="55.022" fill="#383838"/>
                    </g>
                    <g gorn="0.1.2.0.0.119"  id="J7pin">
                        <path  d="M52.627,99.059c0-1.322,1.071-2.396,2.395-2.396c1.32,0,2.394,1.07,2.394,2.396" fill="#BFBFBF"/>
                        <path  d="M57.414,99.059c0,1.32-1.072,2.393-2.394,2.393s-2.395-1.07-2.395-2.393l0,0" fill="#E6E6E6"/>
                        <circle cy="99.057" r="1.197"  cx="55.022" fill="#383838"/>
                    </g>
                    <g gorn="0.1.2.0.0.120"  id="F8pin">
                        <path  d="M59.826,70.256c0-1.32,1.072-2.395,2.395-2.395c1.321,0,2.393,1.07,2.393,2.395" fill="#BFBFBF"/>
                        <path  d="M64.614,70.256c0,1.322-1.07,2.396-2.393,2.396c-1.323,0-2.395-1.072-2.395-2.396" fill="#E6E6E6"/>
                        <circle cy="70.257" r="1.196"  cx="62.221" fill="#383838"/>
                    </g>
                    <g gorn="0.1.2.0.0.121"  id="G8pin">
                        <path  d="M59.826,77.457c0-1.322,1.072-2.396,2.395-2.396c1.321,0,2.393,1.072,2.393,2.396" fill="#BFBFBF"/>
                        <path  d="M64.614,77.457c0,1.32-1.07,2.395-2.393,2.395c-1.323,0-2.395-1.07-2.395-2.395" fill="#E6E6E6"/>
                        <circle cy="77.456" r="1.196"  cx="62.221" fill="#383838"/>
                    </g>
                    <g gorn="0.1.2.0.0.122"  id="H8pin">
                        <path  d="M59.826,84.657c0-1.322,1.072-2.394,2.395-2.394c1.321,0,2.393,1.069,2.393,2.394" fill="#BFBFBF"/>
                        <path  d="M64.614,84.657c0,1.321-1.07,2.395-2.393,2.395c-1.323,0-2.395-1.071-2.395-2.395l0,0" fill="#E6E6E6"/>
                        <circle cy="84.657" r="1.197"  cx="62.221" fill="#383838"/>
                    </g>
                    <g gorn="0.1.2.0.0.123"  id="I8pin">
                        <path  d="M59.826,91.857c0-1.321,1.072-2.396,2.395-2.396c1.321,0,2.393,1.072,2.393,2.396" fill="#BFBFBF"/>
                        <path  d="M64.614,91.857c0,1.319-1.07,2.394-2.393,2.394c-1.323,0-2.395-1.071-2.395-2.394" fill="#E6E6E6"/>
                        <circle cy="91.857" r="1.196"  cx="62.221" fill="#383838"/>
                    </g>
                    <g gorn="0.1.2.0.0.124"  id="J8pin">
                        <path  d="M59.826,99.059c0-1.322,1.072-2.396,2.395-2.396c1.321,0,2.393,1.07,2.393,2.396" fill="#BFBFBF"/>
                        <path  d="M64.614,99.059c0,1.32-1.07,2.393-2.393,2.393c-1.323,0-2.395-1.07-2.395-2.393l0,0" fill="#E6E6E6"/>
                        <circle cy="99.057" r="1.197"  cx="62.221" fill="#383838"/>
                    </g>
                    <g gorn="0.1.2.0.0.125"  id="F9pin">
                        <path  d="M67.028,70.256c0-1.32,1.072-2.395,2.393-2.395c1.323,0,2.396,1.07,2.396,2.395" fill="#BFBFBF"/>
                        <path  d="M71.815,70.256c0,1.322-1.071,2.396-2.396,2.396c-1.319,0-2.393-1.072-2.393-2.396" fill="#E6E6E6"/>
                        <circle cy="70.257" r="1.196"  cx="69.42" fill="#383838"/>
                    </g>
                    <g gorn="0.1.2.0.0.126"  id="G9pin">
                        <path  d="M67.028,77.457c0-1.322,1.072-2.396,2.393-2.396c1.323,0,2.396,1.072,2.396,2.396" fill="#BFBFBF"/>
                        <path  d="M71.815,77.457c0,1.32-1.071,2.395-2.396,2.395c-1.319,0-2.393-1.07-2.393-2.395" fill="#E6E6E6"/>
                        <circle cy="77.456" r="1.196"  cx="69.42" fill="#383838"/>
                    </g>
                    <g gorn="0.1.2.0.0.127"  id="H9pin">
                        <path  d="M67.028,84.657c0-1.322,1.072-2.394,2.393-2.394c1.323,0,2.396,1.069,2.396,2.394" fill="#BFBFBF"/>
                        <path  d="M71.815,84.657c0,1.321-1.071,2.395-2.396,2.395c-1.319,0-2.393-1.071-2.393-2.395l0,0" fill="#E6E6E6"/>
                        <circle cy="84.657" r="1.197"  cx="69.42" fill="#383838"/>
                    </g>
                    <g gorn="0.1.2.0.0.128"  id="I9pin">
                        <path  d="M67.028,91.857c0-1.321,1.072-2.396,2.393-2.396c1.323,0,2.396,1.072,2.396,2.396" fill="#BFBFBF"/>
                        <path  d="M71.815,91.857c0,1.319-1.071,2.394-2.396,2.394c-1.319,0-2.393-1.071-2.393-2.394" fill="#E6E6E6"/>
                        <circle cy="91.857" r="1.196"  cx="69.42" fill="#383838"/>
                    </g>
                    <g gorn="0.1.2.0.0.129"  id="J9pin">
                        <path  d="M67.028,99.059c0-1.322,1.072-2.396,2.393-2.396c1.323,0,2.396,1.07,2.396,2.396" fill="#BFBFBF"/>
                        <path  d="M71.815,99.059c0,1.32-1.071,2.393-2.396,2.393c-1.319,0-2.393-1.07-2.393-2.393l0,0" fill="#E6E6E6"/>
                        <circle cy="99.057" r="1.197"  cx="69.42" fill="#383838"/>
                    </g>
                    <g gorn="0.1.2.0.0.130"  id="F10pin">
                        <path  d="M74.227,70.256c0-1.32,1.071-2.395,2.396-2.395c1.323,0,2.394,1.07,2.394,2.395" fill="#BFBFBF"/>
                        <path  d="M79.014,70.256c0,1.322-1.07,2.396-2.394,2.396c-1.324,0-2.396-1.072-2.396-2.396" fill="#E6E6E6"/>
                        <circle cy="70.257" r="1.196"  cx="76.621" fill="#383838"/>
                    </g>
                    <g gorn="0.1.2.0.0.131"  id="G10pin">
                        <path  d="M74.227,77.457c0-1.322,1.071-2.396,2.396-2.396c1.323,0,2.394,1.072,2.394,2.396" fill="#BFBFBF"/>
                        <path  d="M79.014,77.457c0,1.32-1.07,2.395-2.394,2.395c-1.324,0-2.396-1.07-2.396-2.395" fill="#E6E6E6"/>
                        <circle cy="77.456" r="1.196"  cx="76.621" fill="#383838"/>
                    </g>
                    <g gorn="0.1.2.0.0.132"  id="H10pin">
                        <path  d="M74.227,84.657c0-1.322,1.071-2.394,2.396-2.394c1.323,0,2.394,1.069,2.394,2.394" fill="#BFBFBF"/>
                        <path  d="M79.014,84.657c0,1.321-1.07,2.395-2.394,2.395c-1.324,0-2.396-1.071-2.396-2.395l0,0" fill="#E6E6E6"/>
                        <circle cy="84.657" r="1.197"  cx="76.621" fill="#383838"/>
                    </g>
                    <g gorn="0.1.2.0.0.133"  id="I10pin">
                        <path  d="M74.227,91.857c0-1.321,1.071-2.396,2.396-2.396c1.323,0,2.394,1.072,2.394,2.396" fill="#BFBFBF"/>
                        <path  d="M79.014,91.857c0,1.319-1.07,2.394-2.394,2.394c-1.324,0-2.396-1.071-2.396-2.394" fill="#E6E6E6"/>
                        <circle cy="91.857" r="1.196"  cx="76.621" fill="#383838"/>
                    </g>
                    <g gorn="0.1.2.0.0.134"  id="J10pin">
                        <path  d="M74.227,99.059c0-1.322,1.071-2.396,2.396-2.396c1.323,0,2.394,1.07,2.394,2.396" fill="#BFBFBF"/>
                        <path  d="M79.014,99.059c0,1.32-1.07,2.393-2.394,2.393c-1.324,0-2.396-1.07-2.396-2.393l0,0" fill="#E6E6E6"/>
                        <circle cy="99.057" r="1.197"  cx="76.621" fill="#383838"/>
                    </g>
                    <g gorn="0.1.2.0.0.135"  id="F11pin">
                        <path  d="M81.428,70.256c0-1.32,1.069-2.395,2.394-2.395s2.395,1.07,2.395,2.395" fill="#BFBFBF"/>
                        <path  d="M86.214,70.256c0,1.322-1.07,2.396-2.395,2.396s-2.395-1.072-2.395-2.396" fill="#E6E6E6"/>
                        <circle cy="70.257" r="1.196"  cx="83.821" fill="#383838"/>
                    </g>
                    <g gorn="0.1.2.0.0.136"  id="G11pin">
                        <path  d="M81.428,77.457c0-1.322,1.069-2.396,2.394-2.396s2.395,1.072,2.395,2.396" fill="#BFBFBF"/>
                        <path  d="M86.214,77.457c0,1.32-1.07,2.395-2.395,2.395s-2.395-1.07-2.395-2.395" fill="#E6E6E6"/>
                        <circle cy="77.456" r="1.196"  cx="83.821" fill="#383838"/>
                    </g>
                    <g gorn="0.1.2.0.0.137"  id="H11pin">
                        <path  d="M81.428,84.657c0-1.322,1.069-2.394,2.394-2.394s2.395,1.069,2.395,2.394" fill="#BFBFBF"/>
                        <path  d="M86.214,84.657c0,1.321-1.07,2.395-2.395,2.395s-2.395-1.071-2.395-2.395l0,0" fill="#E6E6E6"/>
                        <circle cy="84.657" r="1.197"  cx="83.821" fill="#383838"/>
                    </g>
                    <g gorn="0.1.2.0.0.138"  id="I11pin">
                        <path  d="M81.428,91.857c0-1.321,1.069-2.396,2.394-2.396s2.395,1.072,2.395,2.396" fill="#BFBFBF"/>
                        <path  d="M86.214,91.857c0,1.319-1.07,2.394-2.395,2.394s-2.395-1.071-2.395-2.394" fill="#E6E6E6"/>
                        <circle cy="91.857" r="1.196"  cx="83.821" fill="#383838"/>
                    </g>
                    <g gorn="0.1.2.0.0.139"  id="J11pin">
                        <path  d="M81.428,99.059c0-1.322,1.069-2.396,2.394-2.396s2.395,1.07,2.395,2.396" fill="#BFBFBF"/>
                        <path  d="M86.214,99.059c0,1.32-1.07,2.393-2.395,2.393s-2.395-1.07-2.395-2.393l0,0" fill="#E6E6E6"/>
                        <circle cy="99.057" r="1.197"  cx="83.821" fill="#383838"/>
                    </g>
                    <g gorn="0.1.2.0.0.140"  id="F12pin">
                        <path  d="M88.626,70.256c0-1.32,1.072-2.395,2.396-2.395c1.318,0,2.393,1.07,2.393,2.395" fill="#BFBFBF"/>
                        <path  d="M93.414,70.256c0,1.322-1.072,2.396-2.393,2.396c-1.322,0-2.396-1.072-2.396-2.396" fill="#E6E6E6"/>
                        <circle cy="70.257" r="1.196"  cx="91.022" fill="#383838"/>
                    </g>
                    <g gorn="0.1.2.0.0.141"  id="G12pin">
                        <path  d="M88.626,77.457c0-1.322,1.072-2.396,2.396-2.396c1.318,0,2.393,1.072,2.393,2.396" fill="#BFBFBF"/>
                        <path  d="M93.414,77.457c0,1.32-1.072,2.395-2.393,2.395c-1.322,0-2.396-1.07-2.396-2.395" fill="#E6E6E6"/>
                        <circle cy="77.456" r="1.196"  cx="91.022" fill="#383838"/>
                    </g>
                    <g gorn="0.1.2.0.0.142"  id="H12pin">
                        <path  d="M88.626,84.657c0-1.322,1.072-2.394,2.396-2.394c1.318,0,2.393,1.069,2.393,2.394" fill="#BFBFBF"/>
                        <path  d="M93.414,84.657c0,1.321-1.072,2.395-2.393,2.395c-1.322,0-2.396-1.071-2.396-2.395l0,0" fill="#E6E6E6"/>
                        <circle cy="84.657" r="1.197"  cx="91.022" fill="#383838"/>
                    </g>
                    <g gorn="0.1.2.0.0.143"  id="I12pin">
                        <path  d="M88.626,91.857c0-1.321,1.072-2.396,2.396-2.396c1.318,0,2.393,1.072,2.393,2.396" fill="#BFBFBF"/>
                        <path  d="M93.414,91.857c0,1.319-1.072,2.394-2.393,2.394c-1.322,0-2.396-1.071-2.396-2.394" fill="#E6E6E6"/>
                        <circle cy="91.857" r="1.196"  cx="91.022" fill="#383838"/>
                    </g>
                    <g gorn="0.1.2.0.0.144"  id="J12pin">
                        <path  d="M88.626,99.059c0-1.322,1.072-2.396,2.396-2.396c1.318,0,2.393,1.07,2.393,2.396" fill="#BFBFBF"/>
                        <path  d="M93.414,99.059c0,1.32-1.072,2.393-2.393,2.393c-1.322,0-2.396-1.07-2.396-2.393l0,0" fill="#E6E6E6"/>
                        <circle cy="99.057" r="1.197"  cx="91.022" fill="#383838"/>
                    </g>
                    <g gorn="0.1.2.0.0.145"  id="F13pin">
                        <path  d="M95.826,70.256c0-1.32,1.072-2.395,2.396-2.395c1.322,0,2.393,1.07,2.393,2.395" fill="#BFBFBF"/>
                        <path  d="M100.614,70.256c0,1.322-1.069,2.396-2.393,2.396s-2.396-1.072-2.396-2.396" fill="#E6E6E6"/>
                        <circle cy="70.257" r="1.196"  cx="98.221" fill="#383838"/>
                    </g>
                    <g gorn="0.1.2.0.0.146"  id="G13pin">
                        <path  d="M95.826,77.457c0-1.322,1.072-2.396,2.396-2.396c1.322,0,2.393,1.072,2.393,2.396" fill="#BFBFBF"/>
                        <path  d="M100.614,77.457c0,1.32-1.069,2.395-2.393,2.395s-2.396-1.07-2.396-2.395" fill="#E6E6E6"/>
                        <circle cy="77.456" r="1.196"  cx="98.221" fill="#383838"/>
                    </g>
                    <g gorn="0.1.2.0.0.147"  id="H13pin">
                        <path  d="M95.826,84.657c0-1.322,1.072-2.394,2.396-2.394c1.322,0,2.393,1.069,2.393,2.394" fill="#BFBFBF"/>
                        <path  d="M100.614,84.657c0,1.321-1.069,2.395-2.393,2.395s-2.396-1.071-2.396-2.395l0,0" fill="#E6E6E6"/>
                        <circle cy="84.657" r="1.197"  cx="98.221" fill="#383838"/>
                    </g>
                    <g gorn="0.1.2.0.0.148"  id="I13pin">
                        <path  d="M95.826,91.857c0-1.321,1.072-2.396,2.396-2.396c1.322,0,2.393,1.072,2.393,2.396" fill="#BFBFBF"/>
                        <path  d="M100.614,91.857c0,1.319-1.069,2.394-2.393,2.394s-2.396-1.071-2.396-2.394" fill="#E6E6E6"/>
                        <circle cy="91.857" r="1.196"  cx="98.221" fill="#383838"/>
                    </g>
                    <g gorn="0.1.2.0.0.149"  id="J13pin">
                        <path  d="M95.826,99.059c0-1.322,1.072-2.396,2.396-2.396c1.322,0,2.393,1.07,2.393,2.396" fill="#BFBFBF"/>
                        <path  d="M100.614,99.059c0,1.32-1.069,2.393-2.393,2.393s-2.396-1.07-2.396-2.393l0,0" fill="#E6E6E6"/>
                        <circle cy="99.057" r="1.197"  cx="98.221" fill="#383838"/>
                    </g>
                    <g gorn="0.1.2.0.0.150"  id="F14pin">
                        <path  d="M103.028,70.256c0-1.32,1.07-2.395,2.394-2.395c1.322,0,2.396,1.07,2.396,2.395" fill="#BFBFBF"/>
                        <path  d="M107.815,70.256c0,1.322-1.071,2.396-2.396,2.396c-1.322,0-2.394-1.072-2.394-2.396" fill="#E6E6E6"/>
                        <circle cy="70.257" r="1.196"  cx="105.419" fill="#383838"/>
                    </g>
                    <g gorn="0.1.2.0.0.151"  id="G14pin">
                        <path  d="M103.028,77.457c0-1.322,1.07-2.396,2.394-2.396c1.322,0,2.396,1.072,2.396,2.396" fill="#BFBFBF"/>
                        <path  d="M107.815,77.457c0,1.32-1.071,2.395-2.396,2.395c-1.322,0-2.394-1.07-2.394-2.395" fill="#E6E6E6"/>
                        <circle cy="77.456" r="1.196"  cx="105.419" fill="#383838"/>
                    </g>
                    <g gorn="0.1.2.0.0.152"  id="H14pin">
                        <path  d="M103.028,84.657c0-1.322,1.07-2.394,2.394-2.394c1.322,0,2.396,1.069,2.396,2.394" fill="#BFBFBF"/>
                        <path  d="M107.815,84.657c0,1.321-1.071,2.395-2.396,2.395c-1.322,0-2.394-1.071-2.394-2.395l0,0" fill="#E6E6E6"/>
                        <circle cy="84.657" r="1.197"  cx="105.419" fill="#383838"/>
                    </g>
                    <g gorn="0.1.2.0.0.153"  id="I14pin">
                        <path  d="M103.028,91.857c0-1.321,1.07-2.396,2.394-2.396c1.322,0,2.396,1.072,2.396,2.396" fill="#BFBFBF"/>
                        <path  d="M107.815,91.857c0,1.319-1.071,2.394-2.396,2.394c-1.322,0-2.394-1.071-2.394-2.394" fill="#E6E6E6"/>
                        <circle cy="91.857" r="1.196"  cx="105.419" fill="#383838"/>
                    </g>
                    <g gorn="0.1.2.0.0.154"  id="J14pin">
                        <path  d="M103.028,99.059c0-1.322,1.07-2.396,2.394-2.396c1.322,0,2.396,1.07,2.396,2.396" fill="#BFBFBF"/>
                        <path  d="M107.815,99.059c0,1.32-1.071,2.393-2.396,2.393c-1.322,0-2.394-1.07-2.394-2.393l0,0" fill="#E6E6E6"/>
                        <circle cy="99.057" r="1.197"  cx="105.419" fill="#383838"/>
                    </g>
                    <g gorn="0.1.2.0.0.155"  id="F15pin">
                        <path  d="M110.227,70.256c0.002-1.32,1.075-2.392,2.397-2.39c1.317,0.003,2.387,1.069,2.39,2.39" fill="#BFBFBF"/>
                        <path  d="M115.014,70.256c0.002,1.322-1.068,2.396-2.39,2.396c-1.322,0.003-2.396-1.066-2.397-2.391c0-0.002,0-0.004,0-0.008" fill="#E6E6E6"/>
                        <circle cy="70.257" r="1.196"  cx="112.621" fill="#383838"/>
                    </g>
                    <g gorn="0.1.2.0.0.156"  id="G15pin">
                        <path  d="M110.227,77.457c0.002-1.322,1.075-2.395,2.397-2.393c1.317,0.002,2.387,1.07,2.39,2.393" fill="#BFBFBF"/>
                        <path  d="M115.014,77.457c0.002,1.32-1.068,2.396-2.39,2.396c-1.322,0.002-2.396-1.067-2.397-2.392c0-0.002,0-0.004,0-0.006" fill="#E6E6E6"/>
                        <circle cy="77.456" r="1.196"  cx="112.621" fill="#383838"/>
                    </g>
                    <g gorn="0.1.2.0.0.157"  id="H15pin">
                        <path  d="M110.227,84.657c0.002-1.322,1.075-2.394,2.397-2.392c1.317,0.002,2.387,1.071,2.39,2.392" fill="#BFBFBF"/>
                        <path  d="M115.014,84.657c0.002,1.321-1.068,2.395-2.39,2.396c-1.322,0.002-2.396-1.064-2.397-2.389c0-0.002,0-0.007,0-0.01" fill="#E6E6E6"/>
                        <circle cy="84.657" r="1.197"  cx="112.621" fill="#383838"/>
                    </g>
                    <g gorn="0.1.2.0.0.158"  id="I15pin">
                        <path  d="M110.227,91.857c0.002-1.321,1.075-2.394,2.397-2.392c1.317,0.002,2.387,1.07,2.39,2.392" fill="#BFBFBF"/>
                        <path  d="M115.014,91.857c0.002,1.319-1.068,2.396-2.39,2.396c-1.322,0.002-2.396-1.066-2.397-2.393c0-0.002,0-0.004,0-0.006" fill="#E6E6E6"/>
                        <circle cy="91.857" r="1.196"  cx="112.621" fill="#383838"/>
                    </g>
                    <g gorn="0.1.2.0.0.159"  id="J15pin">
                        <path  d="M110.227,99.059c0.002-1.322,1.075-2.395,2.397-2.393c1.317,0.002,2.387,1.068,2.39,2.393" fill="#BFBFBF"/>
                        <path  d="M115.014,99.059c0.002,1.32-1.068,2.395-2.39,2.396c-1.322,0.002-2.396-1.068-2.397-2.39c0-0.004,0-0.006,0-0.008" fill="#E6E6E6"/>
                        <circle cy="99.057" r="1.197"  cx="112.621" fill="#383838"/>
                    </g>
                    <g gorn="0.1.2.0.0.160"  id="F16pin">
                        <path  d="M117.428,70.256c0.003-1.32,1.073-2.392,2.396-2.39c1.318,0.003,2.389,1.069,2.391,2.39" fill="#BFBFBF"/>
                        <path  d="M122.214,70.256c0.002,1.322-1.066,2.396-2.391,2.396c-1.324,0.002-2.395-1.066-2.396-2.391c0-0.002,0-0.004,0-0.008" fill="#E6E6E6"/>
                        <circle cy="70.257" r="1.196"  cx="119.821" fill="#383838"/>
                    </g>
                    <g gorn="0.1.2.0.0.161"  id="G16pin">
                        <path  d="M117.428,77.457c0.003-1.322,1.073-2.395,2.396-2.393c1.318,0.002,2.389,1.07,2.391,2.393" fill="#BFBFBF"/>
                        <path  d="M122.214,77.457c0.002,1.32-1.066,2.396-2.391,2.396c-1.322,0.002-2.395-1.067-2.396-2.392c0-0.002,0-0.004,0-0.006" fill="#E6E6E6"/>
                        <circle cy="77.456" r="1.196"  cx="119.821" fill="#383838"/>
                    </g>
                    <g gorn="0.1.2.0.0.162"  id="H16pin">
                        <path  d="M117.428,84.657c0.003-1.322,1.073-2.394,2.396-2.392c1.318,0.002,2.389,1.071,2.391,2.392" fill="#BFBFBF"/>
                        <path  d="M122.214,84.657c0.002,1.321-1.066,2.395-2.391,2.396c-1.324,0.002-2.395-1.064-2.396-2.389c0-0.002,0-0.007,0-0.01" fill="#E6E6E6"/>
                        <circle cy="84.657" r="1.197"  cx="119.821" fill="#383838"/>
                    </g>
                    <g gorn="0.1.2.0.0.163"  id="I16pin">
                        <path  d="M117.428,91.857c0.003-1.321,1.073-2.394,2.396-2.392c1.318,0.002,2.389,1.07,2.391,2.392" fill="#BFBFBF"/>
                        <path  d="M122.214,91.857c0.002,1.319-1.066,2.396-2.391,2.396s-2.395-1.066-2.396-2.393c0-0.002,0-0.004,0-0.006" fill="#E6E6E6"/>
                        <circle cy="91.857" r="1.196"  cx="119.821" fill="#383838"/>
                    </g>
                    <g gorn="0.1.2.0.0.164"  id="J16pin">
                        <path  d="M117.428,99.059c0.003-1.322,1.073-2.395,2.396-2.393c1.318,0.002,2.389,1.068,2.391,2.393" fill="#BFBFBF"/>
                        <path  d="M122.214,99.059c0.002,1.32-1.066,2.395-2.391,2.396s-2.395-1.068-2.396-2.39c0-0.004,0-0.006,0-0.008" fill="#E6E6E6"/>
                        <circle cy="99.057" r="1.197"  cx="119.821" fill="#383838"/>
                    </g>
                    <g gorn="0.1.2.0.0.165"  id="F17pin">
                        <path  d="M124.626,70.256c0.002-1.32,1.074-2.392,2.396-2.39c1.318,0.003,2.389,1.069,2.391,2.39" fill="#BFBFBF"/>
                        <path  d="M129.414,70.256c0.002,1.322-1.067,2.396-2.392,2.396c-1.321,0.003-2.396-1.066-2.396-2.391c0-0.002,0-0.004,0-0.008" fill="#E6E6E6"/>
                        <circle cy="70.257" r="1.196"  cx="127.02" fill="#383838"/>
                    </g>
                    <g gorn="0.1.2.0.0.166"  id="G17pin">
                        <path  d="M124.626,77.457c0.002-1.322,1.074-2.395,2.396-2.393c1.318,0.002,2.389,1.07,2.391,2.393" fill="#BFBFBF"/>
                        <path  d="M129.414,77.457c0.002,1.32-1.067,2.396-2.392,2.396c-1.321,0.002-2.396-1.067-2.396-2.392c0-0.002,0-0.004,0-0.006" fill="#E6E6E6"/>
                        <circle cy="77.456" r="1.196"  cx="127.02" fill="#383838"/>
                    </g>
                    <g gorn="0.1.2.0.0.167"  id="H17pin">
                        <path  d="M124.626,84.657c0.002-1.322,1.074-2.394,2.396-2.392c1.318,0.002,2.389,1.071,2.391,2.392" fill="#BFBFBF"/>
                        <path  d="M129.414,84.657c0.002,1.321-1.067,2.395-2.392,2.396c-1.321,0.002-2.396-1.064-2.396-2.389c0-0.002,0-0.007,0-0.01" fill="#E6E6E6"/>
                        <circle cy="84.657" r="1.197"  cx="127.02" fill="#383838"/>
                    </g>
                    <g gorn="0.1.2.0.0.168"  id="I17pin">
                        <path  d="M124.626,91.857c0.002-1.321,1.074-2.394,2.396-2.392c1.318,0.002,2.389,1.07,2.391,2.392" fill="#BFBFBF"/>
                        <path  d="M129.414,91.857c0.002,1.319-1.067,2.396-2.392,2.396c-1.321,0.002-2.396-1.066-2.396-2.393c0-0.002,0-0.004,0-0.006" fill="#E6E6E6"/>
                        <circle cy="91.857" r="1.196"  cx="127.02" fill="#383838"/>
                    </g>
                    <g gorn="0.1.2.0.0.169"  id="J17pin">
                        <path  d="M124.626,99.059c0.002-1.322,1.074-2.395,2.396-2.393c1.318,0.002,2.389,1.068,2.391,2.393" fill="#BFBFBF"/>
                        <path  d="M129.414,99.059c0.002,1.32-1.067,2.395-2.392,2.396c-1.321,0.002-2.396-1.068-2.396-2.39c0-0.004,0-0.006,0-0.008" fill="#E6E6E6"/>
                        <circle cy="99.057" r="1.197"  cx="127.02" fill="#383838"/>
                    </g>
                </g>
            </g>
        </g>
    </g>
</svg>
