<?xml version='1.0' encoding='UTF-8' standalone='no'?>
<!-- Created with Fritzing (https://fritzing.org/) -->
<svg xmlns="http://www.w3.org/2000/svg" y="0in" width="3.66142in" gorn="0" id="svg5762"  version="1.2" viewBox="0 0 263.622 198.425" x="0in" height="2.75591in">
    <desc >
        <referenceFile >Proba9.svg</referenceFile>
    </desc>
    <defs id="defs5766" >
        <rect y="180.327" width="150.38219" gorn="0.1.0" id="rect1732"  x="105.6295" height="19.743832"/>
        <rect y="186.90828" width="150.05313" gorn="0.1.1" id="rect1726"  x="106.61669" height="11.846299"/>
    </defs>
    <g gorn="0.2" id="g5760"  style="display:none" partID="58310">
        <g gorn="0.2.0" id="breadboard"  style="display:inline">
            <g transform="translate(0,-643.465)" >
                <g >
                    <g >
                        <g gorn="0.2.0.0.0.0.0" id="g5741" >
                            <path stroke-opacity="1" d="M 0.402861,643.867 H 263.21886 V 841.486 H 0.402861 Z" stroke="#000000" gorn="0.2.0.0.0.0.0.0" id="rect3008"  style="display:inline;stroke-miterlimit:4" fill-opacity="1" stroke-width="0.805722" font-size="3.20001" fill="#378f6b"/>
                            <g transform="matrix(0.999995,0,0,0.999995,0,746.146)" >
                                <g >
                                    <g >
                                        <g gorn="0.2.0.0.0.0.0.1.0.0.0" id="layer1-2"  style="display:inline">
                                            <path stroke-opacity="1" d="m 11.2615,88.6578 c 0,2.3057 -1.86914,4.17484 -4.17483,4.17484 -2.3057,0 -4.17483,-1.86914 -4.17483,-4.17484 0,-2.30569 1.86914,-4.17482 4.17483,-4.17482 2.3057,0 4.17483,1.86913 4.17483,4.17482 z" stroke="#ffc928" gorn="0.2.0.0.0.0.0.1.0.0.0.0" id="path3786-6-0-1-4-47"  style="display:inline;stroke-miterlimit:4;stroke-dasharray:none" fill-opacity="1" stroke-width="0.721259" fill="#faf7f4"/>
                                            <path stroke-opacity="1" d="m 10.1554,88.6578 c 0,1.69484 -1.37393,3.06877 -3.06877,3.06877 -1.69483,0 -3.06877,-1.37393 -3.06877,-3.06877 0,-1.69483 1.37393,-3.06876 3.06877,-3.06876 1.69483,0 3.06877,1.37393 3.06877,3.06876 z" stroke="#0e100d" gorn="0.2.0.0.0.0.0.1.0.0.0.1" id="path6213-6-6-1"  style="display:inline;stroke-miterlimit:4;stroke-dasharray:none" fill-opacity="0.156863" stroke-width="0.949116" fill="#80bf40"/>
                                            <path stroke-opacity="1" d="m 11.2615,-95.5951 c 0,2.3057 -1.86914,4.17484 -4.17483,4.17484 -2.3057,0 -4.17483,-1.86914 -4.17483,-4.17484 0,-2.30569 1.86914,-4.17482 4.17483,-4.17482 2.3057,0 4.17483,1.86913 4.17483,4.17482 z" stroke="#ffc928" gorn="0.2.0.0.0.0.0.1.0.0.0.2" id="path3786-6-0-1-4-47-9"  style="display:inline;stroke-miterlimit:4;stroke-dasharray:none" fill-opacity="1" stroke-width="0.721259" fill="#faf7f4"/>
                                            <path stroke-opacity="1" d="m 10.1554,-95.5951 c 0,1.69484 -1.37394,3.06877 -3.06877,3.06877 -1.69483,0 -3.06877,-1.37393 -3.06877,-3.06877 0,-1.69483 1.37394,-3.06876 3.06877,-3.06876 1.69483,0 3.06877,1.37393 3.06877,3.06876 z" stroke="#0e100d" gorn="0.2.0.0.0.0.0.1.0.0.0.3" id="path6213-6-6-1-1"  style="display:inline;stroke-miterlimit:4;stroke-dasharray:none" fill-opacity="0.156863" stroke-width="0.949116" fill="#80bf40"/>
                                            <path stroke-opacity="1" d="m 260.712,88.6578 c 0,2.3057 -1.86914,4.17484 -4.17483,4.17484 -2.3057,0 -4.17483,-1.86914 -4.17483,-4.17484 0,-2.30569 1.86914,-4.17482 4.17483,-4.17482 2.3057,0 4.17483,1.86913 4.17483,4.17482 z" stroke="#ffc928" gorn="0.2.0.0.0.0.0.1.0.0.0.4" id="path3786-6-0-1-4-4"  style="display:inline;stroke-miterlimit:4;stroke-dasharray:none" fill-opacity="1" stroke-width="0.721259" fill="#faf7f4"/>
                                            <path stroke-opacity="1" d="m 259.605,88.6578 c 0,1.69484 -1.37394,3.06877 -3.06877,3.06877 -1.69483,0 -3.06877,-1.37393 -3.06877,-3.06877 0,-1.69483 1.37394,-3.06876 3.06877,-3.06876 1.69483,0 3.06877,1.37393 3.06877,3.06876 z" stroke="#0e100d" gorn="0.2.0.0.0.0.0.1.0.0.0.5" id="path6213-6-6-1-2"  style="display:inline;stroke-miterlimit:4;stroke-dasharray:none" fill-opacity="0.156863" stroke-width="0.949116" fill="#80bf40"/>
                                            <path stroke-opacity="1" d="m 260.712,-95.5951 c 0,2.3057 -1.86914,4.17484 -4.17483,4.17484 -2.3057,0 -4.17483,-1.86914 -4.17483,-4.17484 0,-2.30569 1.86914,-4.17482 4.17483,-4.17482 2.3057,0 4.17483,1.86913 4.17483,4.17482 z" stroke="#ffc928" gorn="0.2.0.0.0.0.0.1.0.0.0.6" id="path3786-6-0-1-4"  style="display:inline;stroke-miterlimit:4;stroke-dasharray:none" fill-opacity="1" stroke-width="0.721259" fill="#faf7f4"/>
                                            <path stroke-opacity="1" d="m 259.605,-95.5951 c 0,1.69484 -1.37394,3.06877 -3.06877,3.06877 -1.69483,0 -3.06877,-1.37393 -3.06877,-3.06877 0,-1.69483 1.37394,-3.06876 3.06877,-3.06876 1.69483,0 3.06877,1.37393 3.06877,3.06876 z" stroke="#0e100d" gorn="0.2.0.0.0.0.0.1.0.0.0.7" id="path6213-6-6-1-20"  style="display:inline;stroke-miterlimit:4;stroke-dasharray:none" fill-opacity="0.156863" stroke-width="0.949116" fill="#80bf40"/>
                                            <g stroke="none" gorn="0.2.0.0.0.0.0.1.0.0.0.8" id="flowRoot4238"  style="font-style:normal;font-weight:normal;font-family:OCRA" fill-opacity="1" font-size="2.56" fill="#000000"/>
                                        </g>
                                    </g>
                                </g>
                            </g>
                            <path stroke-opacity="1" d="m 32.1486,687.235 h 199.325 V 795.851 H 32.1486 Z" stroke="#000000" gorn="0.2.0.0.0.0.0.2" id="rect3835"  style="display:inline;stroke-miterlimit:4" fill-opacity="1" stroke-width="1.93508" fill="#b5d776"/>
                            <path stroke-opacity="1" d="m 73.3471,841.535 v -7.33864 h 0.01456 c 0.132298,-0.97216 1.13365,-1.73104 2.33069,-1.73104 1.19704,0 2.18382,0.75888 2.31612,1.73104 0.0011,0.008 -9.6e-4,0.0168 0,0.0248 0.008,0.0656 0.01456,0.12776 0.01456,0.19504 0,0.0672 -0.0066,0.14168 -0.01456,0.20728 v 6.91192 H 73.3471 Z" stroke="#0e100d" gorn="0.2.0.0.0.0.0.3" id="rect6332-1-9-2"  style="display:inline" fill-opacity="1" stroke-width="0.426423" fill="#fcc460"/>
                            <path stroke-opacity="1" d="m 77.0548,834.803 c 0,0.75648 -0.613283,1.36976 -1.36981,1.36976 -0.756523,0 -1.36981,-0.61328 -1.36981,-1.36976 0,-0.75656 0.613284,-1.36984 1.36981,-1.36984 0.756524,0 1.36981,0.61328 1.36981,1.36984 z" stroke="#0e100d" gorn="0.2.0.0.0.0.0.4" id="connector14pin"  style="display:inline;stroke-miterlimit:4;stroke-dasharray:none" fill-opacity="1" stroke-width="0.548574" fill="#fffdfa"/>
                            <path stroke-opacity="1" d="m 80.5471,841.535 v -7.33864 h 0.01456 c 0.132304,-0.97216 1.13365,-1.73104 2.3307,-1.73104 1.19703,0 2.18382,0.75888 2.31611,1.73104 8e-4,0.008 -8e-4,0.0168 0,0.0248 0.008,0.0656 0.01456,0.12776 0.01456,0.19504 0,0.0672 -0.0064,0.14168 -0.01456,0.20728 v 6.91192 H 80.5471 Z" stroke="#0e100d" gorn="0.2.0.0.0.0.0.5" id="rect6332-1-9-22"  style="display:inline" fill-opacity="1" stroke-width="0.426423" fill="#fcc460"/>
                            <path stroke-opacity="1" d="m 84.2548,834.803 c 0,0.75648 -0.613288,1.36976 -1.36981,1.36976 -0.75652,0 -1.3698,-0.61328 -1.3698,-1.36976 0,-0.75656 0.61328,-1.36984 1.3698,-1.36984 0.75652,0 1.36981,0.61328 1.36981,1.36984 z" stroke="#0e100d" gorn="0.2.0.0.0.0.0.6" id="connector13pin"  style="display:inline;stroke-miterlimit:4;stroke-dasharray:none" fill-opacity="1" stroke-width="0.548574" fill="#fffdfa"/>
                            <path stroke-opacity="1" d="m 87.7471,841.535 v -7.33864 h 0.01456 c 0.132288,-0.97216 1.13365,-1.73104 2.33068,-1.73104 1.19704,0 2.18383,0.75888 2.31613,1.73104 8e-4,0.008 -8e-4,0.0168 0,0.0248 0.008,0.0656 0.01456,0.12776 0.01456,0.19504 0,0.0672 -0.0064,0.14168 -0.01456,0.20728 v 6.91192 h -4.66138 z" stroke="#0e100d" gorn="0.2.0.0.0.0.0.7" id="rect6332-1-9-48"  style="display:inline" fill-opacity="1" stroke-width="0.426423" fill="#fcc460"/>
                            <path stroke-opacity="1" d="m 91.4548,834.803 c 0,0.75648 -0.61328,1.36976 -1.36981,1.36976 -0.75652,0 -1.36981,-0.61328 -1.36981,-1.36976 0,-0.75656 0.613288,-1.36984 1.36981,-1.36984 0.756528,0 1.36981,0.61328 1.36981,1.36984 z" stroke="#0e100d" gorn="0.2.0.0.0.0.0.8" id="connector12pin"  style="display:inline;stroke-miterlimit:4;stroke-dasharray:none" fill-opacity="1" stroke-width="0.548574" fill="#fffdfa"/>
                            <path stroke-opacity="1" d="m 94.9471,841.535 v -7.33864 h 0.01456 c 0.132304,-0.97216 1.13365,-1.73104 2.3307,-1.73104 1.19703,0 2.18382,0.75888 2.31611,1.73104 8e-4,0.008 -8e-4,0.0168 0,0.0248 0.008,0.0656 0.01456,0.12776 0.01456,0.19504 0,0.0672 -0.0064,0.14168 -0.01456,0.20728 v 6.91192 H 94.9471 Z" stroke="#0e100d" gorn="0.2.0.0.0.0.0.9" id="rect6332-1-9-5"  style="display:inline" fill-opacity="1" stroke-width="0.426423" fill="#fcc460"/>
                            <path stroke-opacity="1" d="m 98.6548,834.803 c 0,0.75648 -0.613288,1.36976 -1.3698,1.36976 -0.756528,0 -1.36982,-0.61328 -1.36982,-1.36976 0,-0.75656 0.613288,-1.36984 1.36982,-1.36984 0.756512,0 1.3698,0.61328 1.3698,1.36984 z" stroke="#0e100d" gorn="0.2.0.0.0.0.0.10" id="connector11pin"  style="display:inline;stroke-miterlimit:4;stroke-dasharray:none" fill-opacity="1" stroke-width="0.548574" fill="#fffdfa"/>
                            <path stroke-opacity="1" d="m 102.147,841.535 v -7.33864 h 0.0146 c 0.1323,-0.97216 1.13366,-1.73104 2.33069,-1.73104 1.19704,0 2.18383,0.75888 2.31613,1.73104 8e-4,0.008 -8e-4,0.0168 0,0.0248 0.008,0.0656 0.0146,0.12776 0.0146,0.19504 0,0.0672 -0.006,0.14168 -0.0146,0.20728 v 6.91192 H 102.147 Z" stroke="#0e100d" gorn="0.2.0.0.0.0.0.11" id="rect6332-1-9-7"  style="display:inline" fill-opacity="1" stroke-width="0.426423" fill="#fcc460"/>
                            <path stroke-opacity="1" d="m 105.855,834.803 c 0,0.75648 -0.61328,1.36976 -1.36981,1.36976 -0.75653,0 -1.36981,-0.61328 -1.36981,-1.36976 0,-0.75656 0.61328,-1.36984 1.36981,-1.36984 0.75653,0 1.36981,0.61328 1.36981,1.36984 z" stroke="#0e100d" gorn="0.2.0.0.0.0.0.12" id="connector10pin"  style="display:inline;stroke-miterlimit:4;stroke-dasharray:none" fill-opacity="1" stroke-width="0.548574" fill="#fffdfa"/>
                            <path stroke-opacity="1" d="m 109.347,841.535 v -7.33864 h 0.0146 c 0.1323,-0.97216 1.13364,-1.73104 2.33068,-1.73104 1.19704,0 2.18382,0.75888 2.31612,1.73104 8e-4,0.008 -8e-4,0.0168 0,0.0248 0.008,0.0656 0.0146,0.12776 0.0146,0.19504 0,0.0672 -0.006,0.14168 -0.0146,0.20728 v 6.91192 h -4.66137 z" stroke="#0e100d" gorn="0.2.0.0.0.0.0.13" id="rect6332-1-9-57"  style="display:inline" fill-opacity="1" stroke-width="0.426423" fill="#fcc460"/>
                            <path stroke-opacity="1" d="m 113.055,834.803 c 0,0.75648 -0.61327,1.36976 -1.3698,1.36976 -0.75652,0 -1.36981,-0.61328 -1.36981,-1.36976 0,-0.75656 0.61329,-1.36984 1.36981,-1.36984 0.75653,0 1.3698,0.61328 1.3698,1.36984 z" stroke="#0e100d" gorn="0.2.0.0.0.0.0.14" id="connector9pin"  style="display:inline;stroke-miterlimit:4;stroke-dasharray:none" fill-opacity="1" stroke-width="0.548574" fill="#fffdfa"/>
                            <path stroke-opacity="1" d="m 116.547,841.535 v -7.33864 h 0.0146 c 0.1323,-0.97216 1.13365,-1.73104 2.33069,-1.73104 1.19704,0 2.18382,0.75888 2.31612,1.73104 8e-4,0.008 -8e-4,0.0168 0,0.0248 0.008,0.0656 0.0146,0.12776 0.0146,0.19504 0,0.0672 -0.006,0.14168 -0.0146,0.20728 v 6.91192 h -4.66138 z" stroke="#0e100d" gorn="0.2.0.0.0.0.0.15" id="rect6332-1-9-03"  style="display:inline" fill-opacity="1" stroke-width="0.426423" fill="#fcc460"/>
                            <path stroke-opacity="1" d="m 120.255,834.803 c 0,0.75648 -0.61329,1.36976 -1.36981,1.36976 -0.75653,0 -1.36981,-0.61328 -1.36981,-1.36976 0,-0.75656 0.61328,-1.36984 1.36981,-1.36984 0.75652,0 1.36981,0.61328 1.36981,1.36984 z" stroke="#0e100d" gorn="0.2.0.0.0.0.0.16" id="connector8pin"  style="display:inline;stroke-miterlimit:4;stroke-dasharray:none" fill-opacity="1" stroke-width="0.548574" fill="#fffdfa"/>
                            <path stroke-opacity="1" d="m 123.747,841.535 v -7.33864 h 0.0146 c 0.1323,-0.97216 1.13364,-1.73104 2.33068,-1.73104 1.19704,0 2.18382,0.75888 2.31612,1.73104 8e-4,0.008 -8e-4,0.0168 0,0.0248 0.008,0.0656 0.0146,0.12776 0.0146,0.19504 0,0.0672 -0.006,0.14168 -0.0146,0.20728 v 6.91192 h -4.66137 z" stroke="#0e100d" gorn="0.2.0.0.0.0.0.17" id="rect6332-1-9-1"  style="display:inline" fill-opacity="1" stroke-width="0.426423" fill="#fcc460"/>
                            <path stroke-opacity="1" d="m 127.455,834.803 c 0,0.75648 -0.61327,1.36976 -1.3698,1.36976 -0.75652,0 -1.36981,-0.61328 -1.36981,-1.36976 0,-0.75656 0.61329,-1.36984 1.36981,-1.36984 0.75653,0 1.3698,0.61328 1.3698,1.36984 z" stroke="#0e100d" gorn="0.2.0.0.0.0.0.18" id="connector7pin"  style="display:inline;stroke-miterlimit:4;stroke-dasharray:none" fill-opacity="1" stroke-width="0.548574" fill="#fffdfa"/>
                            <path stroke-opacity="1" d="m 130.947,841.535 v -7.33864 h 0.0146 c 0.1323,-0.97216 1.13365,-1.73104 2.3307,-1.73104 1.19703,0 2.18382,0.75888 2.31611,1.73104 8e-4,0.008 -8e-4,0.0168 0,0.0248 0.008,0.0656 0.0146,0.12776 0.0146,0.19504 0,0.0672 -0.006,0.14168 -0.0146,0.20728 v 6.91192 h -4.66138 z" stroke="#0e100d" gorn="0.2.0.0.0.0.0.19" id="rect6332-1-9-89"  style="display:inline" fill-opacity="1" stroke-width="0.426423" fill="#fcc460"/>
                            <path stroke-opacity="1" d="m 134.655,834.803 c 0,0.75648 -0.61329,1.36976 -1.36981,1.36976 -0.75653,0 -1.36982,-0.61328 -1.36982,-1.36976 0,-0.75656 0.61329,-1.36984 1.36982,-1.36984 0.75652,0 1.36981,0.61328 1.36981,1.36984 z" stroke="#0e100d" gorn="0.2.0.0.0.0.0.20" id="connector6pin"  style="display:inline;stroke-miterlimit:4;stroke-dasharray:none" fill-opacity="1" stroke-width="0.548574" fill="#fffdfa"/>
                            <path stroke-opacity="1" d="m 138.147,841.535 v -7.33864 h 0.0146 c 0.13229,-0.97216 1.13365,-1.73104 2.33068,-1.73104 1.19704,0 2.18382,0.75888 2.31613,1.73104 8e-4,0.008 -8e-4,0.0168 0,0.0248 0.008,0.0656 0.0146,0.12776 0.0146,0.19504 0,0.0672 -0.006,0.14168 -0.0146,0.20728 v 6.91192 h -4.66138 z" stroke="#0e100d" gorn="0.2.0.0.0.0.0.21" id="rect6332-1-9-6"  style="display:inline" fill-opacity="1" stroke-width="0.426423" fill="#fcc460"/>
                            <path stroke-opacity="1" d="m 141.855,834.803 c 0,0.75648 -0.61327,1.36976 -1.3698,1.36976 -0.75652,0 -1.36981,-0.61328 -1.36981,-1.36976 0,-0.75656 0.61329,-1.36984 1.36981,-1.36984 0.75653,0 1.3698,0.61328 1.3698,1.36984 z" stroke="#0e100d" gorn="0.2.0.0.0.0.0.22" id="connector5pin"  style="display:inline;stroke-miterlimit:4;stroke-dasharray:none" fill-opacity="1" stroke-width="0.548574" fill="#fffdfa"/>
                            <path stroke-opacity="1" d="m 145.347,841.535 v -7.33864 h 0.0146 c 0.1323,-0.97216 1.13365,-1.73104 2.33069,-1.73104 1.19704,0 2.18382,0.75888 2.31612,1.73104 8e-4,0.008 -8e-4,0.0168 0,0.0248 0.008,0.0656 0.0146,0.12776 0.0146,0.19504 0,0.0672 -0.006,0.14168 -0.0146,0.20728 v 6.91192 h -4.66138 z" stroke="#0e100d" gorn="0.2.0.0.0.0.0.23" id="rect6332-1-9-80"  style="display:inline" fill-opacity="1" stroke-width="0.426423" fill="#fcc460"/>
                            <path stroke-opacity="1" d="m 149.055,834.803 c 0,0.75648 -0.61329,1.36976 -1.36982,1.36976 -0.75652,0 -1.3698,-0.61328 -1.3698,-1.36976 0,-0.75656 0.61328,-1.36984 1.3698,-1.36984 0.75653,0 1.36982,0.61328 1.36982,1.36984 z" stroke="#0e100d" gorn="0.2.0.0.0.0.0.24" id="connector4pin"  style="display:inline;stroke-miterlimit:4;stroke-dasharray:none" fill-opacity="1" stroke-width="0.548574" fill="#fffdfa"/>
                            <path stroke-opacity="1" d="m 152.547,841.535 v -7.33864 h 0.0146 c 0.1323,-0.97216 1.13366,-1.73104 2.33069,-1.73104 1.19704,0 2.18382,0.75888 2.31612,1.73104 8e-4,0.008 -8e-4,0.0168 0,0.0248 0.008,0.0656 0.0146,0.12776 0.0146,0.19504 0,0.0672 -0.006,0.14168 -0.0146,0.20728 v 6.91192 h -4.66138 z" stroke="#0e100d" gorn="0.2.0.0.0.0.0.25" id="rect6332-1-9-23"  style="display:inline" fill-opacity="1" stroke-width="0.426423" fill="#fcc460"/>
                            <path stroke-opacity="1" d="m 156.255,834.803 c 0,0.75648 -0.61329,1.36976 -1.36981,1.36976 -0.75653,0 -1.36981,-0.61328 -1.36981,-1.36976 0,-0.75656 0.61328,-1.36984 1.36981,-1.36984 0.75652,0 1.36981,0.61328 1.36981,1.36984 z" stroke="#0e100d" gorn="0.2.0.0.0.0.0.26" id="connector3pin"  style="display:inline;stroke-miterlimit:4;stroke-dasharray:none" fill-opacity="1" stroke-width="0.548574" fill="#fffdfa"/>
                            <path stroke-opacity="1" d="m 159.747,841.535 v -7.33864 h 0.0146 c 0.1323,-0.97216 1.13365,-1.73104 2.33069,-1.73104 1.19704,0 2.18382,0.75888 2.31612,1.73104 8e-4,0.008 -8e-4,0.0168 0,0.0248 0.008,0.0656 0.0146,0.12776 0.0146,0.19504 0,0.0672 -0.006,0.14168 -0.0146,0.20728 v 6.91192 H 159.747 Z" stroke="#0e100d" gorn="0.2.0.0.0.0.0.27" id="rect6332-1-9-20"  style="display:inline" fill-opacity="1" stroke-width="0.426423" fill="#fcc460"/>
                            <path stroke-opacity="1" d="m 163.455,834.803 c 0,0.75648 -0.61329,1.36976 -1.36982,1.36976 -0.75651,0 -1.3698,-0.61328 -1.3698,-1.36976 0,-0.75656 0.61329,-1.36984 1.3698,-1.36984 0.75653,0 1.36982,0.61328 1.36982,1.36984 z" stroke="#0e100d" gorn="0.2.0.0.0.0.0.28" id="connector2pin"  style="display:inline;stroke-miterlimit:4;stroke-dasharray:none" fill-opacity="1" stroke-width="0.548574" fill="#fffdfa"/>
                            <path stroke-opacity="1" d="m 166.947,841.535 v -7.33864 h 0.0146 c 0.1323,-0.97216 1.13366,-1.73104 2.33069,-1.73104 1.19704,0 2.18382,0.75888 2.31612,1.73104 8e-4,0.008 -8e-4,0.0168 0,0.0248 0.008,0.0656 0.0146,0.12776 0.0146,0.19504 0,0.0672 -0.006,0.14168 -0.0146,0.20728 v 6.91192 h -4.66138 z" stroke="#0e100d" gorn="0.2.0.0.0.0.0.29" id="rect6332-1-9-81"  style="display:inline" fill-opacity="1" stroke-width="0.426423" fill="#fcc460"/>
                            <path stroke-opacity="1" d="m 170.655,834.803 c 0,0.75648 -0.61329,1.36976 -1.36981,1.36976 -0.75653,0 -1.36981,-0.61328 -1.36981,-1.36976 0,-0.75656 0.61328,-1.36984 1.36981,-1.36984 0.75652,0 1.36981,0.61328 1.36981,1.36984 z" stroke="#0e100d" gorn="0.2.0.0.0.0.0.30" id="connector1pin"  style="display:inline;stroke-miterlimit:4;stroke-dasharray:none" fill-opacity="1" stroke-width="0.548574" fill="#fffdfa"/>
                            <path stroke-opacity="1" d="m 174.147,841.535 v -7.33864 h 0.0146 c 0.1323,-0.97216 1.13365,-1.73104 2.33069,-1.73104 1.19704,0 2.18382,0.75888 2.31612,1.73104 8e-4,0.008 -8e-4,0.0168 0,0.0248 0.008,0.0656 0.0146,0.12776 0.0146,0.19504 0,0.0672 -0.006,0.14168 -0.0146,0.20728 v 6.91192 H 174.147 Z" stroke="#0e100d" gorn="0.2.0.0.0.0.0.31" id="rect6332-1-9-3"  style="display:inline" fill-opacity="1" stroke-width="0.426423" fill="#fcc460"/>
                            <path stroke-opacity="1" d="m 177.855,834.803 c 0,0.75648 -0.61328,1.36976 -1.36981,1.36976 -0.75651,0 -1.3698,-0.61328 -1.3698,-1.36976 0,-0.75656 0.61329,-1.36984 1.3698,-1.36984 0.75653,0 1.36981,0.61328 1.36981,1.36984 z" stroke="#0e100d" gorn="0.2.0.0.0.0.0.32" id="connector0pin"  style="display:inline;stroke-miterlimit:4;stroke-dasharray:none" fill-opacity="1" stroke-width="0.548574" fill="#fffdfa"/>
                        </g>
                    </g>
                </g>
            </g>
            <path d="m 0.765354,55.7542 h 19.7575 v 121.27 h -19.7575 z" stroke="none" gorn="0.2.0.1" id="rect2936"  style="color:#000000;display:inline;overflow:visible;visibility:visible;fill-rule:nonzero;marker:none;enable-background:accumulate" fill-opacity="1" stroke-width="0.173324" fill="#378f6b"/>
            <rect width="4" y="99.199997" gorn="0.2.0.2" id="rect5749"  style="display:inline" x="131.60001" fill="none" height="4"/>
            <rect width="4" y="99.199997" gorn="0.2.0.3" id="rect5751"  x="131.60001" fill="none" height="4"/>
            <rect width="4.4442701" y="189.00999" gorn="0.2.0.4" id="rect5753"  x="173.94099" fill="none" height="5.26056"/>
            <rect width="4.6090798" y="189.153" gorn="0.2.0.5" id="rect5755"  style="display:inline" x="166.66299" fill="none" height="4.8185902"/>
            <rect width="4.8871598" y="188.67" gorn="0.2.0.6" id="rect5757"  x="159.229" fill="none" height="5.2631001"/>
        </g>
    </g>
    <g transform="translate(8.1443226,-12.093086)" >
        <g >
            <g >
                <g gorn="0.3.0.0.0" id="g1578"  style="display:inline">
                    <path stroke-opacity="1" d="M 74.441351,77.670772 H 197.28288 V 158.5143 H 74.441351 Z" stroke="#000000" gorn="0.3.0.0.0.0" id="rect3008-8"  style="display:inline;stroke-miterlimit:4" fill-opacity="1" stroke-width="0.352323" font-size="3.20001" fill="#378f6b"/>
                    <path stroke-opacity="1" d="m 196.1834,83.417439 c 0,2.30569 -1.86913,4.17482 -4.17481,4.17482 -2.30569,0 -4.17481,-1.86913 -4.17481,-4.17482 0,-2.305678 1.86913,-4.174799 4.17481,-4.174799 2.30569,0 4.17481,1.869121 4.17481,4.174799 z" stroke="#ffc928" gorn="0.3.0.0.0.1" id="path3786-6-0-1-4-6"  style="display:inline;stroke-miterlimit:4;stroke-dasharray:none" fill-opacity="1" stroke-width="0.721255" fill="#faf7f4"/>
                    <path stroke-opacity="1" d="m 195.0764,83.417439 c 0,1.69483 -1.37393,3.06876 -3.06875,3.06876 -1.69482,0 -3.06876,-1.37393 -3.06876,-3.06876 0,-1.694821 1.37394,-3.068744 3.06876,-3.068744 1.69482,0 3.06875,1.373923 3.06875,3.068744 z" stroke="#0e100d" gorn="0.3.0.0.0.2" id="path6213-6-6-1-20-5"  style="display:inline;stroke-miterlimit:4;stroke-dasharray:none" fill-opacity="0.156863" stroke-width="0.949111" fill="#80bf40"/>
                    <path stroke-opacity="1" d="m 84.137255,83.294041 c 0,2.30569 -1.86913,4.17482 -4.17481,4.17482 -2.30569,0 -4.17481,-1.86913 -4.17481,-4.17482 0,-2.30568 1.86913,-4.1748 4.17481,-4.1748 2.30569,0 4.17481,1.86912 4.17481,4.1748 z" stroke="#ffc928" gorn="0.3.0.0.0.3" id="path3786-6-0-1-4-4-5"  style="display:inline;stroke-miterlimit:4;stroke-dasharray:none" fill-opacity="1" stroke-width="0.721255" fill="#faf7f4"/>
                    <path stroke-opacity="1" d="m 83.030255,83.294041 c 0,1.69483 -1.37393,3.06875 -3.06875,3.06875 -1.69482,0 -3.06876,-1.37392 -3.06876,-3.06875 0,-1.69482 1.37394,-3.06875 3.06876,-3.06875 1.69482,0 3.06875,1.37393 3.06875,3.06875 z" stroke="#0e100d" gorn="0.3.0.0.0.4" id="path6213-6-6-1-2-4"  style="display:inline;stroke-miterlimit:4;stroke-dasharray:none" fill-opacity="0.156863" stroke-width="0.949111" fill="#80bf40"/>
                    <g transform="translate(-7.4039314,25.049964)" >
                        <g >
                            <g >
                                <g gorn="0.3.0.0.0.5.0.0.0" id="g607"  style="display:inline">
                                    <path stroke-opacity="1" d="m 90.898287,133.36286 v -7.33864 h 0.01456 c 0.132298,-0.97216 1.13365,-1.73104 2.33069,-1.73104 1.19704,0 2.18382,0.75888 2.31612,1.73104 0.0011,0.008 -9.6e-4,0.0168 0,0.0248 0.008,0.0656 0.01456,0.12776 0.01456,0.19504 0,0.0672 -0.0066,0.14168 -0.01456,0.20728 v 6.91192 h -4.66137 z" stroke="#0e100d" gorn="0.3.0.0.0.5.0.0.0.0" id="rect6332-1-9-2-9"  style="display:inline" fill-opacity="1" stroke-width="0.426423" fill="#fcc460"/>
                                    <path stroke-opacity="1" d="m 94.605987,126.63086 c 0,0.75648 -0.613283,1.36976 -1.36981,1.36976 -0.756523,0 -1.36981,-0.61328 -1.36981,-1.36976 0,-0.75656 0.613284,-1.36984 1.36981,-1.36984 0.756524,0 1.36981,0.61328 1.36981,1.36984 z" stroke="#0e100d" gorn="0.3.0.0.0.5.0.0.0.1" id="connector14pin-1"  style="display:inline;stroke-miterlimit:4;stroke-dasharray:none" fill-opacity="1" stroke-width="0.548574" fill="#fffdfa"/>
                                    <path stroke-opacity="1" d="m 98.098287,133.36286 v -7.33864 h 0.01456 c 0.132304,-0.97216 1.13365,-1.73104 2.330703,-1.73104 1.19703,0 2.18382,0.75888 2.31611,1.73104 8e-4,0.008 -8e-4,0.0168 0,0.0248 0.008,0.0656 0.0146,0.12776 0.0146,0.19504 0,0.0672 -0.006,0.14168 -0.0146,0.20728 v 6.91192 h -4.661373 z" stroke="#0e100d" gorn="0.3.0.0.0.5.0.0.0.2" id="rect6332-1-9-22-7"  style="display:inline" fill-opacity="1" stroke-width="0.426423" fill="#fcc460"/>
                                    <path stroke-opacity="1" d="m 101.80599,126.63086 c 0,0.75648 -0.61329,1.36976 -1.36981,1.36976 -0.756523,0 -1.369803,-0.61328 -1.369803,-1.36976 0,-0.75656 0.61328,-1.36984 1.369803,-1.36984 0.75652,0 1.36981,0.61328 1.36981,1.36984 z" stroke="#0e100d" gorn="0.3.0.0.0.5.0.0.0.3" id="connector13pin-8"  style="display:inline;stroke-miterlimit:4;stroke-dasharray:none" fill-opacity="1" stroke-width="0.548574" fill="#fffdfa"/>
                                    <path stroke-opacity="1" d="m 105.29829,133.36286 v -7.33864 h 0.0146 c 0.13229,-0.97216 1.13365,-1.73104 2.33068,-1.73104 1.19704,0 2.18383,0.75888 2.31613,1.73104 8e-4,0.008 -8e-4,0.0168 0,0.0248 0.008,0.0656 0.0146,0.12776 0.0146,0.19504 0,0.0672 -0.006,0.14168 -0.0146,0.20728 v 6.91192 h -4.66138 z" stroke="#0e100d" gorn="0.3.0.0.0.5.0.0.0.4" id="rect6332-1-9-48-0"  style="display:inline" fill-opacity="1" stroke-width="0.426423" fill="#fcc460"/>
                                    <path stroke-opacity="1" d="m 109.00599,126.63086 c 0,0.75648 -0.61328,1.36976 -1.36981,1.36976 -0.75652,0 -1.36981,-0.61328 -1.36981,-1.36976 0,-0.75656 0.61329,-1.36984 1.36981,-1.36984 0.75653,0 1.36981,0.61328 1.36981,1.36984 z" stroke="#0e100d" gorn="0.3.0.0.0.5.0.0.0.5" id="connector12pin-8"  style="display:inline;stroke-miterlimit:4;stroke-dasharray:none" fill-opacity="1" stroke-width="0.548574" fill="#fffdfa"/>
                                    <path stroke-opacity="1" d="m 112.49829,133.36286 v -7.33864 h 0.0146 c 0.1323,-0.97216 1.13365,-1.73104 2.3307,-1.73104 1.19703,0 2.18382,0.75888 2.31611,1.73104 8e-4,0.008 -8e-4,0.0168 0,0.0248 0.008,0.0656 0.0146,0.12776 0.0146,0.19504 0,0.0672 -0.006,0.14168 -0.0146,0.20728 v 6.91192 h -4.66137 z" stroke="#0e100d" gorn="0.3.0.0.0.5.0.0.0.6" id="rect6332-1-9-5-6"  style="display:inline" fill-opacity="1" stroke-width="0.426423" fill="#fcc460"/>
                                    <path stroke-opacity="1" d="m 116.20599,126.63086 c 0,0.75648 -0.61329,1.36976 -1.3698,1.36976 -0.75653,0 -1.36982,-0.61328 -1.36982,-1.36976 0,-0.75656 0.61328,-1.36984 1.36982,-1.36984 0.75651,0 1.3698,0.61328 1.3698,1.36984 z" stroke="#0e100d" gorn="0.3.0.0.0.5.0.0.0.7" id="connector11pin-4"  style="display:inline;stroke-miterlimit:4;stroke-dasharray:none" fill-opacity="1" stroke-width="0.548574" fill="#fffdfa"/>
                                    <path stroke-opacity="1" d="m 119.69819,133.36286 v -7.33864 h 0.0146 c 0.1323,-0.97216 1.13366,-1.73104 2.33069,-1.73104 1.19704,0 2.18383,0.75888 2.31613,1.73104 8e-4,0.008 -8e-4,0.0168 0,0.0248 0.008,0.0656 0.0146,0.12776 0.0146,0.19504 0,0.0672 -0.006,0.14168 -0.0146,0.20728 v 6.91192 h -4.66142 z" stroke="#0e100d" gorn="0.3.0.0.0.5.0.0.0.8" id="rect6332-1-9-7-8"  style="display:inline" fill-opacity="1" stroke-width="0.426423" fill="#fcc460"/>
                                    <path stroke-opacity="1" d="m 123.40619,126.63086 c 0,0.75648 -0.61328,1.36976 -1.36981,1.36976 -0.75653,0 -1.36981,-0.61328 -1.36981,-1.36976 0,-0.75656 0.61328,-1.36984 1.36981,-1.36984 0.75653,0 1.36981,0.61328 1.36981,1.36984 z" stroke="#0e100d" gorn="0.3.0.0.0.5.0.0.0.9" id="connector10pin-9"  style="display:inline;stroke-miterlimit:4;stroke-dasharray:none" fill-opacity="1" stroke-width="0.548574" fill="#fffdfa"/>
                                    <path stroke-opacity="1" d="m 126.89819,133.36286 v -7.33864 h 0.0146 c 0.1323,-0.97216 1.13364,-1.73104 2.33068,-1.73104 1.19704,0 2.18382,0.75888 2.31612,1.73104 8e-4,0.008 -8e-4,0.0168 0,0.0248 0.008,0.0656 0.0146,0.12776 0.0146,0.19504 0,0.0672 -0.006,0.14168 -0.0146,0.20728 v 6.91192 h -4.66137 z" stroke="#0e100d" gorn="0.3.0.0.0.5.0.0.0.10" id="rect6332-1-9-57-4"  style="display:inline" fill-opacity="1" stroke-width="0.426423" fill="#fcc460"/>
                                    <path stroke-opacity="1" d="m 130.60619,126.63086 c 0,0.75648 -0.61327,1.36976 -1.3698,1.36976 -0.75652,0 -1.36981,-0.61328 -1.36981,-1.36976 0,-0.75656 0.61329,-1.36984 1.36981,-1.36984 0.75653,0 1.3698,0.61328 1.3698,1.36984 z" stroke="#0e100d" gorn="0.3.0.0.0.5.0.0.0.11" id="connector9pin-0"  style="display:inline;stroke-miterlimit:4;stroke-dasharray:none" fill-opacity="1" stroke-width="0.548574" fill="#fffdfa"/>
                                    <path stroke-opacity="1" d="m 134.09819,133.36286 v -7.33864 h 0.0146 c 0.1323,-0.97216 1.13365,-1.73104 2.33069,-1.73104 1.19704,0 2.18382,0.75888 2.31612,1.73104 8e-4,0.008 -8e-4,0.0168 0,0.0248 0.008,0.0656 0.0146,0.12776 0.0146,0.19504 0,0.0672 -0.006,0.14168 -0.0146,0.20728 v 6.91192 h -4.66138 z" stroke="#0e100d" gorn="0.3.0.0.0.5.0.0.0.12" id="rect6332-1-9-03-1"  style="display:inline" fill-opacity="1" stroke-width="0.426423" fill="#fcc460"/>
                                    <path stroke-opacity="1" d="m 137.80619,126.63086 c 0,0.75648 -0.61329,1.36976 -1.36981,1.36976 -0.75653,0 -1.36981,-0.61328 -1.36981,-1.36976 0,-0.75656 0.61328,-1.36984 1.36981,-1.36984 0.75652,0 1.36981,0.61328 1.36981,1.36984 z" stroke="#0e100d" gorn="0.3.0.0.0.5.0.0.0.13" id="connector8pin-5"  style="display:inline;stroke-miterlimit:4;stroke-dasharray:none" fill-opacity="1" stroke-width="0.548574" fill="#fffdfa"/>
                                    <path stroke-opacity="1" d="m 141.29819,133.36286 v -7.33864 h 0.0146 c 0.1323,-0.97216 1.13364,-1.73104 2.33068,-1.73104 1.19704,0 2.18382,0.75888 2.31612,1.73104 8e-4,0.008 -8e-4,0.0168 0,0.0248 0.008,0.0656 0.0146,0.12776 0.0146,0.19504 0,0.0672 -0.006,0.14168 -0.0146,0.20728 v 6.91192 h -4.66137 z" stroke="#0e100d" gorn="0.3.0.0.0.5.0.0.0.14" id="rect6332-1-9-1-4"  style="display:inline" fill-opacity="1" stroke-width="0.426423" fill="#fcc460"/>
                                    <path stroke-opacity="1" d="m 145.00619,126.63086 c 0,0.75648 -0.61327,1.36976 -1.3698,1.36976 -0.75652,0 -1.36981,-0.61328 -1.36981,-1.36976 0,-0.75656 0.61329,-1.36984 1.36981,-1.36984 0.75653,0 1.3698,0.61328 1.3698,1.36984 z" stroke="#0e100d" gorn="0.3.0.0.0.5.0.0.0.15" id="connector7pin-6"  style="display:inline;stroke-miterlimit:4;stroke-dasharray:none" fill-opacity="1" stroke-width="0.548574" fill="#fffdfa"/>
                                    <path stroke-opacity="1" d="m 148.49819,133.36286 v -7.33864 h 0.0146 c 0.1323,-0.97216 1.13365,-1.73104 2.3307,-1.73104 1.19703,0 2.18382,0.75888 2.31611,1.73104 8e-4,0.008 -8e-4,0.0168 0,0.0248 0.008,0.0656 0.0146,0.12776 0.0146,0.19504 0,0.0672 -0.006,0.14168 -0.0146,0.20728 v 6.91192 h -4.66138 z" stroke="#0e100d" gorn="0.3.0.0.0.5.0.0.0.16" id="rect6332-1-9-89-4"  style="display:inline" fill-opacity="1" stroke-width="0.426423" fill="#fcc460"/>
                                    <path stroke-opacity="1" d="m 152.20619,126.63086 c 0,0.75648 -0.61329,1.36976 -1.36981,1.36976 -0.75653,0 -1.36982,-0.61328 -1.36982,-1.36976 0,-0.75656 0.61329,-1.36984 1.36982,-1.36984 0.75652,0 1.36981,0.61328 1.36981,1.36984 z" stroke="#0e100d" gorn="0.3.0.0.0.5.0.0.0.17" id="connector6pin-2"  style="display:inline;stroke-miterlimit:4;stroke-dasharray:none" fill-opacity="1" stroke-width="0.548574" fill="#fffdfa"/>
                                    <path stroke-opacity="1" d="m 155.69819,133.36286 v -7.33864 h 0.0146 c 0.13229,-0.97216 1.13365,-1.73104 2.33068,-1.73104 1.19704,0 2.18382,0.75888 2.31613,1.73104 8e-4,0.008 -8e-4,0.0168 0,0.0248 0.008,0.0656 0.0146,0.12776 0.0146,0.19504 0,0.0672 -0.006,0.14168 -0.0146,0.20728 v 6.91192 h -4.66138 z" stroke="#0e100d" gorn="0.3.0.0.0.5.0.0.0.18" id="rect6332-1-9-6-5"  style="display:inline" fill-opacity="1" stroke-width="0.426423" fill="#fcc460"/>
                                    <path stroke-opacity="1" d="m 159.40619,126.63086 c 0,0.75648 -0.61327,1.36976 -1.3698,1.36976 -0.75652,0 -1.36981,-0.61328 -1.36981,-1.36976 0,-0.75656 0.61329,-1.36984 1.36981,-1.36984 0.75653,0 1.3698,0.61328 1.3698,1.36984 z" stroke="#0e100d" gorn="0.3.0.0.0.5.0.0.0.19" id="connector5pin-0"  style="display:inline;stroke-miterlimit:4;stroke-dasharray:none" fill-opacity="1" stroke-width="0.548574" fill="#fffdfa"/>
                                    <path stroke-opacity="1" d="m 162.89819,133.36286 v -7.33864 h 0.0146 c 0.1323,-0.97216 1.13365,-1.73104 2.33069,-1.73104 1.19704,0 2.18382,0.75888 2.31612,1.73104 8e-4,0.008 -8e-4,0.0168 0,0.0248 0.008,0.0656 0.0146,0.12776 0.0146,0.19504 0,0.0672 -0.006,0.14168 -0.0146,0.20728 v 6.91192 h -4.66138 z" stroke="#0e100d" gorn="0.3.0.0.0.5.0.0.0.20" id="rect6332-1-9-80-5"  style="display:inline" fill-opacity="1" stroke-width="0.426423" fill="#fcc460"/>
                                    <path stroke-opacity="1" d="m 166.60619,126.63086 c 0,0.75648 -0.61329,1.36976 -1.36982,1.36976 -0.75652,0 -1.3698,-0.61328 -1.3698,-1.36976 0,-0.75656 0.61328,-1.36984 1.3698,-1.36984 0.75653,0 1.36982,0.61328 1.36982,1.36984 z" stroke="#0e100d" gorn="0.3.0.0.0.5.0.0.0.21" id="connector4pin-4"  style="display:inline;stroke-miterlimit:4;stroke-dasharray:none" fill-opacity="1" stroke-width="0.548574" fill="#fffdfa"/>
                                    <path stroke-opacity="1" d="m 170.09819,133.36286 v -7.33864 h 0.0146 c 0.1323,-0.97216 1.13366,-1.73104 2.33069,-1.73104 1.19704,0 2.18382,0.75888 2.31612,1.73104 8e-4,0.008 -8e-4,0.0168 0,0.0248 0.008,0.0656 0.0146,0.12776 0.0146,0.19504 0,0.0672 -0.006,0.14168 -0.0146,0.20728 v 6.91192 h -4.66138 z" stroke="#0e100d" gorn="0.3.0.0.0.5.0.0.0.22" id="rect6332-1-9-23-1"  style="display:inline" fill-opacity="1" stroke-width="0.426423" fill="#fcc460"/>
                                    <path stroke-opacity="1" d="m 173.80619,126.63086 c 0,0.75648 -0.61329,1.36976 -1.36981,1.36976 -0.75653,0 -1.36981,-0.61328 -1.36981,-1.36976 0,-0.75656 0.61328,-1.36984 1.36981,-1.36984 0.75652,0 1.36981,0.61328 1.36981,1.36984 z" stroke="#0e100d" gorn="0.3.0.0.0.5.0.0.0.23" id="connector3pin-5"  style="display:inline;stroke-miterlimit:4;stroke-dasharray:none" fill-opacity="1" stroke-width="0.548574" fill="#fffdfa"/>
                                    <path stroke-opacity="1" d="m 177.29819,133.36286 v -7.33864 h 0.0146 c 0.1323,-0.97216 1.13365,-1.73104 2.33069,-1.73104 1.19704,0 2.18382,0.75888 2.31612,1.73104 8e-4,0.008 -8e-4,0.0168 0,0.0248 0.008,0.0656 0.0146,0.12776 0.0146,0.19504 0,0.0672 -0.006,0.14168 -0.0146,0.20728 v 6.91192 h -4.66141 z" stroke="#0e100d" gorn="0.3.0.0.0.5.0.0.0.24" id="rect6332-1-9-20-4"  style="display:inline" fill-opacity="1" stroke-width="0.426423" fill="#fcc460"/>
                                    <path stroke-opacity="1" d="m 181.00619,126.63086 c 0,0.75648 -0.61329,1.36976 -1.36982,1.36976 -0.75651,0 -1.3698,-0.61328 -1.3698,-1.36976 0,-0.75656 0.61329,-1.36984 1.3698,-1.36984 0.75653,0 1.36982,0.61328 1.36982,1.36984 z" stroke="#0e100d" gorn="0.3.0.0.0.5.0.0.0.25" id="connector2pin-3"  style="display:inline;stroke-miterlimit:4;stroke-dasharray:none" fill-opacity="1" stroke-width="0.548574" fill="#fffdfa"/>
                                    <path stroke-opacity="1" d="m 184.49819,133.36286 v -7.33864 h 0.0146 c 0.1323,-0.97216 1.13366,-1.73104 2.33069,-1.73104 1.19704,0 2.18382,0.75888 2.31612,1.73104 8e-4,0.008 -8e-4,0.0168 0,0.0248 0.008,0.0656 0.0146,0.12776 0.0146,0.19504 0,0.0672 -0.006,0.14168 -0.0146,0.20728 v 6.91192 h -4.66138 z" stroke="#0e100d" gorn="0.3.0.0.0.5.0.0.0.26" id="rect6332-1-9-81-3"  style="display:inline" fill-opacity="1" stroke-width="0.426423" fill="#fcc460"/>
                                    <path stroke-opacity="1" d="m 188.20619,126.63086 c 0,0.75648 -0.61329,1.36976 -1.36981,1.36976 -0.75653,0 -1.36981,-0.61328 -1.36981,-1.36976 0,-0.75656 0.61328,-1.36984 1.36981,-1.36984 0.75652,0 1.36981,0.61328 1.36981,1.36984 z" stroke="#0e100d" gorn="0.3.0.0.0.5.0.0.0.27" id="connector1pin-1"  style="display:inline;stroke-miterlimit:4;stroke-dasharray:none" fill-opacity="1" stroke-width="0.548574" fill="#fffdfa"/>
                                    <path stroke-opacity="1" d="m 191.69819,133.36286 v -7.33864 h 0.0146 c 0.1323,-0.97216 1.13365,-1.73104 2.33069,-1.73104 1.19704,0 2.18382,0.75888 2.31612,1.73104 8e-4,0.008 -8e-4,0.0168 0,0.0248 0.008,0.0656 0.0146,0.12776 0.0146,0.19504 0,0.0672 -0.006,0.14168 -0.0146,0.20728 v 6.91192 h -4.66141 z" stroke="#0e100d" gorn="0.3.0.0.0.5.0.0.0.28" id="rect6332-1-9-3-1"  style="display:inline" fill-opacity="1" stroke-width="0.426423" fill="#fcc460"/>
                                    <path stroke-opacity="1" d="m 195.40619,126.63086 c 0,0.75648 -0.61328,1.36976 -1.36981,1.36976 -0.75651,0 -1.3698,-0.61328 -1.3698,-1.36976 0,-0.75656 0.61329,-1.36984 1.3698,-1.36984 0.75653,0 1.36981,0.61328 1.36981,1.36984 z" stroke="#0e100d" gorn="0.3.0.0.0.5.0.0.0.29" id="connector0pin-5"  style="display:inline;stroke-miterlimit:4;stroke-dasharray:none" fill-opacity="1" stroke-width="0.548574" fill="#fffdfa"/>
                                </g>
                            </g>
                        </g>
                    </g>
                    <path stroke-opacity="1" d="m 100.1121,95.36652 h 75.69559 v 35.8269 H 100.1121 Z" stroke="#000000" gorn="0.3.0.0.0.6" id="rect3835-6"  style="display:inline;stroke-miterlimit:4" fill-opacity="1" stroke-width="0.684874" fill="#b5d776"/>
                </g>
            </g>
        </g>
    </g>
    <g transform="matrix(0.74999928,0,0,0.74999928,0,-1.6173816e-4)" >
        <g >
            <g >
                <text gorn="0.4.0.0.0" id="text1724"  style="line-height:1.25;font-family:OCRA;font-weight:bold;font-size:8px;-inkscape-font-specification:'OCRA Bold';white-space:pre;shape-inside:url(#rect1726)" xmlns:xml="http://www.w3.org/XML/1998/namespace" xml:space="preserve"/>
            </g>
        </g>
    </g>
    <g transform="matrix(0.74999928,0,0,0.74999928,0,-1.6173816e-4)" >
        <g >
            <g >
                <g gorn="0.5.0.0.0" id="text1730"  style="font-weight:bold;font-size:17.0079px;line-height:19.2px;font-family:OCRA;-inkscape-font-specification:'OCRA Bold';letter-spacing:-0.07px;word-spacing:-0.02px;writing-mode:tb-rl;text-orientation:upright;white-space:pre;shape-inside:url(#rect1732)" xmlns:xml="http://www.w3.org/XML/1998/namespace" xml:space="preserve"/>
            </g>
        </g>
    </g>
</svg>
