<?xml version='1.0' encoding='UTF-8' standalone='no'?>
<!-- Created with Fritzing (https://fritzing.org/) -->
<svg xmlns="http://www.w3.org/2000/svg" y="0in" x="0in"  version="1.2" id="svg5762" height="2.75591in" gorn="0" viewBox="0 0 263.622 198.425" width="3.66142in">
    <desc >
        <referenceFile >Proba9.svg</referenceFile>
    </desc>
    <defs  id="defs5766">
        <rect y="180.327" x="105.6295"  id="rect1732" height="19.743832" gorn="0.1.0" width="150.38219"/>
        <rect y="186.90828" x="106.61669"  id="rect1726" height="11.846299" gorn="0.1.1" width="150.05313"/>
    </defs>
    <g partID="58310"  style="display:none" id="g5760" gorn="0.2">
        <g  style="display:inline" id="breadboard" gorn="0.2.0">
            <g  transform="translate(0,-643.465)">
                <g >
                    <g  id="g5741" gorn="0.2.0.0.0.0">
                        <path fill="#378f6b"  stroke-width="0.805722" stroke="#000000" font-size="3.20001" style="display:inline;stroke-miterlimit:4" id="rect3008" fill-opacity="1" gorn="0.2.0.0.0.0.0" stroke-opacity="1" d="M 0.402861,643.867 H 263.21886 V 841.486 H 0.402861 Z"/>
                        <g  transform="matrix(0.999995,0,0,0.999995,0,746.146)">
                            <g >
                                <g  style="display:inline" id="layer1-2" gorn="0.2.0.0.0.0.1.0.0">
                                    <path fill="#faf7f4"  stroke-width="0.721259" stroke="#ffc928" style="display:inline;stroke-miterlimit:4;stroke-dasharray:none" id="path3786-6-0-1-4-47" fill-opacity="1" gorn="0.2.0.0.0.0.1.0.0.0" stroke-opacity="1" d="m 11.2615,88.6578 c 0,2.3057 -1.86914,4.17484 -4.17483,4.17484 -2.3057,0 -4.17483,-1.86914 -4.17483,-4.17484 0,-2.30569 1.86914,-4.17482 4.17483,-4.17482 2.3057,0 4.17483,1.86913 4.17483,4.17482 z"/>
                                    <path fill="#80bf40"  stroke-width="0.949116" stroke="#0e100d" style="display:inline;stroke-miterlimit:4;stroke-dasharray:none" id="path6213-6-6-1" fill-opacity="0.156863" gorn="0.2.0.0.0.0.1.0.0.1" stroke-opacity="1" d="m 10.1554,88.6578 c 0,1.69484 -1.37393,3.06877 -3.06877,3.06877 -1.69483,0 -3.06877,-1.37393 -3.06877,-3.06877 0,-1.69483 1.37393,-3.06876 3.06877,-3.06876 1.69483,0 3.06877,1.37393 3.06877,3.06876 z"/>
                                    <path fill="#faf7f4"  stroke-width="0.721259" stroke="#ffc928" style="display:inline;stroke-miterlimit:4;stroke-dasharray:none" id="path3786-6-0-1-4-47-9" fill-opacity="1" gorn="0.2.0.0.0.0.1.0.0.2" stroke-opacity="1" d="m 11.2615,-95.5951 c 0,2.3057 -1.86914,4.17484 -4.17483,4.17484 -2.3057,0 -4.17483,-1.86914 -4.17483,-4.17484 0,-2.30569 1.86914,-4.17482 4.17483,-4.17482 2.3057,0 4.17483,1.86913 4.17483,4.17482 z"/>
                                    <path fill="#80bf40"  stroke-width="0.949116" stroke="#0e100d" style="display:inline;stroke-miterlimit:4;stroke-dasharray:none" id="path6213-6-6-1-1" fill-opacity="0.156863" gorn="0.2.0.0.0.0.1.0.0.3" stroke-opacity="1" d="m 10.1554,-95.5951 c 0,1.69484 -1.37394,3.06877 -3.06877,3.06877 -1.69483,0 -3.06877,-1.37393 -3.06877,-3.06877 0,-1.69483 1.37394,-3.06876 3.06877,-3.06876 1.69483,0 3.06877,1.37393 3.06877,3.06876 z"/>
                                    <path fill="#faf7f4"  stroke-width="0.721259" stroke="#ffc928" style="display:inline;stroke-miterlimit:4;stroke-dasharray:none" id="path3786-6-0-1-4-4" fill-opacity="1" gorn="0.2.0.0.0.0.1.0.0.4" stroke-opacity="1" d="m 260.712,88.6578 c 0,2.3057 -1.86914,4.17484 -4.17483,4.17484 -2.3057,0 -4.17483,-1.86914 -4.17483,-4.17484 0,-2.30569 1.86914,-4.17482 4.17483,-4.17482 2.3057,0 4.17483,1.86913 4.17483,4.17482 z"/>
                                    <path fill="#80bf40"  stroke-width="0.949116" stroke="#0e100d" style="display:inline;stroke-miterlimit:4;stroke-dasharray:none" id="path6213-6-6-1-2" fill-opacity="0.156863" gorn="0.2.0.0.0.0.1.0.0.5" stroke-opacity="1" d="m 259.605,88.6578 c 0,1.69484 -1.37394,3.06877 -3.06877,3.06877 -1.69483,0 -3.06877,-1.37393 -3.06877,-3.06877 0,-1.69483 1.37394,-3.06876 3.06877,-3.06876 1.69483,0 3.06877,1.37393 3.06877,3.06876 z"/>
                                    <path fill="#faf7f4"  stroke-width="0.721259" stroke="#ffc928" style="display:inline;stroke-miterlimit:4;stroke-dasharray:none" id="path3786-6-0-1-4" fill-opacity="1" gorn="0.2.0.0.0.0.1.0.0.6" stroke-opacity="1" d="m 260.712,-95.5951 c 0,2.3057 -1.86914,4.17484 -4.17483,4.17484 -2.3057,0 -4.17483,-1.86914 -4.17483,-4.17484 0,-2.30569 1.86914,-4.17482 4.17483,-4.17482 2.3057,0 4.17483,1.86913 4.17483,4.17482 z"/>
                                    <path fill="#80bf40"  stroke-width="0.949116" stroke="#0e100d" style="display:inline;stroke-miterlimit:4;stroke-dasharray:none" id="path6213-6-6-1-20" fill-opacity="0.156863" gorn="0.2.0.0.0.0.1.0.0.7" stroke-opacity="1" d="m 259.605,-95.5951 c 0,1.69484 -1.37394,3.06877 -3.06877,3.06877 -1.69483,0 -3.06877,-1.37393 -3.06877,-3.06877 0,-1.69483 1.37394,-3.06876 3.06877,-3.06876 1.69483,0 3.06877,1.37393 3.06877,3.06876 z"/>
                                    <g fill="#000000"  stroke="none" font-size="2.56" style="font-style:normal;font-weight:normal;font-family:OCRA" id="flowRoot4238" fill-opacity="1" gorn="0.2.0.0.0.0.1.0.0.8"/>
                                </g>
                            </g>
                        </g>
                        <path fill="#b5d776"  stroke-width="1.93508" stroke="#000000" style="display:inline;stroke-miterlimit:4" id="rect3835" fill-opacity="1" gorn="0.2.0.0.0.0.2" stroke-opacity="1" d="m 32.1486,687.235 h 199.325 V 795.851 H 32.1486 Z"/>
                        <path fill="#fcc460"  stroke-width="0.426423" stroke="#0e100d" style="display:inline" id="rect6332-1-9-2" fill-opacity="1" gorn="0.2.0.0.0.0.3" stroke-opacity="1" d="m 73.3471,841.535 v -7.33864 h 0.01456 c 0.132298,-0.97216 1.13365,-1.73104 2.33069,-1.73104 1.19704,0 2.18382,0.75888 2.31612,1.73104 0.0011,0.008 -9.6e-4,0.0168 0,0.0248 0.008,0.0656 0.01456,0.12776 0.01456,0.19504 0,0.0672 -0.0066,0.14168 -0.01456,0.20728 v 6.91192 H 73.3471 Z"/>
                        <path fill="#fffdfa"  stroke-width="0.548574" stroke="#0e100d" style="display:inline;stroke-miterlimit:4;stroke-dasharray:none" id="connector14pin" fill-opacity="1" gorn="0.2.0.0.0.0.4" stroke-opacity="1" d="m 77.0548,834.803 c 0,0.75648 -0.613283,1.36976 -1.36981,1.36976 -0.756523,0 -1.36981,-0.61328 -1.36981,-1.36976 0,-0.75656 0.613284,-1.36984 1.36981,-1.36984 0.756524,0 1.36981,0.61328 1.36981,1.36984 z"/>
                        <path fill="#fcc460"  stroke-width="0.426423" stroke="#0e100d" style="display:inline" id="rect6332-1-9-22" fill-opacity="1" gorn="0.2.0.0.0.0.5" stroke-opacity="1" d="m 80.5471,841.535 v -7.33864 h 0.01456 c 0.132304,-0.97216 1.13365,-1.73104 2.3307,-1.73104 1.19703,0 2.18382,0.75888 2.31611,1.73104 8e-4,0.008 -8e-4,0.0168 0,0.0248 0.008,0.0656 0.01456,0.12776 0.01456,0.19504 0,0.0672 -0.0064,0.14168 -0.01456,0.20728 v 6.91192 H 80.5471 Z"/>
                        <path fill="#fffdfa"  stroke-width="0.548574" stroke="#0e100d" style="display:inline;stroke-miterlimit:4;stroke-dasharray:none" id="connector13pin" fill-opacity="1" gorn="0.2.0.0.0.0.6" stroke-opacity="1" d="m 84.2548,834.803 c 0,0.75648 -0.613288,1.36976 -1.36981,1.36976 -0.75652,0 -1.3698,-0.61328 -1.3698,-1.36976 0,-0.75656 0.61328,-1.36984 1.3698,-1.36984 0.75652,0 1.36981,0.61328 1.36981,1.36984 z"/>
                        <path fill="#fcc460"  stroke-width="0.426423" stroke="#0e100d" style="display:inline" id="rect6332-1-9-48" fill-opacity="1" gorn="0.2.0.0.0.0.7" stroke-opacity="1" d="m 87.7471,841.535 v -7.33864 h 0.01456 c 0.132288,-0.97216 1.13365,-1.73104 2.33068,-1.73104 1.19704,0 2.18383,0.75888 2.31613,1.73104 8e-4,0.008 -8e-4,0.0168 0,0.0248 0.008,0.0656 0.01456,0.12776 0.01456,0.19504 0,0.0672 -0.0064,0.14168 -0.01456,0.20728 v 6.91192 h -4.66138 z"/>
                        <path fill="#fffdfa"  stroke-width="0.548574" stroke="#0e100d" style="display:inline;stroke-miterlimit:4;stroke-dasharray:none" id="connector12pin" fill-opacity="1" gorn="0.2.0.0.0.0.8" stroke-opacity="1" d="m 91.4548,834.803 c 0,0.75648 -0.61328,1.36976 -1.36981,1.36976 -0.75652,0 -1.36981,-0.61328 -1.36981,-1.36976 0,-0.75656 0.613288,-1.36984 1.36981,-1.36984 0.756528,0 1.36981,0.61328 1.36981,1.36984 z"/>
                        <path fill="#fcc460"  stroke-width="0.426423" stroke="#0e100d" style="display:inline" id="rect6332-1-9-5" fill-opacity="1" gorn="0.2.0.0.0.0.9" stroke-opacity="1" d="m 94.9471,841.535 v -7.33864 h 0.01456 c 0.132304,-0.97216 1.13365,-1.73104 2.3307,-1.73104 1.19703,0 2.18382,0.75888 2.31611,1.73104 8e-4,0.008 -8e-4,0.0168 0,0.0248 0.008,0.0656 0.01456,0.12776 0.01456,0.19504 0,0.0672 -0.0064,0.14168 -0.01456,0.20728 v 6.91192 H 94.9471 Z"/>
                        <path fill="#fffdfa"  stroke-width="0.548574" stroke="#0e100d" style="display:inline;stroke-miterlimit:4;stroke-dasharray:none" id="connector11pin" fill-opacity="1" gorn="0.2.0.0.0.0.10" stroke-opacity="1" d="m 98.6548,834.803 c 0,0.75648 -0.613288,1.36976 -1.3698,1.36976 -0.756528,0 -1.36982,-0.61328 -1.36982,-1.36976 0,-0.75656 0.613288,-1.36984 1.36982,-1.36984 0.756512,0 1.3698,0.61328 1.3698,1.36984 z"/>
                        <path fill="#fcc460"  stroke-width="0.426423" stroke="#0e100d" style="display:inline" id="rect6332-1-9-7" fill-opacity="1" gorn="0.2.0.0.0.0.11" stroke-opacity="1" d="m 102.147,841.535 v -7.33864 h 0.0146 c 0.1323,-0.97216 1.13366,-1.73104 2.33069,-1.73104 1.19704,0 2.18383,0.75888 2.31613,1.73104 8e-4,0.008 -8e-4,0.0168 0,0.0248 0.008,0.0656 0.0146,0.12776 0.0146,0.19504 0,0.0672 -0.006,0.14168 -0.0146,0.20728 v 6.91192 H 102.147 Z"/>
                        <path fill="#fffdfa"  stroke-width="0.548574" stroke="#0e100d" style="display:inline;stroke-miterlimit:4;stroke-dasharray:none" id="connector10pin" fill-opacity="1" gorn="0.2.0.0.0.0.12" stroke-opacity="1" d="m 105.855,834.803 c 0,0.75648 -0.61328,1.36976 -1.36981,1.36976 -0.75653,0 -1.36981,-0.61328 -1.36981,-1.36976 0,-0.75656 0.61328,-1.36984 1.36981,-1.36984 0.75653,0 1.36981,0.61328 1.36981,1.36984 z"/>
                        <path fill="#fcc460"  stroke-width="0.426423" stroke="#0e100d" style="display:inline" id="rect6332-1-9-57" fill-opacity="1" gorn="0.2.0.0.0.0.13" stroke-opacity="1" d="m 109.347,841.535 v -7.33864 h 0.0146 c 0.1323,-0.97216 1.13364,-1.73104 2.33068,-1.73104 1.19704,0 2.18382,0.75888 2.31612,1.73104 8e-4,0.008 -8e-4,0.0168 0,0.0248 0.008,0.0656 0.0146,0.12776 0.0146,0.19504 0,0.0672 -0.006,0.14168 -0.0146,0.20728 v 6.91192 h -4.66137 z"/>
                        <path fill="#fffdfa"  stroke-width="0.548574" stroke="#0e100d" style="display:inline;stroke-miterlimit:4;stroke-dasharray:none" id="connector9pin" fill-opacity="1" gorn="0.2.0.0.0.0.14" stroke-opacity="1" d="m 113.055,834.803 c 0,0.75648 -0.61327,1.36976 -1.3698,1.36976 -0.75652,0 -1.36981,-0.61328 -1.36981,-1.36976 0,-0.75656 0.61329,-1.36984 1.36981,-1.36984 0.75653,0 1.3698,0.61328 1.3698,1.36984 z"/>
                        <path fill="#fcc460"  stroke-width="0.426423" stroke="#0e100d" style="display:inline" id="rect6332-1-9-03" fill-opacity="1" gorn="0.2.0.0.0.0.15" stroke-opacity="1" d="m 116.547,841.535 v -7.33864 h 0.0146 c 0.1323,-0.97216 1.13365,-1.73104 2.33069,-1.73104 1.19704,0 2.18382,0.75888 2.31612,1.73104 8e-4,0.008 -8e-4,0.0168 0,0.0248 0.008,0.0656 0.0146,0.12776 0.0146,0.19504 0,0.0672 -0.006,0.14168 -0.0146,0.20728 v 6.91192 h -4.66138 z"/>
                        <path fill="#fffdfa"  stroke-width="0.548574" stroke="#0e100d" style="display:inline;stroke-miterlimit:4;stroke-dasharray:none" id="connector8pin" fill-opacity="1" gorn="0.2.0.0.0.0.16" stroke-opacity="1" d="m 120.255,834.803 c 0,0.75648 -0.61329,1.36976 -1.36981,1.36976 -0.75653,0 -1.36981,-0.61328 -1.36981,-1.36976 0,-0.75656 0.61328,-1.36984 1.36981,-1.36984 0.75652,0 1.36981,0.61328 1.36981,1.36984 z"/>
                        <path fill="#fcc460"  stroke-width="0.426423" stroke="#0e100d" style="display:inline" id="rect6332-1-9-1" fill-opacity="1" gorn="0.2.0.0.0.0.17" stroke-opacity="1" d="m 123.747,841.535 v -7.33864 h 0.0146 c 0.1323,-0.97216 1.13364,-1.73104 2.33068,-1.73104 1.19704,0 2.18382,0.75888 2.31612,1.73104 8e-4,0.008 -8e-4,0.0168 0,0.0248 0.008,0.0656 0.0146,0.12776 0.0146,0.19504 0,0.0672 -0.006,0.14168 -0.0146,0.20728 v 6.91192 h -4.66137 z"/>
                        <path fill="#fffdfa"  stroke-width="0.548574" stroke="#0e100d" style="display:inline;stroke-miterlimit:4;stroke-dasharray:none" id="connector7pin" fill-opacity="1" gorn="0.2.0.0.0.0.18" stroke-opacity="1" d="m 127.455,834.803 c 0,0.75648 -0.61327,1.36976 -1.3698,1.36976 -0.75652,0 -1.36981,-0.61328 -1.36981,-1.36976 0,-0.75656 0.61329,-1.36984 1.36981,-1.36984 0.75653,0 1.3698,0.61328 1.3698,1.36984 z"/>
                        <path fill="#fcc460"  stroke-width="0.426423" stroke="#0e100d" style="display:inline" id="rect6332-1-9-89" fill-opacity="1" gorn="0.2.0.0.0.0.19" stroke-opacity="1" d="m 130.947,841.535 v -7.33864 h 0.0146 c 0.1323,-0.97216 1.13365,-1.73104 2.3307,-1.73104 1.19703,0 2.18382,0.75888 2.31611,1.73104 8e-4,0.008 -8e-4,0.0168 0,0.0248 0.008,0.0656 0.0146,0.12776 0.0146,0.19504 0,0.0672 -0.006,0.14168 -0.0146,0.20728 v 6.91192 h -4.66138 z"/>
                        <path fill="#fffdfa"  stroke-width="0.548574" stroke="#0e100d" style="display:inline;stroke-miterlimit:4;stroke-dasharray:none" id="connector6pin" fill-opacity="1" gorn="0.2.0.0.0.0.20" stroke-opacity="1" d="m 134.655,834.803 c 0,0.75648 -0.61329,1.36976 -1.36981,1.36976 -0.75653,0 -1.36982,-0.61328 -1.36982,-1.36976 0,-0.75656 0.61329,-1.36984 1.36982,-1.36984 0.75652,0 1.36981,0.61328 1.36981,1.36984 z"/>
                        <path fill="#fcc460"  stroke-width="0.426423" stroke="#0e100d" style="display:inline" id="rect6332-1-9-6" fill-opacity="1" gorn="0.2.0.0.0.0.21" stroke-opacity="1" d="m 138.147,841.535 v -7.33864 h 0.0146 c 0.13229,-0.97216 1.13365,-1.73104 2.33068,-1.73104 1.19704,0 2.18382,0.75888 2.31613,1.73104 8e-4,0.008 -8e-4,0.0168 0,0.0248 0.008,0.0656 0.0146,0.12776 0.0146,0.19504 0,0.0672 -0.006,0.14168 -0.0146,0.20728 v 6.91192 h -4.66138 z"/>
                        <path fill="#fffdfa"  stroke-width="0.548574" stroke="#0e100d" style="display:inline;stroke-miterlimit:4;stroke-dasharray:none" id="connector5pin" fill-opacity="1" gorn="0.2.0.0.0.0.22" stroke-opacity="1" d="m 141.855,834.803 c 0,0.75648 -0.61327,1.36976 -1.3698,1.36976 -0.75652,0 -1.36981,-0.61328 -1.36981,-1.36976 0,-0.75656 0.61329,-1.36984 1.36981,-1.36984 0.75653,0 1.3698,0.61328 1.3698,1.36984 z"/>
                        <path fill="#fcc460"  stroke-width="0.426423" stroke="#0e100d" style="display:inline" id="rect6332-1-9-80" fill-opacity="1" gorn="0.2.0.0.0.0.23" stroke-opacity="1" d="m 145.347,841.535 v -7.33864 h 0.0146 c 0.1323,-0.97216 1.13365,-1.73104 2.33069,-1.73104 1.19704,0 2.18382,0.75888 2.31612,1.73104 8e-4,0.008 -8e-4,0.0168 0,0.0248 0.008,0.0656 0.0146,0.12776 0.0146,0.19504 0,0.0672 -0.006,0.14168 -0.0146,0.20728 v 6.91192 h -4.66138 z"/>
                        <path fill="#fffdfa"  stroke-width="0.548574" stroke="#0e100d" style="display:inline;stroke-miterlimit:4;stroke-dasharray:none" id="connector4pin" fill-opacity="1" gorn="0.2.0.0.0.0.24" stroke-opacity="1" d="m 149.055,834.803 c 0,0.75648 -0.61329,1.36976 -1.36982,1.36976 -0.75652,0 -1.3698,-0.61328 -1.3698,-1.36976 0,-0.75656 0.61328,-1.36984 1.3698,-1.36984 0.75653,0 1.36982,0.61328 1.36982,1.36984 z"/>
                        <path fill="#fcc460"  stroke-width="0.426423" stroke="#0e100d" style="display:inline" id="rect6332-1-9-23" fill-opacity="1" gorn="0.2.0.0.0.0.25" stroke-opacity="1" d="m 152.547,841.535 v -7.33864 h 0.0146 c 0.1323,-0.97216 1.13366,-1.73104 2.33069,-1.73104 1.19704,0 2.18382,0.75888 2.31612,1.73104 8e-4,0.008 -8e-4,0.0168 0,0.0248 0.008,0.0656 0.0146,0.12776 0.0146,0.19504 0,0.0672 -0.006,0.14168 -0.0146,0.20728 v 6.91192 h -4.66138 z"/>
                        <path fill="#fffdfa"  stroke-width="0.548574" stroke="#0e100d" style="display:inline;stroke-miterlimit:4;stroke-dasharray:none" id="connector3pin" fill-opacity="1" gorn="0.2.0.0.0.0.26" stroke-opacity="1" d="m 156.255,834.803 c 0,0.75648 -0.61329,1.36976 -1.36981,1.36976 -0.75653,0 -1.36981,-0.61328 -1.36981,-1.36976 0,-0.75656 0.61328,-1.36984 1.36981,-1.36984 0.75652,0 1.36981,0.61328 1.36981,1.36984 z"/>
                        <path fill="#fcc460"  stroke-width="0.426423" stroke="#0e100d" style="display:inline" id="rect6332-1-9-20" fill-opacity="1" gorn="0.2.0.0.0.0.27" stroke-opacity="1" d="m 159.747,841.535 v -7.33864 h 0.0146 c 0.1323,-0.97216 1.13365,-1.73104 2.33069,-1.73104 1.19704,0 2.18382,0.75888 2.31612,1.73104 8e-4,0.008 -8e-4,0.0168 0,0.0248 0.008,0.0656 0.0146,0.12776 0.0146,0.19504 0,0.0672 -0.006,0.14168 -0.0146,0.20728 v 6.91192 H 159.747 Z"/>
                        <path fill="#fffdfa"  stroke-width="0.548574" stroke="#0e100d" style="display:inline;stroke-miterlimit:4;stroke-dasharray:none" id="connector2pin" fill-opacity="1" gorn="0.2.0.0.0.0.28" stroke-opacity="1" d="m 163.455,834.803 c 0,0.75648 -0.61329,1.36976 -1.36982,1.36976 -0.75651,0 -1.3698,-0.61328 -1.3698,-1.36976 0,-0.75656 0.61329,-1.36984 1.3698,-1.36984 0.75653,0 1.36982,0.61328 1.36982,1.36984 z"/>
                        <path fill="#fcc460"  stroke-width="0.426423" stroke="#0e100d" style="display:inline" id="rect6332-1-9-81" fill-opacity="1" gorn="0.2.0.0.0.0.29" stroke-opacity="1" d="m 166.947,841.535 v -7.33864 h 0.0146 c 0.1323,-0.97216 1.13366,-1.73104 2.33069,-1.73104 1.19704,0 2.18382,0.75888 2.31612,1.73104 8e-4,0.008 -8e-4,0.0168 0,0.0248 0.008,0.0656 0.0146,0.12776 0.0146,0.19504 0,0.0672 -0.006,0.14168 -0.0146,0.20728 v 6.91192 h -4.66138 z"/>
                        <path fill="#fffdfa"  stroke-width="0.548574" stroke="#0e100d" style="display:inline;stroke-miterlimit:4;stroke-dasharray:none" id="connector1pin" fill-opacity="1" gorn="0.2.0.0.0.0.30" stroke-opacity="1" d="m 170.655,834.803 c 0,0.75648 -0.61329,1.36976 -1.36981,1.36976 -0.75653,0 -1.36981,-0.61328 -1.36981,-1.36976 0,-0.75656 0.61328,-1.36984 1.36981,-1.36984 0.75652,0 1.36981,0.61328 1.36981,1.36984 z"/>
                        <path fill="#fcc460"  stroke-width="0.426423" stroke="#0e100d" style="display:inline" id="rect6332-1-9-3" fill-opacity="1" gorn="0.2.0.0.0.0.31" stroke-opacity="1" d="m 174.147,841.535 v -7.33864 h 0.0146 c 0.1323,-0.97216 1.13365,-1.73104 2.33069,-1.73104 1.19704,0 2.18382,0.75888 2.31612,1.73104 8e-4,0.008 -8e-4,0.0168 0,0.0248 0.008,0.0656 0.0146,0.12776 0.0146,0.19504 0,0.0672 -0.006,0.14168 -0.0146,0.20728 v 6.91192 H 174.147 Z"/>
                        <path fill="#fffdfa"  stroke-width="0.548574" stroke="#0e100d" style="display:inline;stroke-miterlimit:4;stroke-dasharray:none" id="connector0pin" fill-opacity="1" gorn="0.2.0.0.0.0.32" stroke-opacity="1" d="m 177.855,834.803 c 0,0.75648 -0.61328,1.36976 -1.36981,1.36976 -0.75651,0 -1.3698,-0.61328 -1.3698,-1.36976 0,-0.75656 0.61329,-1.36984 1.3698,-1.36984 0.75653,0 1.36981,0.61328 1.36981,1.36984 z"/>
                    </g>
                </g>
            </g>
            <path fill="#378f6b"  stroke-width="0.173324" stroke="none" style="color:#000000;display:inline;overflow:visible;visibility:visible;fill-rule:nonzero;marker:none;enable-background:accumulate" id="rect2936" fill-opacity="1" gorn="0.2.0.1" d="m 0.765354,55.7542 h 19.7575 v 121.27 h -19.7575 z"/>
            <rect y="99.199997" fill="none" x="131.60001"  style="display:inline" id="rect5749" height="4" gorn="0.2.0.2" width="4"/>
            <rect y="99.199997" fill="none" x="131.60001"  id="rect5751" height="4" gorn="0.2.0.3" width="4"/>
            <rect y="189.00999" fill="none" x="173.94099"  id="rect5753" height="5.26056" gorn="0.2.0.4" width="4.4442701"/>
            <rect y="189.153" fill="none" x="166.66299"  style="display:inline" id="rect5755" height="4.8185902" gorn="0.2.0.5" width="4.6090798"/>
            <rect y="188.67" fill="none" x="159.229"  id="rect5757" height="5.2631001" gorn="0.2.0.6" width="4.8871598"/>
        </g>
    </g>
    <g  transform="translate(8.1443226,-12.093086)">
        <g >
            <g  style="display:inline" id="g1578" gorn="0.3.0.0">
                <path fill="#378f6b"  stroke-width="0.352323" stroke="#000000" font-size="3.20001" style="display:inline;stroke-miterlimit:4" id="rect3008-8" fill-opacity="1" gorn="0.3.0.0.0" stroke-opacity="1" d="M 74.441351,77.670772 H 197.28288 V 158.5143 H 74.441351 Z"/>
                <path fill="#faf7f4"  stroke-width="0.721255" stroke="#ffc928" style="display:inline;stroke-miterlimit:4;stroke-dasharray:none" id="path3786-6-0-1-4-6" fill-opacity="1" gorn="0.3.0.0.1" stroke-opacity="1" d="m 196.1834,83.417439 c 0,2.30569 -1.86913,4.17482 -4.17481,4.17482 -2.30569,0 -4.17481,-1.86913 -4.17481,-4.17482 0,-2.305678 1.86913,-4.174799 4.17481,-4.174799 2.30569,0 4.17481,1.869121 4.17481,4.174799 z"/>
                <path fill="#80bf40"  stroke-width="0.949111" stroke="#0e100d" style="display:inline;stroke-miterlimit:4;stroke-dasharray:none" id="path6213-6-6-1-20-5" fill-opacity="0.156863" gorn="0.3.0.0.2" stroke-opacity="1" d="m 195.0764,83.417439 c 0,1.69483 -1.37393,3.06876 -3.06875,3.06876 -1.69482,0 -3.06876,-1.37393 -3.06876,-3.06876 0,-1.694821 1.37394,-3.068744 3.06876,-3.068744 1.69482,0 3.06875,1.373923 3.06875,3.068744 z"/>
                <path fill="#faf7f4"  stroke-width="0.721255" stroke="#ffc928" style="display:inline;stroke-miterlimit:4;stroke-dasharray:none" id="path3786-6-0-1-4-4-5" fill-opacity="1" gorn="0.3.0.0.3" stroke-opacity="1" d="m 84.137255,83.294041 c 0,2.30569 -1.86913,4.17482 -4.17481,4.17482 -2.30569,0 -4.17481,-1.86913 -4.17481,-4.17482 0,-2.30568 1.86913,-4.1748 4.17481,-4.1748 2.30569,0 4.17481,1.86912 4.17481,4.1748 z"/>
                <path fill="#80bf40"  stroke-width="0.949111" stroke="#0e100d" style="display:inline;stroke-miterlimit:4;stroke-dasharray:none" id="path6213-6-6-1-2-4" fill-opacity="0.156863" gorn="0.3.0.0.4" stroke-opacity="1" d="m 83.030255,83.294041 c 0,1.69483 -1.37393,3.06875 -3.06875,3.06875 -1.69482,0 -3.06876,-1.37392 -3.06876,-3.06875 0,-1.69482 1.37394,-3.06875 3.06876,-3.06875 1.69482,0 3.06875,1.37393 3.06875,3.06875 z"/>
                <g  transform="translate(-7.4039314,25.049964)">
                    <g >
                        <g  style="display:inline" id="g607" gorn="0.3.0.0.5.0.0">
                            <path fill="#fcc460"  stroke-width="0.426423" stroke="#0e100d" style="display:inline" id="rect6332-1-9-2-9" fill-opacity="1" gorn="0.3.0.0.5.0.0.0" stroke-opacity="1" d="m 90.898287,133.36286 v -7.33864 h 0.01456 c 0.132298,-0.97216 1.13365,-1.73104 2.33069,-1.73104 1.19704,0 2.18382,0.75888 2.31612,1.73104 0.0011,0.008 -9.6e-4,0.0168 0,0.0248 0.008,0.0656 0.01456,0.12776 0.01456,0.19504 0,0.0672 -0.0066,0.14168 -0.01456,0.20728 v 6.91192 h -4.66137 z"/>
                            <path fill="#fffdfa"  stroke-width="0.548574" stroke="#0e100d" style="display:inline;stroke-miterlimit:4;stroke-dasharray:none" id="connector14pin-1" fill-opacity="1" gorn="0.3.0.0.5.0.0.1" stroke-opacity="1" d="m 94.605987,126.63086 c 0,0.75648 -0.613283,1.36976 -1.36981,1.36976 -0.756523,0 -1.36981,-0.61328 -1.36981,-1.36976 0,-0.75656 0.613284,-1.36984 1.36981,-1.36984 0.756524,0 1.36981,0.61328 1.36981,1.36984 z"/>
                            <path fill="#fcc460"  stroke-width="0.426423" stroke="#0e100d" style="display:inline" id="rect6332-1-9-22-7" fill-opacity="1" gorn="0.3.0.0.5.0.0.2" stroke-opacity="1" d="m 98.098287,133.36286 v -7.33864 h 0.01456 c 0.132304,-0.97216 1.13365,-1.73104 2.330703,-1.73104 1.19703,0 2.18382,0.75888 2.31611,1.73104 8e-4,0.008 -8e-4,0.0168 0,0.0248 0.008,0.0656 0.0146,0.12776 0.0146,0.19504 0,0.0672 -0.006,0.14168 -0.0146,0.20728 v 6.91192 h -4.661373 z"/>
                            <path fill="#fffdfa"  stroke-width="0.548574" stroke="#0e100d" style="display:inline;stroke-miterlimit:4;stroke-dasharray:none" id="connector13pin-8" fill-opacity="1" gorn="0.3.0.0.5.0.0.3" stroke-opacity="1" d="m 101.80599,126.63086 c 0,0.75648 -0.61329,1.36976 -1.36981,1.36976 -0.756523,0 -1.369803,-0.61328 -1.369803,-1.36976 0,-0.75656 0.61328,-1.36984 1.369803,-1.36984 0.75652,0 1.36981,0.61328 1.36981,1.36984 z"/>
                            <path fill="#fcc460"  stroke-width="0.426423" stroke="#0e100d" style="display:inline" id="rect6332-1-9-48-0" fill-opacity="1" gorn="0.3.0.0.5.0.0.4" stroke-opacity="1" d="m 105.29829,133.36286 v -7.33864 h 0.0146 c 0.13229,-0.97216 1.13365,-1.73104 2.33068,-1.73104 1.19704,0 2.18383,0.75888 2.31613,1.73104 8e-4,0.008 -8e-4,0.0168 0,0.0248 0.008,0.0656 0.0146,0.12776 0.0146,0.19504 0,0.0672 -0.006,0.14168 -0.0146,0.20728 v 6.91192 h -4.66138 z"/>
                            <path fill="#fffdfa"  stroke-width="0.548574" stroke="#0e100d" style="display:inline;stroke-miterlimit:4;stroke-dasharray:none" id="connector12pin-8" fill-opacity="1" gorn="0.3.0.0.5.0.0.5" stroke-opacity="1" d="m 109.00599,126.63086 c 0,0.75648 -0.61328,1.36976 -1.36981,1.36976 -0.75652,0 -1.36981,-0.61328 -1.36981,-1.36976 0,-0.75656 0.61329,-1.36984 1.36981,-1.36984 0.75653,0 1.36981,0.61328 1.36981,1.36984 z"/>
                            <path fill="#fcc460"  stroke-width="0.426423" stroke="#0e100d" style="display:inline" id="rect6332-1-9-5-6" fill-opacity="1" gorn="0.3.0.0.5.0.0.6" stroke-opacity="1" d="m 112.49829,133.36286 v -7.33864 h 0.0146 c 0.1323,-0.97216 1.13365,-1.73104 2.3307,-1.73104 1.19703,0 2.18382,0.75888 2.31611,1.73104 8e-4,0.008 -8e-4,0.0168 0,0.0248 0.008,0.0656 0.0146,0.12776 0.0146,0.19504 0,0.0672 -0.006,0.14168 -0.0146,0.20728 v 6.91192 h -4.66137 z"/>
                            <path fill="#fffdfa"  stroke-width="0.548574" stroke="#0e100d" style="display:inline;stroke-miterlimit:4;stroke-dasharray:none" id="connector11pin-4" fill-opacity="1" gorn="0.3.0.0.5.0.0.7" stroke-opacity="1" d="m 116.20599,126.63086 c 0,0.75648 -0.61329,1.36976 -1.3698,1.36976 -0.75653,0 -1.36982,-0.61328 -1.36982,-1.36976 0,-0.75656 0.61328,-1.36984 1.36982,-1.36984 0.75651,0 1.3698,0.61328 1.3698,1.36984 z"/>
                            <path fill="#fcc460"  stroke-width="0.426423" stroke="#0e100d" style="display:inline" id="rect6332-1-9-7-8" fill-opacity="1" gorn="0.3.0.0.5.0.0.8" stroke-opacity="1" d="m 119.69819,133.36286 v -7.33864 h 0.0146 c 0.1323,-0.97216 1.13366,-1.73104 2.33069,-1.73104 1.19704,0 2.18383,0.75888 2.31613,1.73104 8e-4,0.008 -8e-4,0.0168 0,0.0248 0.008,0.0656 0.0146,0.12776 0.0146,0.19504 0,0.0672 -0.006,0.14168 -0.0146,0.20728 v 6.91192 h -4.66142 z"/>
                            <path fill="#fffdfa"  stroke-width="0.548574" stroke="#0e100d" style="display:inline;stroke-miterlimit:4;stroke-dasharray:none" id="connector10pin-9" fill-opacity="1" gorn="0.3.0.0.5.0.0.9" stroke-opacity="1" d="m 123.40619,126.63086 c 0,0.75648 -0.61328,1.36976 -1.36981,1.36976 -0.75653,0 -1.36981,-0.61328 -1.36981,-1.36976 0,-0.75656 0.61328,-1.36984 1.36981,-1.36984 0.75653,0 1.36981,0.61328 1.36981,1.36984 z"/>
                            <path fill="#fcc460"  stroke-width="0.426423" stroke="#0e100d" style="display:inline" id="rect6332-1-9-57-4" fill-opacity="1" gorn="0.3.0.0.5.0.0.10" stroke-opacity="1" d="m 126.89819,133.36286 v -7.33864 h 0.0146 c 0.1323,-0.97216 1.13364,-1.73104 2.33068,-1.73104 1.19704,0 2.18382,0.75888 2.31612,1.73104 8e-4,0.008 -8e-4,0.0168 0,0.0248 0.008,0.0656 0.0146,0.12776 0.0146,0.19504 0,0.0672 -0.006,0.14168 -0.0146,0.20728 v 6.91192 h -4.66137 z"/>
                            <path fill="#fffdfa"  stroke-width="0.548574" stroke="#0e100d" style="display:inline;stroke-miterlimit:4;stroke-dasharray:none" id="connector9pin-0" fill-opacity="1" gorn="0.3.0.0.5.0.0.11" stroke-opacity="1" d="m 130.60619,126.63086 c 0,0.75648 -0.61327,1.36976 -1.3698,1.36976 -0.75652,0 -1.36981,-0.61328 -1.36981,-1.36976 0,-0.75656 0.61329,-1.36984 1.36981,-1.36984 0.75653,0 1.3698,0.61328 1.3698,1.36984 z"/>
                            <path fill="#fcc460"  stroke-width="0.426423" stroke="#0e100d" style="display:inline" id="rect6332-1-9-03-1" fill-opacity="1" gorn="0.3.0.0.5.0.0.12" stroke-opacity="1" d="m 134.09819,133.36286 v -7.33864 h 0.0146 c 0.1323,-0.97216 1.13365,-1.73104 2.33069,-1.73104 1.19704,0 2.18382,0.75888 2.31612,1.73104 8e-4,0.008 -8e-4,0.0168 0,0.0248 0.008,0.0656 0.0146,0.12776 0.0146,0.19504 0,0.0672 -0.006,0.14168 -0.0146,0.20728 v 6.91192 h -4.66138 z"/>
                            <path fill="#fffdfa"  stroke-width="0.548574" stroke="#0e100d" style="display:inline;stroke-miterlimit:4;stroke-dasharray:none" id="connector8pin-5" fill-opacity="1" gorn="0.3.0.0.5.0.0.13" stroke-opacity="1" d="m 137.80619,126.63086 c 0,0.75648 -0.61329,1.36976 -1.36981,1.36976 -0.75653,0 -1.36981,-0.61328 -1.36981,-1.36976 0,-0.75656 0.61328,-1.36984 1.36981,-1.36984 0.75652,0 1.36981,0.61328 1.36981,1.36984 z"/>
                            <path fill="#fcc460"  stroke-width="0.426423" stroke="#0e100d" style="display:inline" id="rect6332-1-9-1-4" fill-opacity="1" gorn="0.3.0.0.5.0.0.14" stroke-opacity="1" d="m 141.29819,133.36286 v -7.33864 h 0.0146 c 0.1323,-0.97216 1.13364,-1.73104 2.33068,-1.73104 1.19704,0 2.18382,0.75888 2.31612,1.73104 8e-4,0.008 -8e-4,0.0168 0,0.0248 0.008,0.0656 0.0146,0.12776 0.0146,0.19504 0,0.0672 -0.006,0.14168 -0.0146,0.20728 v 6.91192 h -4.66137 z"/>
                            <path fill="#fffdfa"  stroke-width="0.548574" stroke="#0e100d" style="display:inline;stroke-miterlimit:4;stroke-dasharray:none" id="connector7pin-6" fill-opacity="1" gorn="0.3.0.0.5.0.0.15" stroke-opacity="1" d="m 145.00619,126.63086 c 0,0.75648 -0.61327,1.36976 -1.3698,1.36976 -0.75652,0 -1.36981,-0.61328 -1.36981,-1.36976 0,-0.75656 0.61329,-1.36984 1.36981,-1.36984 0.75653,0 1.3698,0.61328 1.3698,1.36984 z"/>
                            <path fill="#fcc460"  stroke-width="0.426423" stroke="#0e100d" style="display:inline" id="rect6332-1-9-89-4" fill-opacity="1" gorn="0.3.0.0.5.0.0.16" stroke-opacity="1" d="m 148.49819,133.36286 v -7.33864 h 0.0146 c 0.1323,-0.97216 1.13365,-1.73104 2.3307,-1.73104 1.19703,0 2.18382,0.75888 2.31611,1.73104 8e-4,0.008 -8e-4,0.0168 0,0.0248 0.008,0.0656 0.0146,0.12776 0.0146,0.19504 0,0.0672 -0.006,0.14168 -0.0146,0.20728 v 6.91192 h -4.66138 z"/>
                            <path fill="#fffdfa"  stroke-width="0.548574" stroke="#0e100d" style="display:inline;stroke-miterlimit:4;stroke-dasharray:none" id="connector6pin-2" fill-opacity="1" gorn="0.3.0.0.5.0.0.17" stroke-opacity="1" d="m 152.20619,126.63086 c 0,0.75648 -0.61329,1.36976 -1.36981,1.36976 -0.75653,0 -1.36982,-0.61328 -1.36982,-1.36976 0,-0.75656 0.61329,-1.36984 1.36982,-1.36984 0.75652,0 1.36981,0.61328 1.36981,1.36984 z"/>
                            <path fill="#fcc460"  stroke-width="0.426423" stroke="#0e100d" style="display:inline" id="rect6332-1-9-6-5" fill-opacity="1" gorn="0.3.0.0.5.0.0.18" stroke-opacity="1" d="m 155.69819,133.36286 v -7.33864 h 0.0146 c 0.13229,-0.97216 1.13365,-1.73104 2.33068,-1.73104 1.19704,0 2.18382,0.75888 2.31613,1.73104 8e-4,0.008 -8e-4,0.0168 0,0.0248 0.008,0.0656 0.0146,0.12776 0.0146,0.19504 0,0.0672 -0.006,0.14168 -0.0146,0.20728 v 6.91192 h -4.66138 z"/>
                            <path fill="#fffdfa"  stroke-width="0.548574" stroke="#0e100d" style="display:inline;stroke-miterlimit:4;stroke-dasharray:none" id="connector5pin-0" fill-opacity="1" gorn="0.3.0.0.5.0.0.19" stroke-opacity="1" d="m 159.40619,126.63086 c 0,0.75648 -0.61327,1.36976 -1.3698,1.36976 -0.75652,0 -1.36981,-0.61328 -1.36981,-1.36976 0,-0.75656 0.61329,-1.36984 1.36981,-1.36984 0.75653,0 1.3698,0.61328 1.3698,1.36984 z"/>
                            <path fill="#fcc460"  stroke-width="0.426423" stroke="#0e100d" style="display:inline" id="rect6332-1-9-80-5" fill-opacity="1" gorn="0.3.0.0.5.0.0.20" stroke-opacity="1" d="m 162.89819,133.36286 v -7.33864 h 0.0146 c 0.1323,-0.97216 1.13365,-1.73104 2.33069,-1.73104 1.19704,0 2.18382,0.75888 2.31612,1.73104 8e-4,0.008 -8e-4,0.0168 0,0.0248 0.008,0.0656 0.0146,0.12776 0.0146,0.19504 0,0.0672 -0.006,0.14168 -0.0146,0.20728 v 6.91192 h -4.66138 z"/>
                            <path fill="#fffdfa"  stroke-width="0.548574" stroke="#0e100d" style="display:inline;stroke-miterlimit:4;stroke-dasharray:none" id="connector4pin-4" fill-opacity="1" gorn="0.3.0.0.5.0.0.21" stroke-opacity="1" d="m 166.60619,126.63086 c 0,0.75648 -0.61329,1.36976 -1.36982,1.36976 -0.75652,0 -1.3698,-0.61328 -1.3698,-1.36976 0,-0.75656 0.61328,-1.36984 1.3698,-1.36984 0.75653,0 1.36982,0.61328 1.36982,1.36984 z"/>
                            <path fill="#fcc460"  stroke-width="0.426423" stroke="#0e100d" style="display:inline" id="rect6332-1-9-23-1" fill-opacity="1" gorn="0.3.0.0.5.0.0.22" stroke-opacity="1" d="m 170.09819,133.36286 v -7.33864 h 0.0146 c 0.1323,-0.97216 1.13366,-1.73104 2.33069,-1.73104 1.19704,0 2.18382,0.75888 2.31612,1.73104 8e-4,0.008 -8e-4,0.0168 0,0.0248 0.008,0.0656 0.0146,0.12776 0.0146,0.19504 0,0.0672 -0.006,0.14168 -0.0146,0.20728 v 6.91192 h -4.66138 z"/>
                            <path fill="#fffdfa"  stroke-width="0.548574" stroke="#0e100d" style="display:inline;stroke-miterlimit:4;stroke-dasharray:none" id="connector3pin-5" fill-opacity="1" gorn="0.3.0.0.5.0.0.23" stroke-opacity="1" d="m 173.80619,126.63086 c 0,0.75648 -0.61329,1.36976 -1.36981,1.36976 -0.75653,0 -1.36981,-0.61328 -1.36981,-1.36976 0,-0.75656 0.61328,-1.36984 1.36981,-1.36984 0.75652,0 1.36981,0.61328 1.36981,1.36984 z"/>
                            <path fill="#fcc460"  stroke-width="0.426423" stroke="#0e100d" style="display:inline" id="rect6332-1-9-20-4" fill-opacity="1" gorn="0.3.0.0.5.0.0.24" stroke-opacity="1" d="m 177.29819,133.36286 v -7.33864 h 0.0146 c 0.1323,-0.97216 1.13365,-1.73104 2.33069,-1.73104 1.19704,0 2.18382,0.75888 2.31612,1.73104 8e-4,0.008 -8e-4,0.0168 0,0.0248 0.008,0.0656 0.0146,0.12776 0.0146,0.19504 0,0.0672 -0.006,0.14168 -0.0146,0.20728 v 6.91192 h -4.66141 z"/>
                            <path fill="#fffdfa"  stroke-width="0.548574" stroke="#0e100d" style="display:inline;stroke-miterlimit:4;stroke-dasharray:none" id="connector2pin-3" fill-opacity="1" gorn="0.3.0.0.5.0.0.25" stroke-opacity="1" d="m 181.00619,126.63086 c 0,0.75648 -0.61329,1.36976 -1.36982,1.36976 -0.75651,0 -1.3698,-0.61328 -1.3698,-1.36976 0,-0.75656 0.61329,-1.36984 1.3698,-1.36984 0.75653,0 1.36982,0.61328 1.36982,1.36984 z"/>
                            <path fill="#fcc460"  stroke-width="0.426423" stroke="#0e100d" style="display:inline" id="rect6332-1-9-81-3" fill-opacity="1" gorn="0.3.0.0.5.0.0.26" stroke-opacity="1" d="m 184.49819,133.36286 v -7.33864 h 0.0146 c 0.1323,-0.97216 1.13366,-1.73104 2.33069,-1.73104 1.19704,0 2.18382,0.75888 2.31612,1.73104 8e-4,0.008 -8e-4,0.0168 0,0.0248 0.008,0.0656 0.0146,0.12776 0.0146,0.19504 0,0.0672 -0.006,0.14168 -0.0146,0.20728 v 6.91192 h -4.66138 z"/>
                            <path fill="#fffdfa"  stroke-width="0.548574" stroke="#0e100d" style="display:inline;stroke-miterlimit:4;stroke-dasharray:none" id="connector1pin-1" fill-opacity="1" gorn="0.3.0.0.5.0.0.27" stroke-opacity="1" d="m 188.20619,126.63086 c 0,0.75648 -0.61329,1.36976 -1.36981,1.36976 -0.75653,0 -1.36981,-0.61328 -1.36981,-1.36976 0,-0.75656 0.61328,-1.36984 1.36981,-1.36984 0.75652,0 1.36981,0.61328 1.36981,1.36984 z"/>
                            <path fill="#fcc460"  stroke-width="0.426423" stroke="#0e100d" style="display:inline" id="rect6332-1-9-3-1" fill-opacity="1" gorn="0.3.0.0.5.0.0.28" stroke-opacity="1" d="m 191.69819,133.36286 v -7.33864 h 0.0146 c 0.1323,-0.97216 1.13365,-1.73104 2.33069,-1.73104 1.19704,0 2.18382,0.75888 2.31612,1.73104 8e-4,0.008 -8e-4,0.0168 0,0.0248 0.008,0.0656 0.0146,0.12776 0.0146,0.19504 0,0.0672 -0.006,0.14168 -0.0146,0.20728 v 6.91192 h -4.66141 z"/>
                            <path fill="#fffdfa"  stroke-width="0.548574" stroke="#0e100d" style="display:inline;stroke-miterlimit:4;stroke-dasharray:none" id="connector0pin-5" fill-opacity="1" gorn="0.3.0.0.5.0.0.29" stroke-opacity="1" d="m 195.40619,126.63086 c 0,0.75648 -0.61328,1.36976 -1.36981,1.36976 -0.75651,0 -1.3698,-0.61328 -1.3698,-1.36976 0,-0.75656 0.61329,-1.36984 1.3698,-1.36984 0.75653,0 1.36981,0.61328 1.36981,1.36984 z"/>
                        </g>
                    </g>
                </g>
                <path fill="#b5d776"  stroke-width="0.684874" stroke="#000000" style="display:inline;stroke-miterlimit:4" id="rect3835-6" fill-opacity="1" gorn="0.3.0.0.6" stroke-opacity="1" d="m 100.1121,95.36652 h 75.69559 v 35.8269 H 100.1121 Z"/>
            </g>
        </g>
    </g>
    <g  transform="matrix(0.74999928,0,0,0.74999928,0,-1.6173816e-4)">
        <g >
            <text xmlns:xml="http://www.w3.org/XML/1998/namespace"  style="line-height:1.25;font-family:OCRA;font-weight:bold;font-size:8px;-inkscape-font-specification:'OCRA Bold';white-space:pre;shape-inside:url(#rect1726)" id="text1724" xml:space="preserve" gorn="0.4.0.0"/>
        </g>
    </g>
    <g  transform="matrix(0.74999928,0,0,0.74999928,0,-1.6173816e-4)">
        <g >
            <g xmlns:xml="http://www.w3.org/XML/1998/namespace"  style="font-weight:bold;font-size:17.0079px;line-height:19.2px;font-family:OCRA;-inkscape-font-specification:'OCRA Bold';letter-spacing:-0.07px;word-spacing:-0.02px;writing-mode:tb-rl;text-orientation:upright;white-space:pre;shape-inside:url(#rect1732)" id="text1730" xml:space="preserve" gorn="0.5.0.0"/>
        </g>
    </g>
</svg>
