<?xml version='1.0' encoding='UTF-8' standalone='no'?>
<!-- Created with Fritzing (http://www.fritzing.org/) -->
<svg xmlns="http://www.w3.org/2000/svg" baseProfile="tiny" height="1.185in" version="1.2" viewBox="0 0 56.3395 30.099" width="2.21809in" x="0in"  y="0in">
    <desc>
        <referenceFile>sparkfun-connectors_bc9vpc_pcb.svg</referenceFile>
    </desc>
    <g gorn="0.0" id="copper1" >
        <circle connectorname="V+" cx="53.1495" cy="8.6995" fill="none" gorn="0.0.0" id="connector0pad" r="1.143" stroke="#F7BD13" stroke-width="0.254" />
        <path d="m51.8795,7.4295 2.54,0 0,2.54 -2.54,0 0,-2.54zM52.1335,8.6995a1.016,1.016 0 1 0 2.032,0 1.016,1.016 0 1 0 -2.032,0z " fill="#F7BD13" stroke="none" stroke-width="0" />
        <circle connectorname="V-" cx="53.1495" cy="21.6535" fill="none" gorn="0.0.2" id="connector1pad" r="1.143" stroke="#F7BD13" stroke-width="0.254" />
        <path d="m51.8795,20.3835 2.54,0 0,2.54 -2.54,0 0,-2.54zM52.1335,21.6535a1.016,1.016 0 1 0 2.032,0 1.016,1.016 0 1 0 -2.032,0z " fill="#F7BD13" stroke="none" stroke-width="0" />
        <circle cx="27.2415" cy="26.2255" fill="black" gorn="0.0.4" id="nonconn0" r="1.143" stroke="black" stroke-width="0" />
        <circle cx="13.7795" cy="3.8735" fill="black" gorn="0.0.5" id="nonconn1" r="1.143" stroke="black" stroke-width="0" />
        <circle cx="40.7035" cy="3.8735" fill="black" gorn="0.0.6" id="nonconn2" r="1.143" stroke="black" stroke-width="0" />
        <g gorn="0.0.7" id="copper0" >
            <circle connectorname="V+" cx="53.1495" cy="8.6995" fill="none" gorn="0.0.7.0" id="connector0pad" r="1.143" stroke="#F7BD13" stroke-width="0.254" />
            <path d="m51.8795,7.4295 2.54,0 0,2.54 -2.54,0 0,-2.54zM52.1335,8.6995a1.016,1.016 0 1 0 2.032,0 1.016,1.016 0 1 0 -2.032,0z " fill="#F7BD13" stroke="none" stroke-width="0" />
            <circle connectorname="V-" cx="53.1495" cy="21.6535" fill="none" gorn="0.0.7.2" id="connector1pad" r="1.143" stroke="#F7BD13" stroke-width="0.254" />
            <path d="m51.8795,20.3835 2.54,0 0,2.54 -2.54,0 0,-2.54zM52.1335,21.6535a1.016,1.016 0 1 0 2.032,0 1.016,1.016 0 1 0 -2.032,0z " fill="#F7BD13" stroke="none" stroke-width="0" />
            <circle cx="27.2415" cy="26.2255" fill="black" gorn="0.0.7.4" id="nonconn3" r="1.143" stroke="black" stroke-width="0" />
            <circle cx="13.7795" cy="3.8735" fill="black" gorn="0.0.7.5" id="nonconn4" r="1.143" stroke="black" stroke-width="0" />
            <circle cx="40.7035" cy="3.8735" fill="black" gorn="0.0.7.6" id="nonconn5" r="1.143" stroke="black" stroke-width="0" />
        </g>
    </g>
    <g gorn="0.1" id="silkscreen" >
        <line class="other" stroke="#f0f0f0" stroke-linecap="round" stroke-width="0.127" x1="0.0635" x2="0.0635"  y1="30.0355" y2="0.0635"/>
        <line class="other" stroke="#f0f0f0" stroke-linecap="round" stroke-width="0.127" x1="0.0635" x2="54.9275"  y1="0.0635" y2="0.0635"/>
        <line class="other" stroke="#f0f0f0" stroke-linecap="round" stroke-width="0.127" x1="54.9275" x2="54.9275"  y1="0.0635" y2="30.0355"/>
        <line class="other" stroke="#f0f0f0" stroke-linecap="round" stroke-width="0.127" x1="54.9275" x2="0.0635"  y1="30.0355" y2="30.0355"/>
        <text class="text" fill="#f0f0f0" font-family="OCRA" font-size="1.651" stroke="none" stroke-width="0" text-anchor="start" x="49.3395"  y="9.2075">V+</text>
        <text class="text" fill="#f0f0f0" font-family="OCRA" font-size="1.651" stroke="none" stroke-width="0" text-anchor="start" x="49.3395"  y="22.1615">V-</text>
    </g>
</svg>
