<?xml version='1.0' encoding='UTF-8' standalone='no'?>
<!DOCTYPE
  svg>
<!-- Generator: Adobe Illustrator 13.0.1, SVG Export Plug-In . SVG Version: 6.00 Build 14948)  -->
  <svg
  xmlns="http://www.w3.org/2000/svg"
  viewBox="0 0 72.625 41.76"
  height="0.58in"
  width="1.00868in"
  id="pcb_2_"
  version="1.1"
  x="0px"
  y="0px"
  enable-background="new 0 0 72.625 41.76"
  gorn="0"
  xml:space="preserve">
  <desc>
    <referenceFile>USB-TTL_UART_pcb.svg</referenceFile>
  </desc>
  <g
    id="silkscreen"
    gorn="0.1">
    <rect
      fill="none"
      height="41.76"
      width="72.625"
      stroke-width="0.25"
      id="PCB_Outline"
      gorn="0.1.0"
      stroke="#000000"
    />
    <g
      id="Text_1_"
      gorn="0.1.1">
      <g
        id="CTS"
        gorn="0.1.1.0">
        <path
          stroke-width="0.01"
          d="M54.012,13.623c0.013,0.009,0.027,0.015,0.044,0.017H55.8c0.017-0.002,0.031-0.008,0.044-0.017l0.316-0.297c0.012-0.013,0.019-0.026,0.021-0.042v-0.7c-0.003-0.016-0.008-0.029-0.017-0.042l-0.413-0.383c-0.05-0.047-0.074-0.102-0.074-0.164c0-0.064,0.024-0.12,0.074-0.166c0.049-0.047,0.108-0.069,0.178-0.069c0.066,0,0.125,0.022,0.176,0.067l0.412,0.388c0.106,0.103,0.16,0.226,0.16,0.368v0.703c0,0.143-0.054,0.266-0.16,0.368l-0.324,0.305c-0.109,0.101-0.239,0.15-0.392,0.15h-1.748c-0.152,0-0.282-0.05-0.392-0.15l-0.324-0.305c-0.106-0.103-0.16-0.226-0.16-0.368v-0.703c0-0.143,0.054-0.266,0.16-0.368l0.412-0.388c0.051-0.045,0.109-0.067,0.176-0.067c0.069,0,0.129,0.023,0.178,0.069c0.05,0.047,0.074,0.103,0.074,0.168c0,0.062-0.023,0.117-0.071,0.165l-0.413,0.383c-0.01,0.013-0.017,0.026-0.02,0.042v0.697c0.003,0.016,0.01,0.029,0.021,0.042L54.012,13.623z"
          stroke="#000000"
        />
        <path
          stroke-width="0.01"
          d="M53.178,9.172c0-0.062,0.024-0.116,0.073-0.163c0.049-0.046,0.108-0.069,0.177-0.069c0.066,0,0.124,0.023,0.173,0.069c0.049,0.047,0.073,0.101,0.073,0.163v0.707h2.752c0.069,0,0.129,0.023,0.178,0.07c0.05,0.046,0.074,0.101,0.074,0.163c0,0.065-0.024,0.121-0.074,0.167c-0.049,0.047-0.108,0.07-0.178,0.07h-2.752v0.703c0,0.064-0.024,0.12-0.073,0.167c-0.049,0.046-0.106,0.069-0.173,0.069c-0.068,0-0.128-0.023-0.177-0.069c-0.049-0.047-0.073-0.103-0.073-0.167V9.172z"
          stroke="#000000"
        />
        <path
          stroke-width="0.01"
          d="M53.178,6.943c0-0.143,0.054-0.266,0.16-0.368l0.412-0.388c0.051-0.045,0.11-0.067,0.18-0.067c0.066,0,0.125,0.023,0.174,0.069c0.05,0.047,0.074,0.101,0.074,0.163c0,0.065-0.024,0.122-0.072,0.17l-0.408,0.383c-0.01,0.013-0.017,0.026-0.02,0.042v0.695c0.003,0.015,0.01,0.029,0.02,0.041l0.316,0.301C54.027,7.992,54.042,7.997,54.058,8h0.24c0.016-0.003,0.03-0.008,0.044-0.016l0.316-0.301c0.01-0.012,0.017-0.026,0.02-0.041V6.943c0-0.143,0.054-0.266,0.16-0.368l0.324-0.305c0.109-0.101,0.239-0.15,0.392-0.15h0.248c0.152,0,0.282,0.05,0.392,0.15l0.324,0.305c0.106,0.103,0.16,0.226,0.16,0.368v0.703c0,0.143-0.054,0.266-0.16,0.368l-0.412,0.388c-0.051,0.045-0.11,0.067-0.18,0.067c-0.066,0-0.125-0.023-0.174-0.069c-0.05-0.047-0.074-0.103-0.074-0.167c0-0.063,0.024-0.118,0.072-0.166l0.408-0.384c0.01-0.012,0.017-0.026,0.02-0.041V6.947c-0.003-0.016-0.01-0.029-0.02-0.042l-0.316-0.301c-0.014-0.007-0.028-0.012-0.044-0.015h-0.24c-0.016,0.003-0.03,0.008-0.044,0.015l-0.316,0.301c-0.01,0.013-0.017,0.026-0.02,0.042v0.699c0,0.143-0.054,0.266-0.16,0.368l-0.324,0.305c-0.109,0.101-0.239,0.15-0.392,0.15h-0.248c-0.152,0-0.282-0.05-0.392-0.15l-0.324-0.305c-0.106-0.103-0.16-0.226-0.16-0.368V6.943z"
          stroke="#000000"
        />
      </g>
      <g
        id="RTS"
        gorn="0.1.1.1">
        <path
          stroke-width="0.01"
          d="M49.229,11.76c0.066,0,0.125,0.023,0.174,0.069c0.05,0.047,0.074,0.101,0.074,0.163c0,0.065-0.024,0.122-0.072,0.17L47.978,13.5v0.14h1.248c0.069,0,0.129,0.023,0.178,0.069c0.05,0.047,0.074,0.101,0.074,0.164c0,0.064-0.024,0.12-0.074,0.167c-0.049,0.046-0.108,0.069-0.178,0.069h-2.996c-0.069,0-0.129-0.023-0.178-0.069c-0.05-0.047-0.074-0.103-0.074-0.167v-1.29c0-0.143,0.054-0.266,0.16-0.368l0.324-0.305c0.109-0.101,0.239-0.15,0.392-0.15h0.248c0.152,0,0.282,0.05,0.392,0.15l0.324,0.305c0.106,0.103,0.16,0.226,0.16,0.368v0.256l1.072-1.012C49.101,11.782,49.16,11.76,49.229,11.76z M47.478,13.64v-1.053c-0.003-0.016-0.01-0.029-0.02-0.042l-0.316-0.301c-0.014-0.007-0.028-0.012-0.044-0.015h-0.24c-0.016,0.003-0.03,0.008-0.044,0.015l-0.316,0.301c-0.01,0.013-0.017,0.026-0.02,0.042v1.053H47.478z"
          stroke="#000000"
        />
        <path
          stroke-width="0.01"
          d="M45.978,9.172c0-0.062,0.024-0.116,0.073-0.163c0.049-0.046,0.108-0.069,0.177-0.069c0.066,0,0.124,0.023,0.173,0.069c0.049,0.047,0.073,0.101,0.073,0.163v0.707h2.752c0.069,0,0.129,0.023,0.178,0.07c0.05,0.046,0.074,0.101,0.074,0.163c0,0.065-0.024,0.121-0.074,0.167c-0.049,0.047-0.108,0.07-0.178,0.07h-2.752v0.703c0,0.064-0.024,0.12-0.073,0.167c-0.049,0.046-0.106,0.069-0.173,0.069c-0.068,0-0.128-0.023-0.177-0.069c-0.049-0.047-0.073-0.103-0.073-0.167V9.172z"
          stroke="#000000"
        />
        <path
          stroke-width="0.01"
          d="M45.978,6.943c0-0.143,0.054-0.266,0.16-0.368l0.412-0.388c0.051-0.045,0.11-0.067,0.18-0.067c0.066,0,0.125,0.023,0.174,0.069c0.05,0.047,0.074,0.101,0.074,0.163c0,0.065-0.024,0.122-0.072,0.17l-0.408,0.383c-0.01,0.013-0.017,0.026-0.02,0.042v0.695c0.003,0.015,0.01,0.029,0.02,0.041l0.316,0.301C46.827,7.992,46.842,7.997,46.857,8h0.24c0.016-0.003,0.03-0.008,0.044-0.016l0.316-0.301c0.01-0.012,0.017-0.026,0.02-0.041V6.943c0-0.143,0.054-0.266,0.16-0.368l0.324-0.305c0.109-0.101,0.239-0.15,0.392-0.15h0.248c0.152,0,0.282,0.05,0.392,0.15l0.324,0.305c0.106,0.103,0.16,0.226,0.16,0.368v0.703c0,0.143-0.054,0.266-0.16,0.368l-0.412,0.388c-0.051,0.045-0.11,0.067-0.18,0.067c-0.066,0-0.125-0.023-0.174-0.069c-0.05-0.047-0.074-0.103-0.074-0.167c0-0.063,0.024-0.118,0.072-0.166l0.408-0.384c0.01-0.012,0.017-0.026,0.02-0.041V6.947c-0.003-0.016-0.01-0.029-0.02-0.042l-0.316-0.301c-0.014-0.007-0.028-0.012-0.044-0.015h-0.24c-0.016,0.003-0.03,0.008-0.044,0.015l-0.316,0.301c-0.01,0.013-0.017,0.026-0.02,0.042v0.699c0,0.143-0.054,0.266-0.16,0.368l-0.324,0.305c-0.109,0.101-0.239,0.15-0.392,0.15h-0.248c-0.152,0-0.282-0.05-0.392-0.15l-0.324-0.305c-0.106-0.103-0.16-0.226-0.16-0.368V6.943z"
          stroke="#000000"
        />
      </g>
      <g
        id="DSR"
        gorn="0.1.1.2">
        <path
          stroke-width="0.01"
          d="M39.261,11.914c0.109-0.104,0.239-0.154,0.392-0.154H41.4c0.152,0,0.282,0.05,0.392,0.15l0.324,0.305c0.106,0.103,0.16,0.226,0.16,0.368v1.29c0,0.064-0.024,0.12-0.074,0.167c-0.049,0.046-0.108,0.069-0.178,0.069h-2.996c-0.069,0-0.129-0.023-0.178-0.069c-0.05-0.047-0.074-0.103-0.074-0.167v-1.29c0-0.143,0.055-0.266,0.164-0.368L39.261,11.914z M41.442,12.246c-0.013-0.009-0.027-0.015-0.044-0.017h-1.739c-0.017,0-0.031,0.007-0.045,0.021l-0.32,0.296c-0.011,0.013-0.018,0.026-0.021,0.041v1.052h2.508v-1.055c-0.003-0.016-0.01-0.029-0.021-0.042L41.442,12.246z"
          stroke="#000000"
        />
        <path
          stroke-width="0.01"
          d="M38.776,9.763c0-0.143,0.054-0.266,0.16-0.368l0.412-0.388c0.051-0.045,0.11-0.067,0.18-0.067c0.066,0,0.125,0.023,0.174,0.069c0.05,0.047,0.074,0.101,0.074,0.163c0,0.065-0.024,0.122-0.072,0.17l-0.408,0.383c-0.01,0.013-0.017,0.026-0.02,0.042v0.695c0.003,0.015,0.01,0.029,0.02,0.041l0.316,0.301c0.014,0.008,0.028,0.013,0.044,0.016h0.24c0.016-0.003,0.03-0.008,0.044-0.016l0.316-0.301c0.01-0.012,0.017-0.026,0.02-0.041V9.763c0-0.143,0.054-0.266,0.16-0.368l0.324-0.305c0.109-0.101,0.239-0.15,0.392-0.15H41.4c0.152,0,0.282,0.05,0.392,0.15l0.324,0.305c0.106,0.103,0.16,0.226,0.16,0.368v0.703c0,0.143-0.054,0.266-0.16,0.368l-0.412,0.388c-0.051,0.045-0.11,0.067-0.18,0.067c-0.066,0-0.125-0.023-0.174-0.069c-0.05-0.047-0.074-0.103-0.074-0.167c0-0.063,0.024-0.118,0.072-0.166l0.408-0.384c0.01-0.012,0.017-0.026,0.02-0.041V9.767c-0.003-0.016-0.01-0.029-0.02-0.042L41.44,9.424c-0.014-0.007-0.028-0.012-0.044-0.015h-0.24c-0.016,0.003-0.03,0.008-0.044,0.015l-0.316,0.301c-0.01,0.013-0.017,0.026-0.02,0.042v0.699c0,0.143-0.054,0.266-0.16,0.368l-0.324,0.305c-0.109,0.101-0.239,0.15-0.392,0.15h-0.248c-0.152,0-0.282-0.05-0.392-0.15l-0.324-0.305c-0.106-0.103-0.16-0.226-0.16-0.368V9.763z"
          stroke="#000000"
        />
        <path
          stroke-width="0.01"
          d="M42.028,6.12c0.066,0,0.125,0.023,0.174,0.069c0.05,0.047,0.074,0.101,0.074,0.163c0,0.065-0.024,0.122-0.072,0.17L40.776,7.86V8h1.248c0.069,0,0.129,0.023,0.178,0.069c0.05,0.047,0.074,0.101,0.074,0.164c0,0.064-0.024,0.12-0.074,0.167c-0.049,0.046-0.108,0.069-0.178,0.069h-2.996c-0.069,0-0.129-0.023-0.178-0.069c-0.05-0.047-0.074-0.103-0.074-0.167v-1.29c0-0.143,0.054-0.266,0.16-0.368l0.324-0.305C39.37,6.17,39.5,6.12,39.652,6.12H39.9c0.152,0,0.282,0.05,0.392,0.15l0.324,0.305c0.106,0.103,0.16,0.226,0.16,0.368v0.256l1.072-1.012C41.899,6.143,41.959,6.12,42.028,6.12z M40.276,8V6.947c-0.003-0.016-0.01-0.029-0.02-0.042L39.94,6.604c-0.014-0.007-0.028-0.012-0.044-0.015h-0.24c-0.016,0.003-0.03,0.008-0.044,0.015l-0.316,0.301c-0.01,0.013-0.017,0.026-0.02,0.042V8H40.276z"
          stroke="#000000"
        />
      </g>
      <g
        id="DCD"
        gorn="0.1.1.3">
        <path
          stroke-width="0.01"
          d="M32.061,11.914c0.109-0.104,0.239-0.154,0.392-0.154H34.2c0.152,0,0.282,0.05,0.392,0.15l0.324,0.305c0.106,0.103,0.16,0.226,0.16,0.368v1.29c0,0.064-0.024,0.12-0.074,0.167c-0.049,0.046-0.108,0.069-0.178,0.069h-2.996c-0.069,0-0.129-0.023-0.178-0.069c-0.05-0.047-0.074-0.103-0.074-0.167v-1.29c0-0.143,0.055-0.266,0.164-0.368L32.061,11.914z M34.242,12.246c-0.013-0.009-0.027-0.015-0.044-0.017h-1.739c-0.017,0-0.031,0.007-0.045,0.021l-0.32,0.296c-0.011,0.013-0.018,0.026-0.021,0.041v1.052h2.508v-1.055c-0.003-0.016-0.01-0.029-0.021-0.042L34.242,12.246z"
          stroke="#000000"
        />
        <path
          stroke-width="0.01"
          d="M32.41,10.803c0.013,0.009,0.027,0.015,0.044,0.017h1.744c0.017-0.002,0.031-0.008,0.044-0.017l0.316-0.297c0.012-0.013,0.019-0.026,0.021-0.042v-0.7c-0.003-0.016-0.008-0.029-0.017-0.042L34.15,9.339c-0.05-0.047-0.074-0.102-0.074-0.164c0-0.064,0.024-0.12,0.074-0.166c0.049-0.047,0.108-0.069,0.178-0.069c0.066,0,0.125,0.022,0.176,0.067l0.412,0.388c0.106,0.103,0.16,0.226,0.16,0.368v0.703c0,0.143-0.054,0.266-0.16,0.368l-0.324,0.305c-0.109,0.101-0.239,0.15-0.392,0.15h-1.748c-0.152,0-0.282-0.05-0.392-0.15l-0.324-0.305c-0.106-0.103-0.16-0.226-0.16-0.368V9.763c0-0.143,0.054-0.266,0.16-0.368l0.412-0.388c0.051-0.045,0.109-0.067,0.176-0.067c0.069,0,0.129,0.023,0.178,0.069c0.05,0.047,0.074,0.103,0.074,0.168c0,0.062-0.023,0.117-0.071,0.165l-0.413,0.383c-0.01,0.013-0.017,0.026-0.02,0.042v0.697c0.003,0.016,0.01,0.029,0.021,0.042L32.41,10.803z"
          stroke="#000000"
        />
        <path
          stroke-width="0.01"
          d="M32.061,6.274C32.17,6.171,32.3,6.12,32.452,6.12H34.2c0.152,0,0.282,0.05,0.392,0.15l0.324,0.305c0.106,0.103,0.16,0.226,0.16,0.368v1.29c0,0.064-0.024,0.12-0.074,0.167c-0.049,0.046-0.108,0.069-0.178,0.069h-2.996c-0.069,0-0.129-0.023-0.178-0.069c-0.05-0.047-0.074-0.103-0.074-0.167v-1.29c0-0.143,0.055-0.266,0.164-0.368L32.061,6.274z M34.242,6.606c-0.013-0.009-0.027-0.015-0.044-0.017h-1.739c-0.017,0-0.031,0.007-0.045,0.021l-0.32,0.296c-0.011,0.013-0.018,0.026-0.021,0.041V8h2.508V6.945c-0.003-0.016-0.01-0.029-0.021-0.042L34.242,6.606z"
          stroke="#000000"
        />
      </g>
      <g
        id="_x33_V3_1_"
        gorn="0.1.1.4">
        <path
          stroke-width="0.01"
          d="M60.559,38.176c0,0.143-0.05,0.265-0.15,0.367l-0.221,0.222l0.221,0.218c0.101,0.103,0.15,0.225,0.15,0.367v0.232c0,0.143-0.05,0.265-0.15,0.367l-0.304,0.304c-0.103,0.101-0.225,0.15-0.367,0.15h-0.701c-0.143,0-0.266-0.05-0.368-0.15l-0.386-0.386c-0.045-0.048-0.067-0.104-0.067-0.169c0-0.062,0.022-0.117,0.068-0.163c0.047-0.046,0.102-0.069,0.166-0.069c0.062,0,0.117,0.023,0.164,0.069l0.383,0.383c0.013,0.011,0.026,0.018,0.041,0.021h0.696c0.015-0.003,0.028-0.011,0.041-0.023l0.301-0.295c0.007-0.013,0.012-0.026,0.015-0.041v-0.226c-0.003-0.016-0.008-0.029-0.015-0.042l-0.301-0.295c-0.013-0.011-0.026-0.017-0.041-0.02H58.92c-0.065,0-0.121-0.022-0.167-0.068c-0.047-0.046-0.069-0.101-0.069-0.162c0-0.064,0.023-0.12,0.069-0.166c0.047-0.046,0.103-0.068,0.167-0.068h0.816c0.015-0.003,0.029-0.008,0.041-0.016l0.296-0.301c0.009-0.013,0.015-0.027,0.017-0.042v-0.229c-0.002-0.015-0.006-0.028-0.012-0.042l-0.301-0.295c-0.013-0.011-0.026-0.018-0.042-0.021h-0.698c-0.015,0.003-0.028,0.01-0.041,0.021l-0.383,0.382c-0.047,0.047-0.102,0.07-0.164,0.07c-0.064,0-0.119-0.023-0.166-0.069c-0.046-0.046-0.068-0.101-0.068-0.163c0-0.065,0.022-0.121,0.067-0.169l0.386-0.386c0.103-0.101,0.226-0.15,0.368-0.15h0.701c0.143,0,0.265,0.05,0.367,0.15l0.304,0.304c0.101,0.103,0.15,0.225,0.15,0.367V38.176z"
          stroke="#000000"
        />
        <path
          stroke-width="0.01"
          d="M63.135,37.123c0.064,0,0.12,0.023,0.167,0.069c0.046,0.046,0.069,0.102,0.069,0.167v1.755c0,0.143-0.05,0.265-0.15,0.367l-0.854,0.855c-0.048,0.045-0.104,0.067-0.169,0.067c-0.062,0-0.117-0.022-0.165-0.067l-0.855-0.855c-0.1-0.103-0.149-0.225-0.149-0.367v-1.755c0-0.065,0.022-0.121,0.069-0.167c0.046-0.046,0.101-0.069,0.163-0.069c0.064,0,0.12,0.023,0.167,0.069c0.046,0.047,0.069,0.103,0.069,0.167v1.753c0.002,0.016,0.008,0.029,0.017,0.042l0.687,0.687l0.687-0.687c0.009-0.013,0.015-0.026,0.017-0.042v-1.753c0-0.064,0.022-0.12,0.069-0.167C63.018,37.146,63.072,37.123,63.135,37.123z"
          stroke="#000000"
        />
        <path
          stroke-width="0.01"
          d="M66.184,38.176c0,0.143-0.05,0.265-0.15,0.367l-0.221,0.222l0.221,0.218c0.101,0.103,0.15,0.225,0.15,0.367v0.232c0,0.143-0.05,0.265-0.15,0.367l-0.304,0.304c-0.103,0.101-0.225,0.15-0.367,0.15h-0.701c-0.143,0-0.266-0.05-0.368-0.15l-0.386-0.386c-0.045-0.048-0.067-0.104-0.067-0.169c0-0.062,0.022-0.117,0.068-0.163c0.047-0.046,0.102-0.069,0.166-0.069c0.062,0,0.117,0.023,0.164,0.069l0.383,0.383c0.013,0.011,0.026,0.018,0.041,0.021h0.696c0.015-0.003,0.028-0.011,0.041-0.023l0.301-0.295c0.007-0.013,0.012-0.026,0.015-0.041v-0.226c-0.003-0.016-0.008-0.029-0.015-0.042l-0.301-0.295c-0.013-0.011-0.026-0.017-0.041-0.02h-0.813c-0.065,0-0.121-0.022-0.167-0.068c-0.047-0.046-0.069-0.101-0.069-0.162c0-0.064,0.023-0.12,0.069-0.166c0.047-0.046,0.103-0.068,0.167-0.068h0.816c0.015-0.003,0.029-0.008,0.041-0.016l0.296-0.301c0.009-0.013,0.015-0.027,0.017-0.042v-0.229c-0.002-0.015-0.006-0.028-0.012-0.042l-0.301-0.295c-0.013-0.011-0.026-0.018-0.042-0.021h-0.698c-0.015,0.003-0.028,0.01-0.041,0.021l-0.383,0.382c-0.047,0.047-0.102,0.07-0.164,0.07c-0.064,0-0.119-0.023-0.166-0.069c-0.046-0.046-0.068-0.101-0.068-0.163c0-0.065,0.022-0.121,0.067-0.169l0.386-0.386c0.103-0.101,0.226-0.15,0.368-0.15h0.701c0.143,0,0.265,0.05,0.367,0.15l0.304,0.304c0.101,0.103,0.15,0.225,0.15,0.367V38.176z"
          stroke="#000000"
        />
      </g>
      <g
        id="GND_1_"
        gorn="0.1.1.5">
        <path
          stroke-width="0.01"
          d="M58.698,30.706c-0.008,0.013-0.013,0.026-0.015,0.041v1.633c0.002,0.015,0.007,0.028,0.015,0.041l0.3,0.3c0.013,0.009,0.026,0.016,0.041,0.019h0.694c0.016-0.003,0.029-0.01,0.042-0.019l0.3-0.3c0.007-0.013,0.012-0.026,0.015-0.041v-0.582h-0.232c-0.065,0-0.121-0.022-0.167-0.068c-0.047-0.046-0.069-0.102-0.069-0.166c0-0.062,0.022-0.116,0.069-0.162c0.046-0.046,0.102-0.068,0.167-0.068h0.469c0.062,0,0.116,0.022,0.163,0.069c0.046,0.046,0.069,0.102,0.069,0.166v0.815c0,0.143-0.05,0.265-0.15,0.366l-0.304,0.304c-0.103,0.101-0.225,0.15-0.367,0.15h-0.701c-0.143,0-0.266-0.05-0.368-0.15l-0.304-0.304c-0.1-0.103-0.149-0.225-0.149-0.367v-1.639c0-0.143,0.05-0.265,0.149-0.367l0.304-0.304c0.103-0.101,0.226-0.15,0.368-0.15h0.701c0.143,0,0.265,0.05,0.367,0.15l0.387,0.386c0.045,0.048,0.067,0.104,0.067,0.169c0,0.062-0.023,0.117-0.069,0.163c-0.047,0.046-0.103,0.069-0.167,0.069c-0.062,0-0.118-0.022-0.165-0.067l-0.382-0.387c-0.013-0.009-0.026-0.016-0.042-0.019h-0.694c-0.015,0.003-0.028,0.01-0.041,0.019L58.698,30.706z"
          stroke="#000000"
        />
        <path
          stroke-width="0.01"
          d="M63.139,29.922c0.064,0,0.12,0.023,0.165,0.069s0.067,0.102,0.067,0.167v2.812c0,0.062-0.022,0.117-0.067,0.163s-0.101,0.069-0.165,0.069c-0.065,0-0.121-0.023-0.167-0.069c-0.047-0.047-0.069-0.101-0.069-0.163v-0.846l-1.406-1.404v2.25c0,0.062-0.022,0.117-0.067,0.163s-0.101,0.069-0.165,0.069c-0.065,0-0.121-0.023-0.167-0.069c-0.047-0.046-0.069-0.101-0.069-0.163v-2.812c0-0.065,0.022-0.121,0.069-0.167c0.046-0.046,0.102-0.069,0.167-0.069c0.064,0,0.12,0.022,0.165,0.067l1.474,1.478v-1.309c0-0.065,0.022-0.121,0.069-0.167C63.018,29.946,63.073,29.922,63.139,29.922z"
          stroke="#000000"
        />
        <path
          stroke-width="0.01"
          d="M66.029,30.376c0.103,0.103,0.154,0.225,0.154,0.367v1.639c0,0.143-0.05,0.265-0.15,0.367l-0.304,0.304c-0.103,0.101-0.225,0.15-0.367,0.15h-1.286c-0.065,0-0.121-0.023-0.167-0.069c-0.047-0.046-0.069-0.102-0.069-0.167v-2.809c0-0.065,0.022-0.121,0.069-0.167c0.046-0.046,0.102-0.069,0.167-0.069h1.286c0.143,0,0.265,0.051,0.367,0.153L66.029,30.376z M65.698,32.422c0.009-0.013,0.015-0.026,0.017-0.041V30.75c0-0.015-0.007-0.028-0.021-0.041l-0.295-0.301c-0.013-0.01-0.026-0.017-0.041-0.021h-1.049v2.352h1.052c0.016-0.003,0.029-0.01,0.042-0.021L65.698,32.422z"
          stroke="#000000"
        />
      </g>
      <g
        id="_x2B_5V_1_"
        gorn="0.1.1.6">
        <path
          stroke-width="0.01"
          d="M60.232,24.132c0.062,0,0.116,0.022,0.163,0.068c0.046,0.046,0.069,0.102,0.069,0.166c0,0.062-0.023,0.116-0.069,0.162c-0.047,0.046-0.101,0.068-0.163,0.068h-0.236v0.232c0,0.065-0.023,0.121-0.069,0.167c-0.047,0.046-0.101,0.069-0.163,0.069c-0.065,0-0.121-0.023-0.167-0.069c-0.047-0.046-0.069-0.102-0.069-0.167v-0.232h-0.232c-0.065,0-0.121-0.022-0.167-0.068c-0.047-0.046-0.069-0.102-0.069-0.166c0-0.062,0.022-0.116,0.069-0.162c0.046-0.046,0.102-0.068,0.167-0.068h0.232v-0.234c0-0.065,0.022-0.122,0.069-0.168c0.046-0.047,0.102-0.07,0.167-0.07c0.062,0,0.116,0.023,0.163,0.07c0.046,0.046,0.069,0.103,0.069,0.168v0.234H60.232z"
          stroke="#000000"
        />
        <path
          stroke-width="0.01"
          d="M61.286,22.722h1.755c0.064,0,0.12,0.023,0.167,0.068c0.046,0.046,0.069,0.102,0.069,0.166c0,0.062-0.023,0.116-0.069,0.162c-0.047,0.046-0.103,0.068-0.167,0.068h-1.639v0.473h1.054c0.143,0,0.265,0.05,0.367,0.15l0.304,0.304c0.101,0.103,0.15,0.225,0.15,0.367v0.701c0,0.143-0.05,0.265-0.15,0.367l-0.304,0.304c-0.103,0.101-0.225,0.15-0.367,0.15h-0.701c-0.143,0-0.266-0.05-0.368-0.15l-0.386-0.386c-0.045-0.048-0.067-0.104-0.067-0.169c0-0.062,0.022-0.117,0.068-0.163c0.047-0.046,0.102-0.069,0.166-0.069c0.062,0,0.117,0.023,0.164,0.069l0.383,0.383c0.013,0.011,0.026,0.018,0.041,0.021h0.696c0.015-0.003,0.028-0.011,0.041-0.023l0.301-0.295c0.007-0.013,0.012-0.026,0.015-0.042v-0.696c-0.002-0.016-0.006-0.029-0.012-0.042l-0.301-0.295c-0.013-0.011-0.026-0.018-0.042-0.021h-1.168c-0.098,0-0.181-0.034-0.249-0.103c-0.069-0.068-0.104-0.151-0.104-0.249v-0.699c0-0.098,0.034-0.18,0.103-0.249C61.105,22.756,61.188,22.722,61.286,22.722z"
          stroke="#000000"
        />
        <path
          stroke-width="0.01"
          d="M65.854,22.722c0.064,0,0.12,0.023,0.167,0.069c0.046,0.046,0.069,0.102,0.069,0.167v1.755c0,0.143-0.05,0.265-0.15,0.367l-0.854,0.855c-0.048,0.045-0.104,0.067-0.169,0.067c-0.062,0-0.117-0.022-0.165-0.067l-0.855-0.855c-0.1-0.103-0.149-0.225-0.149-0.367v-1.755c0-0.065,0.022-0.121,0.069-0.167c0.046-0.046,0.101-0.069,0.163-0.069c0.064,0,0.12,0.023,0.167,0.069c0.046,0.047,0.069,0.103,0.069,0.167v1.753c0.002,0.016,0.008,0.029,0.017,0.042l0.687,0.687l0.687-0.687c0.009-0.013,0.015-0.026,0.017-0.042v-1.753c0-0.064,0.022-0.12,0.069-0.167C65.736,22.746,65.791,22.722,65.854,22.722z"
          stroke="#000000"
        />
      </g>
      <g
        id="TXD_3_"
        gorn="0.1.1.7">
        <path
          stroke-width="0.01"
          d="M60.326,15.522c0.062,0,0.116,0.023,0.163,0.068c0.046,0.046,0.069,0.102,0.069,0.166c0,0.062-0.023,0.116-0.069,0.162c-0.047,0.046-0.101,0.068-0.163,0.068h-0.705v2.58c0,0.064-0.023,0.121-0.069,0.167c-0.047,0.046-0.101,0.069-0.163,0.069c-0.065,0-0.121-0.023-0.167-0.069c-0.047-0.046-0.069-0.103-0.069-0.167v-2.58h-0.701c-0.065,0-0.121-0.022-0.167-0.068c-0.047-0.046-0.069-0.101-0.069-0.162c0-0.064,0.022-0.12,0.069-0.166c0.046-0.045,0.102-0.068,0.167-0.068H60.326z"
          stroke="#000000"
        />
        <path
          stroke-width="0.01"
          d="M63.139,15.522c0.062,0,0.116,0.023,0.163,0.069c0.046,0.046,0.069,0.102,0.069,0.167v0.349c0,0.143-0.05,0.265-0.15,0.367l-0.692,0.691l0.692,0.686c0.101,0.103,0.15,0.225,0.15,0.367v0.349c0,0.065-0.023,0.121-0.069,0.167c-0.047,0.046-0.101,0.069-0.163,0.069c-0.065,0-0.121-0.023-0.167-0.069c-0.047-0.046-0.069-0.103-0.069-0.167v-0.346c-0.003-0.015-0.008-0.028-0.015-0.041l-0.686-0.684l-0.691,0.685c-0.007,0.012-0.013,0.025-0.015,0.041v0.345c0,0.065-0.023,0.121-0.069,0.167c-0.047,0.046-0.101,0.069-0.163,0.069c-0.065,0-0.121-0.023-0.167-0.069c-0.047-0.046-0.069-0.102-0.069-0.167v-0.349c0-0.143,0.05-0.265,0.15-0.367l0.69-0.688l-0.69-0.688c-0.101-0.103-0.15-0.225-0.15-0.367v-0.349c0-0.065,0.022-0.121,0.069-0.167c0.046-0.046,0.102-0.069,0.167-0.069c0.062,0,0.116,0.023,0.163,0.069c0.046,0.047,0.069,0.103,0.069,0.168v0.346c0.002,0.015,0.008,0.028,0.015,0.041l0.691,0.688l0.686-0.689c0.007-0.013,0.012-0.026,0.015-0.041v-0.346c0-0.064,0.022-0.121,0.069-0.167C63.018,15.546,63.073,15.522,63.139,15.522z"
          stroke="#000000"
        />
        <path
          stroke-width="0.01"
          d="M66.029,15.977c0.103,0.103,0.154,0.225,0.154,0.367v1.639c0,0.143-0.05,0.265-0.15,0.367l-0.304,0.304c-0.103,0.101-0.225,0.15-0.367,0.15h-1.286c-0.065,0-0.121-0.023-0.167-0.069c-0.047-0.046-0.069-0.102-0.069-0.167v-2.809c0-0.065,0.022-0.121,0.069-0.167c0.046-0.046,0.102-0.069,0.167-0.069h1.286c0.143,0,0.265,0.051,0.367,0.153L66.029,15.977z M65.698,18.022c0.009-0.013,0.015-0.026,0.017-0.041V16.35c0-0.015-0.007-0.028-0.021-0.041l-0.295-0.301c-0.013-0.01-0.026-0.017-0.041-0.021h-1.049v2.352h1.052c0.016-0.003,0.029-0.01,0.042-0.021L65.698,18.022z"
          stroke="#000000"
        />
      </g>
      <g
        id="RXD_3_"
        gorn="0.1.1.8">
        <path
          stroke-width="0.01"
          d="M60.559,11.371c0,0.062-0.023,0.117-0.069,0.163c-0.047,0.046-0.101,0.069-0.163,0.069c-0.065,0-0.121-0.022-0.169-0.067l-1.335-1.339h-0.139v1.17c0,0.065-0.023,0.121-0.069,0.167c-0.047,0.046-0.101,0.069-0.163,0.069c-0.065,0-0.121-0.023-0.167-0.069c-0.047-0.046-0.069-0.102-0.069-0.167V8.559c0-0.065,0.022-0.121,0.069-0.167c0.046-0.046,0.102-0.069,0.167-0.069h1.286c0.143,0,0.265,0.05,0.367,0.15l0.304,0.304c0.101,0.103,0.15,0.225,0.15,0.367v0.232c0,0.143-0.05,0.265-0.15,0.367l-0.304,0.304c-0.103,0.101-0.225,0.15-0.367,0.15h-0.255l1.009,1.005C60.536,11.25,60.559,11.306,60.559,11.371z M58.684,9.729h1.05c0.015-0.003,0.028-0.009,0.041-0.019l0.3-0.297c0.008-0.012,0.013-0.025,0.016-0.041V9.147c-0.003-0.016-0.008-0.029-0.016-0.041l-0.3-0.297c-0.013-0.01-0.026-0.016-0.041-0.019h-1.05V9.729z"
          stroke="#000000"
        />
        <path
          stroke-width="0.01"
          d="M63.139,8.322c0.062,0,0.116,0.023,0.163,0.069c0.046,0.046,0.069,0.102,0.069,0.167v0.349c0,0.143-0.05,0.265-0.15,0.367l-0.692,0.691l0.692,0.686c0.101,0.103,0.15,0.225,0.15,0.367v0.349c0,0.065-0.023,0.121-0.069,0.167c-0.047,0.046-0.101,0.069-0.163,0.069c-0.065,0-0.121-0.023-0.167-0.069c-0.047-0.046-0.069-0.103-0.069-0.167v-0.346c-0.003-0.015-0.008-0.028-0.015-0.041l-0.686-0.684l-0.691,0.685c-0.007,0.012-0.013,0.025-0.015,0.041v0.345c0,0.065-0.023,0.121-0.069,0.167c-0.047,0.046-0.101,0.069-0.163,0.069c-0.065,0-0.121-0.023-0.167-0.069c-0.047-0.046-0.069-0.102-0.069-0.167v-0.349c0-0.143,0.05-0.265,0.15-0.367l0.69-0.688l-0.69-0.688c-0.101-0.103-0.15-0.225-0.15-0.367V8.559c0-0.065,0.022-0.121,0.069-0.167c0.046-0.046,0.102-0.069,0.167-0.069c0.062,0,0.116,0.023,0.163,0.069c0.046,0.047,0.069,0.103,0.069,0.168v0.346c0.002,0.015,0.008,0.028,0.015,0.041l0.691,0.688l0.686-0.689c0.007-0.013,0.012-0.026,0.015-0.041V8.559c0-0.064,0.022-0.121,0.069-0.167C63.018,8.346,63.073,8.322,63.139,8.322z"
          stroke="#000000"
        />
        <path
          stroke-width="0.01"
          d="M66.029,8.776c0.103,0.103,0.154,0.225,0.154,0.367v1.639c0,0.143-0.05,0.265-0.15,0.367l-0.304,0.304c-0.103,0.101-0.225,0.15-0.367,0.15h-1.286c-0.065,0-0.121-0.023-0.167-0.069c-0.047-0.046-0.069-0.102-0.069-0.167V8.559c0-0.065,0.022-0.121,0.069-0.167c0.046-0.046,0.102-0.069,0.167-0.069h1.286c0.143,0,0.265,0.051,0.367,0.153L66.029,8.776z M65.698,10.822c0.009-0.013,0.015-0.026,0.017-0.041V9.149c0-0.015-0.007-0.028-0.021-0.041l-0.295-0.301c-0.013-0.01-0.026-0.017-0.041-0.021h-1.049v2.352h1.052c0.016-0.003,0.029-0.01,0.042-0.021L65.698,10.822z"
          stroke="#000000"
        />
      </g>
      <g
        id="DTR_1_"
        gorn="0.1.1.9">
        <path
          stroke-width="0.01"
          d="M60.404,1.576c0.103,0.103,0.154,0.225,0.154,0.367v1.639c0,0.143-0.05,0.265-0.15,0.367l-0.304,0.304c-0.103,0.101-0.225,0.15-0.367,0.15h-1.286c-0.065,0-0.121-0.023-0.167-0.069c-0.047-0.046-0.069-0.102-0.069-0.167V1.358c0-0.065,0.022-0.121,0.069-0.167c0.046-0.046,0.102-0.069,0.167-0.069h1.286c0.143,0,0.265,0.051,0.367,0.153L60.404,1.576z M60.073,3.622c0.009-0.013,0.015-0.026,0.017-0.041V1.949c0-0.015-0.007-0.028-0.021-0.041l-0.295-0.301c-0.013-0.01-0.026-0.017-0.041-0.021h-1.049v2.352h1.052c0.016-0.003,0.029-0.01,0.042-0.021L60.073,3.622z"
          stroke="#000000"
        />
        <path
          stroke-width="0.01"
          d="M63.139,1.122c0.062,0,0.116,0.023,0.163,0.068c0.046,0.046,0.069,0.102,0.069,0.166c0,0.062-0.023,0.116-0.069,0.162c-0.047,0.046-0.101,0.068-0.163,0.068h-0.705v2.58c0,0.064-0.023,0.121-0.069,0.167c-0.047,0.046-0.101,0.069-0.163,0.069c-0.065,0-0.121-0.023-0.167-0.069c-0.047-0.046-0.069-0.103-0.069-0.167v-2.58h-0.701c-0.065,0-0.121-0.022-0.167-0.068c-0.047-0.046-0.069-0.101-0.069-0.162c0-0.064,0.022-0.12,0.069-0.166c0.046-0.045,0.102-0.068,0.167-0.068H63.139z"
          stroke="#000000"
        />
        <path
          stroke-width="0.01"
          d="M66.184,4.171c0,0.062-0.023,0.117-0.069,0.163c-0.047,0.046-0.101,0.069-0.163,0.069c-0.065,0-0.121-0.022-0.169-0.067l-1.335-1.339h-0.139v1.17c0,0.065-0.023,0.121-0.069,0.167c-0.047,0.046-0.101,0.069-0.163,0.069c-0.065,0-0.121-0.023-0.167-0.069c-0.047-0.046-0.069-0.102-0.069-0.167V1.358c0-0.065,0.022-0.121,0.069-0.167c0.046-0.046,0.102-0.069,0.167-0.069h1.286c0.143,0,0.265,0.05,0.367,0.15l0.304,0.304c0.101,0.103,0.15,0.225,0.15,0.367v0.232c0,0.143-0.05,0.265-0.15,0.367l-0.304,0.304c-0.103,0.101-0.225,0.15-0.367,0.15h-0.255l1.009,1.005C66.161,4.05,66.184,4.105,66.184,4.171z M64.309,2.528h1.05c0.015-0.003,0.028-0.009,0.041-0.019l0.3-0.297c0.008-0.012,0.013-0.025,0.016-0.041V1.947c-0.003-0.016-0.008-0.029-0.016-0.041l-0.3-0.297c-0.013-0.01-0.026-0.016-0.041-0.019h-1.05V2.528z"
          stroke="#000000"
        />
      </g>
      <g
        id="SUS_1_"
        gorn="0.1.1.10">
        <path
          stroke-width="0.01"
          d="M53.178,34.164c0-0.143,0.054-0.266,0.16-0.368l0.412-0.388c0.051-0.045,0.11-0.067,0.18-0.067c0.066,0,0.125,0.023,0.174,0.069c0.05,0.047,0.074,0.101,0.074,0.163c0,0.065-0.024,0.122-0.072,0.17l-0.408,0.383c-0.01,0.013-0.017,0.026-0.02,0.042v0.695c0.003,0.015,0.01,0.029,0.02,0.041l0.316,0.301c0.014,0.008,0.028,0.013,0.044,0.016h0.24c0.016-0.003,0.03-0.008,0.044-0.016l0.316-0.301c0.01-0.012,0.017-0.026,0.02-0.041v-0.699c0-0.143,0.054-0.266,0.16-0.368l0.324-0.305c0.109-0.101,0.239-0.15,0.392-0.15h0.248c0.152,0,0.282,0.05,0.392,0.15l0.324,0.305c0.106,0.103,0.16,0.226,0.16,0.368v0.703c0,0.143-0.054,0.266-0.16,0.368l-0.412,0.388c-0.051,0.045-0.11,0.067-0.18,0.067c-0.066,0-0.125-0.023-0.174-0.069c-0.05-0.047-0.074-0.103-0.074-0.167c0-0.063,0.024-0.118,0.072-0.166l0.408-0.384c0.01-0.012,0.017-0.026,0.02-0.041v-0.695c-0.003-0.016-0.01-0.029-0.02-0.042l-0.316-0.301c-0.014-0.007-0.028-0.012-0.044-0.015h-0.24c-0.016,0.003-0.03,0.008-0.044,0.015l-0.316,0.301c-0.01,0.013-0.017,0.026-0.02,0.042v0.699c0,0.143-0.054,0.266-0.16,0.368l-0.324,0.305c-0.109,0.101-0.239,0.15-0.392,0.15h-0.248c-0.152,0-0.282-0.05-0.392-0.15l-0.324-0.305c-0.106-0.103-0.16-0.226-0.16-0.368V34.164z"
          stroke="#000000"
        />
        <path
          stroke-width="0.01"
          d="M53.178,30.756c0-0.064,0.024-0.12,0.074-0.167c0.049-0.046,0.108-0.069,0.178-0.069h2.372c0.152,0,0.282,0.05,0.392,0.15l0.324,0.305c0.106,0.103,0.16,0.226,0.16,0.368v0.703c0,0.15-0.062,0.274-0.184,0.372l-0.393,0.319c-0.109,0.088-0.237,0.132-0.384,0.132H53.43c-0.069,0-0.129-0.023-0.178-0.069c-0.05-0.047-0.074-0.101-0.074-0.164c0-0.064,0.024-0.12,0.074-0.167c0.049-0.046,0.108-0.069,0.178-0.069h2.287c0.021,0,0.041-0.008,0.06-0.023c0.126-0.101,0.255-0.204,0.389-0.312c0.008-0.007,0.013-0.015,0.017-0.022v-0.695c-0.003-0.015-0.01-0.028-0.02-0.041l-0.32-0.301c-0.013-0.007-0.027-0.012-0.044-0.015H53.43c-0.069,0-0.129-0.023-0.178-0.069C53.202,30.874,53.178,30.82,53.178,30.756z"
          stroke="#000000"
        />
        <path
          stroke-width="0.01"
          d="M53.178,28.524c0-0.143,0.054-0.266,0.16-0.368l0.412-0.388c0.051-0.045,0.11-0.067,0.18-0.067c0.066,0,0.125,0.023,0.174,0.069c0.05,0.047,0.074,0.101,0.074,0.163c0,0.065-0.024,0.122-0.072,0.17l-0.408,0.383c-0.01,0.013-0.017,0.026-0.02,0.042v0.695c0.003,0.015,0.01,0.029,0.02,0.041l0.316,0.301c0.014,0.008,0.028,0.013,0.044,0.016h0.24c0.016-0.003,0.03-0.008,0.044-0.016l0.316-0.301c0.01-0.012,0.017-0.026,0.02-0.041v-0.699c0-0.143,0.054-0.266,0.16-0.368l0.324-0.305c0.109-0.101,0.239-0.15,0.392-0.15h0.248c0.152,0,0.282,0.05,0.392,0.15l0.324,0.305c0.106,0.103,0.16,0.226,0.16,0.368v0.703c0,0.143-0.054,0.266-0.16,0.368l-0.412,0.388c-0.051,0.045-0.11,0.067-0.18,0.067c-0.066,0-0.125-0.023-0.174-0.069c-0.05-0.047-0.074-0.103-0.074-0.167c0-0.063,0.024-0.118,0.072-0.166l0.408-0.384c0.01-0.012,0.017-0.026,0.02-0.041v-0.695c-0.003-0.016-0.01-0.029-0.02-0.042l-0.316-0.301c-0.014-0.007-0.028-0.012-0.044-0.015h-0.24c-0.016,0.003-0.03,0.008-0.044,0.015l-0.316,0.301c-0.01,0.013-0.017,0.026-0.02,0.042v0.699c0,0.143-0.054,0.266-0.16,0.368L54.693,29.9c-0.109,0.101-0.239,0.15-0.392,0.15h-0.248c-0.152,0-0.282-0.05-0.392-0.15l-0.324-0.305c-0.106-0.103-0.16-0.226-0.16-0.368V28.524z"
          stroke="#000000"
        />
      </g>
      <g
        id="SUS"
        gorn="0.1.1.11">
        <path
          stroke-width="0.01"
          d="M45.958,34.164c0-0.143,0.054-0.266,0.16-0.368l0.412-0.388c0.051-0.045,0.11-0.067,0.18-0.067c0.066,0,0.125,0.023,0.174,0.069c0.05,0.047,0.074,0.101,0.074,0.163c0,0.065-0.024,0.122-0.072,0.17l-0.408,0.383c-0.01,0.013-0.017,0.026-0.02,0.042v0.695c0.003,0.015,0.01,0.029,0.02,0.041l0.316,0.301c0.014,0.008,0.028,0.013,0.044,0.016h0.24c0.016-0.003,0.03-0.008,0.044-0.016l0.316-0.301c0.01-0.012,0.017-0.026,0.02-0.041v-0.699c0-0.143,0.054-0.266,0.16-0.368l0.324-0.305c0.109-0.101,0.239-0.15,0.392-0.15h0.248c0.152,0,0.282,0.05,0.392,0.15l0.324,0.305c0.106,0.103,0.16,0.226,0.16,0.368v0.703c0,0.143-0.054,0.266-0.16,0.368l-0.412,0.388c-0.051,0.045-0.11,0.067-0.18,0.067c-0.066,0-0.125-0.023-0.174-0.069c-0.05-0.047-0.074-0.103-0.074-0.167c0-0.063,0.024-0.118,0.072-0.166l0.408-0.384c0.01-0.012,0.017-0.026,0.02-0.041v-0.695c-0.003-0.016-0.01-0.029-0.02-0.042l-0.316-0.301c-0.014-0.007-0.028-0.012-0.044-0.015h-0.24c-0.016,0.003-0.03,0.008-0.044,0.015l-0.316,0.301c-0.01,0.013-0.017,0.026-0.02,0.042v0.699c0,0.143-0.054,0.266-0.16,0.368l-0.324,0.305c-0.109,0.101-0.239,0.15-0.392,0.15h-0.248c-0.152,0-0.282-0.05-0.392-0.15l-0.324-0.305c-0.106-0.103-0.16-0.226-0.16-0.368V34.164z"
          stroke="#000000"
        />
        <path
          stroke-width="0.01"
          d="M45.958,30.756c0-0.064,0.024-0.12,0.074-0.167c0.049-0.046,0.108-0.069,0.178-0.069h2.372c0.152,0,0.282,0.05,0.392,0.15l0.324,0.305c0.106,0.103,0.16,0.226,0.16,0.368v0.703c0,0.15-0.062,0.274-0.184,0.372l-0.393,0.319c-0.109,0.088-0.237,0.132-0.384,0.132H46.21c-0.069,0-0.129-0.023-0.178-0.069c-0.05-0.047-0.074-0.101-0.074-0.164c0-0.064,0.024-0.12,0.074-0.167c0.049-0.046,0.108-0.069,0.178-0.069h2.287c0.021,0,0.041-0.008,0.06-0.023c0.126-0.101,0.255-0.204,0.389-0.312c0.008-0.007,0.013-0.015,0.017-0.022v-0.695c-0.003-0.015-0.01-0.028-0.02-0.041l-0.32-0.301c-0.013-0.007-0.027-0.012-0.044-0.015H46.21c-0.069,0-0.129-0.023-0.178-0.069C45.982,30.874,45.958,30.82,45.958,30.756z"
          stroke="#000000"
        />
        <path
          stroke-width="0.01"
          d="M45.958,28.524c0-0.143,0.054-0.266,0.16-0.368l0.412-0.388c0.051-0.045,0.11-0.067,0.18-0.067c0.066,0,0.125,0.023,0.174,0.069c0.05,0.047,0.074,0.101,0.074,0.163c0,0.065-0.024,0.122-0.072,0.17l-0.408,0.383c-0.01,0.013-0.017,0.026-0.02,0.042v0.695c0.003,0.015,0.01,0.029,0.02,0.041l0.316,0.301c0.014,0.008,0.028,0.013,0.044,0.016h0.24c0.016-0.003,0.03-0.008,0.044-0.016l0.316-0.301c0.01-0.012,0.017-0.026,0.02-0.041v-0.699c0-0.143,0.054-0.266,0.16-0.368l0.324-0.305c0.109-0.101,0.239-0.15,0.392-0.15h0.248c0.152,0,0.282,0.05,0.392,0.15l0.324,0.305c0.106,0.103,0.16,0.226,0.16,0.368v0.703c0,0.143-0.054,0.266-0.16,0.368l-0.412,0.388c-0.051,0.045-0.11,0.067-0.18,0.067c-0.066,0-0.125-0.023-0.174-0.069c-0.05-0.047-0.074-0.103-0.074-0.167c0-0.063,0.024-0.118,0.072-0.166l0.408-0.384c0.01-0.012,0.017-0.026,0.02-0.041v-0.695c-0.003-0.016-0.01-0.029-0.02-0.042l-0.316-0.301c-0.014-0.007-0.028-0.012-0.044-0.015h-0.24c-0.016,0.003-0.03,0.008-0.044,0.015l-0.316,0.301c-0.01,0.013-0.017,0.026-0.02,0.042v0.699c0,0.143-0.054,0.266-0.16,0.368L47.474,29.9c-0.109,0.101-0.239,0.15-0.392,0.15h-0.248c-0.152,0-0.282-0.05-0.392-0.15l-0.324-0.305c-0.106-0.103-0.16-0.226-0.16-0.368V28.524z"
          stroke="#000000"
        />
      </g>
      <g
        id="RI"
        gorn="0.1.1.12">
        <path
          stroke-width="0.01"
          d="M41.99,33.34c0.066,0,0.125,0.023,0.174,0.069c0.05,0.047,0.074,0.101,0.074,0.163c0,0.065-0.024,0.122-0.072,0.17l-1.428,1.338v0.14h1.248c0.069,0,0.129,0.023,0.178,0.069c0.05,0.047,0.074,0.101,0.074,0.164c0,0.064-0.024,0.12-0.074,0.167c-0.049,0.046-0.108,0.069-0.178,0.069H38.99c-0.069,0-0.129-0.023-0.178-0.069c-0.05-0.047-0.074-0.103-0.074-0.167v-1.29c0-0.143,0.054-0.266,0.16-0.368l0.324-0.305c0.109-0.101,0.239-0.15,0.392-0.15h0.248c0.152,0,0.282,0.05,0.392,0.15l0.324,0.305c0.106,0.103,0.16,0.226,0.16,0.368v0.256l1.072-1.012C41.861,33.363,41.921,33.34,41.99,33.34z M40.238,35.22v-1.053c-0.003-0.016-0.01-0.029-0.02-0.042l-0.316-0.301c-0.014-0.007-0.028-0.012-0.044-0.015h-0.24c-0.016,0.003-0.03,0.008-0.044,0.015l-0.316,0.301c-0.01,0.013-0.017,0.026-0.02,0.042v1.053H40.238z"
          stroke="#000000"
        />
        <path
          stroke-width="0.01"
          d="M41.742,31.693c0-0.062,0.024-0.117,0.073-0.163c0.049-0.047,0.108-0.07,0.177-0.07c0.066,0,0.124,0.023,0.173,0.07c0.049,0.046,0.073,0.101,0.073,0.163v0.94c0,0.064-0.024,0.12-0.073,0.167c-0.049,0.046-0.106,0.069-0.173,0.069c-0.068,0-0.128-0.023-0.177-0.069c-0.049-0.047-0.073-0.103-0.073-0.167V32.4h-2.508v0.233c0,0.064-0.024,0.12-0.073,0.167c-0.049,0.046-0.106,0.069-0.173,0.069c-0.068,0-0.128-0.023-0.177-0.069c-0.049-0.047-0.073-0.103-0.073-0.167v-0.94c0-0.062,0.024-0.117,0.073-0.163c0.049-0.047,0.108-0.07,0.177-0.07c0.066,0,0.124,0.023,0.173,0.07c0.049,0.046,0.073,0.101,0.073,0.163v0.237h2.508V31.693z"
          stroke="#000000"
        />
      </g>
      <g
        id="RST"
        gorn="0.1.1.13">
        <path
          stroke-width="0.01"
          d="M34.771,33.34c0.066,0,0.125,0.023,0.174,0.069c0.05,0.047,0.074,0.101,0.074,0.163c0,0.065-0.024,0.122-0.072,0.17l-1.428,1.338v0.14h1.248c0.069,0,0.129,0.023,0.178,0.069c0.05,0.047,0.074,0.101,0.074,0.164c0,0.064-0.024,0.12-0.074,0.167c-0.049,0.046-0.108,0.069-0.178,0.069h-2.996c-0.069,0-0.129-0.023-0.178-0.069c-0.05-0.047-0.074-0.103-0.074-0.167v-1.29c0-0.143,0.054-0.266,0.16-0.368l0.324-0.305c0.109-0.101,0.239-0.15,0.392-0.15h0.248c0.152,0,0.282,0.05,0.392,0.15l0.324,0.305c0.106,0.103,0.16,0.226,0.16,0.368v0.256l1.072-1.012C34.642,33.363,34.701,33.34,34.771,33.34z M33.019,35.22v-1.053c-0.003-0.016-0.01-0.029-0.02-0.042l-0.316-0.301c-0.014-0.007-0.028-0.012-0.044-0.015h-0.24c-0.016,0.003-0.03,0.008-0.044,0.015l-0.316,0.301c-0.01,0.013-0.017,0.026-0.02,0.042v1.053H33.019z"
          stroke="#000000"
        />
        <path
          stroke-width="0.01"
          d="M31.519,31.343c0-0.143,0.054-0.266,0.16-0.368l0.412-0.388c0.051-0.045,0.11-0.067,0.18-0.067c0.066,0,0.125,0.023,0.174,0.069c0.05,0.047,0.074,0.101,0.074,0.163c0,0.065-0.024,0.122-0.072,0.17l-0.408,0.383c-0.01,0.013-0.017,0.026-0.02,0.042v0.695c0.003,0.015,0.01,0.029,0.02,0.041l0.316,0.301c0.014,0.008,0.028,0.013,0.044,0.016h0.24c0.016-0.003,0.03-0.008,0.044-0.016l0.316-0.301c0.01-0.012,0.017-0.026,0.02-0.041v-0.699c0-0.143,0.054-0.266,0.16-0.368l0.324-0.305c0.109-0.101,0.239-0.15,0.392-0.15h0.248c0.152,0,0.282,0.05,0.392,0.15l0.324,0.305c0.106,0.103,0.16,0.226,0.16,0.368v0.703c0,0.143-0.054,0.266-0.16,0.368l-0.412,0.388c-0.051,0.045-0.11,0.067-0.18,0.067c-0.066,0-0.125-0.023-0.174-0.069c-0.05-0.047-0.074-0.103-0.074-0.167c0-0.063,0.024-0.118,0.072-0.166l0.408-0.384c0.01-0.012,0.017-0.026,0.02-0.041v-0.695c-0.003-0.016-0.01-0.029-0.02-0.042l-0.316-0.301c-0.014-0.007-0.028-0.012-0.044-0.015h-0.24c-0.016,0.003-0.03,0.008-0.044,0.015l-0.316,0.301c-0.01,0.013-0.017,0.026-0.02,0.042v0.699c0,0.143-0.054,0.266-0.16,0.368l-0.324,0.305c-0.109,0.101-0.239,0.15-0.392,0.15h-0.248c-0.152,0-0.282-0.05-0.392-0.15l-0.324-0.305c-0.106-0.103-0.16-0.226-0.16-0.368V31.343z"
          stroke="#000000"
        />
        <path
          stroke-width="0.01"
          d="M31.519,27.933c0-0.062,0.024-0.116,0.073-0.163c0.049-0.046,0.108-0.069,0.177-0.069c0.066,0,0.124,0.023,0.173,0.069c0.049,0.047,0.073,0.101,0.073,0.163v0.707h2.752c0.069,0,0.129,0.023,0.178,0.07c0.05,0.046,0.074,0.101,0.074,0.163c0,0.065-0.024,0.121-0.074,0.167c-0.049,0.047-0.108,0.07-0.178,0.07h-2.752v0.703c0,0.064-0.024,0.12-0.073,0.167c-0.049,0.046-0.106,0.069-0.173,0.069c-0.068,0-0.128-0.023-0.177-0.069c-0.049-0.047-0.073-0.103-0.073-0.167V27.933z"
          stroke="#000000"
        />
      </g>
    </g>
  </g>
  <g
    id="copper1"
    gorn="0.2">
    <g
      id="copper0"
      gorn="0.2.0">
      <circle
        fill="none"
        r="1.919"
        stroke-width="1"
        id="connector13pad"
        gorn="0.2.0.0"
        cx="33.398"
        cy="2.88"
        stroke="#F7BD13"
      />
      <circle
        fill="none"
        r="1.919"
        stroke-width="1"
        id="connector12pad"
        gorn="0.2.0.1"
        cx="40.504"
        cy="2.88"
        stroke="#F7BD13"
      />
      <circle
        fill="none"
        r="1.918"
        stroke-width="1"
        id="connector11pad"
        gorn="0.2.0.2"
        cx="47.71"
        cy="2.88"
        stroke="#F7BD13"
      />
      <circle
        fill="none"
        r="1.919"
        stroke-width="1"
        id="connector10pad"
        gorn="0.2.0.3"
        cx="54.916"
        cy="2.88"
        stroke="#F7BD13"
      />
      <circle
        fill="none"
        r="1.919"
        stroke-width="1"
        id="connector9pad"
        gorn="0.2.0.4"
        cx="69.328"
        cy="2.88"
        stroke="#F7BD13"
      />
      <circle
        fill="none"
        r="1.919"
        stroke-width="1"
        id="connector8pad"
        gorn="0.2.0.5"
        cx="69.328"
        cy="10.08"
        stroke="#F7BD13"
      />
      <circle
        fill="none"
        r="1.919"
        stroke-width="1"
        id="connector7pad"
        gorn="0.2.0.6"
        cx="69.328"
        cy="17.28"
        stroke="#F7BD13"
      />
      <circle
        fill="none"
        r="1.919"
        stroke-width="1"
        id="connector6pad"
        gorn="0.2.0.7"
        cx="69.328"
        cy="24.48"
        stroke="#F7BD13"
      />
      <circle
        fill="none"
        r="1.919"
        stroke-width="1"
        id="connector5pad"
        gorn="0.2.0.8"
        cx="69.328"
        cy="31.68"
        stroke="#F7BD13"
      />
      <circle
        fill="none"
        r="1.919"
        stroke-width="1"
        id="connector4pad"
        gorn="0.2.0.9"
        cx="69.328"
        cy="38.88"
        stroke="#F7BD13"
      />
      <circle
        fill="none"
        r="1.919"
        stroke-width="1"
        id="connector3pad"
        gorn="0.2.0.10"
        cx="54.916"
        cy="38.88"
        stroke="#F7BD13"
      />
      <circle
        fill="none"
        r="1.919"
        stroke-width="1"
        id="connector2pad"
        gorn="0.2.0.11"
        cx="47.71"
        cy="38.88"
        stroke="#F7BD13"
      />
      <circle
        fill="none"
        r="1.919"
        stroke-width="1"
        id="connector1pad"
        gorn="0.2.0.12"
        cx="40.504"
        cy="38.88"
        stroke="#F7BD13"
      />
      <circle
        fill="none"
        r="1.919"
        stroke-width="1"
        id="connector0pad"
        gorn="0.2.0.13"
        cx="33.298"
        cy="38.88"
        stroke="#F7BD13"
      />
    </g>
  </g>
</svg>
