<?xml version='1.0' encoding='UTF-8' standalone='no'?>
<!-- Generator: Adobe Illustrator 13.0.1, SVG Export Plug-In . SVG Version: 6.00 Build 14948)  -->
<svg xmlns="http://www.w3.org/2000/svg" id="breadboard_1_" enable-background="new 0 0 117.833 41.902" version="1.1" x="0px" height="0.581972in" y="0px" gorn="0" xmlns:xml="http://www.w3.org/XML/1998/namespace" viewBox="0 0 117.833 41.902"  xml:space="preserve" width="1.63657in">
    <defs id="defs1413" />
    <desc id="desc712" >
        <referenceFile >USB-TTL_UART_breadboard.svg</referenceFile>
    </desc>
    <g id="PCB" gorn="0.2" style="fill:#0000ff" >
        <g id="pcb_1_" gorn="0.2.0" style="fill:#0000ff" >
            <rect id="rect714" stroke="#8c8c8c" x="45.068001" fill="none" height="42.042999" stroke-width="0.5" y="0" style="fill:#0000ff" gorn="0.2.0.0" stroke-linejoin="round"  width="72.906998"/>
            <g id="g720" style="fill:#0000ff" gorn="0.2.0.1" >
                <g id="g718" style="fill:#0000ff" gorn="0.2.0.1.0" >
                    <path id="path716" d="m 45.208,0.142 v 41.76 h 72.625 V 0.142 Z m 69.329,1.32 c 0.862,0 1.561,0.697 1.561,1.559 0,0.862 -0.698,1.561 -1.561,1.561 -0.86,0 -1.557,-0.699 -1.557,-1.561 0,-0.862 0.696,-1.559 1.557,-1.559 z m 0.002,7.2 c 0.86,0 1.559,0.697 1.559,1.559 0,0.862 -0.698,1.561 -1.559,1.561 -0.862,0 -1.559,-0.699 -1.559,-1.561 0,-0.862 0.696,-1.559 1.559,-1.559 z m -0.002,7.2 c 0.862,0 1.561,0.697 1.561,1.559 0,0.862 -0.698,1.561 -1.561,1.561 -0.86,0 -1.557,-0.699 -1.557,-1.561 0,-0.862 0.696,-1.559 1.557,-1.559 z m 10e-4,7.2 c 0.861,0 1.56,0.697 1.56,1.559 0,0.862 -0.698,1.561 -1.56,1.561 -0.862,0 -1.558,-0.699 -1.558,-1.561 0,-0.862 0.696,-1.559 1.558,-1.559 z m -10e-4,7.2 c 0.862,0 1.561,0.697 1.561,1.559 0,0.862 -0.698,1.561 -1.561,1.561 -0.86,0 -1.558,-0.699 -1.558,-1.561 0,-0.862 0.697,-1.559 1.558,-1.559 z m -55.799,2.356 c -0.862,0 -1.559,-0.698 -1.559,-1.56 0,-0.862 0.696,-1.559 1.559,-1.559 0.86,0 1.559,0.697 1.559,1.559 0,0.862 -0.698,1.56 -1.559,1.56 z m -0.002,-7.202 c -0.86,0 -1.557,-0.698 -1.557,-1.56 0,-0.862 0.696,-1.559 1.557,-1.559 0.862,0 1.561,0.697 1.561,1.559 0,0.862 -0.698,1.56 -1.561,1.56 z m 0.001,-5.67 c -0.861,0 -1.558,-0.698 -1.558,-1.56 0,-0.862 0.696,-1.559 1.558,-1.559 0.862,0 1.56,0.697 1.56,1.559 0,0.862 -0.698,1.56 -1.56,1.56 z m 0,-7.202 c -0.86,0 -1.558,-0.698 -1.558,-1.56 0,-0.862 0.697,-1.559 1.558,-1.559 0.862,0 1.561,0.697 1.561,1.559 0,0.862 -0.699,1.56 -1.561,1.56 z m 19.797,28.038 c -0.86,0 -1.558,-0.699 -1.558,-1.561 0,-0.862 0.697,-1.559 1.558,-1.559 0.861,0 1.561,0.697 1.561,1.559 0,0.862 -0.7,1.561 -1.561,1.561 z m 0,-36.001 c -0.86,0 -1.558,-0.698 -1.558,-1.56 0,-0.862 0.697,-1.559 1.558,-1.559 0.861,0 1.561,0.697 1.561,1.559 0,0.862 -0.7,1.56 -1.561,1.56 z m 7.201,36.001 c -0.862,0 -1.56,-0.699 -1.56,-1.561 0,-0.862 0.697,-1.559 1.56,-1.559 0.86,0 1.558,0.697 1.558,1.559 0,0.862 -0.698,1.561 -1.558,1.561 z M 85.74,4.581 c -0.862,0 -1.56,-0.698 -1.56,-1.56 0,-0.862 0.697,-1.559 1.56,-1.559 0.86,0 1.558,0.697 1.558,1.559 0,0.862 -0.698,1.56 -1.558,1.56 z m 7.191,36.001 c -0.86,0 -1.558,-0.699 -1.558,-1.561 0,-0.862 0.697,-1.559 1.558,-1.559 0.861,0 1.561,0.697 1.561,1.559 0,0.862 -0.7,1.561 -1.561,1.561 z M 92.937,4.581 c -0.86,0 -1.558,-0.698 -1.558,-1.56 0,-0.862 0.697,-1.559 1.558,-1.559 0.861,0 1.561,0.697 1.561,1.559 0,0.862 -0.7,1.56 -1.561,1.56 z m 7.2,36.001 c -0.861,0 -1.561,-0.699 -1.561,-1.561 0,-0.862 0.699,-1.559 1.561,-1.559 0.859,0 1.559,0.697 1.559,1.559 0,0.862 -0.699,1.561 -1.559,1.561 z m 0,-36.001 c -0.861,0 -1.561,-0.698 -1.561,-1.56 0,-0.862 0.699,-1.559 1.561,-1.559 0.859,0 1.559,0.697 1.559,1.559 0,0.862 -0.699,1.56 -1.559,1.56 z m 14.403,36.001 c -0.861,0 -1.561,-0.699 -1.561,-1.561 0,-0.862 0.699,-1.559 1.561,-1.559 0.859,0 1.559,0.697 1.559,1.559 0,0.862 -0.7,1.561 -1.559,1.561 z" style="fill:#0000ff" gorn="0.2.0.1.0.0" />
                </g>
            </g>
        </g>
    </g>
    <g id="Text" gorn="0.3" >
        <g id="_x33_V3" gorn="0.3.0" >
            <path id="path724" d="m 105.767,38.318 c 0,0.143 -0.05,0.265 -0.15,0.367 l -0.221,0.222 0.221,0.218 c 0.101,0.103 0.15,0.225 0.15,0.367 v 0.232 c 0,0.143 -0.05,0.265 -0.15,0.367 l -0.304,0.304 c -0.103,0.101 -0.225,0.15 -0.367,0.15 h -0.701 c -0.143,0 -0.266,-0.05 -0.368,-0.15 l -0.386,-0.386 c -0.045,-0.048 -0.067,-0.104 -0.067,-0.169 0,-0.062 0.022,-0.117 0.068,-0.163 0.047,-0.046 0.102,-0.069 0.166,-0.069 0.062,0 0.117,0.023 0.164,0.069 l 0.383,0.383 c 0.013,0.011 0.026,0.018 0.041,0.021 h 0.696 c 0.015,-0.003 0.028,-0.011 0.041,-0.023 l 0.301,-0.295 c 0.007,-0.013 0.012,-0.026 0.015,-0.041 v -0.226 c -0.003,-0.016 -0.008,-0.029 -0.015,-0.042 l -0.301,-0.295 c -0.013,-0.011 -0.026,-0.017 -0.041,-0.02 h -0.813 c -0.065,0 -0.121,-0.022 -0.167,-0.068 -0.047,-0.046 -0.069,-0.101 -0.069,-0.162 0,-0.064 0.023,-0.12 0.069,-0.166 0.047,-0.046 0.103,-0.068 0.167,-0.068 h 0.816 c 0.015,-0.003 0.029,-0.008 0.041,-0.016 l 0.296,-0.301 c 0.009,-0.013 0.015,-0.027 0.017,-0.042 v -0.229 c -0.002,-0.015 -0.006,-0.028 -0.012,-0.042 l -0.301,-0.295 c -0.013,-0.011 -0.026,-0.018 -0.042,-0.021 h -0.698 c -0.015,0.003 -0.028,0.01 -0.041,0.021 l -0.383,0.382 c -0.047,0.047 -0.102,0.07 -0.164,0.07 -0.064,0 -0.119,-0.023 -0.166,-0.069 -0.046,-0.046 -0.068,-0.101 -0.068,-0.163 0,-0.065 0.022,-0.121 0.067,-0.169 l 0.386,-0.386 c 0.103,-0.101 0.226,-0.15 0.368,-0.15 h 0.701 c 0.143,0 0.265,0.05 0.367,0.15 l 0.304,0.304 c 0.101,0.103 0.15,0.225 0.15,0.367 z" fill="#ffffff" gorn="0.3.0.0" />
            <path id="path726" d="m 108.343,37.264 c 0.064,0 0.12,0.023 0.167,0.069 0.046,0.046 0.069,0.102 0.069,0.167 v 1.755 c 0,0.143 -0.05,0.265 -0.15,0.367 l -0.854,0.855 c -0.048,0.045 -0.104,0.067 -0.169,0.067 -0.062,0 -0.117,-0.022 -0.165,-0.067 l -0.855,-0.855 c -0.1,-0.103 -0.149,-0.225 -0.149,-0.367 V 37.5 c 0,-0.065 0.022,-0.121 0.069,-0.167 0.046,-0.046 0.101,-0.069 0.163,-0.069 0.064,0 0.12,0.023 0.167,0.069 0.046,0.047 0.069,0.103 0.069,0.167 v 1.753 c 0.002,0.016 0.008,0.029 0.017,0.042 l 0.687,0.687 0.687,-0.687 c 0.009,-0.013 0.015,-0.026 0.017,-0.042 V 37.5 c 0,-0.064 0.022,-0.12 0.069,-0.167 0.044,-0.045 0.099,-0.069 0.161,-0.069 z" fill="#ffffff" gorn="0.3.0.1" />
            <path id="path728" d="m 111.392,38.318 c 0,0.143 -0.05,0.265 -0.15,0.367 l -0.221,0.222 0.221,0.218 c 0.101,0.103 0.15,0.225 0.15,0.367 v 0.232 c 0,0.143 -0.05,0.265 -0.15,0.367 l -0.304,0.304 c -0.103,0.101 -0.225,0.15 -0.367,0.15 h -0.701 c -0.143,0 -0.266,-0.05 -0.368,-0.15 l -0.386,-0.386 c -0.045,-0.048 -0.067,-0.104 -0.067,-0.169 0,-0.062 0.022,-0.117 0.068,-0.163 0.047,-0.046 0.102,-0.069 0.166,-0.069 0.062,0 0.117,0.023 0.164,0.069 l 0.383,0.383 c 0.013,0.011 0.026,0.018 0.041,0.021 h 0.696 c 0.015,-0.003 0.028,-0.011 0.041,-0.023 l 0.301,-0.295 c 0.007,-0.013 0.012,-0.026 0.015,-0.041 v -0.226 c -0.003,-0.016 -0.008,-0.029 -0.015,-0.042 l -0.301,-0.295 c -0.013,-0.011 -0.026,-0.017 -0.041,-0.02 h -0.813 c -0.065,0 -0.121,-0.022 -0.167,-0.068 -0.047,-0.046 -0.069,-0.101 -0.069,-0.162 0,-0.064 0.023,-0.12 0.069,-0.166 0.047,-0.046 0.103,-0.068 0.167,-0.068 h 0.816 c 0.015,-0.003 0.029,-0.008 0.041,-0.016 l 0.296,-0.301 c 0.009,-0.013 0.015,-0.027 0.017,-0.042 v -0.229 c -0.002,-0.015 -0.006,-0.028 -0.012,-0.042 l -0.301,-0.295 c -0.013,-0.011 -0.026,-0.018 -0.042,-0.021 h -0.698 c -0.015,0.003 -0.028,0.01 -0.041,0.021 l -0.383,0.382 c -0.047,0.047 -0.102,0.07 -0.164,0.07 -0.064,0 -0.119,-0.023 -0.166,-0.069 -0.046,-0.046 -0.068,-0.101 -0.068,-0.163 0,-0.065 0.022,-0.121 0.067,-0.169 l 0.386,-0.386 c 0.103,-0.101 0.226,-0.15 0.368,-0.15 h 0.701 c 0.143,0 0.265,0.05 0.367,0.15 l 0.304,0.304 c 0.101,0.103 0.15,0.225 0.15,0.367 z" fill="#ffffff" gorn="0.3.0.2" />
        </g>
        <g id="GND" gorn="0.3.1" >
            <path id="path731" d="m 103.83849,16.597423 c -0.008,0.013 -0.013,0.026 -0.015,0.041 v 1.633 c 0.002,0.015 0.007,0.028 0.015,0.041 l 0.3,0.3 c 0.013,0.009 0.026,0.016 0.041,0.019 h 0.694 c 0.016,-0.003 0.029,-0.01 0.042,-0.019 l 0.3,-0.3 c 0.007,-0.013 0.012,-0.026 0.015,-0.041 v -0.582 h -0.232 c -0.065,0 -0.121,-0.022 -0.167,-0.068 -0.047,-0.046 -0.069,-0.102 -0.069,-0.166 0,-0.062 0.022,-0.116 0.069,-0.162 0.046,-0.046 0.102,-0.068 0.167,-0.068 h 0.469 c 0.062,0 0.116,0.022 0.163,0.069 0.046,0.046 0.069,0.102 0.069,0.166 v 0.815 c 0,0.143 -0.05,0.265 -0.15,0.366 l -0.304,0.304 c -0.103,0.101 -0.225,0.15 -0.367,0.15 h -0.701 c -0.143,0 -0.266,-0.05 -0.368,-0.15 l -0.304,-0.304 c -0.1,-0.103 -0.149,-0.225 -0.149,-0.367 v -1.639 c 0,-0.143 0.05,-0.265 0.149,-0.367 l 0.304,-0.304 c 0.103,-0.101 0.226,-0.15 0.368,-0.15 h 0.701 c 0.143,0 0.265,0.05 0.367,0.15 l 0.386,0.386 c 0.045,0.048 0.067,0.104 0.067,0.169 0,0.062 -0.023,0.117 -0.069,0.163 -0.047,0.046 -0.103,0.069 -0.167,0.069 -0.062,0 -0.118,-0.022 -0.165,-0.067 l -0.382,-0.387 c -0.013,-0.009 -0.026,-0.016 -0.042,-0.019 h -0.694 c -0.015,0.003 -0.028,0.01 -0.041,0.019 z" fill="#ffffff" gorn="0.3.1.0" />
            <path id="path733" d="m 108.27849,15.814423 c 0.064,0 0.12,0.023 0.165,0.069 0.045,0.046 0.067,0.102 0.067,0.167 v 2.812 c 0,0.062 -0.022,0.117 -0.067,0.163 -0.045,0.046 -0.101,0.069 -0.165,0.069 -0.065,0 -0.121,-0.023 -0.167,-0.069 -0.047,-0.047 -0.069,-0.101 -0.069,-0.163 v -0.846 l -1.406,-1.404 v 2.25 c 0,0.062 -0.022,0.117 -0.067,0.163 -0.045,0.046 -0.101,0.069 -0.165,0.069 -0.065,0 -0.121,-0.023 -0.167,-0.069 -0.047,-0.046 -0.069,-0.101 -0.069,-0.163 v -2.812 c 0,-0.065 0.022,-0.121 0.069,-0.167 0.046,-0.046 0.102,-0.069 0.167,-0.069 0.064,0 0.12,0.022 0.165,0.067 l 1.474,1.478 v -1.309 c 0,-0.065 0.022,-0.121 0.069,-0.167 0.045,-0.046 0.101,-0.069 0.166,-0.069 z" fill="#ffffff" gorn="0.3.1.1" />
            <path id="path735" d="m 111.16949,16.268423 c 0.103,0.103 0.154,0.225 0.154,0.367 v 1.639 c 0,0.143 -0.05,0.265 -0.15,0.367 l -0.304,0.304 c -0.103,0.101 -0.225,0.15 -0.367,0.15 h -1.286 c -0.065,0 -0.121,-0.023 -0.167,-0.069 -0.047,-0.046 -0.069,-0.102 -0.069,-0.167 v -2.809 c 0,-0.065 0.022,-0.121 0.069,-0.167 0.046,-0.046 0.102,-0.069 0.167,-0.069 h 1.286 c 0.143,0 0.265,0.051 0.367,0.153 z m -0.331,2.046 c 0.009,-0.013 0.015,-0.026 0.017,-0.041 v -1.632 c 0,-0.015 -0.007,-0.028 -0.021,-0.041 l -0.295,-0.301 c -0.013,-0.01 -0.026,-0.017 -0.041,-0.021 h -1.049 v 2.352 h 1.052 c 0.016,-0.003 0.029,-0.01 0.042,-0.021 z" fill="#ffffff" gorn="0.3.1.2" />
        </g>
        <g id="_x2B_5V" gorn="0.3.2" >
            <path id="path738" d="m 105.30399,10.09293 c 0.062,0 0.116,0.022 0.163,0.068 0.046,0.046 0.069,0.102 0.069,0.166 0,0.062 -0.023,0.116 -0.069,0.162 -0.047,0.046 -0.101,0.068 -0.163,0.068 h -0.236 v 0.232 c 0,0.065 -0.023,0.121 -0.069,0.167 -0.047,0.046 -0.101,0.069 -0.163,0.069 -0.065,0 -0.121,-0.023 -0.167,-0.069 -0.047,-0.046 -0.069,-0.102 -0.069,-0.167 v -0.232 h -0.232 c -0.065,0 -0.121,-0.022 -0.167,-0.068 -0.047,-0.046 -0.069,-0.102 -0.069,-0.166 0,-0.062 0.022,-0.116 0.069,-0.162 0.046,-0.046 0.102,-0.068 0.167,-0.068 h 0.232 V 9.8589302 c 0,-0.065 0.022,-0.122 0.069,-0.168 0.046,-0.047 0.102,-0.07 0.167,-0.07 0.062,0 0.116,0.023 0.163,0.07 0.046,0.046 0.069,0.103 0.069,0.168 V 10.09293 Z" fill="#ffffff" gorn="0.3.2.0" />
            <path id="path740" d="m 106.35799,8.6829302 h 1.755 c 0.064,0 0.12,0.023 0.167,0.068 0.046,0.046 0.069,0.102 0.069,0.166 0,0.062 -0.023,0.116 -0.069,0.162 -0.047,0.046 -0.103,0.068 -0.167,0.068 h -1.639 v 0.473 h 1.054 c 0.143,0 0.265,0.05 0.367,0.15 l 0.304,0.3039998 c 0.101,0.103 0.15,0.225 0.15,0.367 v 0.701 c 0,0.143 -0.05,0.265 -0.15,0.367 l -0.304,0.304 c -0.103,0.101 -0.225,0.15 -0.367,0.15 h -0.701 c -0.143,0 -0.266,-0.05 -0.368,-0.15 l -0.386,-0.386 c -0.045,-0.048 -0.067,-0.104 -0.067,-0.169 0,-0.062 0.022,-0.117 0.068,-0.163 0.047,-0.046 0.102,-0.069 0.166,-0.069 0.062,0 0.117,0.023 0.164,0.069 l 0.383,0.383 c 0.013,0.011 0.026,0.018 0.041,0.021 h 0.696 c 0.015,-0.003 0.028,-0.011 0.041,-0.023 l 0.301,-0.295 c 0.007,-0.013 0.012,-0.026 0.015,-0.042 v -0.696 c -0.002,-0.016 -0.006,-0.029 -0.012,-0.042 l -0.301,-0.295 c -0.013,-0.011 -0.026,-0.018 -0.042,-0.021 h -1.168 c -0.098,0 -0.181,-0.034 -0.249,-0.1029998 -0.069,-0.068 -0.104,-0.151 -0.104,-0.249 v -0.699 c 0,-0.098 0.034,-0.18 0.103,-0.249 0.069,-0.068 0.152,-0.102 0.25,-0.102 z" fill="#ffffff" gorn="0.3.2.1" />
            <path id="path742" d="m 110.92499,8.6829302 c 0.064,0 0.12,0.023 0.167,0.069 0.046,0.046 0.069,0.102 0.069,0.167 V 10.67393 c 0,0.143 -0.05,0.265 -0.15,0.367 l -0.854,0.855 c -0.048,0.045 -0.104,0.067 -0.169,0.067 -0.062,0 -0.117,-0.022 -0.165,-0.067 l -0.855,-0.855 c -0.1,-0.103 -0.149,-0.225 -0.149,-0.367 V 8.9189302 c 0,-0.065 0.022,-0.121 0.069,-0.167 0.046,-0.046 0.101,-0.069 0.163,-0.069 0.064,0 0.12,0.023 0.167,0.069 0.046,0.047 0.069,0.103 0.069,0.167 V 10.67193 c 0.002,0.016 0.008,0.029 0.017,0.042 l 0.687,0.687 0.687,-0.687 c 0.009,-0.013 0.015,-0.026 0.017,-0.042 V 8.9189302 c 0,-0.064 0.022,-0.12 0.069,-0.167 0.044,-0.046 0.099,-0.069 0.161,-0.069 z" fill="#ffffff" gorn="0.3.2.2" />
        </g>
        <g id="TXD" gorn="0.3.3" >
            <path id="path745" d="m 105.26097,30.256114 c 0.062,0 0.116,0.023 0.163,0.068 0.046,0.046 0.069,0.102 0.069,0.166 0,0.062 -0.023,0.116 -0.069,0.162 -0.047,0.046 -0.101,0.068 -0.163,0.068 h -0.705 v 2.58 c 0,0.064 -0.023,0.121 -0.069,0.167 -0.047,0.046 -0.101,0.069 -0.163,0.069 -0.065,0 -0.121,-0.023 -0.167,-0.069 -0.047,-0.046 -0.069,-0.103 -0.069,-0.167 v -2.58 h -0.701 c -0.065,0 -0.121,-0.022 -0.167,-0.068 -0.047,-0.046 -0.069,-0.101 -0.069,-0.162 0,-0.064 0.022,-0.12 0.069,-0.166 0.046,-0.045 0.102,-0.068 0.167,-0.068 z" fill="#ffffff" gorn="0.3.3.0" />
            <path id="path747" d="m 108.07297,30.256114 c 0.062,0 0.116,0.023 0.163,0.069 0.046,0.046 0.069,0.102 0.069,0.167 v 0.349 c 0,0.143 -0.05,0.265 -0.15,0.367 l -0.692,0.691 0.692,0.686 c 0.101,0.103 0.15,0.225 0.15,0.367 v 0.349 c 0,0.065 -0.023,0.121 -0.069,0.167 -0.047,0.046 -0.101,0.069 -0.163,0.069 -0.065,0 -0.121,-0.023 -0.167,-0.069 -0.047,-0.046 -0.069,-0.103 -0.069,-0.167 v -0.346 c -0.003,-0.015 -0.008,-0.028 -0.015,-0.041 l -0.686,-0.684 -0.691,0.685 c -0.007,0.012 -0.013,0.025 -0.015,0.041 v 0.345 c 0,0.065 -0.023,0.121 -0.069,0.167 -0.047,0.046 -0.101,0.069 -0.163,0.069 -0.065,0 -0.121,-0.023 -0.167,-0.069 -0.047,-0.046 -0.069,-0.102 -0.069,-0.167 v -0.349 c 0,-0.143 0.05,-0.265 0.15,-0.367 l 0.69,-0.688 -0.69,-0.688 c -0.101,-0.103 -0.15,-0.225 -0.15,-0.367 v -0.35 c 0,-0.065 0.022,-0.121 0.069,-0.167 0.046,-0.046 0.102,-0.069 0.167,-0.069 0.062,0 0.116,0.023 0.163,0.069 0.046,0.047 0.069,0.103 0.069,0.168 v 0.346 c 0.002,0.015 0.008,0.028 0.015,0.041 l 0.691,0.688 0.686,-0.689 c 0.007,-0.013 0.012,-0.026 0.015,-0.041 v -0.346 c 0,-0.064 0.022,-0.121 0.069,-0.167 0.046,-0.045 0.102,-0.069 0.167,-0.069 z" fill="#ffffff" gorn="0.3.3.1" />
            <path id="path749" d="m 110.96397,30.710114 c 0.103,0.103 0.154,0.225 0.154,0.367 v 1.639 c 0,0.143 -0.05,0.265 -0.15,0.367 l -0.304,0.304 c -0.103,0.101 -0.225,0.15 -0.367,0.15 h -1.286 c -0.065,0 -0.121,-0.023 -0.167,-0.069 -0.047,-0.046 -0.069,-0.102 -0.069,-0.167 v -2.809 c 0,-0.065 0.022,-0.121 0.069,-0.167 0.046,-0.046 0.102,-0.069 0.167,-0.069 h 1.286 c 0.143,0 0.265,0.051 0.367,0.153 z m -0.331,2.046 c 0.009,-0.013 0.015,-0.026 0.017,-0.041 v -1.632 c 0,-0.015 -0.007,-0.028 -0.021,-0.041 l -0.295,-0.301 c -0.013,-0.01 -0.026,-0.017 -0.041,-0.021 h -1.049 v 2.352 h 1.052 c 0.016,-0.003 0.029,-0.01 0.042,-0.021 z" fill="#ffffff" gorn="0.3.3.2" />
        </g>
        <g id="TXD_1_" gorn="0.3.4" >
            <path id="path752" d="m 95.035,7.289 c 0.062,0 0.116,0.023 0.163,0.068 0.046,0.046 0.069,0.102 0.069,0.166 0,0.062 -0.023,0.116 -0.069,0.162 -0.047,0.046 -0.101,0.068 -0.163,0.068 H 94.33 v 2.58 c 0,0.064 -0.023,0.121 -0.069,0.167 -0.047,0.046 -0.101,0.069 -0.163,0.069 -0.065,0 -0.121,-0.023 -0.167,-0.069 -0.047,-0.046 -0.069,-0.103 -0.069,-0.167 V 7.753 H 93.16 c -0.065,0 -0.121,-0.022 -0.167,-0.068 -0.047,-0.046 -0.069,-0.101 -0.069,-0.162 0,-0.064 0.022,-0.12 0.069,-0.166 0.046,-0.045 0.102,-0.068 0.167,-0.068 z" fill="#ffffff" gorn="0.3.4.0" />
            <path id="path754" d="m 97.847,7.289 c 0.062,0 0.116,0.023 0.163,0.069 0.046,0.046 0.069,0.102 0.069,0.167 v 0.349 c 0,0.143 -0.05,0.265 -0.15,0.367 l -0.692,0.691 0.692,0.686 c 0.101,0.103 0.15,0.225 0.15,0.367 v 0.349 c 0,0.065 -0.023,0.121 -0.069,0.167 -0.047,0.046 -0.101,0.069 -0.163,0.069 -0.065,0 -0.121,-0.023 -0.167,-0.069 -0.047,-0.046 -0.069,-0.103 -0.069,-0.167 V 9.988 C 97.608,9.973 97.603,9.96 97.596,9.947 L 96.91,9.263 96.219,9.948 C 96.212,9.96 96.206,9.973 96.204,9.989 v 0.345 c 0,0.065 -0.023,0.121 -0.069,0.167 -0.047,0.046 -0.101,0.069 -0.163,0.069 -0.065,0 -0.121,-0.023 -0.167,-0.069 -0.047,-0.046 -0.069,-0.102 -0.069,-0.167 V 9.985 c 0,-0.143 0.05,-0.265 0.15,-0.367 L 96.576,8.93 95.886,8.242 C 95.785,8.139 95.736,8.017 95.736,7.875 v -0.35 c 0,-0.065 0.022,-0.121 0.069,-0.167 0.046,-0.046 0.102,-0.069 0.167,-0.069 0.062,0 0.116,0.023 0.163,0.069 0.046,0.047 0.069,0.103 0.069,0.168 v 0.346 c 0.002,0.015 0.008,0.028 0.015,0.041 L 96.91,8.601 97.596,7.912 C 97.603,7.899 97.608,7.886 97.611,7.871 V 7.525 c 0,-0.064 0.022,-0.121 0.069,-0.167 0.046,-0.046 0.102,-0.069 0.167,-0.069 z" fill="#ffffff" gorn="0.3.4.1" />
            <path id="path756" d="m 100.738,7.743 c 0.103,0.103 0.154,0.225 0.154,0.367 v 1.639 c 0,0.143 -0.05,0.265 -0.15,0.367 l -0.304,0.304 c -0.103,0.101 -0.225,0.15 -0.367,0.15 h -1.286 c -0.065,0 -0.121,-0.023 -0.167,-0.069 -0.047,-0.046 -0.069,-0.102 -0.069,-0.167 V 7.525 c 0,-0.065 0.022,-0.121 0.069,-0.167 0.046,-0.046 0.102,-0.069 0.167,-0.069 h 1.286 c 0.143,0 0.265,0.051 0.367,0.153 z m -0.331,2.046 c 0.009,-0.013 0.015,-0.026 0.017,-0.041 V 8.116 c 0,-0.015 -0.007,-0.028 -0.021,-0.041 l -0.295,-0.301 c -0.013,-0.01 -0.026,-0.017 -0.041,-0.021 h -1.049 v 2.352 h 1.052 c 0.016,-0.003 0.029,-0.01 0.042,-0.021 z" fill="#ffffff" gorn="0.3.4.2" />
        </g>
        <g id="RXD" gorn="0.3.5" >
            <path id="path759" d="m 105.767,25.968099 c 0,0.062 -0.023,0.117 -0.069,0.163 -0.047,0.046 -0.101,0.069 -0.163,0.069 -0.065,0 -0.121,-0.022 -0.169,-0.067 l -1.335,-1.339 h -0.139 v 1.17 c 0,0.065 -0.023,0.121 -0.069,0.167 -0.047,0.046 -0.101,0.069 -0.163,0.069 -0.065,0 -0.121,-0.023 -0.167,-0.069 -0.047,-0.046 -0.069,-0.102 -0.069,-0.167 v -2.809 c 0,-0.065 0.022,-0.121 0.069,-0.167 0.046,-0.046 0.102,-0.069 0.167,-0.069 h 1.286 c 0.143,0 0.265,0.05 0.367,0.15 l 0.304,0.304 c 0.101,0.103 0.15,0.225 0.15,0.367 v 0.232 c 0,0.143 -0.05,0.265 -0.15,0.367 l -0.304,0.304 c -0.103,0.101 -0.225,0.15 -0.367,0.15 h -0.255 l 1.009,1.005 c 0.045,0.049 0.067,0.104 0.067,0.17 z m -1.875,-1.643 h 1.05 c 0.015,-0.003 0.028,-0.009 0.041,-0.019 l 0.3,-0.297 c 0.008,-0.012 0.013,-0.025 0.016,-0.041 v -0.224 c -0.003,-0.016 -0.008,-0.029 -0.016,-0.041 l -0.3,-0.297 c -0.013,-0.01 -0.026,-0.016 -0.041,-0.019 h -1.05 z" fill="#ffffff" gorn="0.3.5.0" />
            <path id="path761" d="m 108.347,22.919099 c 0.062,0 0.116,0.023 0.163,0.069 0.046,0.046 0.069,0.102 0.069,0.167 v 0.349 c 0,0.143 -0.05,0.265 -0.15,0.367 l -0.692,0.691 0.692,0.686 c 0.101,0.103 0.15,0.225 0.15,0.367 v 0.349 c 0,0.065 -0.023,0.121 -0.069,0.167 -0.047,0.046 -0.101,0.069 -0.163,0.069 -0.065,0 -0.121,-0.023 -0.167,-0.069 -0.047,-0.046 -0.069,-0.103 -0.069,-0.167 v -0.346 c -0.003,-0.015 -0.008,-0.028 -0.015,-0.041 l -0.686,-0.684 -0.691,0.685 c -0.007,0.012 -0.013,0.025 -0.015,0.041 v 0.345 c 0,0.065 -0.023,0.121 -0.069,0.167 -0.047,0.046 -0.101,0.069 -0.163,0.069 -0.065,0 -0.121,-0.023 -0.167,-0.069 -0.047,-0.046 -0.069,-0.102 -0.069,-0.167 v -0.349 c 0,-0.143 0.05,-0.265 0.15,-0.367 l 0.69,-0.688 -0.69,-0.688 c -0.101,-0.103 -0.15,-0.225 -0.15,-0.367 v -0.35 c 0,-0.065 0.022,-0.121 0.069,-0.167 0.046,-0.046 0.102,-0.069 0.167,-0.069 0.062,0 0.116,0.023 0.163,0.069 0.046,0.047 0.069,0.103 0.069,0.168 v 0.346 c 0.002,0.015 0.008,0.028 0.015,0.041 l 0.691,0.688 0.686,-0.689 c 0.007,-0.013 0.012,-0.026 0.015,-0.041 v -0.346 c 0,-0.064 0.022,-0.121 0.069,-0.167 0.046,-0.046 0.102,-0.069 0.167,-0.069 z" fill="#ffffff" gorn="0.3.5.1" />
            <path id="path763" d="m 111.238,23.373099 c 0.103,0.103 0.154,0.225 0.154,0.367 v 1.639 c 0,0.143 -0.05,0.265 -0.15,0.367 l -0.304,0.304 c -0.103,0.101 -0.225,0.15 -0.367,0.15 h -1.286 c -0.065,0 -0.121,-0.023 -0.167,-0.069 -0.047,-0.046 -0.069,-0.102 -0.069,-0.167 v -2.809 c 0,-0.065 0.022,-0.121 0.069,-0.167 0.046,-0.046 0.102,-0.069 0.167,-0.069 h 1.286 c 0.143,0 0.265,0.051 0.367,0.153 z m -0.331,2.046 c 0.009,-0.013 0.015,-0.026 0.017,-0.041 v -1.632 c 0,-0.015 -0.007,-0.028 -0.021,-0.041 l -0.295,-0.301 c -0.013,-0.01 -0.026,-0.017 -0.041,-0.021 h -1.049 v 2.352 h 1.052 c 0.016,-0.003 0.029,-0.01 0.042,-0.021 z" fill="#ffffff" gorn="0.3.5.2" />
        </g>
        <g id="RXD_1_" gorn="0.3.6" >
            <path id="path766" d="m 95.267,34.763 c 0,0.062 -0.023,0.117 -0.069,0.163 -0.047,0.046 -0.101,0.069 -0.163,0.069 -0.065,0 -0.121,-0.022 -0.169,-0.067 l -1.335,-1.339 h -0.139 v 1.17 c 0,0.065 -0.023,0.121 -0.069,0.167 -0.047,0.046 -0.101,0.069 -0.163,0.069 -0.065,0 -0.121,-0.023 -0.167,-0.069 -0.047,-0.046 -0.069,-0.102 -0.069,-0.167 V 31.95 c 0,-0.065 0.022,-0.121 0.069,-0.167 0.046,-0.046 0.102,-0.069 0.167,-0.069 h 1.286 c 0.143,0 0.265,0.05 0.367,0.15 l 0.304,0.304 c 0.101,0.103 0.15,0.225 0.15,0.367 v 0.232 c 0,0.143 -0.05,0.265 -0.15,0.367 l -0.304,0.304 c -0.103,0.101 -0.225,0.15 -0.367,0.15 h -0.255 l 1.009,1.005 c 0.045,0.049 0.067,0.105 0.067,0.17 z m -1.875,-1.642 h 1.05 c 0.015,-0.003 0.028,-0.009 0.041,-0.019 l 0.3,-0.297 c 0.008,-0.012 0.013,-0.025 0.016,-0.041 V 32.54 c -0.003,-0.016 -0.008,-0.029 -0.016,-0.041 l -0.3,-0.297 c -0.013,-0.01 -0.026,-0.016 -0.041,-0.019 h -1.05 z" fill="#ffffff" gorn="0.3.6.0" />
            <path id="path768" d="m 97.847,31.714 c 0.062,0 0.116,0.023 0.163,0.069 0.046,0.046 0.069,0.102 0.069,0.167 v 0.349 c 0,0.143 -0.05,0.265 -0.15,0.367 l -0.692,0.691 0.692,0.686 c 0.101,0.103 0.15,0.225 0.15,0.367 v 0.349 c 0,0.065 -0.023,0.121 -0.069,0.167 -0.047,0.046 -0.101,0.069 -0.163,0.069 -0.065,0 -0.121,-0.023 -0.167,-0.069 -0.047,-0.046 -0.069,-0.103 -0.069,-0.167 v -0.346 c -0.003,-0.015 -0.008,-0.028 -0.015,-0.041 l -0.686,-0.684 -0.691,0.685 c -0.007,0.012 -0.013,0.025 -0.015,0.041 v 0.345 c 0,0.065 -0.023,0.121 -0.069,0.167 -0.047,0.046 -0.101,0.069 -0.163,0.069 -0.065,0 -0.121,-0.023 -0.167,-0.069 -0.047,-0.046 -0.069,-0.102 -0.069,-0.167 V 34.41 c 0,-0.143 0.05,-0.265 0.15,-0.367 l 0.69,-0.688 -0.69,-0.688 c -0.101,-0.103 -0.15,-0.225 -0.15,-0.367 v -0.349 c 0,-0.065 0.022,-0.121 0.069,-0.167 0.046,-0.046 0.102,-0.069 0.167,-0.069 0.062,0 0.116,0.023 0.163,0.069 0.046,0.047 0.069,0.103 0.069,0.168 v 0.346 c 0.002,0.015 0.008,0.028 0.015,0.041 l 0.691,0.688 0.686,-0.689 c 0.007,-0.013 0.012,-0.026 0.015,-0.041 v -0.346 c 0,-0.064 0.022,-0.121 0.069,-0.167 0.046,-0.046 0.102,-0.07 0.167,-0.07 z" fill="#ffffff" gorn="0.3.6.1" />
            <path id="path770" d="m 100.738,32.168 c 0.103,0.103 0.154,0.225 0.154,0.367 v 1.639 c 0,0.143 -0.05,0.265 -0.15,0.367 l -0.304,0.304 c -0.103,0.101 -0.225,0.15 -0.367,0.15 h -1.286 c -0.065,0 -0.121,-0.023 -0.167,-0.069 -0.047,-0.046 -0.069,-0.102 -0.069,-0.167 V 31.95 c 0,-0.065 0.022,-0.121 0.069,-0.167 0.046,-0.046 0.102,-0.069 0.167,-0.069 h 1.286 c 0.143,0 0.265,0.051 0.367,0.153 z m -0.331,2.046 c 0.009,-0.013 0.015,-0.026 0.017,-0.041 v -1.632 c 0,-0.015 -0.007,-0.028 -0.021,-0.041 l -0.295,-0.301 c -0.013,-0.01 -0.026,-0.017 -0.041,-0.021 h -1.049 v 2.352 h 1.052 c 0.016,-0.003 0.029,-0.01 0.042,-0.021 z" fill="#ffffff" gorn="0.3.6.2" />
        </g>
        <g id="DTR" gorn="0.3.7" >
            <path id="path773" d="m 105.613,1.718 c 0.103,0.103 0.154,0.225 0.154,0.367 v 1.639 c 0,0.143 -0.05,0.265 -0.15,0.367 l -0.304,0.304 c -0.103,0.101 -0.225,0.15 -0.367,0.15 h -1.286 c -0.065,0 -0.121,-0.023 -0.167,-0.069 -0.047,-0.046 -0.069,-0.102 -0.069,-0.167 V 1.5 c 0,-0.065 0.022,-0.121 0.069,-0.167 0.046,-0.046 0.102,-0.069 0.167,-0.069 h 1.286 c 0.143,0 0.265,0.051 0.367,0.153 z m -0.331,2.046 c 0.009,-0.013 0.015,-0.026 0.017,-0.041 V 2.091 c 0,-0.015 -0.007,-0.028 -0.021,-0.041 l -0.295,-0.301 c -0.013,-0.01 -0.026,-0.017 -0.041,-0.021 h -1.049 V 4.08 h 1.052 c 0.016,-0.003 0.029,-0.01 0.042,-0.021 z" fill="#ffffff" gorn="0.3.7.0" />
            <path id="path775" d="m 108.347,1.264 c 0.062,0 0.116,0.023 0.163,0.068 0.046,0.046 0.069,0.102 0.069,0.166 0,0.062 -0.023,0.116 -0.069,0.162 -0.047,0.046 -0.101,0.068 -0.163,0.068 h -0.705 v 2.58 c 0,0.064 -0.023,0.121 -0.069,0.167 -0.047,0.046 -0.101,0.069 -0.163,0.069 -0.065,0 -0.121,-0.023 -0.167,-0.069 -0.047,-0.046 -0.069,-0.103 -0.069,-0.167 v -2.58 h -0.701 c -0.065,0 -0.121,-0.022 -0.167,-0.068 -0.047,-0.046 -0.069,-0.101 -0.069,-0.162 0,-0.064 0.022,-0.12 0.069,-0.166 0.046,-0.045 0.102,-0.068 0.167,-0.068 z" fill="#ffffff" gorn="0.3.7.1" />
            <path id="path777" d="m 111.392,4.312 c 0,0.062 -0.023,0.117 -0.069,0.163 -0.047,0.046 -0.101,0.069 -0.163,0.069 -0.065,0 -0.121,-0.022 -0.169,-0.067 l -1.335,-1.339 h -0.139 v 1.17 c 0,0.065 -0.023,0.121 -0.069,0.167 -0.047,0.046 -0.101,0.069 -0.163,0.069 -0.065,0 -0.121,-0.023 -0.167,-0.069 -0.047,-0.046 -0.069,-0.102 -0.069,-0.167 V 1.5 c 0,-0.065 0.022,-0.121 0.069,-0.167 0.046,-0.046 0.102,-0.069 0.167,-0.069 h 1.286 c 0.143,0 0.265,0.05 0.367,0.15 l 0.304,0.304 c 0.101,0.103 0.15,0.225 0.15,0.367 v 0.232 c 0,0.143 -0.05,0.265 -0.15,0.367 l -0.304,0.304 c -0.103,0.101 -0.225,0.15 -0.367,0.15 h -0.255 l 1.009,1.005 c 0.045,0.048 0.067,0.104 0.067,0.169 z M 109.517,2.67 h 1.05 c 0.015,-0.003 0.028,-0.009 0.041,-0.019 l 0.3,-0.297 c 0.008,-0.012 0.013,-0.025 0.016,-0.041 V 2.089 C 110.921,2.073 110.916,2.06 110.908,2.048 l -0.3,-0.297 c -0.013,-0.01 -0.026,-0.016 -0.041,-0.019 h -1.05 z" fill="#ffffff" gorn="0.3.7.2" />
        </g>
        <g id="POWER" gorn="0.3.8" >
            <path id="path780" d="m 64.296643,25.154638 c 0.085,-0.083 0.186,-0.124 0.304,-0.124 h 0.192 c 0.118,0 0.219,0.041 0.304,0.124 l 0.251,0.251 c 0.083,0.085 0.124,0.186 0.124,0.304 v 0.871 h 0.967 c 0.054,0 0.1,0.02 0.138,0.058 0.039,0.038 0.058,0.083 0.058,0.135 0,0.054 -0.019,0.1 -0.058,0.138 -0.038,0.038 -0.084,0.058 -0.138,0.058 h -2.322 c -0.054,0 -0.1,-0.02 -0.138,-0.058 -0.038,-0.038 -0.057,-0.084 -0.057,-0.138 v -1.063 c 0,-0.118 0.042,-0.219 0.124,-0.304 z m 0.493,0.264 h -0.187 c -0.012,0.002 -0.024,0.006 -0.034,0.012 l -0.248,0.248 c -0.007,0.011 -0.013,0.021 -0.015,0.034 v 0.868 h 0.781 v -0.868 c -0.002,-0.013 -0.008,-0.023 -0.015,-0.034 l -0.248,-0.248 c -0.01,-0.007 -0.022,-0.01 -0.034,-0.012 z" fill="#ffffff" gorn="0.3.8.0" />
            <path id="path782" d="m 64.045643,23.080638 0.251,-0.251 c 0.085,-0.083 0.186,-0.124 0.304,-0.124 h 1.355 c 0.117,0 0.219,0.041 0.304,0.124 l 0.251,0.251 c 0.082,0.085 0.124,0.186 0.124,0.304 v 0.58 c 0,0.117 -0.042,0.219 -0.124,0.304 l -0.252,0.25 c -0.085,0.083 -0.187,0.124 -0.304,0.124 h -1.355 c -0.118,0 -0.219,-0.041 -0.304,-0.124 l -0.25,-0.251 c -0.083,-0.085 -0.124,-0.187 -0.124,-0.304 v -0.58 c 0,-0.118 0.042,-0.218 0.124,-0.303 z m 1.908,0.012 h -1.35 c -0.012,0.002 -0.023,0.007 -0.034,0.016 l -0.249,0.244 c -0.007,0.011 -0.013,0.021 -0.015,0.034 v 0.574 c 0.002,0.013 0.008,0.023 0.015,0.034 l 0.248,0.248 c 0.01,0.006 0.021,0.01 0.034,0.012 h 1.349 c 0.013,-0.002 0.024,-0.006 0.034,-0.012 l 0.248,-0.248 c 0.008,-0.011 0.013,-0.022 0.016,-0.034 v -0.576 c -0.003,-0.013 -0.008,-0.024 -0.014,-0.034 l -0.247,-0.244 c -0.011,-0.008 -0.022,-0.012 -0.035,-0.014 z" fill="#ffffff" gorn="0.3.8.1" />
            <path id="path784" d="m 63.921643,20.572638 c 0,-0.052 0.019,-0.097 0.057,-0.135 0.039,-0.039 0.084,-0.058 0.138,-0.058 h 2.322 c 0.054,0 0.1,0.019 0.138,0.058 0.039,0.038 0.058,0.083 0.058,0.135 0,0.058 -0.021,0.105 -0.062,0.143 l -0.686,0.632 0.686,0.636 c 0.041,0.037 0.062,0.085 0.062,0.143 0,0.052 -0.019,0.097 -0.058,0.135 -0.038,0.036 -0.084,0.056 -0.138,0.056 h -2.322 c -0.054,0 -0.1,-0.02 -0.138,-0.058 -0.038,-0.038 -0.057,-0.084 -0.057,-0.138 0,-0.052 0.019,-0.097 0.057,-0.135 0.039,-0.038 0.084,-0.058 0.138,-0.058 h 1.892 l -0.475,-0.44 c -0.042,-0.038 -0.062,-0.085 -0.062,-0.144 0,-0.056 0.021,-0.103 0.061,-0.14 l 0.476,-0.437 h -1.891 c -0.054,0 -0.1,-0.02 -0.138,-0.058 -0.039,-0.037 -0.058,-0.083 -0.058,-0.137 z" fill="#ffffff" gorn="0.3.8.2" />
            <path id="path786" d="m 64.305643,18.248638 v 1.357 h 0.778 v -0.971 c 0,-0.051 0.019,-0.096 0.057,-0.135 0.038,-0.038 0.083,-0.057 0.134,-0.057 0.053,0 0.099,0.019 0.137,0.057 0.038,0.039 0.057,0.084 0.057,0.135 v 0.971 h 0.782 v -1.357 c 0,-0.052 0.019,-0.097 0.057,-0.135 0.037,-0.039 0.082,-0.058 0.133,-0.058 0.054,0 0.1,0.019 0.138,0.058 0.038,0.038 0.057,0.083 0.057,0.135 v 1.549 c 0,0.054 -0.019,0.1 -0.058,0.138 -0.038,0.038 -0.084,0.058 -0.138,0.058 h -2.322 c -0.054,0 -0.1,-0.02 -0.138,-0.058 -0.039,-0.038 -0.058,-0.084 -0.058,-0.138 v -1.55 c 0,-0.052 0.019,-0.097 0.057,-0.135 0.038,-0.039 0.083,-0.058 0.137,-0.058 0.051,0 0.096,0.019 0.134,0.058 0.037,0.039 0.056,0.084 0.056,0.136 z" fill="#ffffff" gorn="0.3.8.3" />
            <path id="path788" d="m 66.441643,15.730638 c 0.052,0 0.097,0.019 0.135,0.058 0.039,0.038 0.058,0.083 0.058,0.135 0,0.054 -0.019,0.1 -0.056,0.139 l -1.107,1.104 v 0.114 h 0.967 c 0.054,0 0.1,0.02 0.138,0.058 0.039,0.038 0.058,0.083 0.058,0.135 0,0.054 -0.019,0.1 -0.058,0.138 -0.038,0.038 -0.084,0.058 -0.138,0.058 h -2.322 c -0.054,0 -0.1,-0.02 -0.138,-0.058 -0.038,-0.038 -0.057,-0.084 -0.057,-0.138 v -1.064 c 0,-0.118 0.042,-0.219 0.124,-0.304 l 0.251,-0.251 c 0.085,-0.083 0.186,-0.124 0.304,-0.124 h 0.192 c 0.118,0 0.219,0.041 0.304,0.124 l 0.251,0.251 c 0.083,0.085 0.124,0.186 0.124,0.304 v 0.211 l 0.832,-0.834 c 0.038,-0.037 0.084,-0.056 0.138,-0.056 z m -1.357,1.55 v -0.868 c -0.002,-0.013 -0.007,-0.023 -0.016,-0.034 l -0.245,-0.248 c -0.01,-0.006 -0.021,-0.01 -0.034,-0.012 h -0.186 c -0.013,0.002 -0.024,0.006 -0.034,0.012 l -0.245,0.248 c -0.008,0.011 -0.013,0.021 -0.016,0.034 v 0.868 z" fill="#ffffff" gorn="0.3.8.4" />
        </g>
    </g>
    <g id="Components" gorn="0.4" >
        <g id="UART" gorn="0.4.0" >
            <g id="Legs" gorn="0.4.0.0" >
                <g id="g806" gorn="0.4.0.0.0" >
                    <line id="line792" y2="28.138" stroke="#cccccc" stroke-linecap="round" fill="none" x2="78.429001" x1="78.429001" stroke-width="1" gorn="0.4.0.0.0.0" y1="26.719999" />
                    <line id="line794" y2="28.138" stroke="#cccccc" stroke-linecap="round" fill="none" x2="79.857002" x1="79.857002" stroke-width="1" gorn="0.4.0.0.0.1" y1="26.719999" />
                    <line id="line796" y2="28.138" stroke="#cccccc" stroke-linecap="round" fill="none" x2="81.285004" x1="81.285004" stroke-width="1" gorn="0.4.0.0.0.2" y1="26.719999" />
                    <line id="line798" y2="28.138" stroke="#cccccc" stroke-linecap="round" fill="none" x2="82.709999" x1="82.709999" stroke-width="1" gorn="0.4.0.0.0.3" y1="26.719999" />
                    <line id="line800" y2="28.138" stroke="#cccccc" stroke-linecap="round" fill="none" x2="84.138" x1="84.138" stroke-width="1" gorn="0.4.0.0.0.4" y1="26.719999" />
                    <line id="line802" y2="28.138" stroke="#cccccc" stroke-linecap="round" fill="none" x2="85.566002" x1="85.566002" stroke-width="1" gorn="0.4.0.0.0.5" y1="26.719999" />
                    <line id="line804" y2="28.138" stroke="#cccccc" stroke-linecap="round" fill="none" x2="86.991997" x1="86.991997" stroke-width="1" gorn="0.4.0.0.0.6" y1="26.719999" />
                </g>
                <g id="g822" gorn="0.4.0.0.1" >
                    <line id="line808" y2="12.548" stroke="#cccccc" stroke-linecap="round" fill="none" x2="78.429001" x1="78.429001" stroke-width="1" gorn="0.4.0.0.1.0" y1="11.13" />
                    <line id="line810" y2="12.548" stroke="#cccccc" stroke-linecap="round" fill="none" x2="79.857002" x1="79.857002" stroke-width="1" gorn="0.4.0.0.1.1" y1="11.13" />
                    <line id="line812" y2="12.548" stroke="#cccccc" stroke-linecap="round" fill="none" x2="81.285004" x1="81.285004" stroke-width="1" gorn="0.4.0.0.1.2" y1="11.13" />
                    <line id="line814" y2="12.548" stroke="#cccccc" stroke-linecap="round" fill="none" x2="82.709999" x1="82.709999" stroke-width="1" gorn="0.4.0.0.1.3" y1="11.13" />
                    <line id="line816" y2="12.548" stroke="#cccccc" stroke-linecap="round" fill="none" x2="84.138" x1="84.138" stroke-width="1" gorn="0.4.0.0.1.4" y1="11.13" />
                    <line id="line818" y2="12.548" stroke="#cccccc" stroke-linecap="round" fill="none" x2="85.566002" x1="85.566002" stroke-width="1" gorn="0.4.0.0.1.5" y1="11.13" />
                    <line id="line820" y2="12.548" stroke="#cccccc" stroke-linecap="round" fill="none" x2="86.991997" x1="86.991997" stroke-width="1" gorn="0.4.0.0.1.6" y1="11.13" />
                </g>
                <g id="g838" gorn="0.4.0.0.2" >
                    <line id="line824" y2="23.916" stroke="#cccccc" stroke-linecap="round" fill="none" x2="91.214996" x1="89.796997" stroke-width="1" gorn="0.4.0.0.2.0" y1="23.916" />
                    <line id="line826" y2="22.489" stroke="#cccccc" stroke-linecap="round" fill="none" x2="91.214996" x1="89.796997" stroke-width="1" gorn="0.4.0.0.2.1" y1="22.489" />
                    <line id="line828" y2="21.061001" stroke="#cccccc" stroke-linecap="round" fill="none" x2="91.214996" x1="89.796997" stroke-width="1" gorn="0.4.0.0.2.2" y1="21.061001" />
                    <line id="line830" y2="19.634001" stroke="#cccccc" stroke-linecap="round" fill="none" x2="91.214996" x1="89.796997" stroke-width="1" gorn="0.4.0.0.2.3" y1="19.634001" />
                    <line id="line832" y2="18.208" stroke="#cccccc" stroke-linecap="round" fill="none" x2="91.214996" x1="89.796997" stroke-width="1" gorn="0.4.0.0.2.4" y1="18.208" />
                    <line id="line834" y2="16.780001" stroke="#cccccc" stroke-linecap="round" fill="none" x2="91.214996" x1="89.796997" stroke-width="1" gorn="0.4.0.0.2.5" y1="16.780001" />
                    <line id="line836" y2="15.353" stroke="#cccccc" stroke-linecap="round" fill="none" x2="91.214996" x1="89.796997" stroke-width="1" gorn="0.4.0.0.2.6" y1="15.353" />
                </g>
                <g id="g854" gorn="0.4.0.0.3" >
                    <line id="line840" y2="23.916" stroke="#cccccc" stroke-linecap="round" fill="none" x2="75.625" x1="74.207001" stroke-width="1" gorn="0.4.0.0.3.0" y1="23.916" />
                    <line id="line842" y2="22.489" stroke="#cccccc" stroke-linecap="round" fill="none" x2="75.625" x1="74.207001" stroke-width="1" gorn="0.4.0.0.3.1" y1="22.489" />
                    <line id="line844" y2="21.061001" stroke="#cccccc" stroke-linecap="round" fill="none" x2="75.625" x1="74.207001" stroke-width="1" gorn="0.4.0.0.3.2" y1="21.061001" />
                    <line id="line846" y2="19.634001" stroke="#cccccc" stroke-linecap="round" fill="none" x2="75.625" x1="74.207001" stroke-width="1" gorn="0.4.0.0.3.3" y1="19.634001" />
                    <line id="line848" y2="18.208" stroke="#cccccc" stroke-linecap="round" fill="none" x2="75.625" x1="74.207001" stroke-width="1" gorn="0.4.0.0.3.4" y1="18.208" />
                    <line id="line850" y2="16.780001" stroke="#cccccc" stroke-linecap="round" fill="none" x2="75.625" x1="74.207001" stroke-width="1" gorn="0.4.0.0.3.5" y1="16.780001" />
                    <line id="line852" y2="15.353" stroke="#cccccc" stroke-linecap="round" fill="none" x2="75.625" x1="74.207001" stroke-width="1" gorn="0.4.0.0.3.6" y1="15.353" />
                </g>
            </g>
            <path id="path857" d="m 89.797,26.58 c 0,0.078 -0.063,0.141 -0.142,0.141 h -13.89 c -0.078,0 -0.142,-0.062 -0.142,-0.141 V 12.69 c 0,-0.078 0.063,-0.142 0.142,-0.142 h 13.89 c 0.078,0 0.142,0.063 0.142,0.142 z" stroke="#8c8c8c" fill="none" stroke-width="0.5" gorn="0.4.0.1" />
            <path id="path859" d="m 89.797,26.58 c 0,0.078 -0.063,0.141 -0.142,0.141 h -13.89 c -0.078,0 -0.142,-0.062 -0.142,-0.141 V 12.69 c 0,-0.078 0.063,-0.142 0.142,-0.142 h 13.89 c 0.078,0 0.142,0.063 0.142,0.142 z" fill="#363d44" gorn="0.4.0.2" />
            <circle id="circle861" fill="#36434c" r="0.70899999" cx="77.583" gorn="0.4.0.3"  cy="14.465"/>
            <path id="path863" d="m 89.797,26.58 c 0,0.078 -0.063,0.141 -0.142,0.141 h -13.89 c -0.078,0 -0.142,-0.062 -0.142,-0.141" stroke="#141719" stroke-linecap="round" fill="none" stroke-width="0.25" gorn="0.4.0.4" />
            <line id="line865" y2="26.58" stroke="#4c4c4c" stroke-linecap="round" fill="none" x2="89.796997" x1="89.796997" stroke-width="0.25" gorn="0.4.0.5" y1="12.689" />
            <line id="line867" y2="12.689" stroke="#4c4c4c" stroke-linecap="round" fill="none" x2="75.625" x1="75.625" stroke-width="0.25" gorn="0.4.0.6" y1="26.58" />
            <path id="path869" d="m 75.625,12.689 c 0,-0.078 0.063,-0.142 0.142,-0.142 h 13.89 c 0.078,0 0.142,0.063 0.142,0.142" stroke="#666666" stroke-linecap="round" fill="none" stroke-width="0.25" gorn="0.4.0.7" />
        </g>
        <g id="g894" gorn="0.4.1" >
            <g id="g892" gorn="0.4.1.0" />
        </g>
        <g id="g918" gorn="0.4.2" >
            <g id="g916" gorn="0.4.2.0" />
        </g>
        <g id="g950" gorn="0.4.3" >
            <g id="g948" gorn="0.4.3.0" >
                <g id="g940" gorn="0.4.3.0.0" />
                <g transform="translate(65.1362,7.2524)" >
                    <g >
                        <g >
                            <g >
                                <g id="g946" gorn="0.4.3.0.1.0.0.0.0" >
                                    <g id="g944" gorn="0.4.3.0.1.0.0.0.0.0" />
                                </g>
                            </g>
                        </g>
                    </g>
                </g>
            </g>
        </g>
        <g id="g982" gorn="0.4.4" >
            <g id="g980" gorn="0.4.4.0" >
                <g id="g972" gorn="0.4.4.0.0" />
                <g transform="translate(65.1362,3.3257)" >
                    <g >
                        <g >
                            <g >
                                <g id="g978" gorn="0.4.4.0.1.0.0.0.0" >
                                    <g id="g976" gorn="0.4.4.0.1.0.0.0.0.0" />
                                </g>
                            </g>
                        </g>
                    </g>
                </g>
            </g>
        </g>
        <g id="g1014" gorn="0.4.5" >
            <g id="g1012" gorn="0.4.5.0" >
                <g id="g1004" gorn="0.4.5.0.0" />
                <g transform="translate(65.1104,21.4233)" >
                    <g >
                        <g >
                            <g >
                                <g id="g1010" gorn="0.4.5.0.1.0.0.0.0" >
                                    <g id="g1008" gorn="0.4.5.0.1.0.0.0.0.0" />
                                </g>
                            </g>
                        </g>
                    </g>
                </g>
            </g>
        </g>
        <g id="g1046" gorn="0.4.6" >
            <rect id="rect1016" x="92.917999" fill="#8c8c8c" height="2.2679999" y="22.73" gorn="0.4.6.0"  width="2.2690001"/>
            <rect id="rect1018" x="98.047997" fill="#8c8c8c" height="2.2679999" y="22.73" gorn="0.4.6.1"  width="2.27"/>
            <g id="g1044" gorn="0.4.6.2" >
                <g id="g1036" gorn="0.4.6.2.0" >
                    <path id="path1020" d="m 94.765,24.923 c -0.146,0 -0.268,-0.117 -0.268,-0.266 v -1.59 c 0,-0.146 0.121,-0.266 0.268,-0.266 h 3.709 c 0.146,0 0.266,0.119 0.266,0.266 v 1.59 c 0,0.148 -0.119,0.266 -0.266,0.266 z" fill="#dddddd" gorn="0.4.6.2.0.0" />
                    <path id="path1022" d="m 98.74,24.658 c 0,0.148 -0.119,0.266 -0.266,0.266 h -3.709 c -0.146,0 -0.268,-0.117 -0.268,-0.266" stroke="#666666" stroke-linecap="round" fill="none" stroke-width="0.15" gorn="0.4.6.2.0.1" stroke-linejoin="round" />
                    <line id="line1024" y2="23.068001" stroke="#a6a6a6" stroke-linecap="round" fill="none" x2="94.498001" x1="94.498001" stroke-width="0.15" gorn="0.4.6.2.0.2" stroke-linejoin="round" y1="24.658001" />
                    <line id="line1026" y2="24.658001" stroke="#a6a6a6" stroke-linecap="round" fill="none" x2="98.739998" x1="98.739998" stroke-width="0.15" gorn="0.4.6.2.0.3" stroke-linejoin="round" y1="23.068001" />
                    <path id="path1028" d="m 94.498,23.068 c 0,-0.146 0.121,-0.266 0.268,-0.266 h 3.709 c 0.146,0 0.266,0.119 0.266,0.266" stroke="#eeeeee" stroke-linecap="round" fill="none" stroke-width="0.15" gorn="0.4.6.2.0.4" stroke-linejoin="round" />
                    <rect id="rect1030" x="95.441002" fill="#3d3d3d" height="2.1210001" y="22.802" gorn="0.4.6.2.0.5"  width="2.3380001"/>
                    <line id="line1032" y2="22.802" stroke="#666666" fill="none" x2="95.441002" x1="97.778999" stroke-width="0.15" gorn="0.4.6.2.0.6" y1="22.802" />
                    <line id="line1034" y2="24.923" stroke="#121212" fill="none" x2="95.441002" x1="97.778999" stroke-width="0.15" gorn="0.4.6.2.0.7" y1="24.923" />
                </g>
                <g transform="translate(95.6929,24.1636)" >
                    <g >
                        <g >
                            <g >
                                <g id="g1042" gorn="0.4.6.2.1.0.0.0.0" >
                                    <g id="g1040" gorn="0.4.6.2.1.0.0.0.0.0" >
                                        <text font-family="OCRA" id="text1038" fill="#eeeeee" font-size="0.704" gorn="0.4.6.2.1.0.0.0.0.0.0" >102</text>
                                    </g>
                                </g>
                            </g>
                        </g>
                    </g>
                </g>
            </g>
        </g>
        <g id="g1078" gorn="0.4.7" >
            <rect id="rect1048" x="92.917999" fill="#8c8c8c" height="2.2679999" y="17.709" gorn="0.4.7.0"  width="2.2690001"/>
            <rect id="rect1050" x="98.047997" fill="#8c8c8c" height="2.2679999" y="17.709" gorn="0.4.7.1"  width="2.27"/>
            <g id="g1076" gorn="0.4.7.2" >
                <g id="g1068" gorn="0.4.7.2.0" >
                    <path id="path1052" d="m 94.765,19.902 c -0.146,0 -0.268,-0.117 -0.268,-0.266 v -1.59 c 0,-0.146 0.121,-0.266 0.268,-0.266 h 3.709 c 0.146,0 0.266,0.119 0.266,0.266 v 1.59 c 0,0.148 -0.119,0.266 -0.266,0.266 z" fill="#dddddd" gorn="0.4.7.2.0.0" />
                    <path id="path1054" d="m 98.74,19.637 c 0,0.148 -0.119,0.266 -0.266,0.266 h -3.709 c -0.146,0 -0.268,-0.117 -0.268,-0.266" stroke="#666666" stroke-linecap="round" fill="none" stroke-width="0.15" gorn="0.4.7.2.0.1" stroke-linejoin="round" />
                    <line id="line1056" y2="18.047001" stroke="#a6a6a6" stroke-linecap="round" fill="none" x2="94.498001" x1="94.498001" stroke-width="0.15" gorn="0.4.7.2.0.2" stroke-linejoin="round" y1="19.636999" />
                    <line id="line1058" y2="19.636999" stroke="#a6a6a6" stroke-linecap="round" fill="none" x2="98.739998" x1="98.739998" stroke-width="0.15" gorn="0.4.7.2.0.3" stroke-linejoin="round" y1="18.047001" />
                    <path id="path1060" d="m 94.498,18.047 c 0,-0.146 0.121,-0.266 0.268,-0.266 h 3.709 c 0.146,0 0.266,0.119 0.266,0.266" stroke="#eeeeee" stroke-linecap="round" fill="none" stroke-width="0.15" gorn="0.4.7.2.0.4" stroke-linejoin="round" />
                    <rect id="rect1062" x="95.441002" fill="#3d3d3d" height="2.1210001" y="17.781" gorn="0.4.7.2.0.5"  width="2.3380001"/>
                    <line id="line1064" y2="17.781" stroke="#666666" fill="none" x2="95.441002" x1="97.778999" stroke-width="0.15" gorn="0.4.7.2.0.6" y1="17.781" />
                    <line id="line1066" y2="19.902" stroke="#121212" fill="none" x2="95.441002" x1="97.778999" stroke-width="0.15" gorn="0.4.7.2.0.7" y1="19.902" />
                </g>
                <g transform="translate(95.6929,19.1411)" >
                    <g >
                        <g >
                            <g >
                                <g id="g1074" gorn="0.4.7.2.1.0.0.0.0" >
                                    <g id="g1072" gorn="0.4.7.2.1.0.0.0.0.0" >
                                        <text font-family="OCRA" id="text1070" fill="#eeeeee" font-size="0.704" gorn="0.4.7.2.1.0.0.0.0.0.0" >102</text>
                                    </g>
                                </g>
                            </g>
                        </g>
                    </g>
                </g>
            </g>
        </g>
        <g id="LED_1_" gorn="0.4.8" >
            <g id="g1108" gorn="0.4.8.0" >
                <g id="g1088" gorn="0.4.8.0.0" >
                    <g id="g1086" gorn="0.4.8.0.0.0" />
                </g>
                <g id="g1104" gorn="0.4.8.0.1" />
            </g>
        </g>
        <g id="LED_2_" gorn="0.4.9" >
            <rect id="rect1111" x="92.917999" fill="#8c8c8c" height="2.2679999" y="12.688" gorn="0.4.9.0"  width="2.2690001"/>
            <rect id="rect1113" x="98.047997" fill="#8c8c8c" height="2.2679999" y="12.688" gorn="0.4.9.1"  width="2.27"/>
            <g id="g1139" gorn="0.4.9.2" >
                <g id="g1119" gorn="0.4.9.2.0" >
                    <g id="g1117" gorn="0.4.9.2.0.0" >
                        <path id="path1115" d="m 98.227,13.814 c 0,-0.178 0.145,-0.322 0.322,-0.322 v -0.775 h -4.391 v 0.775 c 0.178,0 0.322,0.145 0.322,0.322 0,0.178 -0.145,0.323 -0.322,0.323 v 0.774 h 4.391 v -0.774 c -0.177,0 -0.322,-0.145 -0.322,-0.323 z" fill="#ffffff" gorn="0.4.9.2.0.0.0" />
                    </g>
                </g>
                <polyline id="polyline1121" fill="#74ff9c" gorn="0.4.9.2.1" points="97.565,13.039 97.565,12.716 98.549,12.716 97.565,13.039 97.565,13.039 " />
                <polyline id="polyline1123" fill="#74ff9c" gorn="0.4.9.2.2" points="97.565,14.588 97.565,14.911 98.549,14.911 97.565,14.588 97.565,14.588 " />
                <rect id="rect1125" stroke="#eeeeee" x="94.981003" fill="none" height="2.1960001" stroke-width="0.1" y="12.716" gorn="0.4.9.2.3"  width="2.7460001"/>
                <circle id="circle1127" stroke="#eeeeee" fill="#eeeeee" r="0.32300001" cx="96.353996" stroke-width="1" gorn="0.4.9.2.4"  cy="13.831"/>
                <rect id="rect1129" stroke="#eeeeee" x="95.142998" fill="#eeeeee" height="2.1960001" stroke-width="0.1" y="12.732" gorn="0.4.9.2.5"  width="2.4219999"/>
                <g id="g1135" gorn="0.4.9.2.6" >
                    <circle id="circle1131" stroke="#ababab" fill="#ababab" r="0.162" cx="96.353996" stroke-width="0.05" gorn="0.4.9.2.6.0"  cy="13.831"/>
                    <circle id="circle1133" fill="#eeeeee" r="0.079999998" cx="96.397003" gorn="0.4.9.2.6.1"  cy="13.872"/>
                </g>
                <rect id="rect1137" x="95.142998" fill="#e5e5e5" height="0.32300001" y="12.716" gorn="0.4.9.2.7"  width="2.4219999"/>
            </g>
        </g>
        <g id="LED_3_" gorn="0.4.10" >
            <rect id="rect1142" x="92.917999" fill="#8c8c8c" height="2.2679999" y="27.75" gorn="0.4.10.0"  width="2.2690001"/>
            <rect id="rect1144" x="98.047997" fill="#8c8c8c" height="2.2679999" y="27.75" gorn="0.4.10.1"  width="2.27"/>
            <g id="g1170" gorn="0.4.10.2" >
                <g id="g1150" gorn="0.4.10.2.0" >
                    <g id="g1148" gorn="0.4.10.2.0.0" >
                        <path id="path1146" d="m 98.227,28.876 c 0,-0.178 0.145,-0.322 0.322,-0.322 v -0.775 h -4.391 v 0.775 c 0.178,0 0.322,0.145 0.322,0.322 0,0.177 -0.145,0.322 -0.322,0.322 v 0.774 h 4.391 v -0.774 c -0.177,0.001 -0.322,-0.144 -0.322,-0.322 z" fill="#ffffff" gorn="0.4.10.2.0.0.0" />
                    </g>
                </g>
                <polyline id="polyline1152" fill="#74ff9c" gorn="0.4.10.2.1" points="97.565,28.101 97.565,27.779 98.549,27.779 97.565,28.101 97.565,28.101 " />
                <polyline id="polyline1154" fill="#74ff9c" gorn="0.4.10.2.2" points="97.565,29.651 97.565,29.973 98.549,29.973 97.565,29.651 97.565,29.651 " />
                <rect id="rect1156" stroke="#eeeeee" x="94.981003" fill="none" height="2.1949999" stroke-width="0.1" y="27.778999" gorn="0.4.10.2.3"  width="2.7460001"/>
                <circle id="circle1158" stroke="#eeeeee" fill="#eeeeee" r="0.32300001" cx="96.353996" stroke-width="1" gorn="0.4.10.2.4"  cy="28.893"/>
                <rect id="rect1160" stroke="#eeeeee" x="95.142998" fill="#eeeeee" height="2.1949999" stroke-width="0.1" y="27.794001" gorn="0.4.10.2.5"  width="2.4219999"/>
                <g id="g1166" gorn="0.4.10.2.6" >
                    <circle id="circle1162" stroke="#ababab" fill="#ababab" r="0.161" cx="96.353996" stroke-width="0.05" gorn="0.4.10.2.6.0"  cy="28.893"/>
                    <circle id="circle1164" fill="#eeeeee" r="0.081" cx="96.397003" gorn="0.4.10.2.6.1"  cy="28.934999"/>
                </g>
                <rect id="rect1168" x="95.142998" fill="#e5e5e5" height="0.322" y="27.778999" gorn="0.4.10.2.7"  width="2.4219999"/>
            </g>
        </g>
        <g id="C1" gorn="0.4.11" >
            <path id="path1173" d="m 72.425,33.289 c 0,0.067 -0.055,0.121 -0.119,0.121 h -2.598 c -0.064,0 -0.119,-0.054 -0.119,-0.121 v -3.16 c 0,-0.067 0.055,-0.121 0.119,-0.121 h 2.598 c 0.064,0 0.119,0.054 0.119,0.121 z" fill="#8c8c8c" gorn="0.4.11.0" />
            <g id="g1193" gorn="0.4.11.1" >
                <line id="line1183" y2="32.860001" stroke="#a6a6a6" stroke-linecap="round" fill="none" x2="70.475998" x1="70.475998" stroke-width="0.15" gorn="0.4.11.1.0" stroke-linejoin="round" y1="30.555" />
            </g>
        </g>
        <g id="g1222" gorn="0.4.12" >
            <path id="path1196" d="m 69.589,36.785 c 0,-0.067 0.055,-0.121 0.119,-0.121 h 2.598 c 0.064,0 0.119,0.054 0.119,0.121 v 3.16 c 0,0.067 -0.055,0.121 -0.119,0.121 h -2.598 c -0.064,0 -0.119,-0.054 -0.119,-0.121 z" fill="#8c8c8c" gorn="0.4.12.0" />
            <g id="g1220" gorn="0.4.12.1" >
                <line id="line1208" y2="39.923" stroke="#a6a6a6" fill="none" x2="70.504997" x1="70.504997" stroke-width="0.1" gorn="0.4.12.1.0" y1="36.806" />
                <g id="g1218" gorn="0.4.12.1.1" />
            </g>
        </g>
    </g>
    <g id="pins" gorn="0.5" >
        <g id="connector24pin_19_" gorn="0.5.0" >
            <g id="g1226" gorn="0.5.0.0" >
                <path id="connector9pin" d="m 114.539,0.541 c -1.37,0 -2.48,1.108 -2.48,2.48 0,1.37 1.11,2.48 2.48,2.48 1.37,0 2.48,-1.11 2.48,-2.48 0,-1.372 -1.11,-2.48 -2.48,-2.48 z m 0,3.896 c -0.783,0 -1.417,-0.633 -1.417,-1.417 0,-0.782 0.634,-1.417 1.417,-1.417 0.783,0 1.418,0.635 1.418,1.417 0,0.784 -0.635,1.417 -1.418,1.417 z" fill="#ababab" gorn="0.5.0.0.0" />
            </g>
        </g>
        <g id="connector24pin_11_" gorn="0.5.1" >
            <g id="g1231" gorn="0.5.1.0" >
                <path id="path1229" d="m 58.738,8.504 c -1.37,0 -2.48,1.108 -2.48,2.48 0,1.37 1.11,2.48 2.48,2.48 1.37,0 2.48,-1.11 2.48,-2.48 10e-4,-1.371 -1.11,-2.48 -2.48,-2.48 z m 0,3.896 c -0.783,0 -1.417,-0.633 -1.417,-1.417 0,-0.782 0.634,-1.417 1.417,-1.417 0.783,0 1.418,0.635 1.418,1.417 0,0.784 -0.635,1.417 -1.418,1.417 z" fill="#ababab" gorn="0.5.1.0.0" />
            </g>
        </g>
        <g id="connector24pin_12_" gorn="0.5.2" >
            <g id="g1236" gorn="0.5.2.0" >
                <path id="path1234" d="m 58.738,15.705 c -1.37,0 -2.48,1.108 -2.48,2.48 0,1.37 1.11,2.48 2.48,2.48 1.37,0 2.48,-1.11 2.48,-2.48 10e-4,-1.372 -1.11,-2.48 -2.48,-2.48 z m 0,3.895 c -0.783,0 -1.417,-0.633 -1.417,-1.417 0,-0.782 0.634,-1.417 1.417,-1.417 0.783,0 1.418,0.635 1.418,1.417 0,0.784 -0.635,1.417 -1.418,1.417 z" fill="#ababab" gorn="0.5.2.0.0" />
            </g>
        </g>
        <g id="connector24pin_13_" gorn="0.5.3" >
            <g id="g1241" gorn="0.5.3.0" >
                <path id="path1239" d="m 58.738,21.378 c -1.37,0 -2.48,1.109 -2.48,2.481 0,1.37 1.11,2.48 2.48,2.48 1.37,0 2.48,-1.11 2.48,-2.48 10e-4,-1.372 -1.11,-2.481 -2.48,-2.481 z m 0,3.896 c -0.783,0 -1.417,-0.633 -1.417,-1.417 0,-0.782 0.634,-1.417 1.417,-1.417 0.783,0 1.418,0.635 1.418,1.417 0,0.784 -0.635,1.417 -1.418,1.417 z" fill="#ababab" gorn="0.5.3.0.0" />
            </g>
        </g>
        <g id="connector24pin_14_" gorn="0.5.4" >
            <g id="g1246" gorn="0.5.4.0" >
                <path id="path1244" d="m 58.738,28.578 c -1.37,0 -2.48,1.108 -2.48,2.48 0,1.37 1.11,2.48 2.48,2.48 1.37,0 2.481,-1.11 2.481,-2.48 0,-1.372 -1.111,-2.48 -2.481,-2.48 z m 0,3.895 c -0.783,0 -1.417,-0.633 -1.417,-1.417 0,-0.782 0.634,-1.417 1.417,-1.417 0.783,0 1.418,0.635 1.418,1.417 10e-4,0.784 -0.635,1.417 -1.418,1.417 z" fill="#ababab" gorn="0.5.4.0.0" />
            </g>
        </g>
        <g id="connector24pin_15_" gorn="0.5.5" >
            <g id="g1250" gorn="0.5.5.0" >
                <path d="m 78.535,36.542 c -1.369,0 -2.48,1.108 -2.48,2.48 0,1.37 1.111,2.48 2.48,2.48 1.371,0 2.48,-1.11 2.48,-2.48 0,-1.372 -1.109,-2.48 -2.48,-2.48 z m 0,3.895 c -0.783,0 -1.416,-0.633 -1.416,-1.417 0,-0.782 0.633,-1.417 1.416,-1.417 0.783,0 1.418,0.635 1.418,1.417 0,0.784 -0.635,1.417 -1.418,1.417 z" fill="#ababab" />
            </g>
        </g>
        <g id="connector24pin_16_" gorn="0.5.6" >
            <g id="g1254" gorn="0.5.6.0" >
                <path d="m 85.734,36.542 c -1.37,0 -2.48,1.108 -2.48,2.48 0,1.37 1.11,2.48 2.48,2.48 1.37,0 2.48,-1.11 2.48,-2.48 0,-1.372 -1.11,-2.48 -2.48,-2.48 z m 0,3.895 c -0.783,0 -1.417,-0.633 -1.417,-1.417 0,-0.782 0.634,-1.417 1.417,-1.417 0.783,0 1.418,0.635 1.418,1.417 0,0.784 -0.635,1.417 -1.418,1.417 z" fill="#ababab" />
            </g>
        </g>
        <g id="connector24pin_17_" gorn="0.5.7" >
            <g id="g1258" gorn="0.5.7.0" >
                <path d="m 92.933,36.542 c -1.371,0 -2.48,1.108 -2.48,2.48 0,1.37 1.109,2.48 2.48,2.48 1.369,0 2.48,-1.11 2.48,-2.48 0.001,-1.372 -1.111,-2.48 -2.48,-2.48 z m 0,3.895 c -0.783,0 -1.418,-0.633 -1.418,-1.417 0,-0.782 0.635,-1.417 1.418,-1.417 0.783,0 1.418,0.635 1.418,1.417 0,0.784 -0.635,1.417 -1.418,1.417 z" fill="#ababab" />
            </g>
        </g>
        <g id="connector24pin_18_" gorn="0.5.8" >
            <g id="g1262" gorn="0.5.8.0" >
                <path d="m 100.136,36.542 c -1.37,0 -2.48,1.108 -2.48,2.48 0,1.37 1.11,2.48 2.48,2.48 1.37,0 2.48,-1.11 2.48,-2.48 0.001,-1.372 -1.11,-2.48 -2.48,-2.48 z m 0,3.895 c -0.783,0 -1.417,-0.633 -1.417,-1.417 0,-0.782 0.634,-1.417 1.417,-1.417 0.783,0 1.418,0.635 1.418,1.417 0,0.784 -0.635,1.417 -1.418,1.417 z" fill="#ababab" />
            </g>
        </g>
        <g id="connector24pin_9_" gorn="0.5.9" >
            <g id="g1266" gorn="0.5.9.0" >
                <path id="connector0pin" d="m 114.539,36.542 c -1.37,0 -2.48,1.108 -2.48,2.48 0,1.37 1.11,2.48 2.48,2.48 1.37,0 2.48,-1.11 2.48,-2.48 0,-1.372 -1.11,-2.48 -2.48,-2.48 z m 0,3.895 c -0.783,0 -1.417,-0.633 -1.417,-1.417 0,-0.782 0.634,-1.417 1.417,-1.417 0.783,0 1.418,0.635 1.418,1.417 0,0.784 -0.635,1.417 -1.418,1.417 z" fill="#ababab" gorn="0.5.9.0.0" style="fill:#ffcc00" />
            </g>
        </g>
        <g id="connector24pin_4_" gorn="0.5.10" >
            <g id="g1270" gorn="0.5.10.0" >
                <path id="connector4pin" d="m 114.539,7.741 c -1.37,0 -2.48,1.108 -2.48,2.48 0,1.37 1.11,2.48 2.48,2.48 1.37,0 2.48,-1.11 2.48,-2.48 0,-1.371 -1.11,-2.48 -2.48,-2.48 z m 0,3.896 c -0.783,0 -1.417,-0.633 -1.417,-1.417 0,-0.782 0.634,-1.417 1.417,-1.417 0.783,0 1.418,0.635 1.418,1.417 0,0.784 -0.635,1.417 -1.418,1.417 z" fill="#ababab" gorn="0.5.10.0.0" style="fill:#ffcc00" />
            </g>
        </g>
        <g id="connector24pin_1_" gorn="0.5.11" >
            <g id="g1274" gorn="0.5.11.0" >
                <path id="connector3pin" d="m 114.539,14.941 c -1.37,0 -2.48,1.108 -2.48,2.48 0,1.37 1.11,2.48 2.48,2.48 1.37,0 2.48,-1.11 2.48,-2.48 0,-1.371 -1.11,-2.48 -2.48,-2.48 z m 0,3.896 c -0.783,0 -1.417,-0.633 -1.417,-1.417 0,-0.782 0.634,-1.417 1.417,-1.417 0.783,0 1.418,0.635 1.418,1.417 0,0.784 -0.635,1.417 -1.418,1.417 z" fill="#ababab" gorn="0.5.11.0.0" style="fill:#ffcc00" />
            </g>
        </g>
        <g id="connector24pin_2_" gorn="0.5.12" >
            <g id="g1278" gorn="0.5.12.0" >
                <path id="connector2pin" d="m 114.539,22.141 c -1.37,0 -2.48,1.108 -2.48,2.48 0,1.37 1.11,2.48 2.48,2.48 1.37,0 2.48,-1.11 2.48,-2.48 0,-1.371 -1.11,-2.48 -2.48,-2.48 z m 0,3.896 c -0.783,0 -1.417,-0.633 -1.417,-1.417 0,-0.782 0.634,-1.417 1.417,-1.417 0.783,0 1.418,0.635 1.418,1.417 0,0.784 -0.635,1.417 -1.418,1.417 z" fill="#ababab" gorn="0.5.12.0.0" style="fill:#ffcc00" />
            </g>
        </g>
        <g id="connector24pin_3_" gorn="0.5.13" >
            <g id="g1282" gorn="0.5.13.0" >
                <path id="connector1pin" d="m 114.538,29.341 c -1.37,0 -2.48,1.108 -2.48,2.48 0,1.37 1.11,2.48 2.48,2.48 1.37,0 2.481,-1.11 2.481,-2.48 0,-1.371 -1.111,-2.48 -2.481,-2.48 z m 0,3.896 c -0.783,0 -1.417,-0.633 -1.417,-1.417 0,-0.782 0.634,-1.417 1.417,-1.417 0.783,0 1.419,0.635 1.419,1.417 0,0.784 -0.636,1.417 -1.419,1.417 z" fill="#ababab" gorn="0.5.13.0.0" style="fill:#ffcc00" />
            </g>
        </g>
        <g id="connector24pin_5_" gorn="0.5.14" >
            <g id="g1286" gorn="0.5.14.0" />
        </g>
        <g id="connector24pin_6_" gorn="0.5.15" >
            <g id="g1290" gorn="0.5.15.0" >
                <path id="connector12pin" d="m 85.734,0.541 c -1.37,0 -2.48,1.108 -2.48,2.48 0,1.37 1.11,2.48 2.48,2.48 1.37,0 2.48,-1.11 2.48,-2.48 0,-1.372 -1.11,-2.48 -2.48,-2.48 z m 0,3.896 c -0.783,0 -1.417,-0.633 -1.417,-1.417 0,-0.782 0.634,-1.417 1.417,-1.417 0.783,0 1.418,0.635 1.418,1.417 0,0.784 -0.635,1.417 -1.418,1.417 z" fill="#ababab" gorn="0.5.15.0.0" />
            </g>
        </g>
        <g id="connector24pin_7_" gorn="0.5.16" style="fill:#00ffff" >
            <g id="g1294" style="fill:#00ffff" gorn="0.5.16.0" >
                <path id="connector11pin" d="m 92.933,0.541 c -1.371,0 -2.48,1.108 -2.48,2.48 0,1.37 1.109,2.48 2.48,2.48 1.369,0 2.48,-1.11 2.48,-2.48 0.001,-1.372 -1.111,-2.48 -2.48,-2.48 z m 0,3.896 c -0.783,0 -1.418,-0.633 -1.418,-1.417 0,-0.782 0.635,-1.417 1.418,-1.417 0.783,0 1.418,0.635 1.418,1.417 0,0.784 -0.635,1.417 -1.418,1.417 z" fill="#ababab" gorn="0.5.16.0.0" style="fill:#00ffff" />
            </g>
        </g>
        <g id="connector24pin_8_" gorn="0.5.17" >
            <g id="g1298" gorn="0.5.17.0" >
                <path id="connector10pin" d="m 100.136,0.541 c -1.37,0 -2.48,1.108 -2.48,2.48 0,1.37 1.11,2.48 2.48,2.48 1.37,0 2.48,-1.11 2.48,-2.48 0.001,-1.372 -1.11,-2.48 -2.48,-2.48 z m 0,3.896 c -0.783,0 -1.417,-0.633 -1.417,-1.417 0,-0.782 0.634,-1.417 1.417,-1.417 0.783,0 1.418,0.635 1.418,1.417 0,0.784 -0.635,1.417 -1.418,1.417 z" fill="#ababab" gorn="0.5.17.0.0" />
            </g>
        </g>
    </g>
    <g id="USB_Pins" gorn="0.6" >
        <g id="g1316" gorn="0.6.0" >
            <path id="path1302" d="M58.264,32.192h-3.719c-0.391,0-0.708-0.317-0.708-0.708v-0.851c0-0.392,0.317-0.709,0.708-0.709h3.719" fill="#828282" gorn="0.6.0.0" />
            <path id="path1304" d="M58.264,29.924h0.816c0.392,0,0.708,0.317,0.708,0.709v0.851c0,0.391-0.317,0.708-0.708,0.708h-0.816" fill="#9B9B9B" gorn="0.6.0.1" />
            <path id="path1306" d="M58.264,32.192l0.448-0.209h0.871c-0.128,0.129-0.306,0.209-0.502,0.209H58.264z" fill="#666666" gorn="0.6.0.2" />
            <path id="path1308" d="M54.045,31.985c0.128,0.128,0.305,0.207,0.5,0.207h3.719l-0.448-0.207H54.045z" fill="#666666" gorn="0.6.0.3" />
            <path id="path1310" d="M58.264,29.924h0.816c0.195,0,0.372,0.079,0.5,0.208v0.001h-0.869L58.264,29.924z" fill="#666666" gorn="0.6.0.4" />
            <path id="path1312" d="M58.264,29.924l-0.448,0.209h-3.772v-0.001c0.128-0.129,0.305-0.208,0.501-0.208H58.264z" fill="#E5E5E5" gorn="0.6.0.5" />
            <polygon id="polygon1314" fill="#E5E5E5" gorn="0.6.0.6" points="58.711,31.983 58.264,32.192 57.815,31.983 57.815,30.133 58.264,29.924 58.711,30.133 " />
        </g>
        <g id="g1332" gorn="0.6.1" >
            <path id="path1318" d="M58.264,24.993h-3.719c-0.391,0-0.708-0.317-0.708-0.708v-0.851c0-0.392,0.317-0.709,0.708-0.709h3.719" fill="#828282" gorn="0.6.1.0" />
            <path id="path1320" d="M58.264,22.725h0.816c0.392,0,0.708,0.317,0.708,0.709v0.851c0,0.391-0.317,0.708-0.708,0.708h-0.816" fill="#9B9B9B" gorn="0.6.1.1" />
            <path id="path1322" d="M58.264,24.993l0.448-0.209h0.871c-0.128,0.129-0.306,0.209-0.502,0.209H58.264z" fill="#666666" gorn="0.6.1.2" />
            <path id="path1324" d="M54.045,24.786c0.128,0.128,0.305,0.207,0.5,0.207h3.719l-0.448-0.207H54.045z" fill="#666666" gorn="0.6.1.3" />
            <path id="path1326" d="M58.264,22.725h0.816c0.195,0,0.372,0.079,0.5,0.208v0.001h-0.869L58.264,22.725z" fill="#666666" gorn="0.6.1.4" />
            <path id="path1328" d="M58.264,22.725l-0.448,0.209h-3.772v-0.001c0.128-0.129,0.305-0.208,0.501-0.208H58.264z" fill="#E5E5E5" gorn="0.6.1.5" />
            <polygon id="polygon1330" fill="#E5E5E5" gorn="0.6.1.6" points="58.711,24.784 58.264,24.993 57.815,24.784 57.815,22.934 58.264,22.725 58.711,22.934 " />
        </g>
        <g id="g1348" gorn="0.6.2" >
            <path id="path1334" d="M58.264,19.319h-3.719c-0.391,0-0.708-0.317-0.708-0.708V17.76c0-0.392,0.317-0.709,0.708-0.709h3.719" fill="#828282" gorn="0.6.2.0" />
            <path id="path1336" d="M58.264,17.051h0.816c0.392,0,0.708,0.317,0.708,0.709v0.851c0,0.391-0.317,0.708-0.708,0.708h-0.816" fill="#9B9B9B" gorn="0.6.2.1" />
            <path id="path1338" d="M58.264,19.319l0.448-0.209h0.871c-0.128,0.129-0.306,0.209-0.502,0.209H58.264z" fill="#666666" gorn="0.6.2.2" />
            <path id="path1340" d="M54.045,19.112c0.128,0.128,0.305,0.207,0.5,0.207h3.719l-0.448-0.207H54.045z" fill="#666666" gorn="0.6.2.3" />
            <path id="path1342" d="M58.264,17.051h0.816c0.195,0,0.372,0.079,0.5,0.208v0.001h-0.869L58.264,17.051z" fill="#666666" gorn="0.6.2.4" />
            <path id="path1344" d="M58.264,17.051l-0.448,0.209h-3.772v-0.001c0.128-0.129,0.305-0.208,0.501-0.208H58.264z" fill="#E5E5E5" gorn="0.6.2.5" />
            <polygon id="polygon1346" fill="#E5E5E5" gorn="0.6.2.6" points="58.711,19.11 58.264,19.319 57.815,19.11 57.815,17.26 58.264,17.051 58.711,17.26 " />
        </g>
        <g id="g1364" gorn="0.6.3" >
            <path id="path1350" d="M58.264,12.119h-3.719c-0.391,0-0.708-0.317-0.708-0.708V10.56c0-0.392,0.317-0.709,0.708-0.709h3.719" fill="#828282" gorn="0.6.3.0" />
            <path id="path1352" d="M58.264,9.851h0.816c0.392,0,0.708,0.317,0.708,0.709v0.851c0,0.391-0.317,0.708-0.708,0.708h-0.816" fill="#9B9B9B" gorn="0.6.3.1" />
            <path id="path1354" d="M58.264,12.119l0.448-0.209h0.871c-0.128,0.129-0.306,0.209-0.502,0.209H58.264z" fill="#666666" gorn="0.6.3.2" />
            <path id="path1356" d="M54.045,11.912c0.128,0.128,0.305,0.207,0.5,0.207h3.719l-0.448-0.207H54.045z" fill="#666666" gorn="0.6.3.3" />
            <path id="path1358" d="M58.264,9.851h0.816c0.195,0,0.372,0.079,0.5,0.208v0.001h-0.869L58.264,9.851z" fill="#666666" gorn="0.6.3.4" />
            <path id="path1360" d="M58.264,9.851l-0.448,0.209h-3.772v-0.001c0.128-0.129,0.305-0.208,0.501-0.208H58.264z" fill="#E5E5E5" gorn="0.6.3.5" />
            <polygon id="polygon1362" fill="#E5E5E5" gorn="0.6.3.6" points="58.711,11.91 58.264,12.119 57.815,11.91 57.815,10.06 58.264,9.851 58.711,10.06 " />
        </g>
    </g>
    <g id="USB-A" gorn="0.7" >
        <g id="g1375" gorn="0.7.0" >
            <rect id="rect1367" x="-0.094" fill="#9AA5A8" height="32.5" y="5.091" gorn="0.7.0.0"  width="55.413"/>
            <line id="line1369" y2="5.091" stroke="#EAEAEA" fill="none" x2="55.319" x1="-0.094" stroke-width="1.5" gorn="0.7.0.1" y1="5.091" />
            <line id="line1371" y2="37.591" stroke="#686868" fill="none" x2="55.319" x1="-0.094" stroke-width="1.5" gorn="0.7.0.2" y1="37.591" />
            <line id="line1373" y2="5.091" stroke="#EAEAEA" stroke-linecap="round" fill="none" x2="0" x1="0" stroke-width="0.25" gorn="0.7.0.3" y1="36.924" />
        </g>
        <g id="g1389" gorn="0.7.1" >
            <path id="path1377" d="M21.376,11.747c0-3.19-0.274-3.033-0.274-3.033c0-0.156-0.134-0.282-0.299-0.282c0,0-1.012-0.34-2.845-0.34s-2.8,0.34-2.8,0.34c-0.165,0-0.299,0.126-0.299,0.282c0,0-0.319,0-0.319,3.033s0.092,2.956,0.245,3.108c0.246,0.246,0.099,0.903,3.173,0.903c3.074,0,3.103-0.572,3.269-0.853C21.376,14.653,21.376,14.653,21.376,11.747z" fill="#EAEAEA" gorn="0.7.1.0" />
            <path id="path1379" d="M20.834,8.697c0-0.146-0.122-0.266-0.271-0.266h-5.126c-0.15,0-0.271,0.119-0.271,0.266v5.705c0,0.146,0.122,0.266,0.271,0.266h5.126c0.15,0,0.271-0.119,0.271-0.266V8.697z" fill="#A3B5BF" gorn="0.7.1.1" />
            <g id="g1387" gorn="0.7.1.2" >
                <rect id="rect1381" x="15.166" fill="#3F3F3F" height="3.417" y="9.566" gorn="0.7.1.2.0"  width="5.669"/>
                <rect id="rect1383" x="15.166" fill="#7F7F7F" height="0.458" y="11.733" gorn="0.7.1.2.1"  width="5.669"/>
                <rect id="rect1385" x="15.166" fill="#BFBFBF" height="0.708" y="10.17" gorn="0.7.1.2.2"  width="5.669"/>
            </g>
        </g>
        <g id="g1403" gorn="0.7.2" >
            <path id="path1391" d="M21.334,29.207c0-3.19-0.274-3.033-0.274-3.033c0-0.156-0.134-0.283-0.299-0.283c0,0-1.012-0.34-2.845-0.34s-2.8,0.34-2.8,0.34c-0.165,0-0.299,0.127-0.299,0.283c0,0-0.319,0-0.319,3.033s0.092,2.955,0.245,3.107c0.246,0.246,0.099,0.903,3.173,0.903c3.074,0,3.103-0.571,3.269-0.853C21.334,32.113,21.334,32.113,21.334,29.207z" fill="#EAEAEA" gorn="0.7.2.0" />
            <path id="path1393" d="M20.793,26.156c0-0.146-0.122-0.266-0.271-0.266h-5.126c-0.15,0-0.271,0.119-0.271,0.266v5.705c0,0.146,0.122,0.266,0.271,0.266h5.126c0.15,0,0.271-0.119,0.271-0.266V26.156z" fill="#A3B5BF" gorn="0.7.2.1" />
            <g id="g1401" gorn="0.7.2.2" >
                <rect id="rect1395" x="15.124" fill="#3F3F3F" height="3.416" y="27.576" gorn="0.7.2.2.0"  width="5.669"/>
                <rect id="rect1397" x="15.124" fill="#7F7F7F" height="0.459" y="29.742" gorn="0.7.2.2.1"  width="5.669"/>
                <rect id="rect1399" x="15.124" fill="#BFBFBF" height="0.709" y="28.179" gorn="0.7.2.2.2"  width="5.669"/>
            </g>
        </g>
        <circle id="circle1405" fill="#CCCCCC" r="2.25" cx="50.021" gorn="0.7.3"  cy="20.966"/>
        <path id="path1407" d="M51.802,21.843c-0.324,0.656-1,1.107-1.781,1.107c-0.783,0-1.461-0.454-1.783-1.113" stroke="#F2F2F2" stroke-linecap="round" fill="none" stroke-width="0.5" gorn="0.7.4" />
    </g>
    <rect id="rect2777" x="75.974907" fill="#0000ff" height="4.3844852" style="fill-rule:evenodd;" y="0.89059854" stroke-width="0.75" gorn="0.8"  width="5.4806066"/>
    <rect id="rect2886" x="80.222382" fill="#0000ff" height="5.9601598" style="fill-rule:evenodd;" y="0.27403033" stroke-width="0.75" gorn="0.9"  width="36.857082"/>
    <rect id="rect2990" x="92.937004" fill="#000000" height="2.7079999" style="fill-rule:evenodd;" y="4.5809999" stroke-width="0.75" gorn="0.10"  width="2.098"/>
    <rect id="rect3096" x="92.937004" fill="#00ffff" height="2.7079997" style="fill-rule:evenodd;" y="4.5809999" stroke-width="0.75" gorn="0.11"  width="4.0893556e-06"/>
    <rect id="rect3098" x="92.937004" fill="#000000" height="1.487732e-07" style="fill-rule:evenodd;" y="4.5809999" stroke-width="0.75" gorn="0.12"  width="2.0980036"/>
    <rect id="rect3100" x="92.937004" fill="#00ffff" height="2.7079997" style="fill-rule:evenodd;" y="4.5809999" stroke-width="0.75" gorn="0.13"  width="7.199996"/>
    <rect id="rect3208" x="92.917999" fill="#0000ff" height="12.707946" style="fill-rule:evenodd;" y="5.0010538" stroke-width="0.75" gorn="0.14"  width="9.2953138"/>
    <rect id="rect3210" x="91.958893" fill="#0000ff" height="17.914944" style="fill-rule:evenodd;" y="17.229446" stroke-width="0.75" gorn="0.15"  width="9.2268057"/>
    <rect id="rect3212" x="74.878784" fill="#0000ff" height="5.6176214" style="fill-rule:evenodd;" y="35.897976" stroke-width="0.75" gorn="0.16"  width="27.882586"/>
    <rect id="rect1799" x="92.932999" fill="#0000ff" height="0.14399984" style="fill-rule:evenodd;" y="4.4369998" stroke-width="0.75" gorn="0.17"  width="7.2040009"/>
    <rect id="rect1921" x="91.265053" fill="#0000ff" height="5.0379863" style="fill-rule:evenodd;" y="2.9065304" stroke-width="0.75" gorn="0.18"  width="11.916775"/>
    <g id="text12616" stroke="none" fill="#000000" font-size="24" fill-opacity="1" style="font-style:normal;font-weight:normal;line-height:1.25;font-family:Droid Sans;" stroke-width="0.75" gorn="0.19" xmlns:xml="http://www.w3.org/XML/1998/namespace"  xml:space="preserve"/>
    <text id="text18684" stroke="none" x="64.428093" fill="#000000" font-size="8" fill-opacity="1" style="font-style:normal;font-variant:normal;font-weight:500;font-stretch:normal;line-height:1.25;font-family:OCRA;-inkscape-font-specification:'OCRA Medium';white-space:pre;inline-size:0.0968843;" y="5.7161765" stroke-width="0.75" gorn="0.20" xmlns:xml="http://www.w3.org/XML/1998/namespace"  xml:space="preserve"/>
    <g id="text28984" fill="#808000" font-size="3.2" style="font-weight:bold;line-height:1.25;font-family:Droid Sans;-inkscape-font-specification:'Droid Sans Bold';" stroke-width="0.75" gorn="0.21" xmlns:xml="http://www.w3.org/XML/1998/namespace"  xml:space="preserve">
        <text id="tspan28982" x="64.621857" fill="#808000" font-size="3.2" y="7.5569787" stroke-width="0.75" gorn="0.21.0" >PL2303  USB-UART</text>
    </g>
    <g id="text44532" fill="#808000" font-size="3.2" style="font-weight:bold;line-height:1.25;font-family:OCRA;-inkscape-font-specification:'OCRA Bold';" stroke-width="0.75" gorn="0.22" xmlns:xml="http://www.w3.org/XML/1998/namespace"  xml:space="preserve">
        <text id="tspan44530" x="73.922768" fill="#808000" font-size="3.2" y="36.622284" stroke-width="0.75" gorn="0.22.0" >usb to ttl</text>
    </g>
</svg>
