<?xml version='1.0' encoding='UTF-8' standalone='no'?>
<!DOCTYPE
  svg>
<!-- Generator: Adobe Illustrator 13.0.1, SVG Export Plug-In . SVG Version: 6.00 Build 14948)  -->
  <svg
  xmlns="http://www.w3.org/2000/svg"
  viewBox="0 0 117.833 41.902"
  height="0.581972in"
  width="1.63657in"
  id="breadboard_1_"
  version="1.1"
  x="0px"
  y="0px"
  enable-background="new 0 0 117.833 41.902"
  gorn="0"
  xml:space="preserve">
  <desc>
    <referenceFile>USB-TTL_UART_breadboard.svg</referenceFile>
  </desc>
  <g
    id="PCB"
    gorn="0.1">
    <g
      id="pcb_1_"
      gorn="0.1.0">
      <rect
        fill="none"
        height="42.043"
        width="72.907"
        stroke-width="0.5"
        stroke-linejoin="round"
        x="45.068"
        stroke="#8C8C8C"
      />
      <g>
        <g>
          <path
            d="M45.208,0.142v41.76h72.625V0.142H45.208z M114.537,1.462c0.862,0,1.561,0.697,1.561,1.559s-0.698,1.561-1.561,1.561c-0.86,0-1.557-0.699-1.557-1.561S113.676,1.462,114.537,1.462z M114.539,8.662c0.86,0,1.559,0.697,1.559,1.559s-0.698,1.561-1.559,1.561c-0.862,0-1.559-0.699-1.559-1.561S113.676,8.662,114.539,8.662z M114.537,15.862c0.862,0,1.561,0.697,1.561,1.559s-0.698,1.561-1.561,1.561c-0.86,0-1.557-0.699-1.557-1.561S113.676,15.862,114.537,15.862z M114.538,23.062c0.861,0,1.56,0.697,1.56,1.559s-0.698,1.561-1.56,1.561s-1.558-0.699-1.558-1.561S113.676,23.062,114.538,23.062z M114.537,30.262c0.862,0,1.561,0.697,1.561,1.559s-0.698,1.561-1.561,1.561c-0.86,0-1.558-0.699-1.558-1.561S113.676,30.262,114.537,30.262z M58.738,32.618c-0.862,0-1.559-0.698-1.559-1.56s0.696-1.559,1.559-1.559c0.86,0,1.559,0.697,1.559,1.559S59.599,32.618,58.738,32.618z M58.736,25.416c-0.86,0-1.557-0.698-1.557-1.56s0.696-1.559,1.557-1.559c0.862,0,1.561,0.697,1.561,1.559S59.599,25.416,58.736,25.416z M58.737,19.746c-0.861,0-1.558-0.698-1.558-1.56s0.696-1.559,1.558-1.559s1.56,0.697,1.56,1.559S59.599,19.746,58.737,19.746z M58.737,12.544c-0.86,0-1.558-0.698-1.558-1.56s0.697-1.559,1.558-1.559c0.862,0,1.561,0.697,1.561,1.559S59.599,12.544,58.737,12.544z M78.534,40.582c-0.86,0-1.558-0.699-1.558-1.561s0.697-1.559,1.558-1.559c0.861,0,1.561,0.697,1.561,1.559S79.395,40.582,78.534,40.582z M78.534,4.581c-0.86,0-1.558-0.698-1.558-1.56s0.697-1.559,1.558-1.559c0.861,0,1.561,0.697,1.561,1.559S79.395,4.581,78.534,4.581z M85.735,40.582c-0.862,0-1.56-0.699-1.56-1.561s0.697-1.559,1.56-1.559c0.86,0,1.558,0.697,1.558,1.559S86.595,40.582,85.735,40.582z M85.74,4.581c-0.862,0-1.56-0.698-1.56-1.56s0.697-1.559,1.56-1.559c0.86,0,1.558,0.697,1.558,1.559S86.6,4.581,85.74,4.581z M92.931,40.582c-0.86,0-1.558-0.699-1.558-1.561s0.697-1.559,1.558-1.559c0.861,0,1.561,0.697,1.561,1.559S93.792,40.582,92.931,40.582z M92.937,4.581c-0.86,0-1.558-0.698-1.558-1.56s0.697-1.559,1.558-1.559c0.861,0,1.561,0.697,1.561,1.559S93.798,4.581,92.937,4.581z M100.137,40.582c-0.861,0-1.561-0.699-1.561-1.561s0.699-1.559,1.561-1.559c0.859,0,1.559,0.697,1.559,1.559S100.997,40.582,100.137,40.582z M100.137,4.581c-0.861,0-1.561-0.698-1.561-1.56s0.699-1.559,1.561-1.559c0.859,0,1.559,0.697,1.559,1.559S100.997,4.581,100.137,4.581z M114.54,40.582c-0.861,0-1.561-0.699-1.561-1.561s0.699-1.559,1.561-1.559c0.859,0,1.559,0.697,1.559,1.559S115.399,40.582,114.54,40.582z"
          />
        </g>
      </g>
    </g>
  </g>
  <g
    id="Text"
    gorn="0.2">
    <g
      id="_x33_V3"
      gorn="0.2.0">
      <path
        fill="#FFFFFF"
        d="M105.767,38.318c0,0.143-0.05,0.265-0.15,0.367l-0.221,0.222l0.221,0.218c0.101,0.103,0.15,0.225,0.15,0.367v0.232c0,0.143-0.05,0.265-0.15,0.367l-0.304,0.304c-0.103,0.101-0.225,0.15-0.367,0.15h-0.701c-0.143,0-0.266-0.05-0.368-0.15l-0.386-0.386c-0.045-0.048-0.067-0.104-0.067-0.169c0-0.062,0.022-0.117,0.068-0.163c0.047-0.046,0.102-0.069,0.166-0.069c0.062,0,0.117,0.023,0.164,0.069l0.383,0.383c0.013,0.011,0.026,0.018,0.041,0.021h0.696c0.015-0.003,0.028-0.011,0.041-0.023l0.301-0.295c0.007-0.013,0.012-0.026,0.015-0.041v-0.226c-0.003-0.016-0.008-0.029-0.015-0.042l-0.301-0.295c-0.013-0.011-0.026-0.017-0.041-0.02h-0.813c-0.065,0-0.121-0.022-0.167-0.068c-0.047-0.046-0.069-0.101-0.069-0.162c0-0.064,0.023-0.12,0.069-0.166c0.047-0.046,0.103-0.068,0.167-0.068h0.816c0.015-0.003,0.029-0.008,0.041-0.016l0.296-0.301c0.009-0.013,0.015-0.027,0.017-0.042v-0.229c-0.002-0.015-0.006-0.028-0.012-0.042l-0.301-0.295c-0.013-0.011-0.026-0.018-0.042-0.021h-0.698c-0.015,0.003-0.028,0.01-0.041,0.021l-0.383,0.382c-0.047,0.047-0.102,0.07-0.164,0.07c-0.064,0-0.119-0.023-0.166-0.069c-0.046-0.046-0.068-0.101-0.068-0.163c0-0.065,0.022-0.121,0.067-0.169l0.386-0.386c0.103-0.101,0.226-0.15,0.368-0.15h0.701c0.143,0,0.265,0.05,0.367,0.15l0.304,0.304c0.101,0.103,0.15,0.225,0.15,0.367V38.318z"
      />
      <path
        fill="#FFFFFF"
        d="M108.343,37.264c0.064,0,0.12,0.023,0.167,0.069c0.046,0.046,0.069,0.102,0.069,0.167v1.755c0,0.143-0.05,0.265-0.15,0.367l-0.854,0.855c-0.048,0.045-0.104,0.067-0.169,0.067c-0.062,0-0.117-0.022-0.165-0.067l-0.855-0.855c-0.1-0.103-0.149-0.225-0.149-0.367V37.5c0-0.065,0.022-0.121,0.069-0.167c0.046-0.046,0.101-0.069,0.163-0.069c0.064,0,0.12,0.023,0.167,0.069c0.046,0.047,0.069,0.103,0.069,0.167v1.753c0.002,0.016,0.008,0.029,0.017,0.042l0.687,0.687l0.687-0.687c0.009-0.013,0.015-0.026,0.017-0.042V37.5c0-0.064,0.022-0.12,0.069-0.167C108.226,37.288,108.281,37.264,108.343,37.264z"
      />
      <path
        fill="#FFFFFF"
        d="M111.392,38.318c0,0.143-0.05,0.265-0.15,0.367l-0.221,0.222l0.221,0.218c0.101,0.103,0.15,0.225,0.15,0.367v0.232c0,0.143-0.05,0.265-0.15,0.367l-0.304,0.304c-0.103,0.101-0.225,0.15-0.367,0.15h-0.701c-0.143,0-0.266-0.05-0.368-0.15l-0.386-0.386c-0.045-0.048-0.067-0.104-0.067-0.169c0-0.062,0.022-0.117,0.068-0.163c0.047-0.046,0.102-0.069,0.166-0.069c0.062,0,0.117,0.023,0.164,0.069l0.383,0.383c0.013,0.011,0.026,0.018,0.041,0.021h0.696c0.015-0.003,0.028-0.011,0.041-0.023l0.301-0.295c0.007-0.013,0.012-0.026,0.015-0.041v-0.226c-0.003-0.016-0.008-0.029-0.015-0.042l-0.301-0.295c-0.013-0.011-0.026-0.017-0.041-0.02h-0.813c-0.065,0-0.121-0.022-0.167-0.068c-0.047-0.046-0.069-0.101-0.069-0.162c0-0.064,0.023-0.12,0.069-0.166c0.047-0.046,0.103-0.068,0.167-0.068h0.816c0.015-0.003,0.029-0.008,0.041-0.016l0.296-0.301c0.009-0.013,0.015-0.027,0.017-0.042v-0.229c-0.002-0.015-0.006-0.028-0.012-0.042l-0.301-0.295c-0.013-0.011-0.026-0.018-0.042-0.021h-0.698c-0.015,0.003-0.028,0.01-0.041,0.021l-0.383,0.382c-0.047,0.047-0.102,0.07-0.164,0.07c-0.064,0-0.119-0.023-0.166-0.069c-0.046-0.046-0.068-0.101-0.068-0.163c0-0.065,0.022-0.121,0.067-0.169l0.386-0.386c0.103-0.101,0.226-0.15,0.368-0.15h0.701c0.143,0,0.265,0.05,0.367,0.15l0.304,0.304c0.101,0.103,0.15,0.225,0.15,0.367V38.318z"
      />
    </g>
    <g
      id="GND"
      gorn="0.2.1">
      <path
        fill="#FFFFFF"
        d="M103.907,30.847c-0.008,0.013-0.013,0.026-0.015,0.041v1.633c0.002,0.015,0.007,0.028,0.015,0.041l0.3,0.3c0.013,0.009,0.026,0.016,0.041,0.019h0.694c0.016-0.003,0.029-0.01,0.042-0.019l0.3-0.3c0.007-0.013,0.012-0.026,0.015-0.041v-0.582h-0.232c-0.065,0-0.121-0.022-0.167-0.068c-0.047-0.046-0.069-0.102-0.069-0.166c0-0.062,0.022-0.116,0.069-0.162c0.046-0.046,0.102-0.068,0.167-0.068h0.469c0.062,0,0.116,0.022,0.163,0.069c0.046,0.046,0.069,0.102,0.069,0.166v0.815c0,0.143-0.05,0.265-0.15,0.366l-0.304,0.304c-0.103,0.101-0.225,0.15-0.367,0.15h-0.701c-0.143,0-0.266-0.05-0.368-0.15l-0.304-0.304c-0.1-0.103-0.149-0.225-0.149-0.367v-1.639c0-0.143,0.05-0.265,0.149-0.367l0.304-0.304c0.103-0.101,0.226-0.15,0.368-0.15h0.701c0.143,0,0.265,0.05,0.367,0.15L105.7,30.6c0.045,0.048,0.067,0.104,0.067,0.169c0,0.062-0.023,0.117-0.069,0.163c-0.047,0.046-0.103,0.069-0.167,0.069c-0.062,0-0.118-0.022-0.165-0.067l-0.382-0.387c-0.013-0.009-0.026-0.016-0.042-0.019h-0.694c-0.015,0.003-0.028,0.01-0.041,0.019L103.907,30.847z"
      />
      <path
        fill="#FFFFFF"
        d="M108.347,30.064c0.064,0,0.12,0.023,0.165,0.069s0.067,0.102,0.067,0.167v2.812c0,0.062-0.022,0.117-0.067,0.163s-0.101,0.069-0.165,0.069c-0.065,0-0.121-0.023-0.167-0.069c-0.047-0.047-0.069-0.101-0.069-0.163v-0.846l-1.406-1.404v2.25c0,0.062-0.022,0.117-0.067,0.163s-0.101,0.069-0.165,0.069c-0.065,0-0.121-0.023-0.167-0.069c-0.047-0.046-0.069-0.101-0.069-0.163V30.3c0-0.065,0.022-0.121,0.069-0.167c0.046-0.046,0.102-0.069,0.167-0.069c0.064,0,0.12,0.022,0.165,0.067l1.474,1.478V30.3c0-0.065,0.022-0.121,0.069-0.167C108.226,30.087,108.282,30.064,108.347,30.064z"
      />
      <path
        fill="#FFFFFF"
        d="M111.238,30.518c0.103,0.103,0.154,0.225,0.154,0.367v1.639c0,0.143-0.05,0.265-0.15,0.367l-0.304,0.304c-0.103,0.101-0.225,0.15-0.367,0.15h-1.286c-0.065,0-0.121-0.023-0.167-0.069c-0.047-0.046-0.069-0.102-0.069-0.167V30.3c0-0.065,0.022-0.121,0.069-0.167c0.046-0.046,0.102-0.069,0.167-0.069h1.286c0.143,0,0.265,0.051,0.367,0.153L111.238,30.518z M110.907,32.564c0.009-0.013,0.015-0.026,0.017-0.041v-1.632c0-0.015-0.007-0.028-0.021-0.041l-0.295-0.301c-0.013-0.01-0.026-0.017-0.041-0.021h-1.049v2.352h1.052c0.016-0.003,0.029-0.01,0.042-0.021L110.907,32.564z"
      />
    </g>
    <g
      id="_x2B_5V"
      gorn="0.2.2">
      <path
        fill="#FFFFFF"
        d="M105.441,24.274c0.062,0,0.116,0.022,0.163,0.068c0.046,0.046,0.069,0.102,0.069,0.166c0,0.062-0.023,0.116-0.069,0.162c-0.047,0.046-0.101,0.068-0.163,0.068h-0.236v0.232c0,0.065-0.023,0.121-0.069,0.167c-0.047,0.046-0.101,0.069-0.163,0.069c-0.065,0-0.121-0.023-0.167-0.069c-0.047-0.046-0.069-0.102-0.069-0.167v-0.232h-0.232c-0.065,0-0.121-0.022-0.167-0.068c-0.047-0.046-0.069-0.102-0.069-0.166c0-0.062,0.022-0.116,0.069-0.162c0.046-0.046,0.102-0.068,0.167-0.068h0.232V24.04c0-0.065,0.022-0.122,0.069-0.168c0.046-0.047,0.102-0.07,0.167-0.07c0.062,0,0.116,0.023,0.163,0.07c0.046,0.046,0.069,0.103,0.069,0.168v0.234H105.441z"
      />
      <path
        fill="#FFFFFF"
        d="M106.495,22.864h1.755c0.064,0,0.12,0.023,0.167,0.068c0.046,0.046,0.069,0.102,0.069,0.166c0,0.062-0.023,0.116-0.069,0.162c-0.047,0.046-0.103,0.068-0.167,0.068h-1.639v0.473h1.054c0.143,0,0.265,0.05,0.367,0.15l0.304,0.304c0.101,0.103,0.15,0.225,0.15,0.367v0.701c0,0.143-0.05,0.265-0.15,0.367l-0.304,0.304c-0.103,0.101-0.225,0.15-0.367,0.15h-0.701c-0.143,0-0.266-0.05-0.368-0.15l-0.386-0.386c-0.045-0.048-0.067-0.104-0.067-0.169c0-0.062,0.022-0.117,0.068-0.163c0.047-0.046,0.102-0.069,0.166-0.069c0.062,0,0.117,0.023,0.164,0.069l0.383,0.383c0.013,0.011,0.026,0.018,0.041,0.021h0.696c0.015-0.003,0.028-0.011,0.041-0.023l0.301-0.295c0.007-0.013,0.012-0.026,0.015-0.042v-0.696c-0.002-0.016-0.006-0.029-0.012-0.042l-0.301-0.295c-0.013-0.011-0.026-0.018-0.042-0.021h-1.168c-0.098,0-0.181-0.034-0.249-0.103c-0.069-0.068-0.104-0.151-0.104-0.249v-0.699c0-0.098,0.034-0.18,0.103-0.249C106.314,22.898,106.397,22.864,106.495,22.864z"
      />
      <path
        fill="#FFFFFF"
        d="M111.062,22.864c0.064,0,0.12,0.023,0.167,0.069c0.046,0.046,0.069,0.102,0.069,0.167v1.755c0,0.143-0.05,0.265-0.15,0.367l-0.854,0.855c-0.048,0.045-0.104,0.067-0.169,0.067c-0.062,0-0.117-0.022-0.165-0.067l-0.855-0.855c-0.1-0.103-0.149-0.225-0.149-0.367V23.1c0-0.065,0.022-0.121,0.069-0.167c0.046-0.046,0.101-0.069,0.163-0.069c0.064,0,0.12,0.023,0.167,0.069c0.046,0.047,0.069,0.103,0.069,0.167v1.753c0.002,0.016,0.008,0.029,0.017,0.042l0.687,0.687l0.687-0.687c0.009-0.013,0.015-0.026,0.017-0.042V23.1c0-0.064,0.022-0.12,0.069-0.167C110.945,22.887,111,22.864,111.062,22.864z"
      />
    </g>
    <g
      id="TXD"
      gorn="0.2.3">
      <path
        fill="#FFFFFF"
        d="M105.535,15.664c0.062,0,0.116,0.023,0.163,0.068c0.046,0.046,0.069,0.102,0.069,0.166c0,0.062-0.023,0.116-0.069,0.162c-0.047,0.046-0.101,0.068-0.163,0.068h-0.705v2.58c0,0.064-0.023,0.121-0.069,0.167c-0.047,0.046-0.101,0.069-0.163,0.069c-0.065,0-0.121-0.023-0.167-0.069c-0.047-0.046-0.069-0.103-0.069-0.167v-2.58h-0.701c-0.065,0-0.121-0.022-0.167-0.068c-0.047-0.046-0.069-0.101-0.069-0.162c0-0.064,0.022-0.12,0.069-0.166c0.046-0.045,0.102-0.068,0.167-0.068H105.535z"
      />
      <path
        fill="#FFFFFF"
        d="M108.347,15.664c0.062,0,0.116,0.023,0.163,0.069c0.046,0.046,0.069,0.102,0.069,0.167v0.349c0,0.143-0.05,0.265-0.15,0.367l-0.692,0.691l0.692,0.686c0.101,0.103,0.15,0.225,0.15,0.367v0.349c0,0.065-0.023,0.121-0.069,0.167c-0.047,0.046-0.101,0.069-0.163,0.069c-0.065,0-0.121-0.023-0.167-0.069c-0.047-0.046-0.069-0.103-0.069-0.167v-0.346c-0.003-0.015-0.008-0.028-0.015-0.041l-0.686-0.684l-0.691,0.685c-0.007,0.012-0.013,0.025-0.015,0.041v0.345c0,0.065-0.023,0.121-0.069,0.167c-0.047,0.046-0.101,0.069-0.163,0.069c-0.065,0-0.121-0.023-0.167-0.069c-0.047-0.046-0.069-0.102-0.069-0.167V18.36c0-0.143,0.05-0.265,0.15-0.367l0.69-0.688l-0.69-0.688c-0.101-0.103-0.15-0.225-0.15-0.367V15.9c0-0.065,0.022-0.121,0.069-0.167c0.046-0.046,0.102-0.069,0.167-0.069c0.062,0,0.116,0.023,0.163,0.069c0.046,0.047,0.069,0.103,0.069,0.168v0.346c0.002,0.015,0.008,0.028,0.015,0.041l0.691,0.688l0.686-0.689c0.007-0.013,0.012-0.026,0.015-0.041V15.9c0-0.064,0.022-0.121,0.069-0.167C108.226,15.688,108.282,15.664,108.347,15.664z"
      />
      <path
        fill="#FFFFFF"
        d="M111.238,16.118c0.103,0.103,0.154,0.225,0.154,0.367v1.639c0,0.143-0.05,0.265-0.15,0.367l-0.304,0.304c-0.103,0.101-0.225,0.15-0.367,0.15h-1.286c-0.065,0-0.121-0.023-0.167-0.069c-0.047-0.046-0.069-0.102-0.069-0.167V15.9c0-0.065,0.022-0.121,0.069-0.167c0.046-0.046,0.102-0.069,0.167-0.069h1.286c0.143,0,0.265,0.051,0.367,0.153L111.238,16.118z M110.907,18.164c0.009-0.013,0.015-0.026,0.017-0.041v-1.632c0-0.015-0.007-0.028-0.021-0.041l-0.295-0.301c-0.013-0.01-0.026-0.017-0.041-0.021h-1.049v2.352h1.052c0.016-0.003,0.029-0.01,0.042-0.021L110.907,18.164z"
      />
    </g>
    <g
      id="TXD_1_"
      gorn="0.2.4">
      <path
        fill="#FFFFFF"
        d="M95.035,7.289c0.062,0,0.116,0.023,0.163,0.068c0.046,0.046,0.069,0.102,0.069,0.166c0,0.062-0.023,0.116-0.069,0.162c-0.047,0.046-0.101,0.068-0.163,0.068H94.33v2.58c0,0.064-0.023,0.121-0.069,0.167c-0.047,0.046-0.101,0.069-0.163,0.069c-0.065,0-0.121-0.023-0.167-0.069c-0.047-0.046-0.069-0.103-0.069-0.167v-2.58H93.16c-0.065,0-0.121-0.022-0.167-0.068c-0.047-0.046-0.069-0.101-0.069-0.162c0-0.064,0.022-0.12,0.069-0.166c0.046-0.045,0.102-0.068,0.167-0.068H95.035z"
      />
      <path
        fill="#FFFFFF"
        d="M97.847,7.289c0.062,0,0.116,0.023,0.163,0.069c0.046,0.046,0.069,0.102,0.069,0.167v0.349c0,0.143-0.05,0.265-0.15,0.367l-0.692,0.691l0.692,0.686c0.101,0.103,0.15,0.225,0.15,0.367v0.349c0,0.065-0.023,0.121-0.069,0.167c-0.047,0.046-0.101,0.069-0.163,0.069c-0.065,0-0.121-0.023-0.167-0.069c-0.047-0.046-0.069-0.103-0.069-0.167V9.988c-0.003-0.015-0.008-0.028-0.015-0.041l-0.686-0.684l-0.691,0.685c-0.007,0.012-0.013,0.025-0.015,0.041v0.345c0,0.065-0.023,0.121-0.069,0.167c-0.047,0.046-0.101,0.069-0.163,0.069c-0.065,0-0.121-0.023-0.167-0.069c-0.047-0.046-0.069-0.102-0.069-0.167V9.985c0-0.143,0.05-0.265,0.15-0.367l0.69-0.688l-0.69-0.688c-0.101-0.103-0.15-0.225-0.15-0.367V7.525c0-0.065,0.022-0.121,0.069-0.167c0.046-0.046,0.102-0.069,0.167-0.069c0.062,0,0.116,0.023,0.163,0.069c0.046,0.047,0.069,0.103,0.069,0.168v0.346c0.002,0.015,0.008,0.028,0.015,0.041l0.691,0.688l0.686-0.689c0.007-0.013,0.012-0.026,0.015-0.041V7.525c0-0.064,0.022-0.121,0.069-0.167C97.726,7.312,97.782,7.289,97.847,7.289z"
      />
      <path
        fill="#FFFFFF"
        d="M100.738,7.743c0.103,0.103,0.154,0.225,0.154,0.367v1.639c0,0.143-0.05,0.265-0.15,0.367l-0.304,0.304c-0.103,0.101-0.225,0.15-0.367,0.15h-1.286c-0.065,0-0.121-0.023-0.167-0.069c-0.047-0.046-0.069-0.102-0.069-0.167V7.525c0-0.065,0.022-0.121,0.069-0.167c0.046-0.046,0.102-0.069,0.167-0.069h1.286c0.143,0,0.265,0.051,0.367,0.153L100.738,7.743z M100.407,9.789c0.009-0.013,0.015-0.026,0.017-0.041V8.116c0-0.015-0.007-0.028-0.021-0.041l-0.295-0.301c-0.013-0.01-0.026-0.017-0.041-0.021h-1.049v2.352h1.052c0.016-0.003,0.029-0.01,0.042-0.021L100.407,9.789z"
      />
    </g>
    <g
      id="RXD"
      gorn="0.2.5">
      <path
        fill="#FFFFFF"
        d="M105.767,11.513c0,0.062-0.023,0.117-0.069,0.163c-0.047,0.046-0.101,0.069-0.163,0.069c-0.065,0-0.121-0.022-0.169-0.067l-1.335-1.339h-0.139v1.17c0,0.065-0.023,0.121-0.069,0.167c-0.047,0.046-0.101,0.069-0.163,0.069c-0.065,0-0.121-0.023-0.167-0.069c-0.047-0.046-0.069-0.102-0.069-0.167V8.7c0-0.065,0.022-0.121,0.069-0.167c0.046-0.046,0.102-0.069,0.167-0.069h1.286c0.143,0,0.265,0.05,0.367,0.15l0.304,0.304c0.101,0.103,0.15,0.225,0.15,0.367v0.232c0,0.143-0.05,0.265-0.15,0.367l-0.304,0.304c-0.103,0.101-0.225,0.15-0.367,0.15h-0.255l1.009,1.005C105.745,11.392,105.767,11.447,105.767,11.513z M103.892,9.87h1.05c0.015-0.003,0.028-0.009,0.041-0.019l0.3-0.297c0.008-0.012,0.013-0.025,0.016-0.041V9.289c-0.003-0.016-0.008-0.029-0.016-0.041l-0.3-0.297c-0.013-0.01-0.026-0.016-0.041-0.019h-1.05V9.87z"
      />
      <path
        fill="#FFFFFF"
        d="M108.347,8.464c0.062,0,0.116,0.023,0.163,0.069c0.046,0.046,0.069,0.102,0.069,0.167v0.349c0,0.143-0.05,0.265-0.15,0.367l-0.692,0.691l0.692,0.686c0.101,0.103,0.15,0.225,0.15,0.367v0.349c0,0.065-0.023,0.121-0.069,0.167c-0.047,0.046-0.101,0.069-0.163,0.069c-0.065,0-0.121-0.023-0.167-0.069c-0.047-0.046-0.069-0.103-0.069-0.167v-0.346c-0.003-0.015-0.008-0.028-0.015-0.041l-0.686-0.684l-0.691,0.685c-0.007,0.012-0.013,0.025-0.015,0.041v0.345c0,0.065-0.023,0.121-0.069,0.167c-0.047,0.046-0.101,0.069-0.163,0.069c-0.065,0-0.121-0.023-0.167-0.069c-0.047-0.046-0.069-0.102-0.069-0.167V11.16c0-0.143,0.05-0.265,0.15-0.367l0.69-0.688l-0.69-0.688c-0.101-0.103-0.15-0.225-0.15-0.367V8.7c0-0.065,0.022-0.121,0.069-0.167c0.046-0.046,0.102-0.069,0.167-0.069c0.062,0,0.116,0.023,0.163,0.069c0.046,0.047,0.069,0.103,0.069,0.168v0.346c0.002,0.015,0.008,0.028,0.015,0.041l0.691,0.688l0.686-0.689c0.007-0.013,0.012-0.026,0.015-0.041V8.7c0-0.064,0.022-0.121,0.069-0.167C108.226,8.487,108.282,8.464,108.347,8.464z"
      />
      <path
        fill="#FFFFFF"
        d="M111.238,8.918c0.103,0.103,0.154,0.225,0.154,0.367v1.639c0,0.143-0.05,0.265-0.15,0.367l-0.304,0.304c-0.103,0.101-0.225,0.15-0.367,0.15h-1.286c-0.065,0-0.121-0.023-0.167-0.069c-0.047-0.046-0.069-0.102-0.069-0.167V8.7c0-0.065,0.022-0.121,0.069-0.167c0.046-0.046,0.102-0.069,0.167-0.069h1.286c0.143,0,0.265,0.051,0.367,0.153L111.238,8.918z M110.907,10.964c0.009-0.013,0.015-0.026,0.017-0.041V9.291c0-0.015-0.007-0.028-0.021-0.041l-0.295-0.301c-0.013-0.01-0.026-0.017-0.041-0.021h-1.049v2.352h1.052c0.016-0.003,0.029-0.01,0.042-0.021L110.907,10.964z"
      />
    </g>
    <g
      id="RXD_1_"
      gorn="0.2.6">
      <path
        fill="#FFFFFF"
        d="M95.267,34.763c0,0.062-0.023,0.117-0.069,0.163c-0.047,0.046-0.101,0.069-0.163,0.069c-0.065,0-0.121-0.022-0.169-0.067l-1.335-1.339h-0.139v1.17c0,0.065-0.023,0.121-0.069,0.167c-0.047,0.046-0.101,0.069-0.163,0.069c-0.065,0-0.121-0.023-0.167-0.069c-0.047-0.046-0.069-0.102-0.069-0.167v-2.809c0-0.065,0.022-0.121,0.069-0.167c0.046-0.046,0.102-0.069,0.167-0.069h1.286c0.143,0,0.265,0.05,0.367,0.15l0.304,0.304c0.101,0.103,0.15,0.225,0.15,0.367v0.232c0,0.143-0.05,0.265-0.15,0.367l-0.304,0.304c-0.103,0.101-0.225,0.15-0.367,0.15h-0.255l1.009,1.005C95.245,34.642,95.267,34.698,95.267,34.763z M93.392,33.121h1.05c0.015-0.003,0.028-0.009,0.041-0.019l0.3-0.297c0.008-0.012,0.013-0.025,0.016-0.041V32.54c-0.003-0.016-0.008-0.029-0.016-0.041l-0.3-0.297c-0.013-0.01-0.026-0.016-0.041-0.019h-1.05V33.121z"
      />
      <path
        fill="#FFFFFF"
        d="M97.847,31.714c0.062,0,0.116,0.023,0.163,0.069c0.046,0.046,0.069,0.102,0.069,0.167v0.349c0,0.143-0.05,0.265-0.15,0.367l-0.692,0.691l0.692,0.686c0.101,0.103,0.15,0.225,0.15,0.367v0.349c0,0.065-0.023,0.121-0.069,0.167c-0.047,0.046-0.101,0.069-0.163,0.069c-0.065,0-0.121-0.023-0.167-0.069c-0.047-0.046-0.069-0.103-0.069-0.167v-0.346c-0.003-0.015-0.008-0.028-0.015-0.041l-0.686-0.684l-0.691,0.685c-0.007,0.012-0.013,0.025-0.015,0.041v0.345c0,0.065-0.023,0.121-0.069,0.167c-0.047,0.046-0.101,0.069-0.163,0.069c-0.065,0-0.121-0.023-0.167-0.069c-0.047-0.046-0.069-0.102-0.069-0.167v-0.349c0-0.143,0.05-0.265,0.15-0.367l0.69-0.688l-0.69-0.688c-0.101-0.103-0.15-0.225-0.15-0.367v-0.349c0-0.065,0.022-0.121,0.069-0.167c0.046-0.046,0.102-0.069,0.167-0.069c0.062,0,0.116,0.023,0.163,0.069c0.046,0.047,0.069,0.103,0.069,0.168v0.346c0.002,0.015,0.008,0.028,0.015,0.041l0.691,0.688l0.686-0.689c0.007-0.013,0.012-0.026,0.015-0.041v-0.346c0-0.064,0.022-0.121,0.069-0.167C97.726,31.738,97.782,31.714,97.847,31.714z"
      />
      <path
        fill="#FFFFFF"
        d="M100.738,32.168c0.103,0.103,0.154,0.225,0.154,0.367v1.639c0,0.143-0.05,0.265-0.15,0.367l-0.304,0.304c-0.103,0.101-0.225,0.15-0.367,0.15h-1.286c-0.065,0-0.121-0.023-0.167-0.069c-0.047-0.046-0.069-0.102-0.069-0.167v-2.809c0-0.065,0.022-0.121,0.069-0.167c0.046-0.046,0.102-0.069,0.167-0.069h1.286c0.143,0,0.265,0.051,0.367,0.153L100.738,32.168z M100.407,34.214c0.009-0.013,0.015-0.026,0.017-0.041v-1.632c0-0.015-0.007-0.028-0.021-0.041l-0.295-0.301c-0.013-0.01-0.026-0.017-0.041-0.021h-1.049v2.352h1.052c0.016-0.003,0.029-0.01,0.042-0.021L100.407,34.214z"
      />
    </g>
    <g
      id="DTR"
      gorn="0.2.7">
      <path
        fill="#FFFFFF"
        d="M105.613,1.718c0.103,0.103,0.154,0.225,0.154,0.367v1.639c0,0.143-0.05,0.265-0.15,0.367l-0.304,0.304c-0.103,0.101-0.225,0.15-0.367,0.15h-1.286c-0.065,0-0.121-0.023-0.167-0.069c-0.047-0.046-0.069-0.102-0.069-0.167V1.5c0-0.065,0.022-0.121,0.069-0.167c0.046-0.046,0.102-0.069,0.167-0.069h1.286c0.143,0,0.265,0.051,0.367,0.153L105.613,1.718z M105.282,3.764c0.009-0.013,0.015-0.026,0.017-0.041V2.091c0-0.015-0.007-0.028-0.021-0.041l-0.295-0.301c-0.013-0.01-0.026-0.017-0.041-0.021h-1.049V4.08h1.052c0.016-0.003,0.029-0.01,0.042-0.021L105.282,3.764z"
      />
      <path
        fill="#FFFFFF"
        d="M108.347,1.264c0.062,0,0.116,0.023,0.163,0.068c0.046,0.046,0.069,0.102,0.069,0.166c0,0.062-0.023,0.116-0.069,0.162c-0.047,0.046-0.101,0.068-0.163,0.068h-0.705v2.58c0,0.064-0.023,0.121-0.069,0.167c-0.047,0.046-0.101,0.069-0.163,0.069c-0.065,0-0.121-0.023-0.167-0.069c-0.047-0.046-0.069-0.103-0.069-0.167v-2.58h-0.701c-0.065,0-0.121-0.022-0.167-0.068c-0.047-0.046-0.069-0.101-0.069-0.162c0-0.064,0.022-0.12,0.069-0.166c0.046-0.045,0.102-0.068,0.167-0.068H108.347z"
      />
      <path
        fill="#FFFFFF"
        d="M111.392,4.312c0,0.062-0.023,0.117-0.069,0.163c-0.047,0.046-0.101,0.069-0.163,0.069c-0.065,0-0.121-0.022-0.169-0.067l-1.335-1.339h-0.139v1.17c0,0.065-0.023,0.121-0.069,0.167c-0.047,0.046-0.101,0.069-0.163,0.069c-0.065,0-0.121-0.023-0.167-0.069c-0.047-0.046-0.069-0.102-0.069-0.167V1.5c0-0.065,0.022-0.121,0.069-0.167c0.046-0.046,0.102-0.069,0.167-0.069h1.286c0.143,0,0.265,0.05,0.367,0.15l0.304,0.304c0.101,0.103,0.15,0.225,0.15,0.367v0.232c0,0.143-0.05,0.265-0.15,0.367l-0.304,0.304c-0.103,0.101-0.225,0.15-0.367,0.15h-0.255l1.009,1.005C111.37,4.191,111.392,4.247,111.392,4.312z M109.517,2.67h1.05c0.015-0.003,0.028-0.009,0.041-0.019l0.3-0.297c0.008-0.012,0.013-0.025,0.016-0.041V2.089c-0.003-0.016-0.008-0.029-0.016-0.041l-0.3-0.297c-0.013-0.01-0.026-0.016-0.041-0.019h-1.05V2.67z"
      />
    </g>
    <g
      id="POWER"
      gorn="0.2.8">
      <path
        fill="#FFFFFF"
        d="M72.038,10.357c0.085-0.083,0.186-0.124,0.304-0.124h0.192c0.118,0,0.219,0.041,0.304,0.124l0.251,0.251c0.083,0.085,0.124,0.186,0.124,0.304v0.871h0.967c0.054,0,0.1,0.02,0.138,0.058c0.039,0.038,0.058,0.083,0.058,0.135c0,0.054-0.019,0.1-0.058,0.138c-0.038,0.038-0.084,0.058-0.138,0.058h-2.322c-0.054,0-0.1-0.02-0.138-0.058c-0.038-0.038-0.057-0.084-0.057-0.138v-1.063c0-0.118,0.042-0.219,0.124-0.304L72.038,10.357z M72.531,10.621h-0.187c-0.012,0.002-0.024,0.006-0.034,0.012l-0.248,0.248c-0.007,0.011-0.013,0.021-0.015,0.034v0.868h0.781v-0.868c-0.002-0.013-0.008-0.023-0.015-0.034l-0.248-0.248C72.555,10.626,72.543,10.623,72.531,10.621z"
      />
      <path
        fill="#FFFFFF"
        d="M71.787,8.283l0.251-0.251c0.085-0.083,0.186-0.124,0.304-0.124h1.355c0.117,0,0.219,0.041,0.304,0.124l0.251,0.251c0.082,0.085,0.124,0.186,0.124,0.304v0.58c0,0.117-0.042,0.219-0.124,0.304L74,9.721c-0.085,0.083-0.187,0.124-0.304,0.124h-1.355c-0.118,0-0.219-0.041-0.304-0.124L71.787,9.47c-0.083-0.085-0.124-0.187-0.124-0.304v-0.58C71.663,8.468,71.705,8.368,71.787,8.283z M73.695,8.295h-1.35c-0.012,0.002-0.023,0.007-0.034,0.016l-0.249,0.244c-0.007,0.011-0.013,0.021-0.015,0.034v0.574c0.002,0.013,0.008,0.023,0.015,0.034l0.248,0.248c0.01,0.006,0.021,0.01,0.034,0.012h1.349c0.013-0.002,0.024-0.006,0.034-0.012l0.248-0.248c0.008-0.011,0.013-0.022,0.016-0.034V8.587c-0.003-0.013-0.008-0.024-0.014-0.034L73.73,8.309C73.719,8.301,73.708,8.297,73.695,8.295z"
      />
      <path
        fill="#FFFFFF"
        d="M71.663,5.775c0-0.052,0.019-0.097,0.057-0.135c0.039-0.039,0.084-0.058,0.138-0.058h2.322c0.054,0,0.1,0.019,0.138,0.058c0.039,0.038,0.058,0.083,0.058,0.135c0,0.058-0.021,0.105-0.062,0.143l-0.686,0.632l0.686,0.636c0.041,0.037,0.062,0.085,0.062,0.143c0,0.052-0.019,0.097-0.058,0.135C74.28,7.5,74.234,7.52,74.18,7.52h-2.322c-0.054,0-0.1-0.02-0.138-0.058c-0.038-0.038-0.057-0.084-0.057-0.138c0-0.052,0.019-0.097,0.057-0.135c0.039-0.038,0.084-0.058,0.138-0.058h1.892l-0.475-0.44c-0.042-0.038-0.062-0.085-0.062-0.144c0-0.056,0.021-0.103,0.061-0.14L73.75,5.97h-1.891c-0.054,0-0.1-0.02-0.138-0.058C71.682,5.875,71.663,5.829,71.663,5.775z"
      />
      <path
        fill="#FFFFFF"
        d="M72.047,3.451v1.357h0.778V3.837c0-0.051,0.019-0.096,0.057-0.135c0.038-0.038,0.083-0.057,0.134-0.057c0.053,0,0.099,0.019,0.137,0.057c0.038,0.039,0.057,0.084,0.057,0.135v0.971h0.782V3.451c0-0.052,0.019-0.097,0.057-0.135c0.037-0.039,0.082-0.058,0.133-0.058c0.054,0,0.1,0.019,0.138,0.058c0.038,0.038,0.057,0.083,0.057,0.135V5c0,0.054-0.019,0.1-0.058,0.138c-0.038,0.038-0.084,0.058-0.138,0.058h-2.322c-0.054,0-0.1-0.02-0.138-0.058C71.682,5.1,71.663,5.054,71.663,5v-1.55c0-0.052,0.019-0.097,0.057-0.135c0.038-0.039,0.083-0.058,0.137-0.058c0.051,0,0.096,0.019,0.134,0.058C72.028,3.354,72.047,3.399,72.047,3.451z"
      />
      <path
        fill="#FFFFFF"
        d="M74.183,0.933c0.052,0,0.097,0.019,0.135,0.058c0.039,0.038,0.058,0.083,0.058,0.135c0,0.054-0.019,0.1-0.056,0.139l-1.107,1.104v0.114h0.967c0.054,0,0.1,0.02,0.138,0.058c0.039,0.038,0.058,0.083,0.058,0.135c0,0.054-0.019,0.1-0.058,0.138c-0.038,0.038-0.084,0.058-0.138,0.058h-2.322c-0.054,0-0.1-0.02-0.138-0.058c-0.038-0.038-0.057-0.084-0.057-0.138V1.612c0-0.118,0.042-0.219,0.124-0.304l0.251-0.251c0.085-0.083,0.186-0.124,0.304-0.124h0.192c0.118,0,0.219,0.041,0.304,0.124l0.251,0.251c0.083,0.085,0.124,0.186,0.124,0.304v0.211l0.832-0.834C74.083,0.952,74.129,0.933,74.183,0.933z M72.826,2.483V1.615c-0.002-0.013-0.007-0.023-0.016-0.034l-0.245-0.248c-0.01-0.006-0.021-0.01-0.034-0.012h-0.186c-0.013,0.002-0.024,0.006-0.034,0.012l-0.245,0.248c-0.008,0.011-0.013,0.021-0.016,0.034v0.868H72.826z"
      />
    </g>
  </g>
  <g
    id="Components"
    gorn="0.3">
    <g
      id="UART"
      gorn="0.3.0">
      <g
        id="Legs"
        gorn="0.3.0.0">
        <g>
          <line
            fill="none"
            stroke-linecap="round"
            stroke-width="1"
            y1="26.72"
            y2="28.138"
            x1="78.429"
            stroke="#CCCCCC"
            x2="78.429"
          />
          <line
            fill="none"
            stroke-linecap="round"
            stroke-width="1"
            y1="26.72"
            y2="28.138"
            x1="79.857"
            stroke="#CCCCCC"
            x2="79.857"
          />
          <line
            fill="none"
            stroke-linecap="round"
            stroke-width="1"
            y1="26.72"
            y2="28.138"
            x1="81.285"
            stroke="#CCCCCC"
            x2="81.285"
          />
          <line
            fill="none"
            stroke-linecap="round"
            stroke-width="1"
            y1="26.72"
            y2="28.138"
            x1="82.71"
            stroke="#CCCCCC"
            x2="82.71"
          />
          <line
            fill="none"
            stroke-linecap="round"
            stroke-width="1"
            y1="26.72"
            y2="28.138"
            x1="84.138"
            stroke="#CCCCCC"
            x2="84.138"
          />
          <line
            fill="none"
            stroke-linecap="round"
            stroke-width="1"
            y1="26.72"
            y2="28.138"
            x1="85.566"
            stroke="#CCCCCC"
            x2="85.566"
          />
          <line
            fill="none"
            stroke-linecap="round"
            stroke-width="1"
            y1="26.72"
            y2="28.138"
            x1="86.992"
            stroke="#CCCCCC"
            x2="86.992"
          />
        </g>
        <g>
          <line
            fill="none"
            stroke-linecap="round"
            stroke-width="1"
            y1="11.13"
            y2="12.548"
            x1="78.429"
            stroke="#CCCCCC"
            x2="78.429"
          />
          <line
            fill="none"
            stroke-linecap="round"
            stroke-width="1"
            y1="11.13"
            y2="12.548"
            x1="79.857"
            stroke="#CCCCCC"
            x2="79.857"
          />
          <line
            fill="none"
            stroke-linecap="round"
            stroke-width="1"
            y1="11.13"
            y2="12.548"
            x1="81.285"
            stroke="#CCCCCC"
            x2="81.285"
          />
          <line
            fill="none"
            stroke-linecap="round"
            stroke-width="1"
            y1="11.13"
            y2="12.548"
            x1="82.71"
            stroke="#CCCCCC"
            x2="82.71"
          />
          <line
            fill="none"
            stroke-linecap="round"
            stroke-width="1"
            y1="11.13"
            y2="12.548"
            x1="84.138"
            stroke="#CCCCCC"
            x2="84.138"
          />
          <line
            fill="none"
            stroke-linecap="round"
            stroke-width="1"
            y1="11.13"
            y2="12.548"
            x1="85.566"
            stroke="#CCCCCC"
            x2="85.566"
          />
          <line
            fill="none"
            stroke-linecap="round"
            stroke-width="1"
            y1="11.13"
            y2="12.548"
            x1="86.992"
            stroke="#CCCCCC"
            x2="86.992"
          />
        </g>
        <g>
          <line
            fill="none"
            stroke-linecap="round"
            stroke-width="1"
            y1="23.916"
            y2="23.916"
            x1="89.797"
            stroke="#CCCCCC"
            x2="91.215"
          />
          <line
            fill="none"
            stroke-linecap="round"
            stroke-width="1"
            y1="22.489"
            y2="22.489"
            x1="89.797"
            stroke="#CCCCCC"
            x2="91.215"
          />
          <line
            fill="none"
            stroke-linecap="round"
            stroke-width="1"
            y1="21.061"
            y2="21.061"
            x1="89.797"
            stroke="#CCCCCC"
            x2="91.215"
          />
          <line
            fill="none"
            stroke-linecap="round"
            stroke-width="1"
            y1="19.634"
            y2="19.634"
            x1="89.797"
            stroke="#CCCCCC"
            x2="91.215"
          />
          <line
            fill="none"
            stroke-linecap="round"
            stroke-width="1"
            y1="18.208"
            y2="18.208"
            x1="89.797"
            stroke="#CCCCCC"
            x2="91.215"
          />
          <line
            fill="none"
            stroke-linecap="round"
            stroke-width="1"
            y1="16.78"
            y2="16.78"
            x1="89.797"
            stroke="#CCCCCC"
            x2="91.215"
          />
          <line
            fill="none"
            stroke-linecap="round"
            stroke-width="1"
            y1="15.353"
            y2="15.353"
            x1="89.797"
            stroke="#CCCCCC"
            x2="91.215"
          />
        </g>
        <g>
          <line
            fill="none"
            stroke-linecap="round"
            stroke-width="1"
            y1="23.916"
            y2="23.916"
            x1="74.207"
            stroke="#CCCCCC"
            x2="75.625"
          />
          <line
            fill="none"
            stroke-linecap="round"
            stroke-width="1"
            y1="22.489"
            y2="22.489"
            x1="74.207"
            stroke="#CCCCCC"
            x2="75.625"
          />
          <line
            fill="none"
            stroke-linecap="round"
            stroke-width="1"
            y1="21.061"
            y2="21.061"
            x1="74.207"
            stroke="#CCCCCC"
            x2="75.625"
          />
          <line
            fill="none"
            stroke-linecap="round"
            stroke-width="1"
            y1="19.634"
            y2="19.634"
            x1="74.207"
            stroke="#CCCCCC"
            x2="75.625"
          />
          <line
            fill="none"
            stroke-linecap="round"
            stroke-width="1"
            y1="18.208"
            y2="18.208"
            x1="74.207"
            stroke="#CCCCCC"
            x2="75.625"
          />
          <line
            fill="none"
            stroke-linecap="round"
            stroke-width="1"
            y1="16.78"
            y2="16.78"
            x1="74.207"
            stroke="#CCCCCC"
            x2="75.625"
          />
          <line
            fill="none"
            stroke-linecap="round"
            stroke-width="1"
            y1="15.353"
            y2="15.353"
            x1="74.207"
            stroke="#CCCCCC"
            x2="75.625"
          />
        </g>
      </g>
      <path
        fill="none"
        stroke-width="0.5"
        d="M89.797,26.58c0,0.078-0.063,0.141-0.142,0.141h-13.89c-0.078,0-0.142-0.062-0.142-0.141v-13.89c0-0.078,0.063-0.142,0.142-0.142h13.89c0.078,0,0.142,0.063,0.142,0.142V26.58z"
        stroke="#8C8C8C"
      />
      <path
        fill="#363D44"
        d="M89.797,26.58c0,0.078-0.063,0.141-0.142,0.141h-13.89c-0.078,0-0.142-0.062-0.142-0.141v-13.89c0-0.078,0.063-0.142,0.142-0.142h13.89c0.078,0,0.142,0.063,0.142,0.142V26.58z"
      />
      <circle
        fill="#36434C"
        r="0.709"
        cx="77.583"
        cy="14.465"
      />
      <path
        fill="none"
        stroke-width="0.25"
        stroke-linecap="round"
        d="M89.797,26.58c0,0.078-0.063,0.141-0.142,0.141h-13.89c-0.078,0-0.142-0.062-0.142-0.141"
        stroke="#141719"
      />
      <line
        fill="none"
        stroke-width="0.25"
        stroke-linecap="round"
        y1="12.689"
        y2="26.58"
        x1="89.797"
        stroke="#4C4C4C"
        x2="89.797"
      />
      <line
        fill="none"
        stroke-width="0.25"
        stroke-linecap="round"
        y1="26.58"
        y2="12.689"
        x1="75.625"
        stroke="#4C4C4C"
        x2="75.625"
      />
      <path
        fill="none"
        stroke-width="0.25"
        stroke-linecap="round"
        d="M75.625,12.689c0-0.078,0.063-0.142,0.142-0.142h13.89c0.078,0,0.142,0.063,0.142,0.142"
        stroke="#666666"
      />
    </g>
    <g>
      <path
        fill="#8C8C8C"
        d="M67.384,17.195c-0.078,0-0.141-0.057-0.141-0.127v-2.015c0-0.069,0.062-0.126,0.141-0.126h1.984c0.078,0,0.143,0.057,0.143,0.126v2.015c0,0.07-0.064,0.127-0.143,0.127H67.384z"
      />
      <path
        fill="#8C8C8C"
        d="M62.7,17.195c-0.078,0-0.141-0.057-0.141-0.127v-2.015c0-0.069,0.062-0.126,0.141-0.126h1.984c0.078,0,0.143,0.057,0.143,0.126v2.015c0,0.07-0.064,0.127-0.143,0.127H62.7z"
      />
      <g>
        <path
          fill="#DDDDDD"
          d="M64.181,17.121c-0.146,0-0.266-0.118-0.266-0.266v-1.59c0-0.146,0.119-0.265,0.266-0.265h3.711c0.146,0,0.264,0.118,0.264,0.265v1.59c0,0.147-0.117,0.266-0.264,0.266H64.181z"
        />
        <path
          fill="none"
          stroke-width="0.15"
          stroke-linecap="round"
          d="M68.155,16.855c0,0.147-0.117,0.266-0.264,0.266h-3.711c-0.146,0-0.266-0.118-0.266-0.266"
          stroke-linejoin="round"
          stroke="#828282"
        />
        <line
          fill="none"
          stroke-width="0.15"
          stroke-linecap="round"
          stroke-linejoin="round"
          y1="16.855"
          y2="15.265"
          x1="63.915"
          stroke="#A6A6A6"
          x2="63.915"
        />
        <line
          fill="none"
          stroke-width="0.15"
          stroke-linecap="round"
          stroke-linejoin="round"
          y1="15.265"
          y2="16.855"
          x1="68.155"
          stroke="#A6A6A6"
          x2="68.155"
        />
        <path
          fill="none"
          stroke-width="0.15"
          stroke-linecap="round"
          d="M63.915,15.265c0-0.146,0.119-0.265,0.266-0.265h3.711c0.146,0,0.264,0.118,0.264,0.265"
          stroke-linejoin="round"
          stroke="#EEEEEE"
        />
        <rect
          fill="#956132"
          height="2.12"
          width="2.338"
          x="64.858"
          y="15"
        />
        <line
          fill="none"
          stroke-width="0.15"
          y1="15"
          y2="15"
          x1="67.196"
          stroke="#B57441"
          x2="64.858"
        />
        <line
          fill="none"
          stroke-width="0.15"
          y1="17.121"
          y2="17.121"
          x1="67.196"
          stroke="#704525"
          x2="64.858"
        />
      </g>
    </g>
    <g>
      <path
        fill="#8C8C8C"
        d="M67.384,27.32c-0.078,0-0.141-0.057-0.141-0.127v-2.015c0-0.069,0.062-0.126,0.141-0.126h1.984c0.078,0,0.143,0.057,0.143,0.126v2.015c0,0.07-0.064,0.127-0.143,0.127H67.384z"
      />
      <path
        fill="#8C8C8C"
        d="M62.7,27.32c-0.078,0-0.141-0.057-0.141-0.127v-2.015c0-0.069,0.062-0.126,0.141-0.126h1.984c0.078,0,0.143,0.057,0.143,0.126v2.015c0,0.07-0.064,0.127-0.143,0.127H62.7z"
      />
      <g>
        <path
          fill="#DDDDDD"
          d="M64.181,27.246c-0.146,0-0.266-0.118-0.266-0.266v-1.59c0-0.146,0.119-0.265,0.266-0.265h3.711c0.146,0,0.264,0.118,0.264,0.265v1.59c0,0.147-0.117,0.266-0.264,0.266H64.181z"
        />
        <path
          fill="none"
          stroke-width="0.15"
          stroke-linecap="round"
          d="M68.155,26.98c0,0.147-0.117,0.266-0.264,0.266h-3.711c-0.146,0-0.266-0.118-0.266-0.266"
          stroke-linejoin="round"
          stroke="#828282"
        />
        <line
          fill="none"
          stroke-width="0.15"
          stroke-linecap="round"
          stroke-linejoin="round"
          y1="26.98"
          y2="25.39"
          x1="63.915"
          stroke="#A6A6A6"
          x2="63.915"
        />
        <line
          fill="none"
          stroke-width="0.15"
          stroke-linecap="round"
          stroke-linejoin="round"
          y1="25.39"
          y2="26.98"
          x1="68.155"
          stroke="#A6A6A6"
          x2="68.155"
        />
        <path
          fill="none"
          stroke-width="0.15"
          stroke-linecap="round"
          d="M63.915,25.39c0-0.146,0.119-0.265,0.266-0.265h3.711c0.146,0,0.264,0.118,0.264,0.265"
          stroke-linejoin="round"
          stroke="#EEEEEE"
        />
        <rect
          fill="#956132"
          height="2.12"
          width="2.338"
          x="64.858"
          y="25.125"
        />
        <line
          fill="none"
          stroke-width="0.15"
          y1="25.125"
          y2="25.125"
          x1="67.196"
          stroke="#B57441"
          x2="64.858"
        />
        <line
          fill="none"
          stroke-width="0.15"
          y1="27.246"
          y2="27.246"
          x1="67.196"
          stroke="#704525"
          x2="64.858"
        />
      </g>
    </g>
    <g>
      <rect
        fill="#8C8C8C"
        height="2.268"
        width="2.269"
        x="62.361"
        y="5.819"
      />
      <rect
        fill="#8C8C8C"
        height="2.268"
        width="2.27"
        x="67.491"
        y="5.819"
      />
      <g>
        <g>
          <path
            fill="#DDDDDD"
            d="M64.208,8.013c-0.146,0-0.268-0.118-0.268-0.266v-1.59c0-0.147,0.121-0.266,0.268-0.266h3.709c0.146,0,0.266,0.118,0.266,0.266v1.59c0,0.147-0.119,0.266-0.266,0.266H64.208z"
          />
          <path
            fill="none"
            stroke-width="0.15"
            stroke-linecap="round"
            d="M68.183,7.748c0,0.147-0.119,0.266-0.266,0.266h-3.709c-0.146,0-0.268-0.118-0.268-0.266"
            stroke-linejoin="round"
            stroke="#666666"
          />
          <line
            fill="none"
            stroke-width="0.15"
            stroke-linecap="round"
            stroke-linejoin="round"
            y1="7.748"
            y2="6.158"
            x1="63.94"
            stroke="#A6A6A6"
            x2="63.94"
          />
          <line
            fill="none"
            stroke-width="0.15"
            stroke-linecap="round"
            stroke-linejoin="round"
            y1="6.158"
            y2="7.748"
            x1="68.183"
            stroke="#A6A6A6"
            x2="68.183"
          />
          <path
            fill="none"
            stroke-width="0.15"
            stroke-linecap="round"
            d="M63.94,6.158c0-0.147,0.121-0.266,0.268-0.266h3.709c0.146,0,0.266,0.118,0.266,0.266"
            stroke-linejoin="round"
            stroke="#EEEEEE"
          />
          <rect
            fill="#3D3D3D"
            height="2.121"
            width="2.338"
            x="64.884"
            y="5.892"
          />
          <line
            fill="none"
            stroke-width="0.15"
            y1="5.892"
            y2="5.892"
            x1="67.222"
            stroke="#666666"
            x2="64.884"
          />
          <line
            fill="none"
            stroke-width="0.15"
            y1="8.013"
            y2="8.013"
            x1="67.222"
            stroke="#121212"
            x2="64.884"
          />
        </g>
        <g
          transform="matrix(1 0 0 1 65.1362 7.2524)">
          <g>
            <text
              fill="#EEEEEE"
              font-family="OCRA"
              font-size="0.88">103</text>
          </g>
        </g>
      </g>
    </g>
    <g>
      <rect
        fill="#8C8C8C"
        height="2.268"
        width="2.269"
        x="62.361"
        y="1.893"
      />
      <rect
        fill="#8C8C8C"
        height="2.268"
        width="2.27"
        x="67.491"
        y="1.893"
      />
      <g>
        <g>
          <path
            fill="#DDDDDD"
            d="M64.208,4.087c-0.146,0-0.268-0.118-0.268-0.266v-1.59c0-0.147,0.121-0.266,0.268-0.266h3.709c0.146,0,0.266,0.118,0.266,0.266v1.59c0,0.147-0.119,0.266-0.266,0.266H64.208z"
          />
          <path
            fill="none"
            stroke-width="0.15"
            stroke-linecap="round"
            d="M68.183,3.821c0,0.147-0.119,0.266-0.266,0.266h-3.709c-0.146,0-0.268-0.118-0.268-0.266"
            stroke-linejoin="round"
            stroke="#666666"
          />
          <line
            fill="none"
            stroke-width="0.15"
            stroke-linecap="round"
            stroke-linejoin="round"
            y1="3.821"
            y2="2.231"
            x1="63.94"
            stroke="#A6A6A6"
            x2="63.94"
          />
          <line
            fill="none"
            stroke-width="0.15"
            stroke-linecap="round"
            stroke-linejoin="round"
            y1="2.231"
            y2="3.821"
            x1="68.183"
            stroke="#A6A6A6"
            x2="68.183"
          />
          <path
            fill="none"
            stroke-width="0.15"
            stroke-linecap="round"
            d="M63.94,2.231c0-0.147,0.121-0.266,0.268-0.266h3.709c0.146,0,0.266,0.118,0.266,0.266"
            stroke-linejoin="round"
            stroke="#EEEEEE"
          />
          <rect
            fill="#3D3D3D"
            height="2.121"
            width="2.338"
            x="64.884"
            y="1.966"
          />
          <line
            fill="none"
            stroke-width="0.15"
            y1="1.966"
            y2="1.966"
            x1="67.222"
            stroke="#666666"
            x2="64.884"
          />
          <line
            fill="none"
            stroke-width="0.15"
            y1="4.087"
            y2="4.087"
            x1="67.222"
            stroke="#121212"
            x2="64.884"
          />
        </g>
        <g
          transform="matrix(1 0 0 1 65.1362 3.3257)">
          <g>
            <text
              fill="#EEEEEE"
              font-family="OCRA"
              font-size="0.88">103</text>
          </g>
        </g>
      </g>
    </g>
    <g>
      <rect
        fill="#8C8C8C"
        height="2.268"
        width="2.269"
        x="62.335"
        y="19.99"
      />
      <rect
        fill="#8C8C8C"
        height="2.268"
        width="2.27"
        x="67.465"
        y="19.99"
      />
      <g>
        <g>
          <path
            fill="#DDDDDD"
            d="M64.182,22.184c-0.146,0-0.268-0.118-0.268-0.266v-1.59c0-0.147,0.121-0.266,0.268-0.266h3.709c0.146,0,0.266,0.118,0.266,0.266v1.59c0,0.147-0.119,0.266-0.266,0.266H64.182z"
          />
          <path
            fill="none"
            stroke-width="0.15"
            stroke-linecap="round"
            d="M68.157,21.918c0,0.147-0.119,0.266-0.266,0.266h-3.709c-0.146,0-0.268-0.118-0.268-0.266"
            stroke-linejoin="round"
            stroke="#666666"
          />
          <line
            fill="none"
            stroke-width="0.15"
            stroke-linecap="round"
            stroke-linejoin="round"
            y1="21.918"
            y2="20.329"
            x1="63.915"
            stroke="#A6A6A6"
            x2="63.915"
          />
          <line
            fill="none"
            stroke-width="0.15"
            stroke-linecap="round"
            stroke-linejoin="round"
            y1="20.329"
            y2="21.918"
            x1="68.157"
            stroke="#A6A6A6"
            x2="68.157"
          />
          <path
            fill="none"
            stroke-width="0.15"
            stroke-linecap="round"
            d="M63.915,20.329c0-0.147,0.121-0.266,0.268-0.266h3.709c0.146,0,0.266,0.118,0.266,0.266"
            stroke-linejoin="round"
            stroke="#EEEEEE"
          />
          <rect
            fill="#3D3D3D"
            height="2.121"
            width="2.338"
            x="64.858"
            y="20.063"
          />
          <line
            fill="none"
            stroke-width="0.15"
            y1="20.063"
            y2="20.063"
            x1="67.196"
            stroke="#666666"
            x2="64.858"
          />
          <line
            fill="none"
            stroke-width="0.15"
            y1="22.184"
            y2="22.184"
            x1="67.196"
            stroke="#121212"
            x2="64.858"
          />
        </g>
        <g
          transform="matrix(1 0 0 1 65.1104 21.4233)">
          <g>
            <text
              fill="#EEEEEE"
              font-family="OCRA"
              font-size="0.88">102</text>
          </g>
        </g>
      </g>
    </g>
    <g>
      <rect
        fill="#8C8C8C"
        height="2.268"
        width="2.269"
        x="92.918"
        y="22.73"
      />
      <rect
        fill="#8C8C8C"
        height="2.268"
        width="2.27"
        x="98.048"
        y="22.73"
      />
      <g>
        <g>
          <path
            fill="#DDDDDD"
            d="M94.765,24.923c-0.146,0-0.268-0.117-0.268-0.266v-1.59c0-0.146,0.121-0.266,0.268-0.266h3.709c0.146,0,0.266,0.119,0.266,0.266v1.59c0,0.148-0.119,0.266-0.266,0.266H94.765z"
          />
          <path
            fill="none"
            stroke-width="0.15"
            stroke-linecap="round"
            d="M98.74,24.658c0,0.148-0.119,0.266-0.266,0.266h-3.709c-0.146,0-0.268-0.117-0.268-0.266"
            stroke-linejoin="round"
            stroke="#666666"
          />
          <line
            fill="none"
            stroke-width="0.15"
            stroke-linecap="round"
            stroke-linejoin="round"
            y1="24.658"
            y2="23.068"
            x1="94.498"
            stroke="#A6A6A6"
            x2="94.498"
          />
          <line
            fill="none"
            stroke-width="0.15"
            stroke-linecap="round"
            stroke-linejoin="round"
            y1="23.068"
            y2="24.658"
            x1="98.74"
            stroke="#A6A6A6"
            x2="98.74"
          />
          <path
            fill="none"
            stroke-width="0.15"
            stroke-linecap="round"
            d="M94.498,23.068c0-0.146,0.121-0.266,0.268-0.266h3.709c0.146,0,0.266,0.119,0.266,0.266"
            stroke-linejoin="round"
            stroke="#EEEEEE"
          />
          <rect
            fill="#3D3D3D"
            height="2.121"
            width="2.338"
            x="95.441"
            y="22.802"
          />
          <line
            fill="none"
            stroke-width="0.15"
            y1="22.802"
            y2="22.802"
            x1="97.779"
            stroke="#666666"
            x2="95.441"
          />
          <line
            fill="none"
            stroke-width="0.15"
            y1="24.923"
            y2="24.923"
            x1="97.779"
            stroke="#121212"
            x2="95.441"
          />
        </g>
        <g
          transform="matrix(1 0 0 1 95.6929 24.1636)">
          <g>
            <text
              fill="#EEEEEE"
              font-family="OCRA"
              font-size="0.88">102</text>
          </g>
        </g>
      </g>
    </g>
    <g>
      <rect
        fill="#8C8C8C"
        height="2.268"
        width="2.269"
        x="92.918"
        y="17.709"
      />
      <rect
        fill="#8C8C8C"
        height="2.268"
        width="2.27"
        x="98.048"
        y="17.709"
      />
      <g>
        <g>
          <path
            fill="#DDDDDD"
            d="M94.765,19.902c-0.146,0-0.268-0.117-0.268-0.266v-1.59c0-0.146,0.121-0.266,0.268-0.266h3.709c0.146,0,0.266,0.119,0.266,0.266v1.59c0,0.148-0.119,0.266-0.266,0.266H94.765z"
          />
          <path
            fill="none"
            stroke-width="0.15"
            stroke-linecap="round"
            d="M98.74,19.637c0,0.148-0.119,0.266-0.266,0.266h-3.709c-0.146,0-0.268-0.117-0.268-0.266"
            stroke-linejoin="round"
            stroke="#666666"
          />
          <line
            fill="none"
            stroke-width="0.15"
            stroke-linecap="round"
            stroke-linejoin="round"
            y1="19.637"
            y2="18.047"
            x1="94.498"
            stroke="#A6A6A6"
            x2="94.498"
          />
          <line
            fill="none"
            stroke-width="0.15"
            stroke-linecap="round"
            stroke-linejoin="round"
            y1="18.047"
            y2="19.637"
            x1="98.74"
            stroke="#A6A6A6"
            x2="98.74"
          />
          <path
            fill="none"
            stroke-width="0.15"
            stroke-linecap="round"
            d="M94.498,18.047c0-0.146,0.121-0.266,0.268-0.266h3.709c0.146,0,0.266,0.119,0.266,0.266"
            stroke-linejoin="round"
            stroke="#EEEEEE"
          />
          <rect
            fill="#3D3D3D"
            height="2.121"
            width="2.338"
            x="95.441"
            y="17.781"
          />
          <line
            fill="none"
            stroke-width="0.15"
            y1="17.781"
            y2="17.781"
            x1="97.779"
            stroke="#666666"
            x2="95.441"
          />
          <line
            fill="none"
            stroke-width="0.15"
            y1="19.902"
            y2="19.902"
            x1="97.779"
            stroke="#121212"
            x2="95.441"
          />
        </g>
        <g
          transform="matrix(1 0 0 1 95.6929 19.1411)">
          <g>
            <text
              fill="#EEEEEE"
              font-family="OCRA"
              font-size="0.88">102</text>
          </g>
        </g>
      </g>
    </g>
    <g
      id="LED_1_"
      gorn="0.3.8">
      <rect
        fill="#8C8C8C"
        height="2.268"
        width="2.269"
        x="62.361"
        y="9.745"
      />
      <rect
        fill="#8C8C8C"
        height="2.268"
        width="2.27"
        x="67.491"
        y="9.745"
      />
      <g>
        <g>
          <g>
            <path
              fill="#FFFFFF"
              d="M67.67,10.871c0-0.178,0.145-0.322,0.322-0.322V9.773h-4.391v0.775c0.178,0,0.322,0.145,0.322,0.322c0,0.178-0.145,0.323-0.322,0.323v0.774h4.391v-0.774C67.814,11.194,67.67,11.049,67.67,10.871z"
            />
          </g>
        </g>
        <polyline
          points="67.008,10.096 67.008,9.773 67.992,9.773 67.008,10.096 67.008,10.096 "
          fill="#74FF9C"
        />
        <polyline
          points="67.008,11.646 67.008,11.968 67.992,11.968 67.008,11.646 67.008,11.646 "
          fill="#74FF9C"
        />
        <rect
          fill="none"
          height="2.196"
          width="2.746"
          stroke-width="0.1"
          x="64.424"
          y="9.773"
          stroke="#EEEEEE"
        />
        <circle
          fill="#EEEEEE"
          r="0.323"
          stroke-width="1"
          cx="65.797"
          cy="10.888"
          stroke="#EEEEEE"
        />
        <rect
          fill="#EEEEEE"
          height="2.196"
          width="2.422"
          stroke-width="0.1"
          x="64.586"
          y="9.789"
          stroke="#EEEEEE"
        />
        <g>
          <circle
            fill="#ABABAB"
            r="0.162"
            stroke-width="0.05"
            cx="65.797"
            cy="10.888"
            stroke="#ABABAB"
          />
          <circle
            fill="#EEEEEE"
            r="0.08"
            cx="65.84"
            cy="10.929"
          />
        </g>
        <rect
          fill="#E5E5E5"
          height="0.323"
          width="2.422"
          x="64.586"
          y="9.773"
        />
      </g>
    </g>
    <g
      id="LED_2_"
      gorn="0.3.9">
      <rect
        fill="#8C8C8C"
        height="2.268"
        width="2.269"
        x="92.918"
        y="12.688"
      />
      <rect
        fill="#8C8C8C"
        height="2.268"
        width="2.27"
        x="98.048"
        y="12.688"
      />
      <g>
        <g>
          <g>
            <path
              fill="#FFFFFF"
              d="M98.227,13.814c0-0.178,0.145-0.322,0.322-0.322v-0.775h-4.391v0.775c0.178,0,0.322,0.145,0.322,0.322c0,0.178-0.145,0.323-0.322,0.323v0.774h4.391v-0.774C98.372,14.137,98.227,13.992,98.227,13.814z"
            />
          </g>
        </g>
        <polyline
          points="97.565,13.039 97.565,12.716 98.549,12.716 97.565,13.039 97.565,13.039 "
          fill="#74FF9C"
        />
        <polyline
          points="97.565,14.588 97.565,14.911 98.549,14.911 97.565,14.588 97.565,14.588 "
          fill="#74FF9C"
        />
        <rect
          fill="none"
          height="2.196"
          width="2.746"
          stroke-width="0.1"
          x="94.981"
          y="12.716"
          stroke="#EEEEEE"
        />
        <circle
          fill="#EEEEEE"
          r="0.323"
          stroke-width="1"
          cx="96.354"
          cy="13.831"
          stroke="#EEEEEE"
        />
        <rect
          fill="#EEEEEE"
          height="2.196"
          width="2.422"
          stroke-width="0.1"
          x="95.143"
          y="12.732"
          stroke="#EEEEEE"
        />
        <g>
          <circle
            fill="#ABABAB"
            r="0.162"
            stroke-width="0.05"
            cx="96.354"
            cy="13.831"
            stroke="#ABABAB"
          />
          <circle
            fill="#EEEEEE"
            r="0.08"
            cx="96.397"
            cy="13.872"
          />
        </g>
        <rect
          fill="#E5E5E5"
          height="0.323"
          width="2.422"
          x="95.143"
          y="12.716"
        />
      </g>
    </g>
    <g
      id="LED_3_"
      gorn="0.3.10">
      <rect
        fill="#8C8C8C"
        height="2.268"
        width="2.269"
        x="92.918"
        y="27.75"
      />
      <rect
        fill="#8C8C8C"
        height="2.268"
        width="2.27"
        x="98.048"
        y="27.75"
      />
      <g>
        <g>
          <g>
            <path
              fill="#FFFFFF"
              d="M98.227,28.876c0-0.178,0.145-0.322,0.322-0.322v-0.775h-4.391v0.775c0.178,0,0.322,0.145,0.322,0.322s-0.145,0.322-0.322,0.322v0.774h4.391v-0.774C98.372,29.199,98.227,29.054,98.227,28.876z"
            />
          </g>
        </g>
        <polyline
          points="97.565,28.101 97.565,27.779 98.549,27.779 97.565,28.101 97.565,28.101 "
          fill="#74FF9C"
        />
        <polyline
          points="97.565,29.651 97.565,29.973 98.549,29.973 97.565,29.651 97.565,29.651 "
          fill="#74FF9C"
        />
        <rect
          fill="none"
          height="2.195"
          width="2.746"
          stroke-width="0.1"
          x="94.981"
          y="27.779"
          stroke="#EEEEEE"
        />
        <circle
          fill="#EEEEEE"
          r="0.323"
          stroke-width="1"
          cx="96.354"
          cy="28.893"
          stroke="#EEEEEE"
        />
        <rect
          fill="#EEEEEE"
          height="2.195"
          width="2.422"
          stroke-width="0.1"
          x="95.143"
          y="27.794"
          stroke="#EEEEEE"
        />
        <g>
          <circle
            fill="#ABABAB"
            r="0.161"
            stroke-width="0.05"
            cx="96.354"
            cy="28.893"
            stroke="#ABABAB"
          />
          <circle
            fill="#EEEEEE"
            r="0.081"
            cx="96.397"
            cy="28.935"
          />
        </g>
        <rect
          fill="#E5E5E5"
          height="0.322"
          width="2.422"
          x="95.143"
          y="27.779"
        />
      </g>
    </g>
    <g
      id="C1"
      gorn="0.3.11">
      <path
        fill="#8C8C8C"
        d="M72.425,33.289c0,0.067-0.055,0.121-0.119,0.121h-2.598c-0.064,0-0.119-0.054-0.119-0.121v-3.16c0-0.067,0.055-0.121,0.119-0.121h2.598c0.064,0,0.119,0.054,0.119,0.121V33.289z"
      />
      <path
        fill="#8C8C8C"
        d="M66.274,33.289c0,0.067-0.055,0.121-0.119,0.121h-2.598c-0.064,0-0.119-0.054-0.119-0.121v-3.16c0-0.067,0.055-0.121,0.119-0.121h2.598c0.064,0,0.119,0.054,0.119,0.121V33.289z"
      />
      <g>
        <path
          fill="#DDDDDD"
          d="M65.707,33.246c-0.176,0-0.32-0.172-0.32-0.386v-2.305c0-0.213,0.145-0.384,0.32-0.384h4.453c0.174,0,0.316,0.171,0.316,0.384v2.305c0,0.214-0.143,0.386-0.316,0.386H65.707z"
        />
        <path
          fill="none"
          stroke-width="0.15"
          stroke-linecap="round"
          d="M70.476,32.86c0,0.214-0.143,0.386-0.316,0.386h-4.453c-0.176,0-0.32-0.172-0.32-0.386"
          stroke-linejoin="round"
          stroke="#828282"
        />
        <line
          fill="none"
          stroke-width="0.15"
          stroke-linecap="round"
          stroke-linejoin="round"
          y1="32.86"
          y2="30.555"
          x1="65.386"
          stroke="#A6A6A6"
          x2="65.386"
        />
        <line
          fill="none"
          stroke-width="0.15"
          stroke-linecap="round"
          stroke-linejoin="round"
          y1="30.555"
          y2="32.86"
          x1="70.476"
          stroke="#A6A6A6"
          x2="70.476"
        />
        <path
          fill="none"
          stroke-width="0.15"
          stroke-linecap="round"
          d="M65.386,30.555c0-0.213,0.145-0.384,0.32-0.384h4.453c0.174,0,0.316,0.171,0.316,0.384"
          stroke-linejoin="round"
          stroke="#EEEEEE"
        />
        <rect
          fill="#956132"
          height="3.074"
          width="2.807"
          x="66.517"
          y="30.171"
        />
        <line
          fill="none"
          stroke-width="0.15"
          y1="30.171"
          y2="30.171"
          x1="69.324"
          stroke="#B57441"
          x2="66.517"
        />
        <line
          fill="none"
          stroke-width="0.15"
          y1="33.246"
          y2="33.246"
          x1="69.324"
          stroke="#704525"
          x2="66.517"
        />
      </g>
    </g>
    <g>
      <path
        fill="#8C8C8C"
        d="M69.589,36.785c0-0.067,0.055-0.121,0.119-0.121h2.598c0.064,0,0.119,0.054,0.119,0.121v3.16c0,0.067-0.055,0.121-0.119,0.121h-2.598c-0.064,0-0.119-0.054-0.119-0.121V36.785z"
      />
      <path
        fill="#8C8C8C"
        d="M63.437,36.785c0-0.067,0.055-0.121,0.119-0.121h2.598c0.064,0,0.119,0.054,0.119,0.121v3.16c0,0.067-0.055,0.121-0.119,0.121h-2.598c-0.064,0-0.119-0.054-0.119-0.121V36.785z"
      />
      <g>
        <path
          fill="#DDDDDD"
          d="M70.365,36.664c0.078,0,0.141,0.064,0.141,0.143v3.117c0,0.078-0.062,0.143-0.141,0.143h-4.82c-0.078,0-0.141-0.064-0.141-0.143v-3.117c0-0.078,0.062-0.143,0.141-0.143H70.365z"
        />
        <rect
          fill="#3D3D3D"
          height="3.402"
          width="3.826"
          x="66.042"
          y="36.664"
        />
        <line
          fill="none"
          stroke-width="0.1"
          y1="38.365"
          y2="38.365"
          x1="66.042"
          stroke="#666666"
          x2="69.868"
        />
        <path
          fill="none"
          stroke-width="0.1"
          stroke-linecap="round"
          d="M70.505,39.923c0,0.078-0.062,0.143-0.141,0.143h-4.82c-0.078,0-0.141-0.064-0.141-0.143"
          stroke="#666666"
        />
        <line
          fill="none"
          stroke-width="0.1"
          y1="36.806"
          y2="39.923"
          x1="70.505"
          stroke="#A6A6A6"
          x2="70.505"
        />
        <line
          fill="none"
          stroke-width="0.1"
          stroke-linecap="round"
          y1="39.923"
          y2="36.806"
          x1="65.404"
          stroke="#A6A6A6"
          x2="65.404"
        />
        <path
          fill="none"
          stroke-width="0.1"
          stroke-linecap="round"
          d="M65.404,36.806c0-0.078,0.062-0.143,0.141-0.143h4.82c0.078,0,0.141,0.064,0.141,0.143"
          stroke="#DDDDDD"
        />
        <line
          fill="none"
          stroke-width="0.1"
          y1="40.066"
          y2="40.066"
          x1="69.977"
          stroke="#3D3D3D"
          x2="66.151"
        />
        <g>
          <path
            fill="#FFFFFF"
            d="M66.722,37.771l0.252-0.252c0.084-0.082,0.186-0.123,0.304-0.123h1.354c0.117,0,0.219,0.041,0.304,0.123l0.251,0.252c0.083,0.084,0.124,0.186,0.124,0.303v0.58c0,0.118-0.041,0.219-0.124,0.304l-0.251,0.251c-0.085,0.083-0.187,0.125-0.304,0.125h-1.354c-0.118,0-0.22-0.042-0.304-0.125l-0.252-0.251c-0.082-0.085-0.124-0.186-0.124-0.304v-0.58C66.598,37.957,66.64,37.855,66.722,37.771z M68.631,37.783h-1.351c-0.013,0.002-0.023,0.008-0.034,0.016l-0.248,0.244c-0.008,0.011-0.013,0.021-0.016,0.035v0.574c0.003,0.012,0.008,0.023,0.016,0.033l0.248,0.248c0.01,0.006,0.021,0.01,0.033,0.012h1.35c0.013-0.002,0.023-0.006,0.034-0.012l0.248-0.248c0.008-0.01,0.013-0.021,0.015-0.034v-0.575c-0.002-0.014-0.006-0.024-0.013-0.035l-0.249-0.244C68.655,37.789,68.643,37.785,68.631,37.783z"
          />
        </g>
      </g>
    </g>
  </g>
  <g
    id="pins"
    gorn="0.4">
    <g
      id="connector24pin_19_"
      gorn="0.4.0">
      <g>
        <path
          fill="#ABABAB"
          d="M114.539,0.541c-1.37,0-2.48,1.108-2.48,2.48c0,1.37,1.11,2.48,2.48,2.48s2.48-1.11,2.48-2.48C117.019,1.649,115.909,0.541,114.539,0.541z M114.539,4.437c-0.783,0-1.417-0.633-1.417-1.417c0-0.782,0.634-1.417,1.417-1.417s1.418,0.635,1.418,1.417C115.957,3.804,115.322,4.437,114.539,4.437z"
          id="connector9pin"
          gorn="0.4.0.0.0"
        />
      </g>
    </g>
    <g
      id="connector24pin_11_"
      gorn="0.4.1">
      <g>
        <path
          fill="#ABABAB"
          d="M58.738,8.504c-1.37,0-2.48,1.108-2.48,2.48c0,1.37,1.11,2.48,2.48,2.48s2.48-1.11,2.48-2.48C61.219,9.613,60.108,8.504,58.738,8.504z M58.738,12.4c-0.783,0-1.417-0.633-1.417-1.417c0-0.782,0.634-1.417,1.417-1.417s1.418,0.635,1.418,1.417C60.156,11.767,59.521,12.4,58.738,12.4z"
        />
      </g>
    </g>
    <g
      id="connector24pin_12_"
      gorn="0.4.2">
      <g>
        <path
          fill="#ABABAB"
          d="M58.738,15.705c-1.37,0-2.48,1.108-2.48,2.48c0,1.37,1.11,2.48,2.48,2.48s2.48-1.11,2.48-2.48C61.219,16.813,60.108,15.705,58.738,15.705z M58.738,19.6c-0.783,0-1.417-0.633-1.417-1.417c0-0.782,0.634-1.417,1.417-1.417s1.418,0.635,1.418,1.417C60.156,18.967,59.521,19.6,58.738,19.6z"
        />
      </g>
    </g>
    <g
      id="connector24pin_13_"
      gorn="0.4.3">
      <g>
        <path
          fill="#ABABAB"
          d="M58.738,21.378c-1.37,0-2.48,1.109-2.48,2.481c0,1.37,1.11,2.48,2.48,2.48s2.48-1.11,2.48-2.48C61.219,22.487,60.108,21.378,58.738,21.378z M58.738,25.274c-0.783,0-1.417-0.633-1.417-1.417c0-0.782,0.634-1.417,1.417-1.417s1.418,0.635,1.418,1.417C60.156,24.641,59.521,25.274,58.738,25.274z"
        />
      </g>
    </g>
    <g
      id="connector24pin_14_"
      gorn="0.4.4">
      <g>
        <path
          fill="#ABABAB"
          d="M58.738,28.578c-1.37,0-2.48,1.108-2.48,2.48c0,1.37,1.11,2.48,2.48,2.48c1.37,0,2.481-1.11,2.481-2.48C61.219,29.686,60.108,28.578,58.738,28.578z M58.738,32.473c-0.783,0-1.417-0.633-1.417-1.417c0-0.782,0.634-1.417,1.417-1.417s1.418,0.635,1.418,1.417C60.157,31.84,59.521,32.473,58.738,32.473z"
        />
      </g>
    </g>
    <g
      id="connector24pin_15_"
      gorn="0.4.5">
      <g>
        <path
          fill="#ABABAB"
          d="M78.535,36.542c-1.369,0-2.48,1.108-2.48,2.48c0,1.37,1.111,2.48,2.48,2.48c1.371,0,2.48-1.11,2.48-2.48C81.015,37.65,79.906,36.542,78.535,36.542z M78.535,40.437c-0.783,0-1.416-0.633-1.416-1.417c0-0.782,0.633-1.417,1.416-1.417s1.418,0.635,1.418,1.417C79.953,39.804,79.318,40.437,78.535,40.437z"
          id="connector0pin"
          gorn="0.4.5.0.0"
        />
      </g>
    </g>
    <g
      id="connector24pin_16_"
      gorn="0.4.6">
      <g>
        <path
          fill="#ABABAB"
          d="M85.734,36.542c-1.37,0-2.48,1.108-2.48,2.48c0,1.37,1.11,2.48,2.48,2.48s2.48-1.11,2.48-2.48C88.214,37.65,87.104,36.542,85.734,36.542z M85.734,40.437c-0.783,0-1.417-0.633-1.417-1.417c0-0.782,0.634-1.417,1.417-1.417s1.418,0.635,1.418,1.417C87.152,39.804,86.517,40.437,85.734,40.437z"
          id="connector1pin"
          gorn="0.4.6.0.0"
        />
      </g>
    </g>
    <g
      id="connector24pin_17_"
      gorn="0.4.7">
      <g>
        <path
          fill="#ABABAB"
          d="M92.933,36.542c-1.371,0-2.48,1.108-2.48,2.48c0,1.37,1.109,2.48,2.48,2.48c1.369,0,2.48-1.11,2.48-2.48C95.414,37.65,94.302,36.542,92.933,36.542z M92.933,40.437c-0.783,0-1.418-0.633-1.418-1.417c0-0.782,0.635-1.417,1.418-1.417s1.418,0.635,1.418,1.417C94.351,39.804,93.716,40.437,92.933,40.437z"
          id="connector2pin"
          gorn="0.4.7.0.0"
        />
      </g>
    </g>
    <g
      id="connector24pin_18_"
      gorn="0.4.8">
      <g>
        <path
          fill="#ABABAB"
          d="M100.136,36.542c-1.37,0-2.48,1.108-2.48,2.48c0,1.37,1.11,2.48,2.48,2.48s2.48-1.11,2.48-2.48C102.617,37.65,101.506,36.542,100.136,36.542z M100.136,40.437c-0.783,0-1.417-0.633-1.417-1.417c0-0.782,0.634-1.417,1.417-1.417s1.418,0.635,1.418,1.417C101.554,39.804,100.919,40.437,100.136,40.437z"
          id="connector3pin"
          gorn="0.4.8.0.0"
        />
      </g>
    </g>
    <g
      id="connector24pin_9_"
      gorn="0.4.9">
      <g>
        <path
          fill="#ABABAB"
          d="M114.539,36.542c-1.37,0-2.48,1.108-2.48,2.48c0,1.37,1.11,2.48,2.48,2.48s2.48-1.11,2.48-2.48C117.019,37.65,115.909,36.542,114.539,36.542z M114.539,40.437c-0.783,0-1.417-0.633-1.417-1.417c0-0.782,0.634-1.417,1.417-1.417s1.418,0.635,1.418,1.417C115.957,39.804,115.322,40.437,114.539,40.437z"
          id="connector4pin"
          gorn="0.4.9.0.0"
        />
      </g>
    </g>
    <g
      id="connector24pin_4_"
      gorn="0.4.10">
      <g>
        <path
          fill="#ABABAB"
          d="M114.539,7.741c-1.37,0-2.48,1.108-2.48,2.48c0,1.37,1.11,2.48,2.48,2.48s2.48-1.11,2.48-2.48C117.019,8.85,115.909,7.741,114.539,7.741z M114.539,11.637c-0.783,0-1.417-0.633-1.417-1.417c0-0.782,0.634-1.417,1.417-1.417s1.418,0.635,1.418,1.417C115.957,11.004,115.322,11.637,114.539,11.637z"
          id="connector8pin"
          gorn="0.4.10.0.0"
        />
      </g>
    </g>
    <g
      id="connector24pin_1_"
      gorn="0.4.11">
      <g>
        <path
          fill="#ABABAB"
          d="M114.539,14.941c-1.37,0-2.48,1.108-2.48,2.48c0,1.37,1.11,2.48,2.48,2.48s2.48-1.11,2.48-2.48C117.019,16.05,115.909,14.941,114.539,14.941z M114.539,18.837c-0.783,0-1.417-0.633-1.417-1.417c0-0.782,0.634-1.417,1.417-1.417s1.418,0.635,1.418,1.417C115.957,18.204,115.322,18.837,114.539,18.837z"
          id="connector7pin"
          gorn="0.4.11.0.0"
        />
      </g>
    </g>
    <g
      id="connector24pin_2_"
      gorn="0.4.12">
      <g>
        <path
          fill="#ABABAB"
          d="M114.539,22.141c-1.37,0-2.48,1.108-2.48,2.48c0,1.37,1.11,2.48,2.48,2.48s2.48-1.11,2.48-2.48C117.019,23.25,115.909,22.141,114.539,22.141z M114.539,26.037c-0.783,0-1.417-0.633-1.417-1.417c0-0.782,0.634-1.417,1.417-1.417s1.418,0.635,1.418,1.417C115.957,25.404,115.322,26.037,114.539,26.037z"
          id="connector6pin"
          gorn="0.4.12.0.0"
        />
      </g>
    </g>
    <g
      id="connector24pin_3_"
      gorn="0.4.13">
      <g>
        <path
          fill="#ABABAB"
          d="M114.538,29.341c-1.37,0-2.48,1.108-2.48,2.48c0,1.37,1.11,2.48,2.48,2.48s2.481-1.11,2.481-2.48C117.019,30.45,115.908,29.341,114.538,29.341z M114.538,33.237c-0.783,0-1.417-0.633-1.417-1.417c0-0.782,0.634-1.417,1.417-1.417s1.419,0.635,1.419,1.417C115.957,32.604,115.321,33.237,114.538,33.237z"
          id="connector5pin"
          gorn="0.4.13.0.0"
        />
      </g>
    </g>
    <g
      id="connector24pin_5_"
      gorn="0.4.14">
      <g>
        <path
          fill="#ABABAB"
          d="M78.535,0.541c-1.369,0-2.48,1.108-2.48,2.48c0,1.37,1.111,2.48,2.48,2.48c1.371,0,2.48-1.11,2.48-2.48C81.015,1.649,79.906,0.541,78.535,0.541z M78.535,4.437c-0.783,0-1.416-0.633-1.416-1.417c0-0.782,0.633-1.417,1.416-1.417s1.418,0.635,1.418,1.417C79.953,3.804,79.318,4.437,78.535,4.437z"
          id="connector13pin"
          gorn="0.4.14.0.0"
        />
      </g>
    </g>
    <g
      id="connector24pin_6_"
      gorn="0.4.15">
      <g>
        <path
          fill="#ABABAB"
          d="M85.734,0.541c-1.37,0-2.48,1.108-2.48,2.48c0,1.37,1.11,2.48,2.48,2.48s2.48-1.11,2.48-2.48C88.214,1.649,87.104,0.541,85.734,0.541z M85.734,4.437c-0.783,0-1.417-0.633-1.417-1.417c0-0.782,0.634-1.417,1.417-1.417s1.418,0.635,1.418,1.417C87.152,3.804,86.517,4.437,85.734,4.437z"
          id="connector12pin"
          gorn="0.4.15.0.0"
        />
      </g>
    </g>
    <g
      id="connector24pin_7_"
      gorn="0.4.16">
      <g>
        <path
          fill="#ABABAB"
          d="M92.933,0.541c-1.371,0-2.48,1.108-2.48,2.48c0,1.37,1.109,2.48,2.48,2.48c1.369,0,2.48-1.11,2.48-2.48C95.414,1.649,94.302,0.541,92.933,0.541z M92.933,4.437c-0.783,0-1.418-0.633-1.418-1.417c0-0.782,0.635-1.417,1.418-1.417s1.418,0.635,1.418,1.417C94.351,3.804,93.716,4.437,92.933,4.437z"
          id="connector11pin"
          gorn="0.4.16.0.0"
        />
      </g>
    </g>
    <g
      id="connector24pin_8_"
      gorn="0.4.17">
      <g>
        <path
          fill="#ABABAB"
          d="M100.136,0.541c-1.37,0-2.48,1.108-2.48,2.48c0,1.37,1.11,2.48,2.48,2.48s2.48-1.11,2.48-2.48C102.617,1.649,101.506,0.541,100.136,0.541z M100.136,4.437c-0.783,0-1.417-0.633-1.417-1.417c0-0.782,0.634-1.417,1.417-1.417s1.418,0.635,1.418,1.417C101.554,3.804,100.919,4.437,100.136,4.437z"
          id="connector10pin"
          gorn="0.4.17.0.0"
        />
      </g>
    </g>
  </g>
  <g
    id="USB_Pins"
    gorn="0.5">
    <g>
      <path
        fill="#828282"
        d="M58.264,32.192h-3.719c-0.391,0-0.708-0.317-0.708-0.708v-0.851c0-0.392,0.317-0.709,0.708-0.709h3.719"
      />
      <path
        fill="#9B9B9B"
        d="M58.264,29.924h0.816c0.392,0,0.708,0.317,0.708,0.709v0.851c0,0.391-0.317,0.708-0.708,0.708h-0.816"
      />
      <path
        fill="#666666"
        d="M58.264,32.192l0.448-0.209h0.871c-0.128,0.129-0.306,0.209-0.502,0.209H58.264z"
      />
      <path
        fill="#666666"
        d="M54.045,31.985c0.128,0.128,0.305,0.207,0.5,0.207h3.719l-0.448-0.207H54.045z"
      />
      <path
        fill="#666666"
        d="M58.264,29.924h0.816c0.195,0,0.372,0.079,0.5,0.208v0.001h-0.869L58.264,29.924z"
      />
      <path
        fill="#E5E5E5"
        d="M58.264,29.924l-0.448,0.209h-3.772v-0.001c0.128-0.129,0.305-0.208,0.501-0.208H58.264z"
      />
      <polygon
        points="58.711,31.983 58.264,32.192 57.815,31.983 57.815,30.133 58.264,29.924 58.711,30.133 "
        fill="#E5E5E5"
      />
    </g>
    <g>
      <path
        fill="#828282"
        d="M58.264,24.993h-3.719c-0.391,0-0.708-0.317-0.708-0.708v-0.851c0-0.392,0.317-0.709,0.708-0.709h3.719"
      />
      <path
        fill="#9B9B9B"
        d="M58.264,22.725h0.816c0.392,0,0.708,0.317,0.708,0.709v0.851c0,0.391-0.317,0.708-0.708,0.708h-0.816"
      />
      <path
        fill="#666666"
        d="M58.264,24.993l0.448-0.209h0.871c-0.128,0.129-0.306,0.209-0.502,0.209H58.264z"
      />
      <path
        fill="#666666"
        d="M54.045,24.786c0.128,0.128,0.305,0.207,0.5,0.207h3.719l-0.448-0.207H54.045z"
      />
      <path
        fill="#666666"
        d="M58.264,22.725h0.816c0.195,0,0.372,0.079,0.5,0.208v0.001h-0.869L58.264,22.725z"
      />
      <path
        fill="#E5E5E5"
        d="M58.264,22.725l-0.448,0.209h-3.772v-0.001c0.128-0.129,0.305-0.208,0.501-0.208H58.264z"
      />
      <polygon
        points="58.711,24.784 58.264,24.993 57.815,24.784 57.815,22.934 58.264,22.725 58.711,22.934 "
        fill="#E5E5E5"
      />
    </g>
    <g>
      <path
        fill="#828282"
        d="M58.264,19.319h-3.719c-0.391,0-0.708-0.317-0.708-0.708V17.76c0-0.392,0.317-0.709,0.708-0.709h3.719"
      />
      <path
        fill="#9B9B9B"
        d="M58.264,17.051h0.816c0.392,0,0.708,0.317,0.708,0.709v0.851c0,0.391-0.317,0.708-0.708,0.708h-0.816"
      />
      <path
        fill="#666666"
        d="M58.264,19.319l0.448-0.209h0.871c-0.128,0.129-0.306,0.209-0.502,0.209H58.264z"
      />
      <path
        fill="#666666"
        d="M54.045,19.112c0.128,0.128,0.305,0.207,0.5,0.207h3.719l-0.448-0.207H54.045z"
      />
      <path
        fill="#666666"
        d="M58.264,17.051h0.816c0.195,0,0.372,0.079,0.5,0.208v0.001h-0.869L58.264,17.051z"
      />
      <path
        fill="#E5E5E5"
        d="M58.264,17.051l-0.448,0.209h-3.772v-0.001c0.128-0.129,0.305-0.208,0.501-0.208H58.264z"
      />
      <polygon
        points="58.711,19.11 58.264,19.319 57.815,19.11 57.815,17.26 58.264,17.051 58.711,17.26 "
        fill="#E5E5E5"
      />
    </g>
    <g>
      <path
        fill="#828282"
        d="M58.264,12.119h-3.719c-0.391,0-0.708-0.317-0.708-0.708V10.56c0-0.392,0.317-0.709,0.708-0.709h3.719"
      />
      <path
        fill="#9B9B9B"
        d="M58.264,9.851h0.816c0.392,0,0.708,0.317,0.708,0.709v0.851c0,0.391-0.317,0.708-0.708,0.708h-0.816"
      />
      <path
        fill="#666666"
        d="M58.264,12.119l0.448-0.209h0.871c-0.128,0.129-0.306,0.209-0.502,0.209H58.264z"
      />
      <path
        fill="#666666"
        d="M54.045,11.912c0.128,0.128,0.305,0.207,0.5,0.207h3.719l-0.448-0.207H54.045z"
      />
      <path
        fill="#666666"
        d="M58.264,9.851h0.816c0.195,0,0.372,0.079,0.5,0.208v0.001h-0.869L58.264,9.851z"
      />
      <path
        fill="#E5E5E5"
        d="M58.264,9.851l-0.448,0.209h-3.772v-0.001c0.128-0.129,0.305-0.208,0.501-0.208H58.264z"
      />
      <polygon
        points="58.711,11.91 58.264,12.119 57.815,11.91 57.815,10.06 58.264,9.851 58.711,10.06 "
        fill="#E5E5E5"
      />
    </g>
  </g>
  <g
    id="USB-A"
    gorn="0.6">
    <g>
      <rect
        fill="#9AA5A8"
        height="32.5"
        width="55.413"
        x="-0.094"
        y="5.091"
      />
      <line
        fill="none"
        stroke-width="1.5"
        y1="5.091"
        y2="5.091"
        x1="-0.094"
        stroke="#EAEAEA"
        x2="55.319"
      />
      <line
        fill="none"
        stroke-width="1.5"
        y1="37.591"
        y2="37.591"
        x1="-0.094"
        stroke="#686868"
        x2="55.319"
      />
      <line
        fill="none"
        stroke-width="0.25"
        stroke-linecap="round"
        y1="36.924"
        y2="5.091"
        x1="0"
        stroke="#EAEAEA"
        x2="0"
      />
    </g>
    <g>
      <path
        fill="#EAEAEA"
        d="M21.376,11.747c0-3.19-0.274-3.033-0.274-3.033c0-0.156-0.134-0.282-0.299-0.282c0,0-1.012-0.34-2.845-0.34s-2.8,0.34-2.8,0.34c-0.165,0-0.299,0.126-0.299,0.282c0,0-0.319,0-0.319,3.033s0.092,2.956,0.245,3.108c0.246,0.246,0.099,0.903,3.173,0.903c3.074,0,3.103-0.572,3.269-0.853C21.376,14.653,21.376,14.653,21.376,11.747z"
      />
      <path
        fill="#A3B5BF"
        d="M20.834,8.697c0-0.146-0.122-0.266-0.271-0.266h-5.126c-0.15,0-0.271,0.119-0.271,0.266v5.705c0,0.146,0.122,0.266,0.271,0.266h5.126c0.15,0,0.271-0.119,0.271-0.266V8.697z"
      />
      <g>
        <rect
          fill="#3F3F3F"
          height="3.417"
          width="5.669"
          x="15.166"
          y="9.566"
        />
        <rect
          fill="#7F7F7F"
          height="0.458"
          width="5.669"
          x="15.166"
          y="11.733"
        />
        <rect
          fill="#BFBFBF"
          height="0.708"
          width="5.669"
          x="15.166"
          y="10.17"
        />
      </g>
    </g>
    <g>
      <path
        fill="#EAEAEA"
        d="M21.334,29.207c0-3.19-0.274-3.033-0.274-3.033c0-0.156-0.134-0.283-0.299-0.283c0,0-1.012-0.34-2.845-0.34s-2.8,0.34-2.8,0.34c-0.165,0-0.299,0.127-0.299,0.283c0,0-0.319,0-0.319,3.033s0.092,2.955,0.245,3.107c0.246,0.246,0.099,0.903,3.173,0.903c3.074,0,3.103-0.571,3.269-0.853C21.334,32.113,21.334,32.113,21.334,29.207z"
      />
      <path
        fill="#A3B5BF"
        d="M20.793,26.156c0-0.146-0.122-0.266-0.271-0.266h-5.126c-0.15,0-0.271,0.119-0.271,0.266v5.705c0,0.146,0.122,0.266,0.271,0.266h5.126c0.15,0,0.271-0.119,0.271-0.266V26.156z"
      />
      <g>
        <rect
          fill="#3F3F3F"
          height="3.416"
          width="5.669"
          x="15.124"
          y="27.576"
        />
        <rect
          fill="#7F7F7F"
          height="0.459"
          width="5.669"
          x="15.124"
          y="29.742"
        />
        <rect
          fill="#BFBFBF"
          height="0.709"
          width="5.669"
          x="15.124"
          y="28.179"
        />
      </g>
    </g>
    <circle
      fill="#CCCCCC"
      r="2.25"
      cx="50.021"
      cy="20.966"
    />
    <path
      fill="none"
      stroke-width="0.5"
      stroke-linecap="round"
      d="M51.802,21.843c-0.324,0.656-1,1.107-1.781,1.107c-0.783,0-1.461-0.454-1.783-1.113"
      stroke="#F2F2F2"
    />
  </g>
</svg>
