<?xml version='1.0' encoding='utf-8'?>
<!-- Generator: Adobe Illustrator 20.0.0, SVG Export Plug-In . SVG Version: 6.00 Build 0)  -->
<svg xmlns="http://www.w3.org/2000/svg" gorn="0" xml:space="preserve" width="1.96851in" version="1.2" xmlns:xml="http://www.w3.org/XML/1998/namespace" x="0px" baseProfile="tiny" y="0px"  viewBox="0 0 141.733 170.08" id="svg13574" height="2.36222in">
    <desc >
        <referenceFile >2500.svg</referenceFile>
    </desc>
    <g transform="translate(0,-656.35975)" >
        <g >
            <g gorn="0.1.0.0"  id="layer1"/>
        </g>
    </g>
    <g transform="translate(0,-54)" >
        <g >
            <g gorn="0.2.0.0"  id="layer2"/>
        </g>
    </g>
    <g transform="translate(0,-54)" >
        <g >
            <g gorn="0.3.0.0"  id="layer3"/>
        </g>
    </g>
    <g transform="translate(0,-54)" >
        <g >
            <g gorn="0.4.0.0"  id="layer4"/>
        </g>
    </g>
    <g >
        <path gorn="0.5.0" fill="#E6E6E6" d="M0,26.587h141.732v141.392c0,1.16-1.48,2.101-3.307,2.101H3.307c-1.826,0-3.307-0.94-3.307-2.101V26.587z"  id="rect2997_9_"/>
        <rect width="9.041" fill="#F3F3F3" x="4.374" y="26.586"  height="137.564"/>
        <path fill="#ADADAD" d="M138.426,170.079c1.826,0,3.307-0.94,3.307-2.101v-0.864h-4.374V26.587h-9.041v140.528H0v0.864c0,1.16,1.48,2.101,3.307,2.101h135.119V170.079z" />
        <path fill="#FFCC00" d="M141.732,30.755H0V2.636C0,1.18,1.18,0,2.636,0h136.461c1.456,0,2.636,1.18,2.636,2.636v28.119H141.732z" />
        <rect width="9.041" fill="#C09900" x="128.317"  height="30.755"/>
        <rect width="9.041" fill="#FFE680" x="4.374" y="0.001"  height="30.755"/>
        <g gorn="0.5.6"  id="tspan3851_14_">
            <g transform="matrix(0 1 -1 0 65.7812 58.8107)" >
                <g >
                    <text font-size="12" fill="#808080"  font-family="OCRA">2500mAh</text>
                </g>
            </g>
        </g>
    </g>
</svg>
