<?xml version='1.0' encoding='utf-8'?>
<!-- Generator: Adobe Illustrator 20.0.0, SVG Export Plug-In . SVG Version: 6.00 Build 0)  -->
<svg xmlns="http://www.w3.org/2000/svg" gorn="0" xml:space="preserve" width="0.511819in" version="1.2" xmlns:xml="http://www.w3.org/XML/1998/namespace" x="0px" baseProfile="tiny" y="0px"  viewBox="0 0 36.851 104.882" id="svg13574" height="1.45669in">
    <desc >
        <referenceFile >110.svg</referenceFile>
    </desc>
    <g transform="translate(0,-656.35975)" >
        <g >
            <g >
                <g gorn="0.1.0.0.0"  id="layer1"/>
            </g>
        </g>
    </g>
    <g transform="translate(0,-54)" >
        <g >
            <g >
                <g gorn="0.2.0.0.0"  id="layer2"/>
            </g>
        </g>
    </g>
    <g transform="translate(0,-54)" >
        <g >
            <g >
                <g gorn="0.3.0.0.0"  id="layer3"/>
            </g>
        </g>
    </g>
    <g transform="translate(0,-54)" >
        <g >
            <g >
                <g gorn="0.4.0.0.0"  id="layer4"/>
            </g>
        </g>
    </g>
    <g >
        <path gorn="0.5.0" fill="#E6E6E6" d="M0,16.395h36.85v87.192c0,0.715-0.385,1.295-0.86,1.295H0.86c-0.475,0-0.86-0.58-0.86-1.295V16.395z"  id="rect2997"/>
        <rect width="2.351" fill="#F3F3F3" x="1.137" y="16.396"  height="84.831"/>
        <path fill="#ADADAD" d="M35.991,104.882c0.475,0,0.86-0.58,0.86-1.295v-0.533h-1.137V16.395h-2.351v86.659H0v0.533c0,0.715,0.385,1.295,0.86,1.295H35.991z" />
        <path fill="#FFCC00" d="M36.85,18.966H0V1.056c0-0.583,0.472-1.055,1.055-1.055h34.74c0.583,0,1.055,0.472,1.055,1.055C36.85,1.056,36.85,18.966,36.85,18.966z" />
        <rect width="2.351" fill="#C09900" x="33.362"  height="18.966"/>
        <rect width="2.351" fill="#FFE680" x="1.137" y="0"  height="18.966"/>
        <g gorn="0.5.6"  id="tspan3851">
            <g transform="matrix(0 1 -1 0 15.0332 35.8033)" >
                <g >
                    <g >
                        <text font-size="8" fill="#808080"  font-family="OCRA">110mAh</text>
                    </g>
                </g>
            </g>
        </g>
    </g>
</svg>
