<?xml version='1.0' encoding='utf-8'?>
<!-- Generator: Adobe Illustrator 20.0.0, SVG Export Plug-In . SVG Version: 6.00 Build 0)  -->
<svg xmlns="http://www.w3.org/2000/svg" gorn="0" xml:space="preserve" width="0.787403in" version="1.2" xmlns:xml="http://www.w3.org/XML/1998/namespace" x="0px" baseProfile="tiny" y="0px"  viewBox="0 0 56.693 104.882" id="svg13574" height="1.45669in">
    <desc >
        <referenceFile >350.svg</referenceFile>
    </desc>
    <g transform="translate(0,-656.35975)" >
        <g >
            <g gorn="0.1.0.0"  id="layer1"/>
        </g>
    </g>
    <g transform="translate(0,-54)" >
        <g >
            <g gorn="0.2.0.0"  id="layer2"/>
        </g>
    </g>
    <g transform="translate(0,-54)" >
        <g >
            <g gorn="0.3.0.0"  id="layer3"/>
        </g>
    </g>
    <g transform="translate(0,-54)" >
        <g >
            <g gorn="0.4.0.0"  id="layer4"/>
        </g>
    </g>
    <g >
        <path gorn="0.5.0" fill="#E6E6E6" d="M0,16.395h56.693v87.192c0,0.715-0.592,1.295-1.323,1.295H1.323c-0.73,0-1.323-0.58-1.323-1.295V16.395z"  id="rect2997_5_"/>
        <rect width="3.616" fill="#F3F3F3" x="1.75" y="16.396"  height="84.831"/>
        <path fill="#ADADAD" d="M55.37,104.882c0.73,0,1.323-0.58,1.323-1.295v-0.533h-1.75V16.395h-3.616v86.659H0v0.533c0,0.715,0.592,1.295,1.323,1.295H55.37z" />
        <path fill="#FFCC00" d="M56.693,18.966H0V1.309C0,0.586,0.586,0,1.309,0h54.075c0.723,0,1.309,0.586,1.309,1.309V18.966z" />
        <rect width="3.616" fill="#C09900" x="51.327"  height="18.966"/>
        <rect width="3.616" fill="#FFE680" x="1.75" y="0"  height="18.966"/>
        <g gorn="0.5.6"  id="tspan3851_6_">
            <g transform="matrix(0 1 -1 0 24.957 35.8033)" >
                <g >
                    <text font-size="8" fill="#808080"  font-family="OCRA">350mAh</text>
                </g>
            </g>
        </g>
    </g>
</svg>
