<?xml version='1.0' encoding='utf-8'?>
<!-- Generator: Adobe Illustrator 20.0.0, SVG Export Plug-In . SVG Version: 6.00 Build 0)  -->
<svg xmlns="http://www.w3.org/2000/svg" gorn="0" xml:space="preserve" width="0.787417in" version="1.2" xmlns:xml="http://www.w3.org/XML/1998/namespace" x="0px" baseProfile="tiny" y="0px"  viewBox="0 0 56.694 79.37" id="svg13574" height="1.10236in">
    <desc >
        <referenceFile >150.svg</referenceFile>
    </desc>
    <g transform="translate(0,-656.35975)" >
        <g >
            <g >
                <g gorn="0.1.0.0.0"  id="layer1"/>
            </g>
        </g>
    </g>
    <g transform="translate(0,-54)" >
        <g >
            <g >
                <g gorn="0.2.0.0.0"  id="layer2"/>
            </g>
        </g>
    </g>
    <g transform="translate(0,-54)" >
        <g >
            <g >
                <g gorn="0.3.0.0.0"  id="layer3"/>
            </g>
        </g>
    </g>
    <g transform="translate(0,-54)" >
        <g >
            <g >
                <g gorn="0.4.0.0.0"  id="layer4"/>
            </g>
        </g>
    </g>
    <g >
        <path gorn="0.5.0" fill="#E6E6E6" d="M0,12.407h56.693V78.39c0,0.541-0.592,0.98-1.323,0.98H1.323C0.593,79.37,0,78.931,0,78.39V12.407z"  id="rect2997_4_"/>
        <rect width="3.616" fill="#F3F3F3" x="1.75" y="12.408"  height="64.196"/>
        <path fill="#ADADAD" d="M55.37,79.37c0.73,0,1.323-0.439,1.323-0.98v-0.403h-1.75v-65.58h-3.616v65.58H0v0.403c0,0.541,0.592,0.98,1.323,0.98H55.37z" />
        <path fill="#FFCC00" d="M56.693,14.353H0V1.139C0,0.51,0.51,0,1.139,0h54.416c0.629,0,1.139,0.51,1.139,1.139L56.693,14.353L56.693,14.353z" />
        <rect width="3.616" fill="#C09900" x="51.327"  height="14.352"/>
        <rect width="3.616" fill="#FFE680" x="1.75" y="0.001"  height="14.352"/>
        <g gorn="0.5.6"  id="tspan3851_3_">
            <g transform="matrix(0 1 -1 0 24.957 23.0474)" >
                <g >
                    <g >
                        <text font-size="8" fill="#808080"  font-family="OCRA">150mAh</text>
                    </g>
                </g>
            </g>
        </g>
    </g>
</svg>
