<?xml version='1.0' encoding='utf-8'?>
<!-- Generator: Adobe Illustrator 20.0.0, SVG Export Plug-In . SVG Version: 6.00 Build 0)  -->
<svg xmlns="http://www.w3.org/2000/svg" gorn="0" xml:space="preserve" width="1.14174in" version="1.2" xmlns:xml="http://www.w3.org/XML/1998/namespace" x="0px" baseProfile="tiny" y="0px"  viewBox="0 0 82.205 104.882" id="svg13574" height="1.45669in">
    <desc >
        <referenceFile >500.svg</referenceFile>
    </desc>
    <g transform="translate(0,-656.35975)" >
        <g >
            <g >
                <g gorn="0.1.0.0.0"  id="layer1"/>
            </g>
        </g>
    </g>
    <g transform="translate(0,-54)" >
        <g >
            <g >
                <g gorn="0.2.0.0.0"  id="layer2"/>
            </g>
        </g>
    </g>
    <g transform="translate(0,-54)" >
        <g >
            <g >
                <g gorn="0.3.0.0.0"  id="layer3"/>
            </g>
        </g>
    </g>
    <g transform="translate(0,-54)" >
        <g >
            <g >
                <g gorn="0.4.0.0.0"  id="layer4"/>
            </g>
        </g>
    </g>
    <g >
        <path gorn="0.5.0" fill="#E6E6E6" d="M0,16.395h82.205v87.192c0,0.715-0.859,1.295-1.918,1.295H1.918c-1.059,0-1.918-0.58-1.918-1.295V16.395z"  id="rect2997_6_"/>
        <rect width="5.244" fill="#F3F3F3" x="2.537" y="16.396"  height="84.831"/>
        <path fill="#ADADAD" d="M80.287,104.882c1.059,0,1.918-0.58,1.918-1.295v-0.533h-2.537V16.395h-5.244v86.659H0v0.533c0,0.715,0.859,1.295,1.918,1.295H80.287z" />
        <path fill="#FFCC00" d="M82.205,18.966H0V1.577c0-0.871,0.706-1.576,1.576-1.576h79.052c0.871,0,1.576,0.706,1.576,1.576v17.389H82.205z" />
        <rect width="5.244" fill="#C09900" x="74.424"  height="18.966"/>
        <rect width="5.244" fill="#FFE680" x="2.537" y="0"  height="18.966"/>
        <g gorn="0.5.6"  id="tspan3851_8_">
            <g transform="matrix(0 1 -1 0 37.7129 35.8033)" >
                <g >
                    <g >
                        <text font-size="8" fill="#808080"  font-family="OCRA">500mAh</text>
                    </g>
                </g>
            </g>
        </g>
    </g>
</svg>
