<?xml version='1.0' encoding='utf-8'?>
<!-- Generator: Adobe Illustrator 20.0.0, SVG Export Plug-In . SVG Version: 6.00 Build 0)  -->
<svg xmlns="http://www.w3.org/2000/svg" gorn="0" xml:space="preserve" width="1.37796in" version="1.2" xmlns:xml="http://www.w3.org/XML/1998/namespace" x="0px" baseProfile="tiny" y="0px"  viewBox="0 0 99.213 170.08" id="svg13574" height="2.36222in">
    <desc >
        <referenceFile >1200.svg</referenceFile>
    </desc>
    <g transform="translate(0,-656.35975)" >
        <g >
            <g gorn="0.1.0.0"  id="layer1"/>
        </g>
    </g>
    <g transform="translate(0,-54)" >
        <g >
            <g gorn="0.2.0.0"  id="layer2"/>
        </g>
    </g>
    <g transform="translate(0,-54)" >
        <g >
            <g gorn="0.3.0.0"  id="layer3"/>
        </g>
    </g>
    <g transform="translate(0,-54)" >
        <g >
            <g gorn="0.4.0.0"  id="layer4"/>
        </g>
    </g>
    <g >
        <path gorn="0.5.0" fill="#E6E6E6" d="M0,26.587h99.213v141.392c0,1.16-1.036,2.101-2.315,2.101H2.315c-1.278,0-2.315-0.94-2.315-2.101V26.587z"  id="rect2997_7_"/>
        <rect width="6.328" fill="#F3F3F3" x="3.063" y="26.586"  height="137.564"/>
        <path fill="#ADADAD" d="M96.898,170.079c1.278,0,2.315-0.94,2.315-2.101v-0.864H96.15V26.587h-6.328v140.528H0v0.864c0,1.16,1.036,2.101,2.315,2.101h94.583V170.079z" />
        <path fill="#FFCC00" d="M99.213,30.755H0V2.205C0,0.987,0.987,0,2.205,0h94.802c1.218,0,2.205,0.987,2.205,2.205L99.213,30.755L99.213,30.755z" />
        <rect width="6.328" fill="#C09900" x="89.822"  height="30.755"/>
        <rect width="6.328" fill="#FFE680" x="3.063" y="0.001"  height="30.755"/>
        <g gorn="0.5.6"  id="tspan3851_10_">
            <g transform="matrix(0 1 -1 0 44.5195 58.8105)" >
                <g >
                    <text font-size="12" fill="#808080"  font-family="OCRA">1200mAh</text>
                </g>
            </g>
        </g>
    </g>
</svg>
