<?xml version='1.0' encoding='UTF-8' standalone='no'?>
<!-- Created with Inkscape (http://www.inkscape.org/) -->
<svg xmlns="http://www.w3.org/2000/svg" width="154.70079" version="1.1" gorn="0"  height="88.263779" id="svg2">
    <desc >
        <referenceFile >AD9850_pcb_2.svg</referenceFile>
    </desc>
    <defs  id="defs4">
        <g  transform="scale(4.8828125e-4,-4.8828125e-4)">
            <g >
                <g >
                    <g gorn="0.1.0.0.0.0"  id="bullet-char-template(8211)">
                        <path gorn="0.1.0.0.0.0.0"  id="path3023" d="m -4,459 1139,0 0,147 -1139,0 0,-147 z"/>
                    </g>
                </g>
            </g>
        </g>
        <g  transform="scale(4.8828125e-4,-4.8828125e-4)">
            <g >
                <g >
                    <g gorn="0.1.1.0.0.0"  id="bullet-char-template(8226)">
                        <path gorn="0.1.1.0.0.0.0"  id="path3020" d="m 346,457 c -73,0 -137,26 -191,78 -54,51 -81,114 -81,188 0,73 27,136 81,188 54,52 118,78 191,78 73,0 134,-26 185,-79 51,-51 77,-114 77,-187 0,-75 -25,-137 -76,-188 -50,-52 -112,-78 -186,-78 z"/>
                    </g>
                </g>
            </g>
        </g>
        <g  transform="scale(4.8828125e-4,-4.8828125e-4)">
            <g >
                <g >
                    <g gorn="0.1.2.0.0.0"  id="bullet-char-template(9679)">
                        <path gorn="0.1.2.0.0.0.0"  id="path3017" d="M 813,0 C 632,0 489,54 383,161 276,268 223,411 223,592 c 0,181 53,324 160,431 106,107 249,161 430,161 179,0 323,-54 432,-161 108,-107 162,-251 162,-431 0,-180 -54,-324 -162,-431 C 1136,54 992,0 813,0 z"/>
                    </g>
                </g>
            </g>
        </g>
        <g  transform="scale(4.8828125e-4,-4.8828125e-4)">
            <g >
                <g >
                    <g gorn="0.1.3.0.0.0"  id="bullet-char-template(10004)">
                        <path gorn="0.1.3.0.0.0.0"  id="path3014" d="M 285,-33 C 182,-33 111,30 74,156 52,228 41,333 41,471 c 0,78 14,145 41,201 34,71 87,106 158,106 53,0 88,-31 106,-94 l 23,-176 c 8,-64 28,-97 59,-98 l 735,706 c 11,11 33,17 66,17 42,0 63,-15 63,-46 l 0,-122 c 0,-36 -10,-64 -30,-84 L 442,47 C 390,-6 338,-33 285,-33 z"/>
                    </g>
                </g>
            </g>
        </g>
        <g  transform="scale(4.8828125e-4,-4.8828125e-4)">
            <g >
                <g >
                    <g gorn="0.1.4.0.0.0"  id="bullet-char-template(10007)">
                        <path gorn="0.1.4.0.0.0.0"  id="path3011" d="m 0,-2 c -7,16 -16,29 -25,39 l 381,530 c -94,256 -141,385 -141,387 0,25 13,38 40,38 9,0 21,-2 34,-5 21,4 42,12 65,25 l 27,-13 111,-251 280,301 64,-25 24,25 c 21,-10 41,-24 62,-43 C 886,937 835,863 770,784 769,783 710,716 594,584 L 774,223 c 0,-27 -21,-55 -63,-84 l 16,-20 C 717,90 699,76 672,76 641,76 570,178 457,381 L 164,-76 c -22,-34 -53,-51 -92,-51 -42,0 -63,17 -64,51 -7,9 -10,24 -10,44 0,9 1,19 2,30 z"/>
                    </g>
                </g>
            </g>
        </g>
        <g  transform="scale(4.8828125e-4,-4.8828125e-4)">
            <g >
                <g >
                    <g gorn="0.1.5.0.0.0"  id="bullet-char-template(10132)">
                        <path gorn="0.1.5.0.0.0.0"  id="path3008" d="M 2015,739 1276,0 717,0 l 543,543 -1086,0 0,393 1086,0 -543,545 557,0 741,-742 z"/>
                    </g>
                </g>
            </g>
        </g>
        <g  transform="scale(4.8828125e-4,-4.8828125e-4)">
            <g >
                <g >
                    <g gorn="0.1.6.0.0.0"  id="bullet-char-template(10146)">
                        <path gorn="0.1.6.0.0.0.0"  id="path3005" d="M 174,0 602,739 174,1481 1456,739 174,0 z m 1184,739 -1049,607 350,-607 699,0 z"/>
                    </g>
                </g>
            </g>
        </g>
        <g  transform="scale(4.8828125e-4,-4.8828125e-4)">
            <g >
                <g >
                    <g gorn="0.1.7.0.0.0"  id="bullet-char-template(57354)">
                        <path gorn="0.1.7.0.0.0.0"  id="path3002" d="m 8,1128 1129,0 L 1137,0 8,0 8,1128 z"/>
                    </g>
                </g>
            </g>
        </g>
        <g  transform="scale(4.8828125e-4,-4.8828125e-4)">
            <g >
                <g >
                    <g gorn="0.1.8.0.0.0"  id="bullet-char-template(57356)">
                        <path gorn="0.1.8.0.0.0.0"  id="path2999" d="M 580,1141 1163,571 580,0 -4,571 580,1141 z"/>
                    </g>
                </g>
            </g>
        </g>
        <g gorn="0.1.9"  id-list="id3 id4 id5 id6 id7 id8 id9 id10 id11 id12 id13 id14 id15 id16 id17 id18 id19 id20 id21 id22 id23 id24 id25 id26 id27 id28 id29 id30 id31 id32 id33 id34 id35 id36 id37 id38 id39 id40 id41 id42 id43 id44 id45 id46 id47 id48 id49 id50 id51 id52 id53 id54 id55 id56 id57 id58 id59 id60 id61 id62 id63 id64 id65 id66 id67 id68 id69 id70 id71 id72 id73 id74 id75 id76 id77 id78 id79 id80 id81 id82 id83" slide="id1" id="g2994"/>
    </defs>
    <metadata  id="metadata7">
        <rdf:RDF xmlns:rdf="http://www.w3.org/1999/02/22-rdf-syntax-ns#">
            <cc:Work xmlns:rdf="http://www.w3.org/1999/02/22-rdf-syntax-ns#" xmlns:cc="http://creativecommons.org/ns#" rdf:about="">
                <dc:format xmlns:dc="http://purl.org/dc/elements/1.1/">image/svg+xml</dc:format>
                <dc:type xmlns:rdf="http://www.w3.org/1999/02/22-rdf-syntax-ns#" rdf:resource="http://purl.org/dc/dcmitype/StillImage" xmlns:dc="http://purl.org/dc/elements/1.1/"/>
            </cc:Work>
        </rdf:RDF>
    </metadata>
    <g  transform="translate(-8.1082735,-13.548624)">
        <g >
            <g >
                <g gorn="0.3.0.0.0"  style="display:inline" id="silkscreen">
                    <g gorn="0.3.0.0.0.0"  id="g8970">
                        <g  transform="matrix(0.03543307,0,0,0.03543307,8.4271711,9.261223)">
                            <g >
                                <g >
                                    <g gorn="0.3.0.0.0.0.0.0.0.0"  style="fill-rule:evenodd;stroke-linejoin:round" id="g7285" stroke-width="28.22200012">
                                        <g class="Master_Slide" gorn="0.3.0.0.0.0.0.0.0.0.0"  id="g7287">
                                            <g class="Background" gorn="0.3.0.0.0.0.0.0.0.0.0.0"  id="g7289"/>
                                            <g class="BackgroundObjects" gorn="0.3.0.0.0.0.0.0.0.0.0.1"  id="g7291"/>
                                        </g>
                                    </g>
                                </g>
                            </g>
                        </g>
                        <g  transform="matrix(0.03543307,0,0,0.03543307,8.4271711,9.261223)">
                            <g >
                                <g >
                                    <g class="com.sun.star.drawing.PolyPolygonShape" gorn="0.3.0.0.0.0.1.0.0.0"  style="fill-rule:evenodd;stroke-linejoin:round" id="g7293" stroke-width="28.22200012">
                                        <g gorn="0.3.0.0.0.0.1.0.0.0.0"  id="g7295">
                                            <path fill="none" gorn="0.3.0.0.0.0.1.0.0.0.0.0"  stroke="#ffffff" id="path7297" stroke-width="18" d="M 2174,2603 0,2603 0,130 l 4348,0 0,2473 -2174,0 z"/>
                                        </g>
                                    </g>
                                </g>
                            </g>
                        </g>
                        <g  transform="matrix(0.03543307,0,0,0.03543307,8.4271711,9.261223)">
                            <g >
                                <g >
                                    <g class="com.sun.star.drawing.TextShape" gorn="0.3.0.0.0.0.2.0.0.0"  style="fill-rule:evenodd;stroke-linejoin:round" id="g7299" stroke-width="28.22200012">
                                        <g gorn="0.3.0.0.0.0.2.0.0.0.0"  id="g7301"/>
                                    </g>
                                </g>
                            </g>
                        </g>
                        <g  transform="matrix(0.03543307,0,0,0.03543307,8.4271711,9.261223)">
                            <g >
                                <g >
                                    <g class="com.sun.star.drawing.PolyPolygonShape" gorn="0.3.0.0.0.0.3.0.0.0"  style="fill-rule:evenodd;stroke-linejoin:round" id="g7303" stroke-width="28.22200012">
                                        <g gorn="0.3.0.0.0.0.3.0.0.0.0"  id="g7305">
                                            <path fill="none" gorn="0.3.0.0.0.0.3.0.0.0.0.0"  stroke="#ffffff" id="path7307" stroke-width="18" d="m 2487,508 -1262,0 0,-232 2524,0 0,232 -1262,0 z"/>
                                        </g>
                                    </g>
                                </g>
                            </g>
                        </g>
                        <g  transform="matrix(0.03543307,0,0,0.03543307,8.4271711,9.261223)">
                            <g >
                                <g >
                                    <g class="com.sun.star.drawing.PolyPolygonShape" gorn="0.3.0.0.0.0.4.0.0.0"  style="fill-rule:evenodd;stroke-linejoin:round" id="g7309" stroke-width="28.22200012">
                                        <g gorn="0.3.0.0.0.0.4.0.0.0.0"  id="g7311">
                                            <path fill="none" gorn="0.3.0.0.0.0.4.0.0.0.0.0"  stroke="#ffffff" id="path7313" stroke-width="18" d="m 1352,2483 -118,0 0,-232 235,0 0,232 -117,0 z"/>
                                        </g>
                                    </g>
                                </g>
                            </g>
                        </g>
                        <g  transform="matrix(0.03543307,0,0,0.03543307,8.4271711,9.261223)">
                            <g >
                                <g >
                                    <g class="com.sun.star.drawing.TextShape" gorn="0.3.0.0.0.0.5.0.0.0"  style="fill-rule:evenodd;stroke-linejoin:round" id="g7315" stroke-width="28.22200012">
                                        <g gorn="0.3.0.0.0.0.5.0.0.0.0"  id="g7317"/>
                                    </g>
                                </g>
                            </g>
                        </g>
                        <g  transform="matrix(0.03543307,0,0,0.03543307,8.4271711,9.261223)">
                            <g >
                                <g >
                                    <g class="com.sun.star.drawing.PolyPolygonShape" gorn="0.3.0.0.0.0.6.0.0.0"  style="fill-rule:evenodd;stroke-linejoin:round" id="g7453" stroke-width="28.22200012">
                                        <g gorn="0.3.0.0.0.0.6.0.0.0.0"  id="g7455">
                                            <path fill="none" gorn="0.3.0.0.0.0.6.0.0.0.0.0"  stroke="#ffffff" id="path7457" stroke-width="18" d="m 2502,2481 -1262,0 0,-232 2524,0 0,232 -1262,0 z"/>
                                        </g>
                                    </g>
                                </g>
                            </g>
                        </g>
                        <g  transform="matrix(0.03543307,0,0,0.03543307,8.1746329,-60.691844)">
                            <g >
                                <g >
                                    <g class="com.sun.star.drawing.PolyPolygonShape" gorn="0.3.0.0.0.0.7.0.0.0"  style="fill-rule:evenodd;stroke-linejoin:round" id="g7681" stroke-width="28.22200012">
                                        <g gorn="0.3.0.0.0.0.7.0.0.0.0"  id="g7683">
                                            <path fill="none" gorn="0.3.0.0.0.0.7.0.0.0.0.0"  stroke="#ffffff" id="path7685" stroke-width="18" d="m 1352,2483 -118,0 0,-232 235,0 0,232 -117,0 z"/>
                                        </g>
                                    </g>
                                </g>
                            </g>
                        </g>
                        <g fill="#ffffff" gorn="0.3.0.0.0.0.8"  stroke="none" xmlns:xml="http://www.w3.org/XML/1998/namespace" style="font-style:normal;font-variant:normal;font-weight:normal;font-stretch:normal;text-align:start;line-height:461.00001335%;letter-spacing:0px;word-spacing:0px;text-anchor:start;font-family:Droid Sans;-inkscape-font-specification:Droid Sans" fill-opacity="1" id="text8764" xml:space="preserve" font-size="6">
                            <text x="51.727158" y="18.119778" gorn="0.3.0.0.0.0.8.0"  style="font-size:5px" id="tspan8766">VCC D0  D1  D2  D3   D4  D5  D6  D7 GND</text>
                        </g>
                        <g fill="#ffffff" gorn="0.3.0.0.0.0.9"  stroke="none" xmlns:xml="http://www.w3.org/XML/1998/namespace" style="font-style:normal;font-variant:normal;font-weight:normal;font-stretch:normal;text-align:start;line-height:461.00001335%;letter-spacing:0px;word-spacing:0px;text-anchor:start;display:inline;font-family:Droid Sans;-inkscape-font-specification:Droid Sans" fill-opacity="1" id="text8764-3" xml:space="preserve" font-size="6">
                            <text x="51.480606" y="100.82281" gorn="0.3.0.0.0.0.9.0"  style="font-size:4.4000001px" id="tspan8766-2">VCC  CLK  FQ DATA RST GND QP  QN SINA SINB</text>
                        </g>
                    </g>
                </g>
            </g>
        </g>
    </g>
    <g  transform="translate(-8.1082735,-13.548624)">
        <g >
            <g >
                <g gorn="0.4.0.0.0"  style="display:inline" id="copper1">
                    <g  transform="matrix(0.56542416,0,0,0.56542416,31.437947,13.234215)">
                        <g >
                            <g >
                                <path stroke-opacity="1" fill="none" gorn="0.4.0.0.0.0.0.0.0"  stroke="#f7bd13" style="stroke-linecap:round;stroke-linejoin:round;stroke-miterlimit:4;stroke-dasharray:none" fill-opacity="1" id="connector15pad" stroke-width="2.77876806000000000" d="m 63.891727,17.31354 a 4.5,4.5 0 1 1 -9,0 4.5,4.5 0 1 1 9,0 z"/>
                            </g>
                        </g>
                    </g>
                    <g  transform="matrix(1.1435353,0,0,1.1435353,-18.915756,-22.549968)">
                        <g >
                            <g >
                                <g gorn="0.4.0.0.0.1.0.0.0"  style="fill:none" id="g15388">
                                    <g  transform="matrix(0.03543307,0,0,0.03543307,18.10954,26.224101)">
                                        <g >
                                            <g >
                                                <g class="com.sun.star.drawing.ClosedBezierShape" gorn="0.4.0.0.0.1.0.0.0.0.0.0.0"  style="fill:none" id="g13040">
                                                    <g gorn="0.4.0.0.0.1.0.0.0.0.0.0.0.0"  style="fill:none" id="id16">
                                                        <path fill="none" gorn="0.4.0.0.0.1.0.0.0.0.0.0.0.0.0"  stroke="#f7bd13" id="path13043" stroke-width="33" d="m 1338,322 c 12,0 21,3 31,8 10,6 17,13 23,23 6,10 8,20 8,31 0,12 -2,21 -8,31 -6,10 -13,17 -23,23 -10,6 -19,8 -31,8 -11,0 -21,-2 -31,-8 -10,-6 -17,-13 -23,-23 -5,-10 -8,-19 -8,-31 0,-11 3,-21 8,-31 6,-10 13,-17 23,-23 10,-5 20,-8 31,-8 z"/>
                                                    </g>
                                                </g>
                                            </g>
                                        </g>
                                    </g>
                                    <g  transform="matrix(0.03543307,0,0,0.03543307,18.10954,26.224101)">
                                        <g >
                                            <g >
                                                <g class="com.sun.star.drawing.PolyPolygonShape" gorn="0.4.0.0.0.1.0.0.0.1.0.0.0"  style="fill:none" id="g13090">
                                                    <g gorn="0.4.0.0.0.1.0.0.0.1.0.0.0.0"  style="fill:none" id="id26">
                                                        <path fill="none" gorn="0.4.0.0.0.1.0.0.0.1.0.0.0.0.0"  stroke="#f7bd13" id="connector14pad" stroke-width="33" d="m 1400,385 0,62 -124,0 0,-124 124,0 0,62 z"/>
                                                    </g>
                                                </g>
                                            </g>
                                        </g>
                                    </g>
                                </g>
                            </g>
                        </g>
                    </g>
                    <g  transform="matrix(0.56542416,0,0,0.56542416,49.437947,13.234215)">
                        <g >
                            <g >
                                <path stroke-opacity="1" fill="none" gorn="0.4.0.0.0.2.0.0.0"  stroke="#f7bd13" style="stroke-linecap:round;stroke-linejoin:round;stroke-miterlimit:4;stroke-dasharray:none;display:inline" id="connector17pad" stroke-width="2.77876806" d="m 63.891727,17.31354 a 4.5,4.5 0 1 1 -9,0 4.5,4.5 0 1 1 9,0 z"/>
                            </g>
                        </g>
                    </g>
                    <g  transform="matrix(0.56542416,0,0,0.56542416,58.437947,13.234215)">
                        <g >
                            <g >
                                <path stroke-opacity="1" fill="none" gorn="0.4.0.0.0.3.0.0.0"  stroke="#f7bd13" style="stroke-linecap:round;stroke-linejoin:round;stroke-miterlimit:4;stroke-dasharray:none;display:inline" id="connector18pad" stroke-width="2.77876806" d="m 63.891727,17.31354 a 4.5,4.5 0 1 1 -9,0 4.5,4.5 0 1 1 9,0 z"/>
                            </g>
                        </g>
                    </g>
                    <g  transform="matrix(0.56542416,0,0,0.56542416,67.437947,13.234215)">
                        <g >
                            <g >
                                <path stroke-opacity="1" fill="none" gorn="0.4.0.0.0.4.0.0.0"  stroke="#f7bd13" style="stroke-linecap:round;stroke-linejoin:round;stroke-miterlimit:4;stroke-dasharray:none;display:inline" id="connector19pad" stroke-width="2.77876806" d="m 63.891727,17.31354 a 4.5,4.5 0 1 1 -9,0 4.5,4.5 0 1 1 9,0 z"/>
                            </g>
                        </g>
                    </g>
                    <g  transform="matrix(0.56542416,0,0,0.56542416,76.437947,13.234215)">
                        <g >
                            <g >
                                <path stroke-opacity="1" fill="none" gorn="0.4.0.0.0.5.0.0.0"  stroke="#f7bd13" style="stroke-linecap:round;stroke-linejoin:round;stroke-miterlimit:4;stroke-dasharray:none;display:inline" id="connector20pad" stroke-width="2.77876806" d="m 63.891727,17.31354 a 4.5,4.5 0 1 1 -9,0 4.5,4.5 0 1 1 9,0 z"/>
                            </g>
                        </g>
                    </g>
                    <g  transform="matrix(0.56542416,0,0,0.56542416,85.437947,13.234215)">
                        <g >
                            <g >
                                <path stroke-opacity="1" fill="none" gorn="0.4.0.0.0.6.0.0.0"  stroke="#f7bd13" style="stroke-linecap:round;stroke-linejoin:round;stroke-miterlimit:4;stroke-dasharray:none;display:inline" id="connector21pad" stroke-width="2.77876806" d="m 63.891727,17.31354 a 4.5,4.5 0 1 1 -9,0 4.5,4.5 0 1 1 9,0 z"/>
                            </g>
                        </g>
                    </g>
                    <g  transform="matrix(0.56542416,0,0,0.56542416,94.437947,13.234215)">
                        <g >
                            <g >
                                <path stroke-opacity="1" fill="none" gorn="0.4.0.0.0.7.0.0.0"  stroke="#f7bd13" style="stroke-linecap:round;stroke-linejoin:round;stroke-miterlimit:4;stroke-dasharray:none;display:inline" id="connector25pad" stroke-width="2.77876806" d="m 63.891727,17.31354 a 4.5,4.5 0 1 1 -9,0 4.5,4.5 0 1 1 9,0 z"/>
                            </g>
                        </g>
                    </g>
                    <g  transform="matrix(0.56542416,0,0,0.56542416,103.43795,13.234215)">
                        <g >
                            <g >
                                <path stroke-opacity="1" fill="none" gorn="0.4.0.0.0.8.0.0.0"  stroke="#f7bd13" style="stroke-linecap:round;stroke-linejoin:round;stroke-miterlimit:4;stroke-dasharray:none;display:inline" id="connector26pad" stroke-width="2.77876806" d="m 63.891727,17.31354 a 4.5,4.5 0 1 1 -9,0 4.5,4.5 0 1 1 9,0 z"/>
                            </g>
                        </g>
                    </g>
                    <g  transform="matrix(0.56542416,0,0,0.56542416,40.437948,13.234215)">
                        <g >
                            <g >
                                <path stroke-opacity="1" fill="none" gorn="0.4.0.0.0.9.0.0.0"  stroke="#f7bd13" style="stroke-linecap:round;stroke-linejoin:round;stroke-miterlimit:4;stroke-dasharray:none;display:inline" id="connector16pad" stroke-width="2.77876806" d="m 63.891727,17.31354 a 4.5,4.5 0 1 1 -9,0 4.5,4.5 0 1 1 9,0 z"/>
                            </g>
                        </g>
                    </g>
                    <g  transform="matrix(0.56542416,0,0,0.56542416,31.749196,83.27094)">
                        <g >
                            <g >
                                <path stroke-opacity="1" fill="none" gorn="0.4.0.0.0.10.0.0.0"  stroke="#f7bd13" style="stroke-linecap:round;stroke-linejoin:round;stroke-miterlimit:4;stroke-dasharray:none;display:inline" id="connector28pad" stroke-width="2.77876806" d="m 63.891727,17.31354 a 4.5,4.5 0 1 1 -9,0 4.5,4.5 0 1 1 9,0 z"/>
                            </g>
                        </g>
                    </g>
                    <g  transform="matrix(1.1435353,0,0,1.1435353,-18.604507,47.486757)">
                        <g >
                            <g >
                                <g gorn="0.4.0.0.0.11.0.0.0"  style="fill:none;display:inline" id="g15388-3">
                                    <g  transform="matrix(0.03543307,0,0,0.03543307,18.10954,26.224101)">
                                        <g >
                                            <g >
                                                <g class="com.sun.star.drawing.ClosedBezierShape" gorn="0.4.0.0.0.11.0.0.0.0.0.0.0"  style="fill:none" id="g13040-3">
                                                    <g gorn="0.4.0.0.0.11.0.0.0.0.0.0.0.0"  style="fill:none" id="id16-4">
                                                        <path fill="none" gorn="0.4.0.0.0.11.0.0.0.0.0.0.0.0.0"  stroke="#f7bd13" id="path13043-1" stroke-width="33" d="m 1338,322 c 12,0 21,3 31,8 10,6 17,13 23,23 6,10 8,20 8,31 0,12 -2,21 -8,31 -6,10 -13,17 -23,23 -10,6 -19,8 -31,8 -11,0 -21,-2 -31,-8 -10,-6 -17,-13 -23,-23 -5,-10 -8,-19 -8,-31 0,-11 3,-21 8,-31 6,-10 13,-17 23,-23 10,-5 20,-8 31,-8 z"/>
                                                    </g>
                                                </g>
                                            </g>
                                        </g>
                                    </g>
                                    <g  transform="matrix(0.03543307,0,0,0.03543307,18.10954,26.224101)">
                                        <g >
                                            <g >
                                                <g class="com.sun.star.drawing.PolyPolygonShape" gorn="0.4.0.0.0.11.0.0.0.1.0.0.0"  style="fill:none" id="g13090-1">
                                                    <g gorn="0.4.0.0.0.11.0.0.0.1.0.0.0.0"  style="fill:none" id="id26-3">
                                                        <path fill="none" gorn="0.4.0.0.0.11.0.0.0.1.0.0.0.0.0"  stroke="#f7bd13" id="connector27pad" stroke-width="33" d="m 1400,385 0,62 -124,0 0,-124 124,0 0,62 z"/>
                                                    </g>
                                                </g>
                                            </g>
                                        </g>
                                    </g>
                                </g>
                            </g>
                        </g>
                    </g>
                    <g  transform="matrix(0.56542416,0,0,0.56542416,49.749195,83.27094)">
                        <g >
                            <g >
                                <path stroke-opacity="1" fill="none" gorn="0.4.0.0.0.12.0.0.0"  stroke="#f7bd13" style="stroke-linecap:round;stroke-linejoin:round;stroke-miterlimit:4;stroke-dasharray:none;display:inline" id="connector30pad" stroke-width="2.77876806" d="m 63.891727,17.31354 a 4.5,4.5 0 1 1 -9,0 4.5,4.5 0 1 1 9,0 z"/>
                            </g>
                        </g>
                    </g>
                    <g  transform="matrix(0.56542416,0,0,0.56542416,58.749195,83.27094)">
                        <g >
                            <g >
                                <path stroke-opacity="1" fill="none" gorn="0.4.0.0.0.13.0.0.0"  stroke="#f7bd13" style="stroke-linecap:round;stroke-linejoin:round;stroke-miterlimit:4;stroke-dasharray:none;display:inline" id="connector31pad" stroke-width="2.77876806" d="m 63.891727,17.31354 a 4.5,4.5 0 1 1 -9,0 4.5,4.5 0 1 1 9,0 z"/>
                            </g>
                        </g>
                    </g>
                    <g  transform="matrix(0.56542416,0,0,0.56542416,67.749195,83.27094)">
                        <g >
                            <g >
                                <path stroke-opacity="1" fill="none" gorn="0.4.0.0.0.14.0.0.0"  stroke="#f7bd13" style="stroke-linecap:round;stroke-linejoin:round;stroke-miterlimit:4;stroke-dasharray:none;display:inline" id="connector32pad" stroke-width="2.77876806" d="m 63.891727,17.31354 a 4.5,4.5 0 1 1 -9,0 4.5,4.5 0 1 1 9,0 z"/>
                            </g>
                        </g>
                    </g>
                    <g  transform="matrix(0.56542416,0,0,0.56542416,76.749195,83.27094)">
                        <g >
                            <g >
                                <path stroke-opacity="1" fill="none" gorn="0.4.0.0.0.15.0.0.0"  stroke="#f7bd13" style="stroke-linecap:round;stroke-linejoin:round;stroke-miterlimit:4;stroke-dasharray:none;display:inline" id="connector33pad" stroke-width="2.77876806" d="m 63.891727,17.31354 a 4.5,4.5 0 1 1 -9,0 4.5,4.5 0 1 1 9,0 z"/>
                            </g>
                        </g>
                    </g>
                    <g  transform="matrix(0.56542416,0,0,0.56542416,85.749195,83.27094)">
                        <g >
                            <g >
                                <path stroke-opacity="1" fill="none" gorn="0.4.0.0.0.16.0.0.0"  stroke="#f7bd13" style="stroke-linecap:round;stroke-linejoin:round;stroke-miterlimit:4;stroke-dasharray:none;display:inline" id="connector34pad" stroke-width="2.77876806" d="m 63.891727,17.31354 a 4.5,4.5 0 1 1 -9,0 4.5,4.5 0 1 1 9,0 z"/>
                            </g>
                        </g>
                    </g>
                    <g  transform="matrix(0.56542416,0,0,0.56542416,94.749195,83.27094)">
                        <g >
                            <g >
                                <path stroke-opacity="1" fill="none" gorn="0.4.0.0.0.17.0.0.0"  stroke="#f7bd13" style="stroke-linecap:round;stroke-linejoin:round;stroke-miterlimit:4;stroke-dasharray:none;display:inline" id="connector35pad" stroke-width="2.77876806" d="m 63.891727,17.31354 a 4.5,4.5 0 1 1 -9,0 4.5,4.5 0 1 1 9,0 z"/>
                            </g>
                        </g>
                    </g>
                    <g  transform="matrix(0.56542416,0,0,0.56542416,103.7492,83.27094)">
                        <g >
                            <g >
                                <path stroke-opacity="1" fill="none" gorn="0.4.0.0.0.18.0.0.0"  stroke="#f7bd13" style="stroke-linecap:round;stroke-linejoin:round;stroke-miterlimit:4;stroke-dasharray:none;display:inline" id="connector36pad" stroke-width="2.77876806" d="m 63.891727,17.31354 a 4.5,4.5 0 1 1 -9,0 4.5,4.5 0 1 1 9,0 z"/>
                            </g>
                        </g>
                    </g>
                    <g  transform="matrix(0.56542416,0,0,0.56542416,40.749197,83.27094)">
                        <g >
                            <g >
                                <path stroke-opacity="1" fill="none" gorn="0.4.0.0.0.19.0.0.0"  stroke="#f7bd13" style="stroke-linecap:round;stroke-linejoin:round;stroke-miterlimit:4;stroke-dasharray:none;display:inline" id="connector29pad" stroke-width="2.77876806" d="m 63.891727,17.31354 a 4.5,4.5 0 1 1 -9,0 4.5,4.5 0 1 1 9,0 z"/>
                            </g>
                        </g>
                    </g>
                </g>
            </g>
        </g>
    </g>
</svg>
