<?xml version="1.0" encoding="UTF-8" standalone="no"?>
<!-- Generator: Adobe Illustrator 16.0.0, SVG Export Plug-In . SVG Version: 6.00 Build 0)  -->

<svg
   enable-background="new 0 0 159.703 85.32"
   gorn="0"
   height="1.1854028in"
   id="Ebene_1"
   version="1.1"
   viewBox="0 0 159.70873 85.349002"
   width="2.2181797in"
   x="0px"
   xml:space="preserve"
   y="0px"
   sodipodi:docname="PowerUnit12V_icon.svg"
   inkscape:version="1.3.2 (091e20e, 2023-11-25, custom)"
   xmlns:inkscape="http://www.inkscape.org/namespaces/inkscape"
   xmlns:sodipodi="http://sodipodi.sourceforge.net/DTD/sodipodi-0.dtd"
   xmlns="http://www.w3.org/2000/svg"
   xmlns:svg="http://www.w3.org/2000/svg"><sodipodi:namedview
   id="namedview1"
   pagecolor="#ffffff"
   bordercolor="#666666"
   borderopacity="1.0"
   inkscape:showpageshadow="2"
   inkscape:pageopacity="0.0"
   inkscape:pagecheckerboard="0"
   inkscape:deskcolor="#d1d1d1"
   inkscape:document-units="in"
   inkscape:zoom="3.7944025"
   inkscape:cx="106.47263"
   inkscape:cy="56.794185"
   inkscape:window-width="1920"
   inkscape:window-height="991"
   inkscape:window-x="-9"
   inkscape:window-y="-9"
   inkscape:window-maximized="1"
   inkscape:current-layer="Ebene_1" /><defs
   id="defs72">
        
        
        
        
        
        
        
        
        
        
        
        
        
        
    </defs>
    <desc
   id="desc1">
        <referenceFile>sparkfun-connectors_bc9vpc_breadboard.svg</referenceFile>
    </desc>
    <g
   id="icon"
   transform="translate(0.0048314)"><circle
     cx="150.66"
     cy="24.66"
     fill="none"
     gorn="0.0.0"
     id="connector0pin"
     r="3.24"
     stroke="#9a916c"
     stroke-width="0.254" /><circle
     cx="150.66"
     cy="61.380001"
     fill="none"
     gorn="0.0.1"
     id="connector1pin"
     r="3.24"
     stroke="#9a916c"
     stroke-width="0.254" /><g
     id="g1">
            <path
   d="m 0,83.88 c 0,0.792 0.648,1.44 1.44,1.44 h 156.824 c 0.791,0 1.439,-0.648 1.439,-1.44 V 1.44 C 159.703,0.648 159.055,0 158.264,0 H 1.44 C 0.648,0 0,0.648 0,1.44 Z"
   fill="#4d4d4d"
   id="path1" />
        </g><polygon
     fill="#333333"
     points="159.703,85.32 159.704,78.984 159.704,69.662 154.797,69.662 154.797,79.246 145.16,79.246 145.16,85.349 "
     id="polygon1" /><g
     id="g64">
            <g
   id="g5">
                <path
   d="M 146.209,67.257 V 52.8 c 0,-0.312 -0.254,-0.564 -0.566,-0.564 h -8.219 c -0.313,0 -0.566,0.255 -0.566,0.564 v 7.229 7.229 c 0,0.313 0.254,0.566 0.566,0.566 h 8.217 c 0.314,-0.001 0.568,-0.255 0.568,-0.567 z m -8.689,-0.304 c -0.306,0 -0.554,-0.248 -0.554,-0.552 v -6.373 -6.373 c 0,-0.304 0.248,-0.552 0.554,-0.552 h 8.024 c 0.306,0 0.554,0.248 0.554,0.552 v 12.746 c 0,0.304 -0.248,0.552 -0.554,0.552 z"
   fill="#939393"
   id="path2" />
                <path
   d="m 146.096,66.402 v -6.373 -6.373 c 0,-0.304 -0.248,-0.552 -0.552,-0.552 h -8.024 c -0.306,0 -0.554,0.248 -0.554,0.552 v 6.373 6.373 c 0,0.304 0.248,0.552 0.554,0.552 h 8.024 c 0.304,-10e-4 0.552,-0.249 0.552,-0.552 z"
   fill="#b2b2b2"
   id="path3" />
                <path
   d="M 146.008,65.156 V 60.028 54.9 c 0,-0.28 -0.229,-0.511 -0.51,-0.511 h -7.619 c -0.281,0 -0.51,0.229 -0.51,0.511 v 3.979 c 0.094,-0.107 0.23,-0.186 0.395,-0.186 h 6.867 c 0.281,0 0.51,0.21 0.51,0.466 v 0.866 2.475 c 0,0.256 -0.229,0.466 -0.51,0.466 h -6.865 c -0.164,0 -0.303,-0.074 -0.396,-0.186 v 2.374 c 0,0.28 0.229,0.51 0.51,0.51 h 7.621 c 0.278,0.002 0.507,-0.227 0.507,-0.508 z"
   fill="#e6e6e6"
   id="path4" />
                <path
   d="m 138.092,57.588 c -0.299,0 -0.543,0.199 -0.543,0.442 v -2.173 c 0,-0.244 0.244,-0.443 0.543,-0.443 h 7.277 c 0.299,0 0.541,0.199 0.541,0.443 v 2.173 c 0,-0.243 -0.242,-0.442 -0.541,-0.442 z"
   enable-background="new    "
   fill="#ffffff"
   opacity="0.9"
   id="path5" />
            </g>
            <g
   id="g20">
                <path
   d="m 139.156,49.703 c -0.018,0.384 0.672,1.126 0.672,1.126 0,0 -0.742,0.365 -0.791,1.012 -0.217,2.889 -0.119,4.328 -0.119,7.215 0,0.391 -0.014,0.813 0.49,0.996 -0.504,0.182 -0.49,0.604 -0.49,0.992 0,2.945 -0.086,4.413 0.137,7.36 0.055,0.715 0.791,1.017 0.791,1.017 0,0 -0.719,0.423 -0.699,0.854 0.011,0.519 -0.028,1.007 0.418,1.046 1.734,0.151 2.527,0.295 4.084,0.371 1.322,0.063 1.9,-0.393 3.377,-0.393 1.019,0 2.17,-0.902 2.17,-1.673 0,-2.716 -0.063,-4.073 0.144,-6.79 0.093,-1.206 -0.142,-2.45 -1.229,-2.785 1.088,-0.337 1.322,-1.586 1.232,-2.791 -0.205,-2.716 -0.146,-4.071 -0.146,-6.788 0,-0.769 -1.233,-1.537 -2.17,-1.537 0,0 -2.106,-0.685 -3.676,-0.574 -1.567,0.108 -3.803,0.556 -3.803,0.556 -0.64,0.052 -0.384,0.602 -0.392,0.786 z"
   fill="#919191"
   id="path6" />
                <g
   id="g9">
                    <path
   d="m 141.488,71.208 c -0.252,-0.849 -0.492,-1.445 -0.492,-1.445 1.797,0.175 2.646,0.275 4.164,-0.001 -0.092,0.521 -0.176,1.007 -0.25,1.478 -1.301,0.276 -1.916,0.064 -3.422,-0.032 z"
   fill="#f4f4f4"
   id="path7" />
                    <path
   d="m 139.555,70.958 c 0.038,-0.747 0.643,-1.271 1.44,-1.195 0,0 0.239,0.599 0.491,1.445 -0.771,-0.05 -1.158,-0.181 -1.931,-0.25 z"
   fill="#b7b7b7"
   id="path8" />
                    <path
   d="m 144.256,69.865 c 0.6,-0.015 0.822,-0.095 1.342,-0.188 0.68,-0.121 1.354,0.505 1.406,1.259 -0.926,0 -1.295,0.131 -2.094,0.302 0,-0.56 -0.111,-1.385 -0.654,-1.373 z"
   fill="#999999"
   id="path9" />
                </g>
                <g
   id="g13">
                    <path
   d="m 140.945,69.001 c -0.834,-0.062 -1.543,-0.548 -1.58,-1.063 -0.189,-2.619 -0.102,-3.907 -0.102,-6.509 0,-0.516 0.676,-0.933 1.512,-0.933 0,0 1.416,0.188 2.246,0.188 0.828,0 2.155,-0.188 2.155,-0.188 1.238,0 2.104,0.417 2.074,0.933 -0.146,2.602 -0.239,3.901 -0.239,6.503 0,0.514 -0.707,0.902 -1.416,1.002 -1.699,0.232 -2.644,0.218 -4.65,0.067 z"
   fill="#f4f4f4"
   id="path10" />
                    <g
   id="g11">
                        <path
   d="m 139.365,67.937 c -0.189,-2.619 -0.102,-3.907 -0.102,-6.509 0,-0.516 0.676,-0.933 1.512,-0.933 0,0 0.119,2.748 0.119,4.409 0,1.786 0.051,4.095 0.051,4.095 -0.834,-0.06 -1.543,-0.546 -1.58,-1.062 z"
   fill="#b7b7b7"
   id="path11" />
                    </g>
                    <g
   id="g12">
                        <path
   d="m 147.012,67.931 c 0,-2.602 0.094,-3.901 0.239,-6.503 0.028,-0.516 -0.642,-0.933 -1.472,-0.933 -0.245,0 -0.368,0 -0.612,0 -0.396,1.22 -0.644,2.746 -0.644,4.407 -0.002,1.797 0.599,3.009 -0.354,4.171 0.646,0.002 0.879,-0.067 1.427,-0.144 0.709,-0.094 1.416,-0.484 1.416,-0.998 z"
   fill="#999999"
   id="path12" />
                    </g>
                </g>
                <g
   id="g15">
                    <path
   d="m 141.486,48.893 c -0.254,0.851 -0.494,1.447 -0.494,1.447 1.797,-0.171 2.648,-0.271 4.168,0 -0.092,-0.52 -0.176,-1.004 -0.25,-1.476 -1.301,-0.273 -1.918,-0.069 -3.424,0.029 z"
   fill="#f4f4f4"
   id="path13" />
                    <path
   d="m 139.551,49.141 c 0.037,0.746 0.641,1.275 1.439,1.199 0,0 0.24,-0.599 0.494,-1.447 -0.771,0.05 -1.158,0.179 -1.933,0.248 z"
   fill="#b7b7b7"
   id="path14" />
                    <path
   d="m 143.926,50.239 c 0.715,-0.006 1.037,0.072 1.672,0.184 0.68,0.119 1.354,-0.506 1.406,-1.259 -0.926,0 -1.295,-0.129 -2.094,-0.298 0,0.422 -0.334,1.369 -0.984,1.373 z"
   fill="#999999"
   id="path15" />
                </g>
                <g
   id="g19">
                    <path
   d="m 140.939,51.102 c -0.834,0.062 -1.541,0.546 -1.578,1.062 -0.188,2.617 -0.098,3.907 -0.098,6.507 0,0.517 0.676,0.929 1.512,0.929 0,0 1.521,-0.169 2.434,-0.169 0.914,0 1.969,0.169 1.969,0.169 0.832,0 2.107,-0.412 2.08,-0.929 -0.145,-2.6 -0.244,-3.899 -0.244,-6.501 0,-0.513 -0.707,-0.902 -1.416,-0.999 -1.702,-0.229 -2.653,-0.216 -4.659,-0.069 z"
   fill="#f4f4f4"
   id="path16" />
                    <g
   id="g17">
                        <path
   d="m 139.361,52.163 c -0.188,2.617 -0.098,3.907 -0.098,6.507 0,0.517 0.676,0.929 1.512,0.929 0,0 0.119,-2.743 0.119,-4.404 0,-1.786 0.045,-4.091 0.045,-4.091 -0.834,0.059 -1.541,0.544 -1.578,1.059 z"
   fill="#b7b7b7"
   id="path17" />
                    </g>
                    <g
   id="g18">
                        <path
   d="m 147.012,52.169 c 0,2.602 0.102,3.901 0.243,6.501 0.029,0.517 -0.642,0.929 -1.473,0.929 -0.246,0 -0.369,0 -0.615,0 -0.396,-1.22 -0.642,-2.744 -0.644,-4.404 -0.002,-1.796 0.334,-3.2 -0.567,-4.164 0.711,-10e-4 1.021,0.059 1.64,0.142 0.709,0.091 1.416,0.483 1.416,0.996 z"
   fill="#999999"
   id="path18" />
                    </g>
                </g>
            </g>
            <g
   id="g24">
                <g
   id="g23">
                    <path
   d="m 139.674,16.705 v 14.458 c 0,0.313 0.256,0.566 0.568,0.566 h 8.219 c 0.313,0 0.566,-0.256 0.566,-0.566 v -7.229 -7.229 c 0,-0.312 -0.254,-0.565 -0.566,-0.565 h -8.219 c -0.315,-0.001 -0.568,0.255 -0.568,0.565 z m 8.689,0.304 c 0.305,0 0.553,0.248 0.553,0.554 v 6.374 6.373 c 0,0.304 -0.248,0.552 -0.553,0.552 h -8.025 c -0.303,0 -0.551,-0.248 -0.551,-0.552 V 17.562 c 0,-0.306 0.248,-0.554 0.551,-0.554 h 8.025 z"
   fill="#939393"
   id="path20" />
                    <path
   d="m 139.787,17.562 v 6.374 6.373 c 0,0.304 0.248,0.552 0.551,0.552 h 8.025 c 0.305,0 0.553,-0.248 0.553,-0.552 v -6.373 -6.374 c 0,-0.306 -0.248,-0.554 -0.553,-0.554 h -8.025 c -0.303,0.001 -0.551,0.249 -0.551,0.554 z"
   fill="#b2b2b2"
   id="path21" />
                    <path
   d="m 139.875,18.806 v 5.129 5.128 c 0,0.278 0.23,0.51 0.51,0.51 h 7.621 c 0.281,0 0.51,-0.229 0.51,-0.51 v -3.981 c -0.094,0.109 -0.231,0.188 -0.396,0.188 h -6.865 c -0.28,0 -0.51,-0.21 -0.51,-0.467 v -0.865 -2.476 c 0,-0.256 0.229,-0.466 0.51,-0.466 h 6.865 c 0.164,0 0.303,0.076 0.396,0.187 V 18.81 c 0,-0.28 -0.229,-0.512 -0.511,-0.512 h -7.618 c -0.283,-0.002 -0.512,0.229 -0.512,0.508 z"
   fill="#e6e6e6"
   id="path22" />
                    <path
   d="m 147.793,26.375 c 0.299,0 0.541,-0.198 0.541,-0.44 v 2.173 c 0,0.244 -0.242,0.441 -0.541,0.441 h -7.277 c -0.299,0 -0.543,-0.197 -0.543,-0.441 v -2.173 c 0,0.242 0.244,0.44 0.543,0.44 z"
   enable-background="new    "
   fill="#ffffff"
   opacity="0.9"
   id="path23" />
                </g>
                <rect
   enable-background="new    "
   height="15.547"
   opacity="0.1"
   width="1.5470001"
   x="147.44099"
   y="16.150999"
   id="rect23" />
            </g>
            <g
   id="g38">
                <path
   d="m 145.773,34.254 c 0.018,-0.384 -0.674,-1.126 -0.674,-1.126 0,0 0.743,-0.364 0.793,-1.012 0.217,-2.887 0.119,-4.328 0.119,-7.214 0,-0.391 0.014,-0.813 -0.49,-0.996 0.504,-0.18 0.49,-0.603 0.49,-0.993 0,-2.946 0.086,-4.414 -0.138,-7.36 -0.054,-0.716 -0.791,-1.018 -0.791,-1.018 0,0 0.719,-0.422 0.699,-0.852 -0.011,-0.521 0.028,-1.009 -0.418,-1.047 -1.734,-0.151 -2.527,-0.296 -4.082,-0.37 -1.324,-0.065 -1.902,0.391 -3.38,0.391 -1.018,0 -2.17,0.904 -2.17,1.673 0,2.716 0.063,4.074 -0.143,6.79 -0.092,1.207 0.143,2.452 1.229,2.787 -1.088,0.336 -1.321,1.585 -1.231,2.791 0.205,2.715 0.146,4.072 0.146,6.788 0,0.768 1.234,1.538 2.172,1.538 0,0 2.105,0.683 3.675,0.573 1.569,-0.108 3.801,-0.557 3.801,-0.557 0.641,-0.052 0.386,-0.601 0.393,-0.786 z"
   fill="#919191"
   id="path24" />
                <g
   id="g27">
                    <path
   d="m 143.441,12.748 c 0.252,0.85 0.49,1.446 0.49,1.446 -1.798,-0.174 -2.646,-0.276 -4.162,10e-4 0.092,-0.521 0.176,-1.006 0.25,-1.479 1.301,-0.274 1.915,-0.063 3.422,0.032 z"
   fill="#f4f4f4"
   id="path25" />
                    <path
   d="m 145.375,12.998 c -0.039,0.747 -0.643,1.273 -1.441,1.196 0,0 -0.24,-0.599 -0.492,-1.446 0.773,0.05 1.158,0.182 1.933,0.25 z"
   fill="#b7b7b7"
   id="path26" />
                    <path
   d="m 140.674,14.091 c -0.6,0.017 -0.822,0.097 -1.342,0.188 -0.68,0.121 -1.354,-0.505 -1.406,-1.258 0.926,0 1.295,-0.131 2.096,-0.303 -0.002,0.561 0.109,1.387 0.652,1.373 z"
   fill="#999999"
   id="path27" />
                </g>
                <g
   id="g31">
                    <path
   d="m 143.984,14.955 c 0.834,0.063 1.543,0.548 1.58,1.064 0.188,2.618 0.1,3.905 0.1,6.508 0,0.515 -0.674,0.932 -1.51,0.932 0,0 -1.416,-0.187 -2.246,-0.187 -0.83,0 -2.156,0.187 -2.156,0.187 -1.24,0 -2.104,-0.417 -2.076,-0.932 0.148,-2.603 0.24,-3.903 0.24,-6.503 0,-0.514 0.707,-0.903 1.416,-1.001 1.701,-0.233 2.647,-0.218 4.652,-0.068 z"
   fill="#f4f4f4"
   id="path28" />
                    <g
   id="g29">
                        <path
   d="m 145.564,16.021 c 0.188,2.618 0.1,3.906 0.1,6.508 0,0.515 -0.674,0.932 -1.51,0.932 0,0 -0.119,-2.749 -0.119,-4.409 0,-1.785 -0.051,-4.096 -0.051,-4.096 0.834,0.063 1.543,0.547 1.58,1.065 z"
   fill="#b7b7b7"
   id="path29" />
                    </g>
                    <g
   id="g30">
                        <path
   d="m 137.916,16.026 c 0,2.601 -0.092,3.901 -0.24,6.503 -0.027,0.515 0.643,0.932 1.473,0.932 0.244,0 0.367,0 0.613,0 0.396,-1.22 0.643,-2.747 0.643,-4.407 0.003,-1.798 -0.6,-3.01 0.355,-4.172 -0.645,-0.002 -0.879,0.067 -1.428,0.145 -0.709,0.094 -1.416,0.485 -1.416,0.999 z"
   fill="#999999"
   id="path30" />
                    </g>
                </g>
                <g
   id="g33">
                    <path
   d="m 143.443,35.065 c 0.254,-0.853 0.494,-1.449 0.494,-1.449 -1.797,0.171 -2.65,0.271 -4.168,0 0.092,0.521 0.176,1.004 0.25,1.476 1.301,0.274 1.919,0.07 3.424,-0.027 z"
   fill="#f4f4f4"
   id="path31" />
                    <path
   d="m 145.377,34.817 c -0.037,-0.747 -0.639,-1.277 -1.438,-1.201 0,0 -0.24,0.599 -0.494,1.449 0.772,-0.051 1.159,-0.18 1.932,-0.248 z"
   fill="#b7b7b7"
   id="path32" />
                    <path
   d="m 141.004,33.719 c -0.715,0.006 -1.037,-0.071 -1.672,-0.185 -0.68,-0.119 -1.354,0.506 -1.406,1.259 0.926,0 1.295,0.129 2.096,0.298 -0.002,-0.422 0.332,-1.369 0.982,-1.372 z"
   fill="#999999"
   id="path33" />
                </g>
                <g
   id="g37">
                    <path
   d="m 143.99,32.856 c 0.834,-0.063 1.541,-0.546 1.578,-1.063 0.186,-2.616 0.096,-3.906 0.096,-6.507 0,-0.515 -0.674,-0.928 -1.51,-0.928 0,0 -1.521,0.169 -2.437,0.169 -0.911,0 -1.967,-0.169 -1.967,-0.169 -0.832,0 -2.108,0.413 -2.08,0.928 0.146,2.601 0.244,3.901 0.244,6.501 0,0.513 0.707,0.904 1.416,0.999 1.703,0.23 2.654,0.216 4.66,0.07 z"
   fill="#f4f4f4"
   id="path34" />
                    <g
   id="g35">
                        <path
   d="m 145.568,31.794 c 0.186,-2.616 0.096,-3.906 0.096,-6.507 0,-0.515 -0.674,-0.928 -1.51,-0.928 0,0 -0.119,2.744 -0.119,4.404 0,1.785 -0.045,4.092 -0.045,4.092 0.834,-0.061 1.541,-0.545 1.578,-1.061 z"
   fill="#b7b7b7"
   id="path35" />
                    </g>
                    <g
   id="g36">
                        <path
   d="m 137.916,31.788 c 0,-2.6 -0.1,-3.9 -0.244,-6.501 -0.027,-0.515 0.643,-0.928 1.475,-0.928 0.244,0 0.367,0 0.613,0 0.396,1.219 0.643,2.745 0.645,4.404 0.003,1.797 -0.334,3.199 0.566,4.164 -0.711,10e-4 -1.018,-0.06 -1.639,-0.143 -0.709,-0.091 -1.416,-0.482 -1.416,-0.996 z"
   fill="#999999"
   id="path36" />
                    </g>
                </g>
            </g>
            <g
   id="g39">
                <path
   d="m 137.754,73.465 c 0,1.985 -1.703,4.536 -3.783,4.536 H 6.308 c -2.545,0 -4.627,-2.551 -4.627,-5.67 V 12.803 c 0,-3.117 2.082,-5.67 4.627,-5.67 h 127.661 c 2.082,0 3.783,2.553 3.783,6.804 v 59.527 h 0.002 z"
   fill="#353535"
   id="path38" />
                <path
   d="M 104.158,78.001 V 7.134 h 29.811 c 2.08,0 3.783,2.553 3.783,6.804 v 59.527 c 0,1.985 -1.703,4.536 -3.783,4.536 z"
   fill="#d18d52"
   id="path39" />
            </g>
            <path
   d="m 4.548,76.737 c -0.575,0 -1.067,-1.594 -1.237,-3.783 l 132.351,0.001 c -0.139,2.189 -0.541,3.783 -1.012,3.783 z"
   enable-background="new    "
   opacity="0.15"
   id="path40" />
            <path
   d="m 4.57,8.279 c -0.575,0 -1.067,1.594 -1.237,3.783 h 132.33 c -0.14,-2.189 -0.541,-3.783 -1.013,-3.783 z"
   enable-background="new    "
   fill="#ffffff"
   opacity="0.29"
   id="path41" />
            <path
   d="m 134.662,8.279 c 0.586,0 1.064,2.464 1.064,5.477 v 57.508 c 0,3.014 -0.479,5.478 -1.064,5.478 h 0.217 c 1.053,0 1.914,-2.464 1.914,-5.478 v -57.51 c 0,-3.013 -0.861,-5.477 -1.914,-5.477 z"
   enable-background="new    "
   opacity="0.35"
   id="path42" />
            <g
   opacity="0.4"
   id="g43">
                <path
   d="m 135.031,76.738 c 0,0 -128.895,-0.001 -130.53,-0.001 0.297,0.629 0.297,0.629 0.646,1 0.625,0 126.219,0.001 126.68,0.001 1.993,0 2.562,-0.707 3.204,-1 z"
   id="path43" />
            </g>
            <g
   opacity="0.2"
   id="g44">
                <path
   d="m 134.65,8.279 c 0,0 -128.446,0 -130.082,0 0.297,-0.628 0.63,-0.971 1.266,-1.146 0.625,0 126.22,0 126.681,0 1.454,0.001 2.135,0.933 2.135,1.146 z"
   fill="#ffffff"
   id="path44" />
            </g>
            <g
   id="g63">
                <rect
   fill="none"
   height="15.547"
   width="1.5470001"
   x="139.13699"
   y="52.516998"
   id="rect44" />
                <path
   d="m 3.92,13.055 v 0.061 c 0,-0.1 0.008,-0.195 0.012,-0.293 -0.005,0.078 -0.012,0.154 -0.012,0.232 z"
   fill="#353535"
   id="path45" />
                <path
   d="m 3.945,12.496 c 0,-0.021 0.004,-0.041 0.006,-0.062 -0.002,0.021 -0.006,0.043 -0.006,0.062 z"
   fill="#353535"
   id="path46" />
                <path
   d="m 3.931,12.823 c 0.004,-0.108 0.004,-0.219 0.014,-0.325 -0.008,0.106 -0.01,0.214 -0.014,0.325 z"
   enable-background="new    "
   opacity="0.35"
   id="path47" />
                <rect
   fill="none"
   height="15.547"
   width="1.5470001"
   x="136.896"
   y="52.265999"
   id="rect47" />
                <rect
   enable-background="new    "
   height="22.591999"
   opacity="0.1"
   width="1.5470001"
   x="136.896"
   y="12.516"
   id="rect48" />
                <path
   d="m 1.68,12.803 v 0.061 c 0,-0.1 0.008,-0.195 0.011,-0.293 -0.003,0.078 -0.011,0.154 -0.011,0.232 z"
   fill="#353535"
   id="path48" />
                <path
   d="M 1.704,12.244 C 1.705,12.223 1.708,12.203 1.71,12.182 1.708,12.203 1.705,12.225 1.704,12.244 Z"
   fill="#353535"
   id="path49" />
                <path
   d="M 1.691,12.571 C 1.695,12.463 1.696,12.352 1.705,12.246 1.697,12.352 1.695,12.46 1.691,12.571 Z"
   enable-background="new    "
   opacity="0.35"
   id="path50" />
                <path
   d="M 5.3,77.86 C 4.404,77.255 3.735,75.018 3.735,72.362 v -59.5 c 0,-3.117 0.924,-5.666 2.052,-5.666 H 5.662 C 3.586,7.555 1.941,9.616 1.711,12.182 1.709,12.203 1.706,12.222 1.705,12.244 1.696,12.35 1.695,12.461 1.691,12.569 1.688,12.667 1.68,12.762 1.68,12.862 V 72.33 c 0,2.696 1.557,4.962 3.62,5.53 z"
   fill="#353535"
   id="path51" />
                <path
   d="M 5.3,77.86 C 4.404,77.255 3.735,75.018 3.735,72.362 v -59.5 c 0,-3.117 0.924,-5.666 2.052,-5.666 H 5.662 C 3.586,7.555 1.941,9.616 1.711,12.182 1.709,12.203 1.706,12.222 1.705,12.244 1.696,12.35 1.695,12.461 1.691,12.569 1.688,12.667 1.68,12.762 1.68,12.862 V 72.33 c 0,2.696 1.557,4.962 3.62,5.53 z"
   enable-background="new    "
   opacity="0.34"
   id="path52" />
                <path
   d="m 148.516,74.886 c -0.222,14.56 7.94,8.474 8.108,-2.489"
   fill="none"
   stroke="#000000"
   stroke-width="2"
   id="path53" />
                <path
   d="m 150.094,74.845 c 0,11.895 8.489,4.194 8.489,-2.314"
   fill="none"
   stroke="#ff0000"
   stroke-width="2"
   id="path54" />
                <path
   d="m 146.635,74.886 c 0,0 3.563,0 4.48,0 1.699,0 2.436,-1.166 2.436,-6.258 v -52.14 c 0,-5.091 -0.736,-6.257 -2.436,-6.257 -0.918,0 -4.48,0 -4.48,0 z"
   fill="#262626"
   id="path55" />
                <path
   d="m 152.986,69.901 c 0,3.608 -0.861,4.257 -1.914,4.257 h -0.217 c 0.586,0 1.063,-1.447 1.063,-4.257 V 15.215 c 0,-2.81 -0.479,-4.257 -1.063,-4.257 h 0.217 c 1.053,0 1.914,0.647 1.914,4.257 z"
   enable-background="new    "
   fill="#ffffff"
   opacity="0.35"
   id="path56" />
                <path
   d="m 151.736,12.719 c -0.188,-1.151 -0.51,-1.762 -0.881,-1.762 h -3.818 v 1.762 z"
   enable-background="new    "
   fill="#ffffff"
   opacity="0.15"
   id="path57" />
                <path
   d="m 151.736,72.397 c -0.188,1.15 -0.51,1.761 -0.881,1.761 h -3.818 v -1.761 z"
   enable-background="new    "
   fill="#ffffff"
   opacity="0.15"
   id="path58" />
                <g
   id="g62">
                    <g
   transform="rotate(90,23.919801,53.693498)"
   id="g58">
                        <text
   fill="#ffffff"
   font-family="OCRA"
   font-size="22px"
   id="text58"
   style="font-style:normal;font-variant:normal;font-weight:normal;font-stretch:normal;font-size:22px;font-family:OCRA;-inkscape-font-specification:'OCRA, Normal';font-variant-ligatures:normal;font-variant-caps:normal;font-variant-numeric:normal;font-variant-east-asian:normal;fill:#ffffff"
   x="-10.277929"><tspan
     id="tspan72"
     x="-10.277929"
     y="0">12</tspan></text>
                    </g>
                    <g
   transform="rotate(90,16.951301,60.661998)"
   id="g59">
                        <text
   fill="#ffffff"
   font-family="OCRA"
   font-size="22px"
   id="text59"
   x="5.929575"
   y="-0.39530498">v</text>
                    </g>
                    <g
   transform="rotate(90,49.0665,65.128798)"
   id="g60">
                        <text
   fill="#ffffff"
   font-family="OCRA"
   font-size="22px"
   id="text60">+</text>
                    </g>
                    <g
   transform="rotate(90,30.750151,84.367047)"
   id="g61">
                        <text
   fill="#ffffff"
   font-family="OCRA"
   font-size="22px"
   id="text61">-</text>
                    </g>
                </g>
            </g>
        </g><g
     id="g65">
            <path
   d="m 1.439,0 c -0.792,0 -1.44,0.648 -1.44,1.44 v 82.469 c 0,0.792 0.648,1.44 1.44,1.44 H 144.65 c 0.793,0 1.44,-0.648 1.44,-1.44 v -3.274 c 0,-0.793 -0.647,-1.44 -1.44,-1.44 H 3.146 c -0.792,0 -1.44,-0.648 -1.44,-1.44 V 67.506 c 0,-0.792 0.648,-1.439 1.44,-1.439 h 3.765 c 0.792,0 1.44,-0.648 1.44,-1.44 v -7.351 c 0,-0.792 -0.648,-1.44 -1.44,-1.44 H 3.146 c -0.792,0 -1.44,-0.647 -1.44,-1.439 v -23.47 c 0,-0.793 0.648,-1.44 1.44,-1.44 h 3.765 c 0.792,0 1.44,-0.648 1.44,-1.44 v -7.352 c 0,-0.792 -0.648,-1.44 -1.44,-1.44 H 3.146 c -0.792,0 -1.44,-0.647 -1.44,-1.439 V 7.596 c 0,-0.792 0.648,-1.44 1.44,-1.44 h 150.209 c 0.793,0 1.44,0.648 1.44,1.44 V 71.09 c 0,0.792 0.647,1.44 1.44,1.44 h 2.025 c 0.791,0 1.439,-0.648 1.439,-1.44 V 1.44 C 159.699,0.648 159.051,0 158.26,0 Z"
   fill="#1a1a1a"
   id="path64" />
        </g><g
     id="g66">
            <path
   d="M 145.91,79.923 H 1.706 V 77.86 c 0,0.597 0.636,1.343 1.558,1.343 0,0 140.946,0 141.541,0 0.593,0 0.924,0.482 1.105,0.72 z"
   enable-background="new    "
   fill="#ffffff"
   opacity="0.25"
   id="path65" />
            <path
   d="M 145.605,79.562 H 1.706 V 77.86 c 0,0.644 0.723,1.347 1.426,1.343 0,0 141.173,0 141.673,0 0.5,0 0.8,0.359 0.8,0.359 z"
   enable-background="new    "
   fill="#ffffff"
   opacity="0.25"
   id="path66" />
        </g><g
     opacity="0.25"
     id="g67">
            <path
   d="M 158.262,0 H 1.8 C 1.008,0 0.279,0 0.18,0 0.081,0 0,0.081 0,0.179 c 0,0.1 0,0.828 0,1.62 v 82.109 c 0.01,0.393 0.053,0.569 0.36,0.938 V 1.8 C 0.36,1.008 1.008,0.361 1.8,0.361 H 159.211 C 158.945,0.113 158.617,0 158.262,0 Z"
   fill="#ffffff"
   id="path67" />
        </g><g
     opacity="0.25"
     id="g68">
            <path
   d="M 158.262,0 H 2.16 C 1.368,0 0.558,0 0.36,0 0.162,0 0,0.162 0,0.36 0,0.558 0,1.368 0,2.16 V 83.7 c -0.055,0.694 0.36,1.315 0.72,1.444 V 2.16 C 0.72,1.368 1.368,0.721 2.16,0.721 H 159.492 C 159.367,0.41 158.898,0 158.262,0 Z"
   fill="#ffffff"
   id="path68" />
        </g><g
     opacity="0.41"
     id="g69">
            <path
   d="m 1.436,85.32 h 156.103 c 0.792,0 1.602,0 1.8,0 0.198,0 0.36,-0.162 0.36,-0.36 0,-0.197 0,-1.008 0,-1.8 V 1.62 c 0.055,-0.693 -0.36,-1.314 -0.721,-1.443 V 83.16 c 0,0.792 -0.647,1.439 -1.439,1.439 H 0.726 c -0.006,0.545 0,0.721 0.71,0.721 z"
   id="path69" />
        </g><rect
     enable-background="new    "
     fill="#ffffff"
     height="10.231"
     opacity="0.15"
     width="2.454"
     x="3.332"
     y="19.254999"
     id="rect69" /><rect
     enable-background="new    "
     fill="#ffffff"
     height="10.231"
     opacity="0.15"
     width="2.454"
     x="4.559"
     y="19.254999"
     id="rect70" /><rect
     enable-background="new    "
     fill="#ffffff"
     height="10.231"
     opacity="0.15"
     width="2.454"
     x="3.332"
     y="55.839001"
     id="rect71" /><rect
     enable-background="new    "
     fill="#ffffff"
     height="10.231"
     opacity="0.15"
     width="2.454"
     x="4.559"
     y="55.839001"
     id="rect72" /></g>
</svg>
