<?xml version='1.0' encoding='utf-8'?>
<!-- Generator: Adobe Illustrator 16.0.0, SVG Export Plug-In . SVG Version: 6.00 Build 0)  -->
<svg xmlns="http://www.w3.org/2000/svg"  width="1.18383in" xml:space="preserve" xmlns:xml="http://www.w3.org/XML/1998/namespace" x="0px" version="1.2" y="0px" height="1.97342in" viewBox="0 0 85.236 142.086" baseProfile="tiny" id="0">
 <desc   id="0.0" oldid="0.0">
  <referenceFile   id="0.0.0" oldid="0.0.0">breadboard.svg</referenceFile>
 </desc>
 <rect  width="85.236" x="0" y="6.874" fill="#3B56A6"  height="134.929" id="background"/>
 <path  fill="#9B9DA0"  id="0.2" d="M68.908-0.284c-2.78,12.543-13.492,21.893-26.291,21.893s-23.51-9.35-26.289-21.893H2.007v83.642H83.23V-0.284H68.908z"/>
 <g   id="0.3">
  <rect  width="5.668" x="4.334" y="97.635" fill="#A19A35"  height="8.504" id="0.3.0"/>
  <rect  width="5.668" x="37.098" y="93.639" fill="#A19A35"  height="8.504" id="0.3.1"/>
  <rect  width="4.252" x="46.018" y="95.055"  height="5.67" id="0.3.2"/>
  <rect  width="4.252" x="70.652" y="95.055"  height="5.67" id="0.3.3"/>
  <rect  width="4.252" x="62.44" y="95.055"  height="5.67" id="0.3.4"/>
  <rect  width="4.252" x="54.229" y="95.055"  height="5.67" id="0.3.5"/>
  <rect  width="8.041" x="13.555" y="94.285"  height="15.204" id="0.3.6"/>
 </g>
 <g   id="0.4">
  <text  fill="#FFFFFF" font-family="OCRA"  id="0.4.0" transform="matrix(4.489659e-11 -1 1 4.489659e-11 18.4187 123.8574)" font-size="4">GND</text>
  <text  fill="#FFFFFF" font-family="OCRA"  id="0.4.1" transform="matrix(4.489659e-11 -1 1 4.489659e-11 25.6189 123.8574)" font-size="4">+3.3</text>
  <text  fill="#FFFFFF" font-family="OCRA"  id="0.4.2" transform="matrix(4.489659e-11 -1 1 4.489659e-11 32.8181 123.8574)" font-size="4">+5</text>
  <text  fill="#FFFFFF" font-family="OCRA"  id="0.4.3" transform="matrix(4.489659e-11 -1 1 4.489659e-11 40.0183 123.8574)" font-size="4">CS</text>
  <text  fill="#FFFFFF" font-family="OCRA"  id="0.4.4" transform="matrix(4.489659e-11 -1 1 4.489659e-11 47.2185 123.8574)" font-size="4">MOSI</text>
  <text  fill="#FFFFFF" font-family="OCRA"  id="0.4.5" transform="matrix(4.489659e-11 -1 1 4.489659e-11 54.4187 123.8574)" font-size="4">SCK</text>
  <text  fill="#FFFFFF" font-family="OCRA"  id="0.4.6" transform="matrix(4.489659e-11 -1 1 4.489659e-11 61.6179 123.8574)" font-size="4">MISO</text>
  <text  fill="#FFFFFF" font-family="OCRA"  id="0.4.7" transform="matrix(4.489659e-11 -1 1 4.489659e-11 68.8181 123.8574)" font-size="4">GND</text>
 </g>
 <rect  width="85.236" x="0" y="6.874" fill="none"  height="134.929" id="silkscreen"/>
 <g   id="copper1">
  <g   id="0.6.0">
   <circle  fill="#95979A" cx="17.418"  cy="128.857" r="2.834" id="0.6.0.0"/>
   <circle  fill="#FFFFFF" cx="17.418"  cy="128.856" r="1.417" id="0.6.0.1"/>
  </g>
  <g   id="0.6.1">
   <circle  fill="#95979A" cx="24.619"  cy="128.857" r="2.834" id="0.6.1.0"/>
   <circle  fill="#FFFFFF" cx="24.619"  cy="128.856" r="1.417" id="0.6.1.1"/>
  </g>
  <g   id="0.6.2">
   <circle  fill="#95979A" cx="31.818"  cy="128.857" r="2.834" id="0.6.2.0"/>
   <circle  fill="#FFFFFF" cx="31.818"  cy="128.856" r="1.417" id="0.6.2.1"/>
  </g>
  <g   id="0.6.3">
   <circle  fill="#95979A" cx="39.018"  cy="128.857" r="2.834" id="0.6.3.0"/>
   <circle  fill="#FFFFFF" cx="39.018"  cy="128.856" r="1.417" id="0.6.3.1"/>
  </g>
  <g   id="0.6.4">
   <circle  fill="#95979A" cx="46.218"  cy="128.857" r="2.834" id="0.6.4.0"/>
   <circle  fill="#FFFFFF" cx="46.218"  cy="128.856" r="1.417" id="0.6.4.1"/>
  </g>
  <g   id="0.6.5">
   <circle  fill="#95979A" cx="53.418"  cy="128.857" r="2.834" id="0.6.5.0"/>
   <circle  fill="#FFFFFF" cx="53.418"  cy="128.856" r="1.417" id="0.6.5.1"/>
  </g>
  <g   id="0.6.6">
   <circle  fill="#95979A" cx="60.618"  cy="128.857" r="2.834" id="0.6.6.0"/>
   <circle  fill="#FFFFFF" cx="60.618"  cy="128.856" r="1.417" id="0.6.6.1"/>
  </g>
  <g   id="0.6.7">
   <circle  fill="#95979A" cx="67.818"  cy="128.857" r="2.834" id="0.6.7.0"/>
   <circle  fill="#FFFFFF" cx="67.818"  cy="128.856" r="1.417" id="0.6.7.1"/>
  </g>
  <g   id="0.6.8">
   <circle  fill="#95979A" cx="17.418"  cy="136.057" r="2.834" id="0.6.8.0"/>
   <circle  fill="#FFFFFF" cx="17.418"  cy="136.058" r="1.417" id="connector0pin"/>
  </g>
  <g   id="0.6.9">
   <circle  fill="#95979A" cx="24.619"  cy="136.057" r="2.834" id="0.6.9.0"/>
   <circle  fill="#FFFFFF" cx="24.619"  cy="136.058" r="1.417" id="connector1pin"/>
  </g>
  <g   id="0.6.10">
   <circle  fill="#95979A" cx="31.818"  cy="136.057" r="2.834" id="0.6.10.0"/>
   <circle  fill="#FFFFFF" cx="31.818"  cy="136.058" r="1.417" id="connector2pin"/>
  </g>
  <g   id="0.6.11">
   <circle  fill="#95979A" cx="39.018"  cy="136.057" r="2.834" id="0.6.11.0"/>
   <circle  fill="#FFFFFF" cx="39.018"  cy="136.058" r="1.417" id="connector3pin"/>
  </g>
  <g   id="0.6.12">
   <circle  fill="#95979A" cx="46.218"  cy="136.057" r="2.834" id="0.6.12.0"/>
   <circle  fill="#FFFFFF" cx="46.218"  cy="136.058" r="1.417" id="connector4pin"/>
  </g>
  <g   id="0.6.13">
   <circle  fill="#95979A" cx="53.418"  cy="136.057" r="2.834" id="0.6.13.0"/>
   <circle  fill="#FFFFFF" cx="53.418"  cy="136.058" r="1.417" id="connector5pin"/>
  </g>
  <g   id="0.6.14">
   <circle  fill="#95979A" cx="60.618"  cy="136.057" r="2.834" id="0.6.14.0"/>
   <circle  fill="#FFFFFF" cx="60.618"  cy="136.058" r="1.417" id="connector6pin"/>
  </g>
  <g   id="0.6.15">
   <circle  fill="#95979A" cx="67.818"  cy="136.057" r="2.834" id="0.6.15.0"/>
   <circle  fill="#FFFFFF" cx="67.818"  cy="136.058" r="1.417" id="connector7pin"/>
  </g>
 </g>
</svg>
