<?xml version='1.0' encoding='utf-8'?>
<!-- Generator: Adobe Illustrator 20.0.0, SVG Export Plug-In . SVG Version: 6.00 Build 0)  -->
<svg xmlns="http://www.w3.org/2000/svg" gorn="0" xml:space="preserve" width="0.787403in" version="1.2" xmlns:xml="http://www.w3.org/XML/1998/namespace" x="0px" baseProfile="tiny" y="0px"  viewBox="0 0 56.693 255.547" id="svg13574" height="3.54926in">
    <desc >
        <referenceFile >350.svg</referenceFile>
    </desc>
    <g transform="translate(0,-656.35975)" >
        <g >
            <g gorn="0.1.0.0"  id="layer1"/>
        </g>
    </g>
    <g transform="translate(0,-54)" >
        <g >
            <g gorn="0.2.0.0"  id="layer2"/>
        </g>
    </g>
    <g transform="translate(0,-54)" >
        <g >
            <g gorn="0.3.0.0"  id="layer3"/>
        </g>
    </g>
    <g transform="translate(0,-54)" >
        <g >
            <g gorn="0.4.0.0"  id="layer4"/>
        </g>
    </g>
    <g >
        <path gorn="0.5.0" fill="none" d="M24.746,154.335V20.409" stroke-linejoin="round"  stroke="#CB1717" stroke-width="3.6" id="path3821_11_"/>
        <path gorn="0.5.1" fill="none" d="M31.946,154.335V20.409" stroke-linejoin="round"  stroke="#202020" stroke-width="3.6" id="path3815_11_"/>
        <path gorn="0.5.2" fill="none" d="M23.683,151.335l0.142-129.688" stroke-linejoin="round" stroke-linecap="round"  stroke="#E58B8B" stroke-width="0.5669" id="path3821_10_"/>
        <path gorn="0.5.3" fill="none" d="M31.025,151.335V21.647" stroke-linejoin="round" stroke-linecap="round"  stroke="#909090" stroke-width="0.5669" id="path3815_10_"/>
        <rect gorn="0.5.4" width="5.669" fill="none" x="21.912"  height="5.669" id="connector1pin"/>
        <rect gorn="0.5.5" width="5.669" fill="none" x="29.112"  height="5.669" id="connector2pin"/>
        <polygon stroke-miterlimit="10" fill="#EAEAEA" stroke-linejoin="round" stroke-linecap="round"  stroke="#C8C8C8" stroke-width="0.5669" points="35.433,14.74 35.433,2.835 21.26,2.835 21.26,14.74 19.842,20.409 21.26,20.409 35.433,20.409 36.85,20.409 "/>
        <polygon fill="#C8C8C8"  points="26.575,20.126 27.283,20.126 27.283,3.402 26.575,4.11 "/>
        <polygon fill="#FFFFFF"  points="29.409,20.126 29.835,20.126 29.835,3.827 29.409,3.402 "/>
        <path gorn="0.5.9" fill="#E6E6E6" d="M0,167.06h56.693v87.192c0,0.715-0.592,1.295-1.323,1.295H1.323c-0.73,0-1.323-0.58-1.323-1.295V167.06z"  id="rect2997_5_"/>
        <g transform="matrix(-1 -4.325885e-11 4.325885e-11 -1 7.1158 418.9515)" >
            <g >
                <rect width="3.616" fill="#F3F3F3" x="1.75" y="167.06"  height="84.831"/>
            </g>
        </g>
        <path fill="#ADADAD" d="M55.37,255.547c0.73,0,1.323-0.58,1.323-1.295v-0.533h-1.75V167.06h-3.616v86.659H0v0.533c0,0.715,0.592,1.295,1.323,1.295H55.37z" />
        <path fill="#FFCC00" d="M56.693,169.631H0v-17.657c0-0.723,0.586-1.309,1.309-1.309h54.075c0.723,0,1.309,0.586,1.309,1.309V169.631z" />
        <rect width="3.616" fill="#C09900" x="51.327" y="150.665"  height="18.966"/>
        <g transform="matrix(-1 -4.426471e-11 4.426471e-11 -1 7.1158 320.2963)" >
            <g >
                <rect width="3.616" fill="#FFE680" x="1.75" y="150.665"  height="18.966"/>
            </g>
        </g>
        <g gorn="0.5.15"  id="tspan3851_6_">
            <g transform="matrix(0 1 -1 0 24.9562 186.4683)" >
                <g >
                    <text font-size="8" fill="#808080"  font-family="OCRA">350mAh</text>
                </g>
            </g>
        </g>
    </g>
</svg>
