<?xml version='1.0' encoding='utf-8'?>
<!-- Generator: Adobe Illustrator 20.0.0, SVG Export Plug-In . SVG Version: 6.00 Build 0)  -->
<svg xmlns="http://www.w3.org/2000/svg" gorn="0" xml:space="preserve" width="0.511806in" version="1.2" xmlns:xml="http://www.w3.org/XML/1998/namespace" x="0px" baseProfile="tiny" y="0px"  viewBox="0 0 36.85 255.547" id="svg13574" height="3.54926in">
    <desc >
        <referenceFile >110.svg</referenceFile>
    </desc>
    <g transform="translate(0,-656.35975)" >
        <g >
            <g >
                <g gorn="0.1.0.0.0"  id="layer1"/>
            </g>
        </g>
    </g>
    <g transform="translate(0,-54)" >
        <g >
            <g >
                <g gorn="0.2.0.0.0"  id="layer2"/>
            </g>
        </g>
    </g>
    <g transform="translate(0,-54)" >
        <g >
            <g >
                <g gorn="0.3.0.0.0"  id="layer3"/>
            </g>
        </g>
    </g>
    <g transform="translate(0,-54)" >
        <g >
            <g >
                <g gorn="0.4.0.0.0"  id="layer4"/>
            </g>
        </g>
    </g>
    <g >
        <path gorn="0.5.0" fill="none" d="M14.825,154.335V20.409" stroke-linejoin="round"  stroke="#CB1717" stroke-width="3.6" id="path3821"/>
        <path gorn="0.5.1" fill="none" d="M22.025,154.335V20.409" stroke-linejoin="round"  stroke="#202020" stroke-width="3.6" id="path3815"/>
        <path gorn="0.5.2" fill="none" d="M13.762,151.335l0.142-129.688" stroke-linejoin="round" stroke-linecap="round"  stroke="#E58B8B" stroke-width="0.5669" id="path3821_1_"/>
        <path gorn="0.5.3" fill="none" d="M21.104,151.335V21.647" stroke-linejoin="round" stroke-linecap="round"  stroke="#909090" stroke-width="0.5669" id="path3815_1_"/>
        <rect gorn="0.5.4" width="5.669" fill="none" x="11.991"  height="5.669" id="connector1pin"/>
        <rect gorn="0.5.5" width="5.669" fill="none" x="19.191"  height="5.669" id="connector2pin"/>
        <polygon stroke-miterlimit="10" fill="#EAEAEA" stroke-linejoin="round" stroke-linecap="round"  stroke="#C8C8C8" stroke-width="0.5669" points="25.512,14.74 25.512,2.835 11.339,2.835 11.339,14.74 9.921,20.409 11.339,20.409 25.512,20.409 26.929,20.409 "/>
        <polygon fill="#C8C8C8"  points="16.654,20.126 17.362,20.126 17.362,3.402 16.654,4.11 "/>
        <polygon fill="#FFFFFF"  points="19.488,20.126 19.913,20.126 19.913,3.827 19.488,3.402 "/>
        <path gorn="0.5.9" fill="#E6E6E6" d="M0,167.06h36.85v87.192c0,0.715-0.385,1.295-0.86,1.295H0.86c-0.475,0-0.86-0.58-0.86-1.295V167.06z"  id="rect2997"/>
        <g transform="matrix(-1 -6.655222e-11 6.655222e-11 -1 4.6253 418.9515)" >
            <g >
                <g >
                    <rect width="2.351" fill="#F3F3F3" x="1.137" y="167.06"  height="84.831"/>
                </g>
            </g>
        </g>
        <path fill="#ADADAD" d="M35.991,255.547c0.475,0,0.86-0.58,0.86-1.295v-0.533h-1.137V167.06h-2.351v86.659H0v0.533c0,0.715,0.385,1.295,0.86,1.295H35.991z" />
        <path fill="#FFCC00" d="M36.85,169.631H0v-17.91c0-0.583,0.472-1.055,1.055-1.055h34.74c0.583,0,1.055,0.472,1.055,1.055V169.631z" />
        <rect width="2.351" fill="#C09900" x="33.362" y="150.665"  height="18.966"/>
        <g transform="matrix(-1 -6.809987e-11 6.809987e-11 -1 4.6253 320.2963)" >
            <g >
                <g >
                    <rect width="2.351" fill="#FFE680" x="1.137" y="150.665"  height="18.966"/>
                </g>
            </g>
        </g>
        <g gorn="0.5.15"  id="tspan3851">
            <g transform="matrix(0 1 -1 0 15.0336 186.4683)" >
                <g >
                    <g >
                        <text font-size="8" fill="#808080"  font-family="OCRA">110mAh</text>
                    </g>
                </g>
            </g>
        </g>
    </g>
</svg>
