<?xml version='1.0' encoding='utf-8'?>
<!-- Generator: Adobe Illustrator 20.0.0, SVG Export Plug-In . SVG Version: 6.00 Build 0)  -->
<svg xmlns="http://www.w3.org/2000/svg" gorn="0" xml:space="preserve" width="1.14174in" version="1.2" xmlns:xml="http://www.w3.org/XML/1998/namespace" x="0px" baseProfile="tiny" y="0px"  viewBox="0 0 82.205 255.547" id="svg13574" height="3.54926in">
    <desc >
        <referenceFile >500.svg</referenceFile>
    </desc>
    <g transform="translate(0,-656.35975)" >
        <g >
            <g >
                <g >
                    <g gorn="0.1.0.0.0.0"  id="layer1"/>
                </g>
            </g>
        </g>
    </g>
    <g transform="translate(0,-54)" >
        <g >
            <g >
                <g >
                    <g gorn="0.2.0.0.0.0"  id="layer2"/>
                </g>
            </g>
        </g>
    </g>
    <g transform="translate(0,-54)" >
        <g >
            <g >
                <g >
                    <g gorn="0.3.0.0.0.0"  id="layer3"/>
                </g>
            </g>
        </g>
    </g>
    <g transform="translate(0,-54)" >
        <g >
            <g >
                <g >
                    <g gorn="0.4.0.0.0.0"  id="layer4"/>
                </g>
            </g>
        </g>
    </g>
    <g >
        <path gorn="0.5.0" fill="none" d="M37.502,154.335V20.409" stroke-linejoin="round"  stroke="#CB1717" stroke-width="3.6" id="path3821_13_"/>
        <path gorn="0.5.1" fill="none" d="M44.702,154.335V20.409" stroke-linejoin="round"  stroke="#202020" stroke-width="3.6" id="path3815_13_"/>
        <path gorn="0.5.2" fill="none" d="M36.439,151.335l0.142-129.688" stroke-linejoin="round" stroke-linecap="round"  stroke="#E58B8B" stroke-width="0.5669" id="path3821_12_"/>
        <path gorn="0.5.3" fill="none" d="M43.781,151.335V21.647" stroke-linejoin="round" stroke-linecap="round"  stroke="#909090" stroke-width="0.5669" id="path3815_12_"/>
        <rect gorn="0.5.4" width="5.669" fill="none" x="34.668"  height="5.669" id="connector1pin"/>
        <rect gorn="0.5.5" width="5.669" fill="none" x="41.868"  height="5.669" id="connector2pin"/>
        <polygon stroke-miterlimit="10" fill="#EAEAEA" stroke-linejoin="round" stroke-linecap="round"  stroke="#C8C8C8" stroke-width="0.5669" points="48.189,14.74 48.189,2.835 34.016,2.835 34.016,14.74 32.598,20.409 34.016,20.409 48.189,20.409 49.606,20.409 "/>
        <polygon fill="#C8C8C8"  points="39.331,20.126 40.039,20.126 40.039,3.402 39.331,4.11 "/>
        <polygon fill="#FFFFFF"  points="42.165,20.126 42.591,20.126 42.591,3.827 42.165,3.402 "/>
        <path gorn="0.5.9" fill="#E6E6E6" d="M0,167.06h82.205v87.192c0,0.715-0.859,1.295-1.918,1.295H1.918c-1.059,0-1.918-0.58-1.918-1.295V167.06z"  id="rect2997_6_"/>
        <g transform="matrix(-1 -2.983359e-11 2.983359e-11 -1 10.3179 418.9515)" >
            <g >
                <g >
                    <g >
                        <rect width="5.244" fill="#F3F3F3" x="2.537" y="167.06"  height="84.831"/>
                    </g>
                </g>
            </g>
        </g>
        <path fill="#ADADAD" d="M80.287,255.547c1.059,0,1.918-0.58,1.918-1.295v-0.533h-2.537V167.06h-5.244v86.659H0v0.533c0,0.715,0.859,1.295,1.918,1.295H80.287z" />
        <path fill="#FFCC00" d="M82.205,169.631H0v-17.389c0-0.871,0.706-1.576,1.576-1.576h79.052c0.871,0,1.576,0.706,1.576,1.576V169.631z" />
        <rect width="5.244" fill="#C09900" x="74.424" y="150.665"  height="18.966"/>
        <g transform="matrix(-1 -3.052770e-11 3.052770e-11 -1 10.3179 320.2963)" >
            <g >
                <g >
                    <g >
                        <rect width="5.244" fill="#FFE680" x="2.537" y="150.665"  height="18.966"/>
                    </g>
                </g>
            </g>
        </g>
        <g gorn="0.5.15"  id="tspan3851_8_">
            <g transform="matrix(0 1 -1 0 37.7125 186.4683)" >
                <g >
                    <g >
                        <g >
                            <text font-size="8" fill="#808080"  font-family="OCRA">500mAh</text>
                        </g>
                    </g>
                </g>
            </g>
        </g>
    </g>
</svg>
