<?xml version='1.0' encoding='utf-8'?>
<!-- Generator: Adobe Illustrator 20.0.0, SVG Export Plug-In . SVG Version: 6.00 Build 0)  -->
<svg xmlns="http://www.w3.org/2000/svg" baseProfile="tiny" width="1.45669in" version="1.2" x="0px" xmlns:xml="http://www.w3.org/XML/1998/namespace" y="0px" height="4.79872in" id="svg13574" gorn="0"  viewBox="0 0 104.882 345.508" xml:space="preserve">
    <desc >
        <referenceFile >4400.svg</referenceFile>
    </desc>
    <g transform="translate(0,-656.35975)" >
        <g >
            <g >
                <g >
                    <g id="layer1" gorn="0.1.0.0.0.0" />
                </g>
            </g>
        </g>
    </g>
    <g transform="translate(0,-54)" >
        <g >
            <g >
                <g >
                    <g id="layer2" gorn="0.2.0.0.0.0" />
                </g>
            </g>
        </g>
    </g>
    <g transform="translate(0,-54)" >
        <g >
            <g >
                <g >
                    <g id="layer3" gorn="0.3.0.0.0.0" />
                </g>
            </g>
        </g>
    </g>
    <g transform="translate(0,-54)" >
        <g >
            <g >
                <g >
                    <g id="layer4" gorn="0.4.0.0.0.0" />
                </g>
            </g>
        </g>
    </g>
    <g >
        <path d="M48.841,154.335V20.409" stroke="#CB1717" stroke-width="3.6" stroke-linejoin="round" id="path3821_5_" gorn="0.5.0"  fill="none"/>
        <path d="M56.041,154.335V20.409" stroke="#202020" stroke-width="3.6" stroke-linejoin="round" id="path3815_5_" gorn="0.5.1"  fill="none"/>
        <path d="M47.778,151.335L47.92,21.647" stroke="#E58B8B" stroke-width="0.5669" stroke-linecap="round" stroke-linejoin="round" id="path3821_4_" gorn="0.5.2"  fill="none"/>
        <path d="M55.12,151.335V21.647" stroke="#909090" stroke-width="0.5669" stroke-linecap="round" stroke-linejoin="round" id="path3815_4_" gorn="0.5.3"  fill="none"/>
        <path d="M2.447,151.335h99.988c1.351,0,2.447,1.074,2.447,2.398V343.11c0,1.325-1.096,2.398-2.447,2.398H2.447c-1.351,0-2.447-1.074-2.447-2.398V153.733C0,152.408,1.096,151.335,2.447,151.335z" id="rect2997_2_" gorn="0.5.4"  fill="#1464DC"/>
        <rect width="5.669" x="46.006" height="5.669" id="connector1pin" gorn="0.5.5"  fill="none"/>
        <rect width="5.669" x="53.206" height="5.669" id="connector2pin" gorn="0.5.6"  fill="none"/>
        <polygon stroke="#C8C8C8" stroke-width="0.5669" points="59.528,14.74 59.528,2.835 45.354,2.835 45.354,14.74 43.937,20.409 45.354,20.409 59.528,20.409 60.945,20.409 " stroke-linecap="round" stroke-linejoin="round"  stroke-miterlimit="10" fill="#EAEAEA"/>
        <polygon points="50.669,20.126 51.378,20.126 51.378,3.402 50.669,4.11 "  fill="#C8C8C8"/>
        <polygon points="53.504,20.126 53.929,20.126 53.929,3.827 53.504,3.402 "  fill="#FFFFFF"/>
        <g transform="matrix(-1 -4.377533e-11 4.377533e-11 -1 17.4803 496.8425)" >
            <g >
                <g >
                    <g >
                        <rect width="6.69" x="5.395" y="152.752" height="191.339"  fill="#4F8BE5"/>
                    </g>
                </g>
            </g>
        </g>
        <rect width="6.69" x="92.797" y="152.752" height="191.339"  fill="#0F4BA5"/>
        <g transform="matrix(0 1 -1 0 45.6626 197.8119)" >
            <g >
                <g >
                    <g >
                        <text font-family="OCRA" id="tspan3851_2_" gorn="0.5.12.0.0.0.0"  font-size="16" fill="#0A326E">4400mAh</text>
                    </g>
                </g>
            </g>
        </g>
    </g>
</svg>
