<?xml version='1.0' encoding='utf-8'?>
<!-- Generator: Adobe Illustrator 20.0.0, SVG Export Plug-In . SVG Version: 6.00 Build 0)  -->
<svg xmlns="http://www.w3.org/2000/svg" gorn="0" xml:space="preserve" width="1.37796in" version="1.2" xmlns:xml="http://www.w3.org/XML/1998/namespace" x="0px" baseProfile="tiny" y="0px"  viewBox="0 0 99.213 320.744" id="svg13574" height="4.45478in">
    <desc >
        <referenceFile >1200.svg</referenceFile>
    </desc>
    <g transform="translate(0,-656.35975)" >
        <g >
            <g gorn="0.1.0.0"  id="layer1"/>
        </g>
    </g>
    <g transform="translate(0,-54)" >
        <g >
            <g gorn="0.2.0.0"  id="layer2"/>
        </g>
    </g>
    <g transform="translate(0,-54)" >
        <g >
            <g gorn="0.3.0.0"  id="layer3"/>
        </g>
    </g>
    <g transform="translate(0,-54)" >
        <g >
            <g gorn="0.4.0.0"  id="layer4"/>
        </g>
    </g>
    <g >
        <path gorn="0.5.0" fill="none" d="M46.006,154.335V20.409" stroke-linejoin="round"  stroke="#CB1717" stroke-width="3.6" id="path3821_15_"/>
        <path gorn="0.5.1" fill="none" d="M53.206,154.335V20.409" stroke-linejoin="round"  stroke="#202020" stroke-width="3.6" id="path3815_15_"/>
        <path gorn="0.5.2" fill="none" d="M44.943,151.335l0.142-129.688" stroke-linejoin="round" stroke-linecap="round"  stroke="#E58B8B" stroke-width="0.5669" id="path3821_14_"/>
        <path gorn="0.5.3" fill="none" d="M52.285,151.335V21.647" stroke-linejoin="round" stroke-linecap="round"  stroke="#909090" stroke-width="0.5669" id="path3815_14_"/>
        <rect gorn="0.5.4" width="5.669" fill="none" x="43.172"  height="5.669" id="connector1pin"/>
        <rect gorn="0.5.5" width="5.669" fill="none" x="50.372"  height="5.669" id="connector2pin"/>
        <polygon stroke-miterlimit="10" fill="#EAEAEA" stroke-linejoin="round" stroke-linecap="round"  stroke="#C8C8C8" stroke-width="0.5669" points="56.693,14.74 56.693,2.835 42.52,2.835 42.52,14.74 41.102,20.409 42.52,20.409 56.693,20.409 58.11,20.409 "/>
        <polygon fill="#C8C8C8"  points="47.835,20.126 48.543,20.126 48.543,3.402 47.835,4.11 "/>
        <polygon fill="#FFFFFF"  points="50.669,20.126 51.094,20.126 51.094,3.827 50.669,3.402 "/>
        <path gorn="0.5.9" fill="#E6E6E6" d="M0,177.252h99.213v141.392c0,1.16-1.036,2.101-2.315,2.101H2.315c-1.278,0-2.315-0.94-2.315-2.101V177.252z"  id="rect2997_7_"/>
        <g transform="matrix(-1 -3.995350e-11 3.995350e-11 -1 12.4526 492.0672)" >
            <g >
                <rect width="6.328" fill="#F3F3F3" x="3.062" y="177.252"  height="137.564"/>
            </g>
        </g>
        <path fill="#ADADAD" d="M96.898,320.744c1.278,0,2.315-0.94,2.315-2.101v-0.864H96.15V177.252h-6.328V317.78H0v0.864c0,1.16,1.036,2.101,2.315,2.101H96.898z" />
        <path fill="#FFCC00" d="M99.213,181.42H0v-28.55c0-1.218,0.987-2.205,2.205-2.205h94.802c1.218,0,2.205,0.987,2.205,2.205V181.42z" />
        <rect width="6.328" fill="#C09900" x="89.822" y="150.665"  height="30.755"/>
        <g transform="matrix(-1 -4.095936e-11 4.095936e-11 -1 12.4526 332.0857)" >
            <g >
                <rect width="6.328" fill="#FFE680" x="3.062" y="150.665"  height="30.755"/>
            </g>
        </g>
        <g gorn="0.5.15"  id="tspan3851_10_">
            <g transform="matrix(0 1 -1 0 44.5197 209.4755)" >
                <g >
                    <text font-size="12" fill="#808080"  font-family="OCRA">1200mAh</text>
                </g>
            </g>
        </g>
    </g>
</svg>
