<?xml version='1.0' encoding='utf-8'?>
<!-- Generator: Adobe Illustrator 20.0.0, SVG Export Plug-In . SVG Version: 6.00 Build 0)  -->
<svg xmlns="http://www.w3.org/2000/svg" baseProfile="tiny" width="2.18504in" version="1.2" x="0px" xmlns:xml="http://www.w3.org/XML/1998/namespace" y="0px" height="4.79872in" id="svg13574" gorn="0"  viewBox="0 0 157.323 345.508" xml:space="preserve">
    <desc >
        <referenceFile >6600.svg</referenceFile>
    </desc>
    <g transform="translate(0,-656.35975)" >
        <g >
            <g >
                <g >
                    <g id="layer1" gorn="0.1.0.0.0.0" />
                </g>
            </g>
        </g>
    </g>
    <g transform="translate(0,-54)" >
        <g >
            <g >
                <g >
                    <g id="layer2" gorn="0.2.0.0.0.0" />
                </g>
            </g>
        </g>
    </g>
    <g transform="translate(0,-54)" >
        <g >
            <g >
                <g >
                    <g id="layer3" gorn="0.3.0.0.0.0" />
                </g>
            </g>
        </g>
    </g>
    <g transform="translate(0,-54)" >
        <g >
            <g >
                <g >
                    <g id="layer4" gorn="0.4.0.0.0.0" />
                </g>
            </g>
        </g>
    </g>
    <g >
        <path d="M75.061,154.335V20.409" stroke="#CB1717" stroke-width="3.6" stroke-linejoin="round" id="path3821_3_" gorn="0.5.0"  fill="none"/>
        <path d="M82.261,154.335V20.409" stroke="#202020" stroke-width="3.6" stroke-linejoin="round" id="path3815_3_" gorn="0.5.1"  fill="none"/>
        <path d="M73.998,151.335L74.14,21.647" stroke="#E58B8B" stroke-width="0.5669" stroke-linecap="round" stroke-linejoin="round" id="path3821_2_" gorn="0.5.2"  fill="none"/>
        <path d="M81.34,151.335V21.647" stroke="#909090" stroke-width="0.5669" stroke-linecap="round" stroke-linejoin="round" id="path3815_2_" gorn="0.5.3"  fill="none"/>
        <path d="M2.447,151.335h152.429c1.351,0,2.447,1.074,2.447,2.398V343.11c0,1.325-1.096,2.398-2.447,2.398H2.447c-1.351,0-2.447-1.074-2.447-2.398V153.733C0,152.408,1.096,151.335,2.447,151.335z" id="rect2997_1_" gorn="0.5.4"  fill="#1464DC"/>
        <rect width="5.669" x="72.227" height="5.669" id="connector1pin" gorn="0.5.5"  fill="none"/>
        <rect width="5.669" x="79.427" height="5.669" id="connector2pin" gorn="0.5.6"  fill="none"/>
        <polygon stroke="#C8C8C8" stroke-width="0.5669" points="85.748,14.74 85.748,2.835 71.575,2.835 71.575,14.74 70.157,20.409 71.575,20.409 85.748,20.409 87.165,20.409 " stroke-linecap="round" stroke-linejoin="round"  stroke-miterlimit="10" fill="#EAEAEA"/>
        <polygon points="76.89,20.126 77.598,20.126 77.598,3.402 76.89,4.11 "  fill="#C8C8C8"/>
        <polygon points="79.724,20.126 80.15,20.126 80.15,3.827 79.724,3.402 "  fill="#FFFFFF"/>
        <g transform="matrix(-1 -4.377533e-11 4.377533e-11 -1 17.4803 496.8425)" >
            <g >
                <g >
                    <g >
                        <rect width="6.69" x="5.395" y="152.752" height="191.339"  fill="#4F8BE5"/>
                    </g>
                </g>
            </g>
        </g>
        <rect width="6.69" x="145.238" y="152.752" height="191.339"  fill="#0F4BA5"/>
        <g transform="matrix(0 1 -1 0 71.8814 197.8119)" >
            <g >
                <g >
                    <g >
                        <text font-family="OCRA" id="tspan3851_1_" gorn="0.5.12.0.0.0.0"  font-size="16" fill="#0A326E">6600mAh</text>
                    </g>
                </g>
            </g>
        </g>
    </g>
</svg>
