<?xml version='1.0' encoding='utf-8'?>
<!-- Generator: Adobe Illustrator 20.0.0, SVG Export Plug-In . SVG Version: 6.00 Build 0)  -->
<svg xmlns="http://www.w3.org/2000/svg" gorn="0" xml:space="preserve" width="1.9685in" version="1.2" xmlns:xml="http://www.w3.org/XML/1998/namespace" x="0px" baseProfile="tiny" y="0px"  viewBox="0 0 141.732 320.744" id="svg13574" height="4.45478in">
    <desc >
        <referenceFile >2500.svg</referenceFile>
    </desc>
    <g transform="translate(0,-656.35975)" >
        <g >
            <g >
                <g gorn="0.1.0.0.0"  id="layer1"/>
            </g>
        </g>
    </g>
    <g transform="translate(0,-54)" >
        <g >
            <g >
                <g gorn="0.2.0.0.0"  id="layer2"/>
            </g>
        </g>
    </g>
    <g transform="translate(0,-54)" >
        <g >
            <g >
                <g gorn="0.3.0.0.0"  id="layer3"/>
            </g>
        </g>
    </g>
    <g transform="translate(0,-54)" >
        <g >
            <g >
                <g gorn="0.4.0.0.0"  id="layer4"/>
            </g>
        </g>
    </g>
    <g >
        <path gorn="0.5.0" fill="none" d="M67.266,154.335V20.409" stroke-linejoin="round"  stroke="#CB1717" stroke-width="3.6" id="path3821_19_"/>
        <path gorn="0.5.1" fill="none" d="M74.466,154.335V20.409" stroke-linejoin="round"  stroke="#202020" stroke-width="3.6" id="path3815_19_"/>
        <path gorn="0.5.2" fill="none" d="M66.203,151.335l0.142-129.688" stroke-linejoin="round" stroke-linecap="round"  stroke="#E58B8B" stroke-width="0.5669" id="path3821_18_"/>
        <path gorn="0.5.3" fill="none" d="M73.545,151.335V21.647" stroke-linejoin="round" stroke-linecap="round"  stroke="#909090" stroke-width="0.5669" id="path3815_18_"/>
        <rect gorn="0.5.4" width="5.669" fill="none" x="64.431"  height="5.669" id="connector1pin"/>
        <rect gorn="0.5.5" width="5.669" fill="none" x="71.632"  height="5.669" id="connector2pin"/>
        <polygon stroke-miterlimit="10" fill="#EAEAEA" stroke-linejoin="round" stroke-linecap="round"  stroke="#C8C8C8" stroke-width="0.5669" points="77.953,14.74 77.953,2.835 63.78,2.835 63.78,14.74 62.362,20.409 63.78,20.409 77.953,20.409 79.37,20.409 "/>
        <polygon fill="#C8C8C8"  points="69.094,20.126 69.803,20.126 69.803,3.402 69.094,4.11 "/>
        <polygon fill="#FFFFFF"  points="71.929,20.126 72.354,20.126 72.354,3.827 71.929,3.402 "/>
        <path gorn="0.5.9" fill="#E6E6E6" d="M0,177.252h141.732v141.392c0,1.16-1.48,2.101-3.307,2.101H3.307c-1.826,0-3.307-0.94-3.307-2.101V177.252z"  id="rect2997_9_"/>
        <g transform="matrix(-1 -2.796753e-11 2.796753e-11 -1 17.7894 492.0672)" >
            <g >
                <g >
                    <rect width="9.041" fill="#F3F3F3" x="4.374" y="177.252"  height="137.564"/>
                </g>
            </g>
        </g>
        <path fill="#ADADAD" d="M138.426,320.744c1.826,0,3.307-0.94,3.307-2.101v-0.864h-4.374V177.252h-9.041V317.78H0v0.864c0,1.16,1.48,2.101,3.307,2.101H138.426z" />
        <path fill="#FFCC00" d="M141.732,181.42H0v-28.119c0-1.456,1.18-2.636,2.636-2.636h136.461c1.456,0,2.636,1.18,2.636,2.636V181.42z" />
        <rect width="9.041" fill="#C09900" x="128.317" y="150.665"  height="30.755"/>
        <g transform="matrix(-1 -2.867185e-11 2.867185e-11 -1 17.7894 332.0857)" >
            <g >
                <g >
                    <rect width="9.041" fill="#FFE680" x="4.374" y="150.665"  height="30.755"/>
                </g>
            </g>
        </g>
        <g gorn="0.5.15"  id="tspan3851_14_">
            <g transform="matrix(0 1 -1 0 65.7803 209.4757)" >
                <g >
                    <g >
                        <text font-size="12" fill="#808080"  font-family="OCRA">2500mAh</text>
                    </g>
                </g>
            </g>
        </g>
    </g>
</svg>
