<?xml version="1.0" encoding="UTF-8" standalone="no"?>
<!-- Generator: Adobe Illustrator 16.0.4, SVG Export Plug-In . SVG Version: 6.00 Build 0)  -->

<svg
   xmlns:dc="http://purl.org/dc/elements/1.1/"
   xmlns:cc="http://creativecommons.org/ns#"
   xmlns:rdf="http://www.w3.org/1999/02/22-rdf-syntax-ns#"
   xmlns:svg="http://www.w3.org/2000/svg"
   xmlns="http://www.w3.org/2000/svg"
   xmlns:sodipodi="http://sodipodi.sourceforge.net/DTD/sodipodi-0.dtd"
   xmlns:inkscape="http://www.inkscape.org/namespaces/inkscape"
   width="1.00467in"
   enable-background="new 0 0 193.484 90.125"
   viewBox="0 0 72.336183 51.186887"
   id="esp32"
   gorn="0"
   version="1.1"
   xml:space="preserve"
   x="0px"
   y="0px"
   height="0.71093118in"
   sodipodi:docname="svg.icon.ESP32_Module_b7a5672111b3192fd167eb254023a433_2_icon.svg"
   inkscape:version="0.92.4 (5da689c313, 2019-01-14)"><metadata
   id="metadata112"><rdf:RDF><cc:Work
       rdf:about=""><dc:format>image/svg+xml</dc:format><dc:type
         rdf:resource="http://purl.org/dc/dcmitype/StillImage" /><dc:title></dc:title></cc:Work></rdf:RDF></metadata><defs
   id="defs110" /><sodipodi:namedview
   pagecolor="#ffffff"
   bordercolor="#666666"
   borderopacity="1"
   objecttolerance="10"
   gridtolerance="10"
   guidetolerance="10"
   inkscape:pageopacity="0"
   inkscape:pageshadow="2"
   inkscape:window-width="1536"
   inkscape:window-height="801"
   id="namedview108"
   showgrid="false"
   fit-margin-top="0"
   fit-margin-left="0"
   fit-margin-right="0"
   fit-margin-bottom="0"
   inkscape:zoom="1.1008653"
   inkscape:cx="-14.885347"
   inkscape:cy="34.143364"
   inkscape:window-x="-8"
   inkscape:window-y="-8"
   inkscape:window-maximized="1"
   inkscape:current-layer="esp32" />
    <desc
   id="desc2">
        <referenceFile>ESP32WROOM_Naked_Board_breadboard_new.svg</referenceFile>
    </desc>
    <rect
   width="72.335999"
   id="board_1_"
   gorn="0.1"
   x="0"
   y="-0.00010165161"
   height="51.187"
   style="fill:#1f1fcd" />
    <rect
   width="48.188"
   id="sheild"
   gorn="0.2"
   x="4.2400055"
   y="3.5848994"
   height="43.738998"
   style="fill:#b3b3b3;stroke:#e3e3e3;stroke-width:1" />
    <circle
   id="dot"
   gorn="0.3"
   r="1.281"
   cx="7.8470001"
   cy="8.0618982"
   style="fill:#1f1fcd" />
    <g
   transform="translate(-18.385423,-86.382056)"
   id="g13">
        <g
   id="g11">
            <g
   id="g9">
                <g
   id="logo"
   gorn="0.4.0.0.0">
                    <path
   id="path3351"
   gorn="0.4.0.0.0.0"
   d="m 39.102,112.901 c 0.077,-2.397 0.878,-4.583 2.359,-6.447 0.319,-0.4 0.95,-1.058 1.354,-1.407 0.371,-0.32 0.956,-0.751 1.337,-0.984 1.313,-0.82 2.797,-1.344 4.352,-1.551 0.489,-0.061 1.426,-0.096 1.916,-0.069 2.43,0.136 4.688,1.052 6.524,2.645 0.106,0.097 0.195,0.183 0.196,0.203 10e-4,0.034 -0.481,0.564 -0.515,0.565 -0.011,0 -0.128,-0.098 -0.26,-0.216 -1.247,-1.102 -2.96,-1.928 -4.657,-2.248 -0.797,-0.149 -1.357,-0.191 -2.218,-0.159 -0.694,0.026 -1.055,0.067 -1.678,0.193 -1.945,0.404 -3.776,1.419 -5.151,2.861 -1.604,1.683 -2.558,3.806 -2.746,6.14 -0.038,0.425 -0.018,1.366 0.031,1.801 0.255,2.304 1.244,4.362 2.866,5.981 l 0.241,0.244 -0.265,0.282 -0.268,0.29 -0.114,-0.099 c -0.056,-0.054 -0.22,-0.22 -0.361,-0.369 -1.574,-1.668 -2.565,-3.756 -2.866,-6.052 -0.045,-0.364 -0.085,-1.249 -0.077,-1.604 z m 1.712,-0.608 c 0.041,-0.376 0.113,-0.823 0.189,-1.152 l 0.06,-0.255 0.353,-0.43 c 0.19,-0.239 0.359,-0.443 0.373,-0.457 0.021,-0.021 0.068,-0.002 0.23,0.108 0.391,0.265 0.896,0.458 1.361,0.523 0.28,0.038 0.766,0.021 1.042,-0.037 1.102,-0.231 2.01,-1.056 2.34,-2.112 0.099,-0.311 0.136,-0.572 0.148,-0.96 0.021,-0.602 0.103,-0.959 0.323,-1.452 0.304,-0.66 0.782,-1.183 1.418,-1.542 0.454,-0.259 0.947,-0.408 1.365,-0.422 0.48,-0.013 1.229,0.076 1.513,0.182 1.094,0.405 1.892,1.318 2.167,2.482 0.064,0.283 0.093,1.074 0.056,1.533 -0.191,2.238 -1.062,4.263 -2.536,5.907 -0.733,0.824 -1.651,1.547 -2.643,2.088 -1.036,0.57 -2.189,0.947 -3.425,1.129 -0.428,0.062 -1.49,0.107 -1.9,0.082 -0.566,-0.04 -1.404,-0.153 -1.469,-0.206 -0.083,-0.058 -0.48,-1.04 -0.621,-1.507 l -0.062,-0.223 0.202,-0.615 c 0.117,-0.338 0.217,-0.621 0.224,-0.629 0.007,-0.014 0.103,0.012 0.213,0.041 0.414,0.135 0.99,0.236 1.547,0.291 0.335,0.028 1.255,-0.012 1.614,-0.072 1.139,-0.19 2.133,-0.603 3.059,-1.258 1.717,-1.229 2.786,-3.146 2.954,-5.274 0.059,-0.684 -0.005,-0.913 -0.298,-1.067 -0.091,-0.051 -0.132,-0.057 -0.288,-0.05 -0.211,0.007 -0.285,0.038 -0.416,0.185 -0.111,0.127 -0.142,0.251 -0.153,0.654 -0.068,1.846 -0.996,3.551 -2.515,4.63 -1.729,1.223 -4.015,1.436 -5.938,0.549 -0.431,-0.194 -0.521,-0.252 -0.518,-0.314 0.002,-0.028 0.016,-0.185 0.031,-0.35 z m 1.417,-4.966 c 0.086,-0.617 0.516,-1.117 1.112,-1.289 0.203,-0.063 0.544,-0.081 0.758,-0.034 0.419,0.079 0.847,0.392 1.044,0.767 0.146,0.274 0.187,0.45 0.191,0.778 -0.006,0.231 -0.01,0.301 -0.064,0.459 -0.159,0.478 -0.495,0.83 -0.96,0.991 -0.392,0.143 -0.788,0.124 -1.177,-0.054 -0.396,-0.169 -0.723,-0.54 -0.848,-0.944 -0.045,-0.162 -0.077,-0.522 -0.056,-0.674 z m 1.821,11.797 -0.012,-0.449 0.244,-0.016 c 0.384,-0.021 0.961,-0.091 1.334,-0.146 1.98,-0.33 3.894,-1.227 5.441,-2.559 1.973,-1.695 3.288,-4.037 3.717,-6.619 0.102,-0.612 0.141,-1.09 0.147,-1.834 l 0.008,-0.526 0.728,-0.04 c 0.399,-0.021 0.741,-0.034 0.759,-0.027 0.043,0.018 0.419,0.449 0.615,0.701 0.192,0.252 0.437,0.605 0.596,0.865 l 0.114,0.188 -0.02,0.191 c -0.361,3.76 -2.198,7.179 -5.136,9.558 -1.774,1.436 -3.904,2.422 -6.182,2.858 -0.211,0.042 -0.406,0.076 -0.44,0.077 -0.162,0.006 -1.188,-0.611 -1.702,-1.023 l -0.189,-0.148 -0.01,-0.301 c -0.004,-0.159 -0.01,-0.498 -0.012,-0.75 z m 5.229,2.511 c 0.026,-0.014 0.176,-0.074 0.33,-0.135 0.672,-0.277 1.623,-0.771 2.251,-1.168 1.608,-1.021 3.007,-2.318 4.125,-3.842 0.939,-1.269 1.688,-2.723 2.194,-4.256 0.054,-0.159 0.108,-0.291 0.126,-0.291 0.015,-0.001 0.146,0.035 0.295,0.084 0.311,0.098 0.279,0.044 0.318,0.527 0.092,1.15 -0.095,2.48 -0.509,3.664 -0.956,2.717 -3.229,4.853 -6.022,5.662 -0.776,0.228 -1.354,0.316 -2.246,0.35 -0.566,0.021 -0.669,0.018 -0.69,-0.011 -0.015,-0.019 -0.066,-0.153 -0.12,-0.302 l -0.104,-0.263 z"
   inkscape:connector-curvature="0"
   style="fill:#e3e3e3" />
                </g>
            </g>
        </g>
    </g>
    <g
   id="text"
   gorn="0.5"
   transform="translate(-107.906,-19.483101)">
        <path
   d="m 119.865,25.946 h 3.775 v 2.597 h -0.447 v -2.125 h -1.154 v 1.888 h -0.447 v -1.888 h -1.278 v 2.125 h -0.447 z"
   id="path15"
   inkscape:connector-curvature="0"
   style="fill:#e3e3e3" />
        <path
   d="m 121.138,28.735 v 0.472 c -0.286,0 -0.515,0.087 -0.685,0.261 -0.174,0.17 -0.262,0.397 -0.262,0.684 0,0.286 0.063,0.513 0.192,0.683 0.129,0.174 0.301,0.261 0.517,0.261 0.194,0 0.35,-0.102 0.465,-0.304 0.084,-0.149 0.15,-0.362 0.199,-0.64 0.065,-0.369 0.188,-0.673 0.367,-0.913 0.207,-0.273 0.461,-0.41 0.764,-0.41 0.307,0 0.553,0.12 0.738,0.36 0.188,0.24 0.279,0.561 0.279,0.963 0,0.401 -0.109,0.722 -0.329,0.962 -0.22,0.24 -0.512,0.36 -0.876,0.36 v -0.472 c 0.235,-0.042 0.428,-0.139 0.571,-0.292 0.142,-0.157 0.211,-0.344 0.211,-0.559 0,-0.257 -0.054,-0.464 -0.161,-0.622 -0.107,-0.153 -0.253,-0.229 -0.435,-0.229 -0.191,0 -0.35,0.089 -0.479,0.267 -0.11,0.149 -0.188,0.344 -0.229,0.584 -0.07,0.41 -0.178,0.73 -0.322,0.962 -0.182,0.302 -0.422,0.454 -0.721,0.454 -0.355,0 -0.64,-0.128 -0.852,-0.385 -0.216,-0.261 -0.322,-0.604 -0.322,-1.031 0,-0.427 0.125,-0.771 0.373,-1.031 0.251,-0.256 0.583,-0.385 0.997,-0.385 z"
   id="path17"
   inkscape:connector-curvature="0"
   style="fill:#e3e3e3" />
        <path
   d="m 119.865,32.002 h 3.775 v 1.553 c 0,0.36 -0.103,0.648 -0.305,0.863 -0.197,0.215 -0.466,0.323 -0.802,0.323 -0.34,0 -0.61,-0.107 -0.812,-0.323 -0.202,-0.215 -0.305,-0.503 -0.305,-0.863 v -1.081 h -1.553 z m 1.974,0.472 v 1.081 c 0,0.215 0.062,0.389 0.188,0.521 0.13,0.128 0.299,0.192 0.508,0.192 0.205,0 0.37,-0.064 0.496,-0.192 0.125,-0.132 0.188,-0.307 0.188,-0.521 v -1.081 z"
   id="path19"
   inkscape:connector-curvature="0"
   style="fill:#e3e3e3" />
        <path
   d="m 121.056,35.164 h 0.423 v 1.417 h -0.423 z"
   id="path21"
   inkscape:connector-curvature="0"
   style="fill:#e3e3e3" />
        <path
   d="m 123.64,36.953 v 0.472 l -2.926,0.801 2.926,0.801 v 0.472 l -2.926,0.801 2.926,0.808 v 0.447 l -3.775,-1.013 V 40.07 l 3.018,-0.807 -3.018,-0.801 V 37.99 Z"
   id="path23"
   inkscape:connector-curvature="0"
   style="fill:#e3e3e3" />
        <path
   d="m 119.865,41.928 h 3.775 v 1.628 c 0,0.373 -0.103,0.671 -0.306,0.895 -0.198,0.224 -0.467,0.335 -0.802,0.335 -0.208,0 -0.396,-0.054 -0.566,-0.161 -0.17,-0.116 -0.29,-0.267 -0.359,-0.453 -0.096,0.137 -0.211,0.244 -0.349,0.323 -0.145,0.082 -0.295,0.124 -0.451,0.124 l -0.731,0.024 c -0.042,0 -0.098,0.022 -0.168,0.068 l -0.043,0.025 v -0.473 l 0.024,-0.013 c 0.091,-0.054 0.16,-0.08 0.211,-0.08 l 0.708,-0.025 c 0.183,0 0.332,-0.08 0.446,-0.242 0.107,-0.148 0.162,-0.327 0.162,-0.534 V 42.4 h -1.553 z m 1.974,0.472 v 1.155 c 0,0.228 0.062,0.412 0.188,0.553 0.13,0.137 0.299,0.205 0.508,0.205 0.205,0 0.37,-0.068 0.496,-0.205 0.125,-0.141 0.188,-0.325 0.188,-0.553 V 42.4 Z"
   id="path25"
   inkscape:connector-curvature="0"
   style="fill:#e3e3e3" />
        <path
   d="m 121.752,45.077 c 0.594,0 1.068,0.155 1.43,0.466 0.354,0.311 0.533,0.723 0.533,1.236 0,0.513 -0.179,0.923 -0.533,1.229 -0.36,0.311 -0.836,0.467 -1.43,0.467 -0.584,0 -1.052,-0.156 -1.402,-0.467 -0.354,-0.307 -0.528,-0.716 -0.528,-1.229 0,-0.514 0.176,-0.926 0.528,-1.236 0.351,-0.311 0.818,-0.466 1.402,-0.466 z m 0,0.473 c -0.456,0 -0.82,0.111 -1.099,0.335 -0.273,0.225 -0.41,0.521 -0.41,0.896 0,0.368 0.137,0.665 0.41,0.889 0.277,0.224 0.643,0.335 1.099,0.335 0.469,0 0.841,-0.111 1.118,-0.335 0.281,-0.224 0.422,-0.521 0.422,-0.889 0,-0.373 -0.141,-0.671 -0.422,-0.896 -0.277,-0.224 -0.65,-0.335 -1.118,-0.335 z"
   id="path27"
   inkscape:connector-curvature="0"
   style="fill:#e3e3e3" />
        <path
   d="m 121.752,48.768 c 0.594,0 1.068,0.154 1.43,0.465 0.354,0.312 0.533,0.724 0.533,1.236 0,0.514 -0.179,0.924 -0.533,1.229 -0.36,0.311 -0.836,0.466 -1.43,0.466 -0.584,0 -1.052,-0.155 -1.402,-0.466 -0.354,-0.308 -0.528,-0.716 -0.528,-1.229 0,-0.513 0.176,-0.926 0.528,-1.236 0.351,-0.311 0.818,-0.465 1.402,-0.465 z m 0,0.471 c -0.456,0 -0.82,0.11 -1.099,0.335 -0.273,0.224 -0.41,0.521 -0.41,0.895 0,0.368 0.137,0.665 0.41,0.889 0.277,0.224 0.643,0.336 1.099,0.336 0.469,0 0.841,-0.112 1.118,-0.336 0.281,-0.224 0.422,-0.521 0.422,-0.889 0,-0.373 -0.141,-0.671 -0.422,-0.895 -0.277,-0.222 -0.65,-0.335 -1.118,-0.335 z"
   id="path29"
   inkscape:connector-curvature="0"
   style="fill:#e3e3e3" />
        <path
   d="m 119.865,52.637 h 3.775 v 0.59 l -2.976,1.181 2.976,1.181 v 0.59 h -3.775 v -0.472 h 2.832 l -2.832,-1.138 V 54.24 l 2.832,-1.131 h -2.832 z"
   id="path31"
   inkscape:connector-curvature="0"
   style="fill:#e3e3e3" />
        <path
   d="m 121.056,56.823 h 0.423 v 1.416 h -0.423 z"
   id="path33"
   inkscape:connector-curvature="0"
   style="fill:#e3e3e3" />
        <path
   d="m 121.044,58.704 v 0.423 c -0.231,0 -0.424,0.096 -0.578,0.285 -0.147,0.188 -0.223,0.406 -0.223,0.658 0,0.24 0.068,0.449 0.205,0.628 0.145,0.182 0.326,0.272 0.546,0.272 0.203,0 0.366,-0.094 0.491,-0.279 0.115,-0.174 0.174,-0.381 0.174,-0.621 v -0.329 h 0.422 v 0.329 c 0,0.19 0.058,0.355 0.168,0.496 0.12,0.146 0.271,0.219 0.447,0.219 0.17,0 0.309,-0.074 0.416,-0.225 0.1,-0.137 0.147,-0.3 0.147,-0.49 0,-0.229 -0.062,-0.424 -0.19,-0.59 -0.137,-0.174 -0.31,-0.262 -0.516,-0.262 v -0.422 c 0.317,0 0.588,0.122 0.807,0.366 0.215,0.239 0.323,0.528 0.323,0.862 0,0.314 -0.092,0.589 -0.273,0.82 -0.187,0.239 -0.425,0.359 -0.714,0.359 -0.17,0 -0.325,-0.035 -0.466,-0.105 -0.149,-0.074 -0.264,-0.18 -0.342,-0.315 -0.051,0.187 -0.161,0.335 -0.335,0.446 -0.162,0.107 -0.349,0.162 -0.561,0.162 -0.335,0 -0.617,-0.133 -0.845,-0.397 -0.219,-0.261 -0.329,-0.569 -0.329,-0.925 0,-0.369 0.116,-0.688 0.348,-0.957 0.239,-0.271 0.531,-0.408 0.878,-0.408 z"
   id="path35"
   inkscape:connector-curvature="0"
   style="fill:#e3e3e3" />
        <path
   d="m 119.865,61.729 c 0.359,0 0.697,0.136 1.012,0.404 0.263,0.219 0.506,0.525 0.732,0.919 0.154,0.265 0.291,0.46 0.41,0.584 0.183,0.179 0.377,0.267 0.584,0.267 0.194,0 0.355,-0.084 0.483,-0.254 0.116,-0.162 0.175,-0.353 0.175,-0.571 0,-0.228 -0.076,-0.423 -0.229,-0.584 -0.157,-0.165 -0.348,-0.248 -0.571,-0.248 h -0.235 v -0.422 h 0.235 c 0.34,0 0.629,0.124 0.869,0.372 0.236,0.244 0.354,0.537 0.354,0.882 0,0.336 -0.1,0.626 -0.298,0.87 -0.212,0.252 -0.474,0.379 -0.783,0.379 -0.273,0 -0.529,-0.1 -0.771,-0.299 -0.199,-0.166 -0.383,-0.396 -0.553,-0.689 l -0.074,-0.13 c -0.314,-0.556 -0.621,-0.858 -0.92,-0.913 v 2.031 h -0.422 z"
   id="path37"
   inkscape:connector-curvature="0"
   style="fill:#e3e3e3" />
    </g>
    <g
   id="antenna"
   gorn="0.6"
   transform="translate(-107.906,-19.483101)">
        <line
   y1="57.073002"
   stroke-miterlimit="10"
   y2="57.073002"
   x1="163.664"
   x2="177.867"
   id="line40"
   style="fill:none;stroke:#000000;stroke-width:2;stroke-miterlimit:10" />
        <line
   y1="63.073002"
   stroke-miterlimit="10"
   y2="63.073002"
   x1="163.664"
   x2="177.867"
   id="line42"
   style="fill:none;stroke:#000000;stroke-width:2;stroke-miterlimit:10" />
        <line
   y1="63.964001"
   stroke-miterlimit="10"
   y2="50.493999"
   x1="177.867"
   x2="177.867"
   id="line44"
   style="fill:none;stroke:#000000;stroke-width:2;stroke-miterlimit:10" />
        <line
   y1="50.493999"
   stroke-miterlimit="10"
   y2="50.493999"
   x1="178.826"
   x2="169.784"
   id="line46"
   style="fill:none;stroke:#000000;stroke-width:2;stroke-miterlimit:10" />
        <line
   y1="50.493999"
   stroke-miterlimit="10"
   y2="43.812"
   x1="170.765"
   x2="170.765"
   id="line48"
   style="fill:none;stroke:#000000;stroke-width:2;stroke-miterlimit:10" />
        <line
   y1="43.812"
   stroke-miterlimit="10"
   y2="43.812"
   x1="169.784"
   x2="178.826"
   id="line50"
   style="fill:none;stroke:#000000;stroke-width:2;stroke-miterlimit:10" />
        <line
   y1="43.812"
   stroke-miterlimit="10"
   y2="37.327"
   x1="177.867"
   x2="177.867"
   id="line52"
   style="fill:none;stroke:#000000;stroke-width:2;stroke-miterlimit:10" />
        <line
   y1="37.327"
   stroke-miterlimit="10"
   y2="37.327"
   x1="178.826"
   x2="169.784"
   id="line54"
   style="fill:none;stroke:#000000;stroke-width:2;stroke-miterlimit:10" />
        <line
   y1="37.327"
   stroke-miterlimit="10"
   y2="30.105"
   x1="170.765"
   x2="170.765"
   id="line56"
   style="fill:none;stroke:#000000;stroke-width:2;stroke-miterlimit:10" />
        <line
   y1="30.105"
   stroke-miterlimit="10"
   y2="30.105"
   x1="169.784"
   x2="178.826"
   id="line58"
   style="fill:none;stroke:#000000;stroke-width:2;stroke-miterlimit:10" />
        <line
   y1="30.105"
   stroke-miterlimit="10"
   y2="23.938"
   x1="177.867"
   x2="177.867"
   id="line60"
   style="fill:none;stroke:#000000;stroke-width:2;stroke-miterlimit:10" />
        <line
   y1="23.938"
   stroke-miterlimit="10"
   y2="23.938"
   x1="178.826"
   x2="166.117"
   id="line62"
   style="fill:none;stroke:#000000;stroke-width:2;stroke-miterlimit:10" />
        <circle
   id="hole_1_"
   gorn="0.6.12"
   r="0.81199998"
   cx="163.664"
   cy="57.073002"
   style="fill:#febf10" />
        <circle
   id="hole"
   gorn="0.6.13"
   r="0.81199998"
   cx="163.664"
   cy="63.151001"
   style="fill:#febf10" />
    </g>
    <g
   id="pins"
   gorn="0.7"
   transform="translate(-107.906,-19.483101)">
        <rect
   width="2.5599999"
   id="rect513"
   gorn="0.7.0"
   x="157.80901"
   y="19.483"
   height="2.1329999"
   style="fill:#febf10" />
        <rect
   width="2.5569999"
   id="rect515"
   gorn="0.7.1"
   x="154.19901"
   y="19.483"
   height="2.1329999"
   style="fill:#febf10" />
        <rect
   width="2.559"
   id="rect517"
   gorn="0.7.2"
   x="150.588"
   y="19.483"
   height="2.1329999"
   style="fill:#febf10" />
        <rect
   width="2.5580001"
   id="rect519"
   gorn="0.7.3"
   x="146.978"
   y="19.483"
   height="2.1329999"
   style="fill:#febf10" />
        <rect
   width="2.556"
   id="rect521"
   gorn="0.7.4"
   x="143.366"
   y="19.483"
   height="2.1329999"
   style="fill:#febf10" />
        <rect
   width="2.5569999"
   id="rect523"
   gorn="0.7.5"
   x="139.752"
   y="19.483"
   height="2.1329999"
   style="fill:#febf10" />
        <rect
   width="2.5569999"
   id="rect525"
   gorn="0.7.6"
   x="136.142"
   y="19.483"
   height="2.1329999"
   style="fill:#febf10" />
        <rect
   width="2.562"
   id="rect527"
   gorn="0.7.7"
   x="132.53"
   y="19.483"
   height="2.1329999"
   style="fill:#febf10" />
        <rect
   width="2.5650001"
   id="rect529"
   gorn="0.7.8"
   x="128.916"
   y="19.483"
   height="2.1329999"
   style="fill:#febf10" />
        <rect
   width="2.563"
   id="rect531"
   gorn="0.7.9"
   x="125.304"
   y="19.483"
   height="2.1329999"
   style="fill:#febf10" />
        <rect
   width="2.562"
   id="rect533"
   gorn="0.7.10"
   x="121.695"
   y="19.483"
   height="2.1329999"
   style="fill:#febf10" />
        <rect
   width="2.562"
   id="rect535"
   gorn="0.7.11"
   x="118.083"
   y="19.483"
   height="2.1329999"
   style="fill:#febf10" />
        <rect
   width="2.562"
   id="rect537"
   gorn="0.7.12"
   x="114.472"
   y="19.483"
   height="2.1329999"
   style="fill:#febf10" />
        <rect
   width="2.5580001"
   id="rect539"
   gorn="0.7.13"
   x="110.864"
   y="19.483"
   height="2.1329999"
   style="fill:#febf10" />
        <rect
   width="2.132"
   id="rect541"
   gorn="0.7.14"
   x="107.906"
   y="27.545"
   height="2.5599999"
   style="fill:#febf10" />
        <rect
   width="2.132"
   id="rect543"
   gorn="0.7.15"
   x="107.906"
   y="31.156"
   height="2.5610001"
   style="fill:#febf10" />
        <rect
   width="2.132"
   id="rect545"
   gorn="0.7.16"
   x="107.906"
   y="34.769001"
   height="2.559"
   style="fill:#febf10" />
        <rect
   width="2.132"
   id="rect547"
   gorn="0.7.17"
   x="107.906"
   y="38.380001"
   height="2.5580001"
   style="fill:#febf10" />
        <rect
   width="2.132"
   id="rect549"
   gorn="0.7.18"
   x="107.906"
   y="41.991001"
   height="2.5580001"
   style="fill:#febf10" />
        <rect
   width="2.132"
   id="rect551"
   gorn="0.7.19"
   x="107.906"
   y="45.602001"
   height="2.562"
   style="fill:#febf10" />
        <rect
   width="2.132"
   id="rect553"
   gorn="0.7.20"
   x="107.906"
   y="49.214001"
   height="2.5599999"
   style="fill:#febf10" />
        <rect
   width="2.132"
   id="rect555"
   gorn="0.7.21"
   x="107.906"
   y="52.823002"
   height="2.562"
   style="fill:#febf10" />
        <rect
   width="2.132"
   id="rect557"
   gorn="0.7.22"
   x="107.906"
   y="56.433998"
   height="2.563"
   style="fill:#febf10" />
        <rect
   width="2.132"
   id="rect559"
   gorn="0.7.23"
   x="107.906"
   y="60.046001"
   height="2.563"
   style="fill:#febf10" />
        <rect
   width="2.5580001"
   id="rect561"
   gorn="0.7.24"
   x="110.864"
   y="68.538002"
   height="2.132"
   style="fill:#febf10" />
        <rect
   width="2.562"
   id="rect563"
   gorn="0.7.25"
   x="114.472"
   y="68.538002"
   height="2.132"
   style="fill:#febf10" />
        <rect
   width="2.562"
   id="rect565"
   gorn="0.7.26"
   x="118.083"
   y="68.538002"
   height="2.132"
   style="fill:#febf10" />
        <rect
   width="2.562"
   id="rect567"
   gorn="0.7.27"
   x="121.695"
   y="68.538002"
   height="2.132"
   style="fill:#febf10" />
        <rect
   width="2.563"
   id="rect569"
   gorn="0.7.28"
   x="125.304"
   y="68.538002"
   height="2.132"
   style="fill:#febf10" />
        <rect
   width="2.5650001"
   id="rect571"
   gorn="0.7.29"
   x="128.916"
   y="68.538002"
   height="2.132"
   style="fill:#febf10" />
        <rect
   width="2.562"
   id="rect573"
   gorn="0.7.30"
   x="132.53"
   y="68.538002"
   height="2.132"
   style="fill:#febf10" />
        <rect
   width="2.5569999"
   id="rect575"
   gorn="0.7.31"
   x="136.142"
   y="68.538002"
   height="2.132"
   style="fill:#febf10" />
        <rect
   width="2.5569999"
   id="rect577"
   gorn="0.7.32"
   x="139.752"
   y="68.538002"
   height="2.132"
   style="fill:#febf10" />
        <rect
   width="2.556"
   id="rect579"
   gorn="0.7.33"
   x="143.366"
   y="68.538002"
   height="2.132"
   style="fill:#febf10" />
        <rect
   width="2.5580001"
   id="rect581"
   gorn="0.7.34"
   x="146.978"
   y="68.538002"
   height="2.132"
   style="fill:#febf10" />
        <rect
   width="2.559"
   id="rect583"
   gorn="0.7.35"
   x="150.588"
   y="68.538002"
   height="2.132"
   style="fill:#febf10" />
        <rect
   width="2.5569999"
   id="rect585"
   gorn="0.7.36"
   x="154.19901"
   y="68.538002"
   height="2.132"
   style="fill:#febf10" />
        <rect
   width="2.5599999"
   id="rect587"
   gorn="0.7.37"
   x="157.81"
   y="68.538002"
   height="2.132"
   style="fill:#febf10" />
        <rect
   width="17.062"
   display="none"
   id="rect589"
   gorn="0.7.38"
   x="128.81"
   y="37.348999"
   height="17.061001"
   style="display:none;fill:#febf10" />
    </g>
</svg>