<?xml version='1.0' encoding='UTF-8' standalone='no'?>
<!-- Generator: Adobe Illustrator 15.1.0, SVG Export Plug-In . SVG Version: 6.00 Build 0)  -->
<svg xmlns="http://www.w3.org/2000/svg" height="38.310867" enable-background="new 0 0 132.859 32.684" version="1.1" viewBox="0 0 141.56778 38.31087" gorn="0" xmlns:xml="http://www.w3.org/XML/1998/namespace" xml:space="preserve" width="141.56776"  x="0px" id="Ebene_1" y="0px">
    <desc >
        <referenceFile >Battery3aaa1.svg</referenceFile>
    </desc>
    <defs  id="defs514"/>
    <g transform="translate(-0.39575604,0.47486495)" >
        <g >
            <g gorn="0.2.0.0"  id="g2014">
                <circle stroke="#9a916c" stroke-width="0.254" gorn="0.2.0.0.0" cx="138.33344"  r="2.7720001" fill="none" cy="34.937004" id="connector3pin"/>
                <circle stroke="#9a916c" stroke-width="0.254" gorn="0.2.0.0.1" cx="90.011787"  r="2.7720001" fill="none" cy="2.8990002" id="connector1pin"/>
                <circle stroke="#9a916c" stroke-width="0.254" gorn="0.2.0.0.2" cx="139.06451"  r="2.7720001" fill="none" cy="19.840038" id="connector1pin-8"/>
                <circle stroke="#9a916c" stroke-width="0.254" gorn="0.2.0.0.3" cx="138.34781"  r="2.7720001" fill="none" cy="27.801905" id="connector2pin"/>
                <circle stroke="#9a916c" stroke-width="0.254" gorn="0.2.0.0.4" cx="138.12279"  r="2.7720001" fill="none" cy="5.9768882" id="connector0pin"/>
                <g transform="translate(0.98032758,4.884419)" >
                    <g >
                        <g gorn="0.2.0.0.5.0.0"  id="g400">
                            <g gorn="0.2.0.0.5.0.0.0"  id="g362">
                                <path gorn="0.2.0.0.5.0.0.0.0"  d="M 16.809,18.857 V 12.47 h 9.979 c 1.764,0 3.192,1.43 3.192,3.192 0,1.762 -1.432,3.191 -3.192,3.191 z" fill="#898989" id="path328"/>
                                <g gorn="0.2.0.0.5.0.0.0.1"  id="g358">
                                    <path gorn="0.2.0.0.5.0.0.0.1.0"  d="m 1.85,24.309 c -0.864,0 -1.851,-3.87 -1.851,-8.644 0,-4.774 0.984,-8.646 1.852,-8.646 h 1.808 v 17.287 z" fill="#dbdbdb" id="path330"/>
                                    <path gorn="0.2.0.0.5.0.0.0.1.1"  d="m 1.85,24.309 c -0.864,0 -1.282,-3.87 -1.282,-8.645 0,-4.773 0.418,-8.646 1.282,-8.646 h 2.229 v 17.287 z" fill="#898989" id="path332"/>
                                    <g gorn="0.2.0.0.5.0.0.0.1.2"  id="g338">
                                        <g gorn="0.2.0.0.5.0.0.0.1.2.0"  id="g336">
                                            <path gorn="0.2.0.0.5.0.0.0.1.2.0.0"  d="M 26.563,12.266 V 7.021 H 3.657 v 17.287 h 22.905 v -5.246 h -1.235 v -6.797 z m -11.31,5.385 H 5.804 v -3.976 h 9.449 c 0.859,0 1.557,0.891 1.557,1.987 -10e-4,1.1 -0.695,1.989 -1.557,1.989 z" fill="#7c7c7c" id="path334"/>
                                        </g>
                                    </g>
                                    <g gorn="0.2.0.0.5.0.0.0.1.3"  id="g346">
                                        <rect height="17.275999" gorn="0.2.0.0.5.0.0.0.1.3.0" width="0.72899997"  x="3.45" fill="#3d3d3d" id="rect340" y="7.0310001"/>
                                        <rect height="17.275999" gorn="0.2.0.0.5.0.0.0.1.3.1" width="0.72799999"  x="2.723" fill="#666666" id="rect342" y="7.0310001"/>
                                        <rect height="17.275999" gorn="0.2.0.0.5.0.0.0.1.3.2" width="0.72899997"  x="1.994" fill="#777777" id="rect344" y="7.0310001"/>
                                    </g>
                                    <path gorn="0.2.0.0.5.0.0.0.1.4"  d="m 4.981,15.665 c 0,2.314 -0.684,4.191 -1.521,4.191 -0.676,0 -0.855,-1.877 -0.855,-4.191 0,-2.315 0.183,-4.192 0.855,-4.192 0.838,-0.001 1.521,1.876 1.521,4.192 z" fill="#898989" id="path348"/>
                                    <path stroke-linecap="round" enable-background="new    " opacity="0.5" stroke="#a5a5a5" stroke-width="0.2171" gorn="0.2.0.0.5.0.0.0.1.5"  d="m 3.458,19.857 c -0.475,0 -0.855,-1.877 -0.855,-4.191 0,-2.315 0.384,-4.192 0.855,-4.192" fill="none" stroke-miterlimit="10" id="path350"/>
                                    <path stroke="#606060" stroke-width="0.3256" gorn="0.2.0.0.5.0.0.0.1.6"  d="m 3.457,19.857 c 0.842,0 1.522,-1.877 1.522,-4.191 0,-2.315 -0.683,-4.192 -1.522,-4.192" fill="none" stroke-miterlimit="10" id="path352"/>
                                    <g gorn="0.2.0.0.5.0.0.0.1.7"  id="g356">
                                        <path stroke-linecap="round" stroke="#a5a5a5" stroke-width="0.2809" gorn="0.2.0.0.5.0.0.0.1.7.0"  d="m 4.164,18.392 c 0.277,-0.663 0.459,-1.633 0.459,-2.728 0,-1.097 -0.182,-2.063 -0.459,-2.729" fill="none" stroke-miterlimit="10" id="path354"/>
                                    </g>
                                </g>
                                <rect enable-background="new    " height="6.7969999" opacity="0.2" gorn="0.2.0.0.5.0.0.0.2" width="0.27900001"  x="25.046" fill="#ffffff" id="rect360" y="12.266"/>
                            </g>
                            <g gorn="0.2.0.0.5.0.0.1"  id="g398">
                                <path gorn="0.2.0.0.5.0.0.1.0"  d="M 116.047,18.857 V 12.47 h -9.979 c -1.766,0 -3.193,1.43 -3.193,3.192 0,1.762 1.432,3.191 3.193,3.191 z" fill="#898989" id="path364"/>
                                <g gorn="0.2.0.0.5.0.0.1.1"  id="g394">
                                    <path gorn="0.2.0.0.5.0.0.1.1.0"  d="m 131.006,24.309 c 0.865,0 1.854,-3.87 1.854,-8.645 0,-4.773 -0.986,-8.646 -1.854,-8.646 h -1.805 v 17.287 z" fill="#dbdbdb" id="path366"/>
                                    <path gorn="0.2.0.0.5.0.0.1.1.1"  d="m 131.006,24.309 c 0.865,0 1.283,-3.87 1.283,-8.645 0,-4.773 -0.418,-8.646 -1.283,-8.646 h -2.227 v 17.287 z" fill="#898989" id="path368"/>
                                    <g gorn="0.2.0.0.5.0.0.1.1.2"  id="g374">
                                        <g gorn="0.2.0.0.5.0.0.1.1.2.0"  id="g372">
                                            <path gorn="0.2.0.0.5.0.0.1.1.2.0.0"  d="m 106.293,7.021 v 5.244 h 1.238 v 6.797 h -1.238 v 5.246 h 22.908 V 7.021 Z m 20.759,10.63 h -9.449 c -0.857,0 -1.559,-0.892 -1.559,-1.985 0,-1.1 0.697,-1.987 1.559,-1.987 h 9.449 z" fill="#7c7c7c" id="path370"/>
                                        </g>
                                    </g>
                                    <g gorn="0.2.0.0.5.0.0.1.1.3"  id="g382">
                                        <rect height="17.275999" gorn="0.2.0.0.5.0.0.1.1.3.0" width="0.73000002"  x="128.677" fill="#3d3d3d" id="rect376" y="7.0310001"/>
                                        <rect height="17.275999" gorn="0.2.0.0.5.0.0.1.1.3.1" width="0.727"  x="129.408" fill="#666666" id="rect378" y="7.0310001"/>
                                        <rect height="17.275999" gorn="0.2.0.0.5.0.0.1.1.3.2" width="0.72899997"  x="130.133" fill="#777777" id="rect380" y="7.0310001"/>
                                    </g>
                                    <path gorn="0.2.0.0.5.0.0.1.1.4"  d="m 127.875,15.665 c 0,2.314 0.684,4.191 1.52,4.191 0.678,0 0.857,-1.877 0.857,-4.191 0,-2.315 -0.184,-4.192 -0.857,-4.192 -0.839,-0.001 -1.52,1.876 -1.52,4.192 z" fill="#898989" id="path384"/>
                                    <path stroke-linecap="round" enable-background="new    " opacity="0.5" stroke="#a5a5a5" stroke-width="0.2171" gorn="0.2.0.0.5.0.0.1.1.5"  d="m 129.396,19.857 c 0.477,0 0.857,-1.877 0.857,-4.191 0,-2.315 -0.385,-4.192 -0.857,-4.192" fill="none" stroke-miterlimit="10" id="path386"/>
                                    <path stroke="#606060" stroke-width="0.3256" gorn="0.2.0.0.5.0.0.1.1.6"  d="m 129.398,19.857 c -0.842,0 -1.521,-1.877 -1.521,-4.191 0,-2.315 0.684,-4.192 1.521,-4.192" fill="none" stroke-miterlimit="10" id="path388"/>
                                    <g gorn="0.2.0.0.5.0.0.1.1.7"  id="g392">
                                        <path stroke-linecap="round" stroke="#a5a5a5" stroke-width="0.2809" gorn="0.2.0.0.5.0.0.1.1.7.0"  d="m 128.693,18.392 c -0.277,-0.663 -0.457,-1.633 -0.457,-2.728 0,-1.097 0.18,-2.063 0.459,-2.729" fill="none" stroke-miterlimit="10" id="path390"/>
                                    </g>
                                </g>
                                <rect enable-background="new    " height="6.7969999" opacity="0.2" gorn="0.2.0.0.5.0.0.1.2" width="0.27700001"  x="107.533" fill="#ffffff" id="rect396" y="12.266"/>
                            </g>
                        </g>
                    </g>
                </g>
                <g transform="translate(0.98032758,4.884419)" >
                    <g >
                        <g gorn="0.2.0.0.6.0.0"  id="g412">
                            <path gorn="0.2.0.0.6.0.0.0"  d="m 127.051,27.933 c 0,1.752 -1.666,3.185 -3.701,3.185 H 7.087 c -2.036,0 -3.7,-1.433 -3.7,-3.185 V 4.59 c 0,-1.75 1.664,-3.186 3.7,-3.186 h 116.262 c 2.037,0 3.701,1.436 3.701,3.186 v 23.343 z" fill="#353535" id="path402"/>
                            <path gorn="0.2.0.0.6.0.0.1"  d="m 91.453,1.456 h 32.145 c 2.035,0 3.701,1.432 3.701,3.185 v 23.348 c 0,1.75 -1.666,3.185 -3.701,3.185 H 91.453 Z" fill="#ce925d" id="path404"/>
                            <path enable-background="new    " opacity="0.35" gorn="0.2.0.0.6.0.0.2"  d="m 7.369,29.898 c -1.533,0 -3.488,-1.223 -3.488,-2.667 V 20.55 c 0,1.447 1.955,3.717 3.488,3.717 h 115.416 c 1.535,0 3.488,-2.27 3.488,-3.717 v 6.683 c 0,1.448 -1.953,2.666 -3.488,2.666 z" id="path406"/>
                            <path gorn="0.2.0.0.6.0.0.3"  d="m 126.947,16.063 c 0,6.653 -0.293,12.047 -0.658,12.047 -0.365,0 -0.365,-24.094 0,-24.094 0.365,0.002 0.658,5.395 0.658,12.047" fill="#b2b2b2" id="path408"/>
                            <path gorn="0.2.0.0.6.0.0.4"  d="m 126.701,20.17 c -0.242,0 -0.242,-8.9 0,-8.9 l -0.006,0.001 c 0,0.549 0.262,0.993 0.262,0.993 0.637,0 1.156,0.443 1.156,0.994 v 4.923 c 0,0.547 -0.521,0.993 -1.156,0.993 0,0 -0.262,0.444 -0.262,0.993 z" fill="#606060" id="path410"/>
                        </g>
                    </g>
                </g>
                <g transform="translate(0.98032758,4.884419)" >
                    <g >
                        <g gorn="0.2.0.0.7.0.0"  id="g416">
                            <g transform="translate(31.4773,19.0081)" >
                                <g >
                                    <text font-family="OCRA" gorn="0.2.0.0.7.0.0.0.0.0"  fill="#ffffff" font-size="10" id="text414">AAA Battery</text>
                                </g>
                            </g>
                        </g>
                    </g>
                </g>
                <g transform="translate(0.98032758,4.884419)" >
                    <g >
                        <g gorn="0.2.0.0.8.0.0"  id="g426">
                            <g opacity="0.35" gorn="0.2.0.0.8.0.0.0"  id="g424">
                                <g gorn="0.2.0.0.8.0.0.0.0"  id="g422">
                                    <path gorn="0.2.0.0.8.0.0.0.0.0"  d="m 108.918,4.68 c -1.559,0 -2.834,-0.469 -2.834,-1.041 0,-0.573 -1.273,-1.041 -2.836,-1.041 H 29.755 c -1.559,0 -2.834,0.468 -2.834,1.041 0,0.572 -1.274,1.041 -2.835,1.041 H 9.432 c -1.561,0 -2.834,1.274 -2.834,2.834 v 1.861 c 0,1.56 1.273,2.834 2.834,2.834 h 111.191 c 1.563,0 2.836,-1.274 2.836,-2.834 V 7.514 c 0,-1.56 -1.273,-2.834 -2.836,-2.834 z" fill="#ffffff" id="path418"/>
                                    <path gorn="0.2.0.0.8.0.0.0.0.1"  d="m 108.918,4.68 c -1.559,0 -2.834,-0.469 -2.834,-1.041 0,-0.573 -1.273,-1.041 -2.836,-1.041 H 29.755 c -1.559,0 -2.834,0.468 -2.834,1.041 0,0.572 -1.274,1.041 -2.835,1.041 H 9.432 c -1.561,0 -2.834,1.274 -2.834,2.834 v 1.861 c 0,1.56 1.273,2.834 2.834,2.834 h 111.191 c 1.563,0 2.836,-1.274 2.836,-2.834 V 7.514 c 0,-1.56 -1.273,-2.834 -2.836,-2.834 z" fill="#ffffff" id="path420"/>
                                </g>
                            </g>
                        </g>
                    </g>
                </g>
                <g transform="translate(0.98032758,4.884419)" >
                    <g >
                        <g gorn="0.2.0.0.9.0.0"  id="g502">
                            <g gorn="0.2.0.0.9.0.0.0"  id="g444">
                                <g gorn="0.2.0.0.9.0.0.0.0"  id="g430">
                                    <path gorn="0.2.0.0.9.0.0.0.0.0"  d="M 124.926,1.51 C 124.926,1.031 124.311,0 121.639,0 h -10.816 c -2.666,0 -3.289,1.029 -3.289,1.51 v 1.616 h 17.396 z" fill="#dbdbdb" id="path428"/>
                                </g>
                                <g gorn="0.2.0.0.9.0.0.0.1"  id="g434">
                                    <path gorn="0.2.0.0.9.0.0.0.1.0"  d="m 124.926,1.51 c 0,-0.332 -0.615,-1.315 -3.287,-1.237 h -10.816 c -2.666,-0.078 -3.289,0.979 -3.289,1.237 v 1.517 h 17.396 z" fill="#898989" id="path432"/>
                                </g>
                                <g gorn="0.2.0.0.9.0.0.0.2"  id="g442">
                                    <rect height="0.667" gorn="0.2.0.0.9.0.0.0.2.0" width="17.395"  x="107.533" fill="#3d3d3d" id="rect436" y="2.8010001"/>
                                    <rect height="0.66799998" gorn="0.2.0.0.9.0.0.0.2.1" width="17.395"  x="107.533" fill="#666666" id="rect438" y="2.1329999"/>
                                    <rect height="0.66600001" gorn="0.2.0.0.9.0.0.0.2.2" width="17.395"  x="107.533" fill="#777777" id="rect440" y="1.467"/>
                                </g>
                            </g>
                            <g gorn="0.2.0.0.9.0.0.1"  id="g462">
                                <g gorn="0.2.0.0.9.0.0.1.0"  id="g448">
                                    <path gorn="0.2.0.0.9.0.0.1.0.0"  d="m 124.926,31.173 c 0,0.479 -0.615,1.511 -3.287,1.511 h -10.816 c -2.666,0 -3.289,-1.032 -3.289,-1.511 v -1.614 h 17.396 z" fill="#dbdbdb" id="path446"/>
                                </g>
                                <g gorn="0.2.0.0.9.0.0.1.1"  id="g452">
                                    <path gorn="0.2.0.0.9.0.0.1.1.0"  d="m 124.926,31.173 c 0,0.332 -0.615,1.314 -3.287,1.238 h -10.816 c -2.666,0.076 -3.289,-0.979 -3.289,-1.238 v -1.515 h 17.396 z" fill="#898989" id="path450"/>
                                </g>
                                <g gorn="0.2.0.0.9.0.0.1.2"  id="g460">
                                    <rect height="0.667" gorn="0.2.0.0.9.0.0.1.2.0" width="17.395"  x="107.533" fill="#3d3d3d" id="rect454" y="29.216"/>
                                    <rect height="0.66600001" gorn="0.2.0.0.9.0.0.1.2.1" width="17.395"  x="107.533" fill="#666666" id="rect456" y="29.882999"/>
                                    <rect height="0.66799998" gorn="0.2.0.0.9.0.0.1.2.2" width="17.395"  x="107.533" fill="#777777" id="rect458" y="30.549"/>
                                </g>
                            </g>
                            <g gorn="0.2.0.0.9.0.0.2"  id="g482">
                                <g gorn="0.2.0.0.9.0.0.2.0"  id="g480">
                                    <g gorn="0.2.0.0.9.0.0.2.0.0"  id="g466">
                                        <path gorn="0.2.0.0.9.0.0.2.0.0.0"  d="M 7.93,1.51 C 7.93,1.03 8.548,0 11.221,0 h 10.813 c 2.668,0 3.291,1.029 3.291,1.51 V 3.126 H 7.93 Z" fill="#dbdbdb" id="path464"/>
                                    </g>
                                    <g gorn="0.2.0.0.9.0.0.2.0.1"  id="g470">
                                        <path gorn="0.2.0.0.9.0.0.2.0.1.0"  d="m 7.93,1.51 c 0,-0.332 0.617,-1.315 3.291,-1.237 h 10.813 c 2.668,-0.078 3.291,0.979 3.291,1.237 V 3.027 H 7.93 Z" fill="#898989" id="path468"/>
                                    </g>
                                    <g gorn="0.2.0.0.9.0.0.2.0.2"  id="g478">
                                        <rect height="0.667" gorn="0.2.0.0.9.0.0.2.0.2.0" width="17.396"  x="7.9299998" fill="#3d3d3d" id="rect472" y="2.8010001"/>
                                        <rect height="0.66799998" gorn="0.2.0.0.9.0.0.2.0.2.1" width="17.396"  x="7.9299998" fill="#666666" id="rect474" y="2.1329999"/>
                                        <rect height="0.66600001" gorn="0.2.0.0.9.0.0.2.0.2.2" width="17.396"  x="7.9299998" fill="#777777" id="rect476" y="1.467"/>
                                    </g>
                                </g>
                            </g>
                        </g>
                    </g>
                </g>
                <text font-family="OCRA" gorn="0.2.0.0.10"  fill="#f8f8f8" x="134.52687" font-size="9.36" id="text506" y="14.348954">-</text>
                <text font-family="OCRA" gorn="0.2.0.0.11"  fill="#f8f8f8" x="-0.64006424" font-size="9.36" id="connector4pin" y="25.401367">+</text>
                <g transform="matrix(0.91153464,0,0,0.83863446,-6.8327135,-24.976409)" >
                    <g >
                        <g gorn="0.2.0.0.12.0.0"  id="connector5pin">
                            <g gorn="0.2.0.0.12.0.0.0"  id="g486">
                                <path gorn="0.2.0.0.12.0.0.0.0"  d="m 7.93,31.173 c 0,0.479 0.617,1.511 3.291,1.511 h 10.813 c 2.668,0 3.291,-1.032 3.291,-1.511 V 29.559 H 7.93 Z" fill="#dbdbdb" id="path484"/>
                            </g>
                            <g gorn="0.2.0.0.12.0.0.1"  id="g490">
                                <path gorn="0.2.0.0.12.0.0.1.0"  d="m 7.93,31.173 c 0,0.332 0.617,1.314 3.291,1.238 h 10.813 c 2.668,0.076 3.291,-0.979 3.291,-1.238 V 29.658 H 7.93 Z" fill="#898989" id="path488"/>
                            </g>
                            <g gorn="0.2.0.0.12.0.0.2"  id="g498">
                                <rect height="0.667" gorn="0.2.0.0.12.0.0.2.0" width="17.396"  x="7.9299998" fill="#3d3d3d" id="rect492" y="29.216"/>
                                <rect height="0.66600001" gorn="0.2.0.0.12.0.0.2.1" width="17.396"  x="7.9299998" fill="#666666" id="rect494" y="29.882999"/>
                                <rect height="0.66799998" gorn="0.2.0.0.12.0.0.2.2" width="17.396"  x="7.9299998" fill="#777777" id="rect496" y="30.549"/>
                            </g>
                        </g>
                    </g>
                </g>
            </g>
        </g>
    </g>
</svg>
