<?xml version='1.0' encoding='UTF-8' standalone='no'?>
<!-- Created with Inkscape (http://www.inkscape.org/) -->
<svg xmlns="http://www.w3.org/2000/svg" width="71.692039mm" id="svg777" height="35.471172mm"  viewBox="0 0 71.692041 35.471172" version="1.1" gorn="0">
    <desc >
        <referenceFile >Battery3aaa.svg</referenceFile>
    </desc>
    <title id="title896" >Блок из трех батареек AAA</title>
    <defs id="defs774" >
        <clipPath id="clipPath2454" clipPathUnits="userSpaceOnUse" >
            <g id="g2460"  gorn="0.2.0.0">
                <g  transform="matrix(0.3527806,0,0,0.35278062,16.783265,48.652055)">
                    <g >
                        <g >
                            <g >
                                <g id="g2458"  gorn="0.2.0.0.0.0.0.0.0">
                                    <rect width="159.4917" stroke-width="0.996121" id="rect2456" height="98.161911" x="0.1713241"  fill-opacity="1" stroke-opacity="1" fill="#c9c9c9" style="font-variation-settings:normal;opacity:1;vector-effect:none;fill-rule:evenodd;stroke-linecap:butt;stroke-linejoin:miter;stroke-miterlimit:4;stroke-dasharray:none;stroke-dashoffset:0;-inkscape-stop-color:#000000;stop-opacity:1" stroke="none" gorn="0.2.0.0.0.0.0.0.0.0" y="-112.37993"/>
                                </g>
                            </g>
                        </g>
                    </g>
                </g>
            </g>
        </clipPath>
        <clipPath id="clipPath8477" clipPathUnits="userSpaceOnUse" >
            <g id="g8487"  gorn="0.2.1.0">
                <g id="g8485"  gorn="0.2.1.0.0">
                    <g  transform="translate(-14.986773,-8.4576964)">
                        <g >
                            <g >
                                <g >
                                    <g id="g8483"  gorn="0.2.1.0.0.0.0.0.0.0">
                                        <g  transform="matrix(0.3527806,0,0,0.35278062,16.783265,48.652055)">
                                            <g >
                                                <g >
                                                    <g >
                                                        <g id="g8481"  gorn="0.2.1.0.0.0.0.0.0.0.0.0.0.0.0">
                                                            <rect width="159.4917" stroke-width="0.996121" id="rect8479" height="98.161911" x="0.1713241"  fill-opacity="1" stroke-opacity="1" fill="#c9c9c9" style="font-variation-settings:normal;opacity:1;vector-effect:none;fill-rule:evenodd;stroke-linecap:butt;stroke-linejoin:miter;stroke-miterlimit:4;stroke-dasharray:none;stroke-dashoffset:0;-inkscape-stop-color:#000000;stop-opacity:1" stroke="none" gorn="0.2.1.0.0.0.0.0.0.0.0.0.0.0.0.0" y="-112.37993"/>
                                                        </g>
                                                    </g>
                                                </g>
                                            </g>
                                        </g>
                                    </g>
                                </g>
                            </g>
                        </g>
                    </g>
                </g>
            </g>
        </clipPath>
        <clipPath id="clipPath8689" clipPathUnits="userSpaceOnUse" >
            <g id="g8699"  gorn="0.2.2.0">
                <g id="g8697"  gorn="0.2.2.0.0">
                    <g  transform="translate(-14.986773,-8.4576964)">
                        <g >
                            <g >
                                <g >
                                    <g id="g8695"  gorn="0.2.2.0.0.0.0.0.0.0">
                                        <g  transform="matrix(0.3527806,0,0,0.35278062,16.783265,48.652055)">
                                            <g >
                                                <g >
                                                    <g >
                                                        <g id="g8693"  gorn="0.2.2.0.0.0.0.0.0.0.0.0.0.0.0">
                                                            <rect width="159.4917" stroke-width="0.996121" id="rect8691" height="98.161911" x="0.1713241"  fill-opacity="1" stroke-opacity="1" fill="#c9c9c9" style="font-variation-settings:normal;opacity:1;vector-effect:none;fill-rule:evenodd;stroke-linecap:butt;stroke-linejoin:miter;stroke-miterlimit:4;stroke-dasharray:none;stroke-dashoffset:0;-inkscape-stop-color:#000000;stop-opacity:1" stroke="none" gorn="0.2.2.0.0.0.0.0.0.0.0.0.0.0.0.0" y="-112.37993"/>
                                                        </g>
                                                    </g>
                                                </g>
                                            </g>
                                        </g>
                                    </g>
                                </g>
                            </g>
                        </g>
                    </g>
                </g>
            </g>
        </clipPath>
    </defs>
    <metadata id="metadata894" >
        <rdf:RDF xmlns:rdf="http://www.w3.org/1999/02/22-rdf-syntax-ns#">
            <cc:Work rdf:about="" xmlns:rdf="http://www.w3.org/1999/02/22-rdf-syntax-ns#" xmlns:cc="http://creativecommons.org/ns#">
                <dc:title xmlns:dc="http://purl.org/dc/elements/1.1/">Блок из трех батареек AAA</dc:title>
            </cc:Work>
        </rdf:RDF>
    </metadata>
    <g id="g16221"  gorn="0.4">
        <rect width="48.227638" stroke-width="0.351413" id="rect2509" height="0.36261383" x="3.4540558"  fill-opacity="1" stroke-opacity="1" fill="#c9c9c9" style="font-variation-settings:normal;display:inline;vector-effect:none;fill-rule:evenodd;stroke-linecap:butt;stroke-linejoin:miter;stroke-miterlimit:4;stroke-dasharray:none;stroke-dashoffset:0;-inkscape-stop-color:#000000" stroke="none" gorn="0.4.0" y="23.440609"/>
        <rect width="1.2691483" stroke-width="0.351413" id="rect2511-2" height="7.6148906" x="50.41256"  fill-opacity="1" stroke-opacity="1" fill="#c9c9c9" style="font-variation-settings:normal;display:inline;vector-effect:none;fill-rule:evenodd;stroke-linecap:butt;stroke-linejoin:miter;stroke-miterlimit:4;stroke-dasharray:none;stroke-dashoffset:0;-inkscape-stop-color:#000000" stroke="none" gorn="0.4.1" y="15.854244"/>
        <rect width="1.0274059" stroke-width="0.351413" id="rect2513" height="8.1588106" x="2.7288284"  fill-opacity="1" stroke-opacity="1" fill="#c9c9c9" style="font-variation-settings:normal;display:inline;vector-effect:none;fill-rule:evenodd;stroke-linecap:butt;stroke-linejoin:miter;stroke-miterlimit:4;stroke-dasharray:none;stroke-dashoffset:0;-inkscape-stop-color:#000000" stroke="none" gorn="0.4.2" y="23.440609"/>
        <path stroke-width="0.352781" id="path481"  fill="#353535" d="m 4.6667738,33.675379 c 0,0.627949 0.615955,1.143009 1.369847,1.143009 H 49.049043 c 0.753539,0 1.369847,-0.51506 1.369847,-1.143009 v -8.383126 c 0,-0.628302 -0.616308,-1.143009 -1.369847,-1.143009 H 6.0366208 c -0.753892,0 -1.369847,0.514707 -1.369847,1.143009 z" gorn="0.4.3"/>
        <path stroke-width="0.352781" id="path483"  fill="#ce925d" d="M 17.928502,24.150302 H 6.0366208 c -0.753892,0 -1.369847,0.514354 -1.369847,1.142657 v 8.383478 c 0,0.628302 0.615955,1.142656 1.369847,1.142656 H 17.928502 Z" gorn="0.4.4"/>
        <path opacity="0.35" stroke-width="0.352781" id="path485"  enable-background="new    " d="m 48.945678,34.381998 c 0.566918,0 1.290118,-0.438859 1.290118,-0.957799 v -2.399614 c 0,0.519999 -0.7232,1.334216 -1.290118,1.334216 H 6.2440558 c -0.566919,0 -1.290472,-0.81457 -1.290472,-1.334216 v 2.399614 c 0,0.519998 0.723553,0.957799 1.290472,0.957799 z" gorn="0.4.5"/>
        <path stroke-width="0.352781" id="path487"  fill="#b2b2b2" d="m 4.7052268,29.413436 c 0,2.389383 0.109714,4.326501 0.244477,4.326501 0.135115,0 0.135115,-8.651944 0,-8.651944 -0.135115,-3.53e-4 -0.244477,1.936413 -0.244477,4.325443" gorn="0.4.6"/>
        <path stroke-width="0.352781" id="path489"  fill="#7c7c7c" d="m 4.7962438,30.888412 c 0.08925,0 0.08925,-3.196898 0,-3.196898 l 0.0025,3.53e-4 c 0,0.197204 -0.191208,0.356661 -0.426512,0.356661 h -0.194765 c -0.234952,0 -0.42757,0.160515 -0.42757,0.357014 v 1.768136 c 0,0.196499 0.192618,0.357014 0.42757,0.357014 h 0.194382 c 0.235305,0 0.426512,0.159457 0.426512,0.357367 z" gorn="0.4.7"/>
        <path stroke-width="0.352781" id="path491"  fill="#e0e0e0" d="m 41.575738,29.597235 0.182035,-0.457556 h 0.575738 l -0.962386,2.417605 h -0.819156 l -0.981083,-2.417605 h 0.564449 l 0.189443,0.457556 z m -0.62936,1.605505 h 0.0074 l 0.494598,-1.254135 h -1.000838 z" gorn="0.4.8"/>
        <path stroke-width="0.352781" id="path493"  fill="#e0e0e0" d="m 44.397983,29.597235 0.182035,-0.457556 h 0.575738 l -0.962386,2.417605 h -0.819156 l -0.981083,-2.417605 h 0.564449 l 0.189443,0.457556 z m -0.629361,1.605505 h 0.0074 l 0.494598,-1.254135 h -1.000838 z" gorn="0.4.9"/>
        <path stroke-width="0.352781" id="path495"  fill="#e0e0e0" d="m 38.834986,29.597235 0.181682,-0.457556 h 0.57609 l -0.962385,2.417605 h -0.819157 l -0.981083,-2.417605 h 0.564097 l 0.189443,0.457556 z m -0.629714,1.605505 h 0.0078 l 0.494246,-1.254135 h -1.001191 z" gorn="0.4.10"/>
        <path stroke-width="0.352781" id="path497"  fill="#e0e0e0" d="m 35.23239,29.138973 v 2.417253 h -1.442873 c -0.567624,0 -0.85267,-0.0956 -0.85267,-0.628302 0,-0.27658 0.06103,-0.46426 0.4124,-0.534463 v -0.01376 c -0.405697,-0.03881 -0.482604,-0.26141 -0.482604,-0.566565 0,-0.535521 0.261764,-0.673811 0.873838,-0.673811 h 1.491909 z m -0.556688,0.396878 h -0.760947 c -0.331261,0 -0.490365,0.0194 -0.490365,0.315739 0,0.264233 0.06985,0.341844 0.397583,0.341844 h 0.853024 z m 0,1.008953 h -0.799401 c -0.313974,0 -0.382414,0.08079 -0.382414,0.338669 0,0.257883 0.123474,0.277286 0.397584,0.277286 h 0.784584 z" gorn="0.4.11"/>
        <path stroke-width="0.352781" id="path499"  fill="#e0e0e0" d="m 31.146485,29.352053 h 0.01164 c 0.09631,-0.226838 0.393703,-0.23213 0.629713,-0.23213 0.460026,0 0.757773,0.08043 0.757773,0.53799 0,0.406051 -0.25506,0.519293 -0.757773,0.519293 -0.247299,0 -0.490365,-0.0032 -0.606077,-0.194029 h -0.01552 v 0.219782 c 0,0.273758 0.02716,0.37042 0.432509,0.37042 0.212727,0 0.382767,-0.01623 0.382767,-0.234952 h 0.488248 c 0,0.492835 -0.40605,0.511532 -0.869957,0.511532 -0.64841,0 -0.918993,-0.08396 -0.918993,-0.651586 v -1.060105 h 0.486837 z m 0.911585,0.30586 c 0,-0.238479 -0.115006,-0.260704 -0.44415,-0.260704 -0.259294,0 -0.448385,0.01834 -0.448385,0.260704 0,0.235658 0.207788,0.242008 0.448385,0.242008 0.247651,7.05e-4 0.44415,7.05e-4 0.44415,-0.242008 z" gorn="0.4.12"/>
        <path stroke-width="0.352781" id="path501"  fill="#e0e0e0" d="m 30.442335,30.831967 h -0.25506 v 0.383473 h -0.48719 v -0.383473 h -0.77647 v -0.309388 h 0.77647 v -0.867488 c -0.0046,-0.154871 -0.0046,-0.226838 -0.208141,-0.226838 -0.274463,0 -0.243418,0.181329 -0.243418,0.358425 h -0.428629 c -0.0078,-0.511884 0.14711,-0.666755 0.6724,-0.666755 0.533051,0 0.695683,0.103012 0.695683,0.53164 v 0.87031 h 0.255061 z" gorn="0.4.13"/>
        <path stroke-width="0.352781" id="path503"  fill="#e0e0e0" d="m 28.799083,30.831967 h -0.25506 v 0.383473 h -0.486837 v -0.383473 h -0.776823 v -0.309388 h 0.776823 v -0.867488 c -0.0039,-0.154871 -0.0039,-0.226838 -0.207788,-0.226838 -0.275169,0 -0.243772,0.181329 -0.243772,0.358425 h -0.429334 c -0.0071,-0.511884 0.147463,-0.666755 0.673106,-0.666755 0.531993,0 0.694625,0.103012 0.694625,0.53164 v 0.87031 h 0.25506 z" gorn="0.4.14"/>
        <path stroke-width="0.352781" id="path505"  fill="#e0e0e0" d="m 25.104412,29.677316 c 0,-0.531993 0.367597,-0.557393 0.94651,-0.557393 0.776823,0 0.93381,0.206377 0.93381,0.860432 0,0.607135 -0.115006,0.87031 -0.93381,0.87031 -0.835384,0 -0.94651,-0.203202 -0.94651,-0.941925 h 1.394894 c 0,-0.363716 -0.01164,-0.480134 -0.448031,-0.480134 -0.270935,0 -0.460731,-0.0035 -0.460731,0.24871 z m 0.486837,0.490365 c 0,0.347842 0.06174,0.374653 0.460732,0.374653 0.421572,0 0.448384,-0.07373 0.448384,-0.374653 z" gorn="0.4.15"/>
        <path stroke-width="0.352781" id="path507"  fill="#e0e0e0" d="m 24.264794,30.831967 0.01058,-0.222604 h -0.0194 c -0.09666,0.187326 -0.305508,0.241302 -0.541166,0.241302 -0.428628,0 -0.533051,-0.21308 -0.533051,-0.531994 v -0.13582 h 0.455792 v 0.08678 c 0,0.170746 0.0194,0.270935 0.247299,0.270935 0.289633,0 0.374653,-0.139701 0.367951,-0.357719 v -1.044583 h 0.486837 v 1.692288 z" gorn="0.4.16"/>
        <path stroke-width="0.352781" id="path509"  fill="#e0e0e0" d="m 21.725832,29.070886 c 0.11289,-0.383825 0.205671,-0.682983 0.772237,-0.682983 0.0695,0 0.139348,0.0088 0.208846,0.0127 v 0.306214 c -0.03492,-0.0032 -0.07056,-0.0095 -0.104423,-0.0095 -0.305508,0 -0.351722,0.245182 -0.395467,0.442387 h 0.235657 l 0.668519,1.692994 h -0.503417 l -0.514002,-1.441462 h -0.0074 l -0.394409,1.441462 h -0.494598 z" gorn="0.4.17"/>
        <path opacity="0.35" stroke-width="0.352781" id="path515"  fill="#ffffff" enable-background="new    " d="m 5.9953448,27.300986 c 0,0.381709 0.49601,0.689686 1.107379,0.689686 H 48.122641 c 0.611016,0 1.108084,-0.281872 1.108084,-0.663228 v -2.079641 c 0,-0.381003 -0.496716,-0.717203 -1.108084,-0.717203 H 7.1034288 c -0.611016,0 -1.107731,0.309388 -1.107731,0.690391 z" gorn="0.4.18"/>
        <g  transform="matrix(0.3527806,0,0,0.3527806,-0.24666323,-0.20410683)">
            <g >
                <g >
                    <g >
                        <path stroke-width="0.996122" id="path537-2" clip-path="url(#clipPath4028-2)"  fill="#1a1a1a" d="m 101.18997,101.67409 1.79,-1.15201 c 0,0 1.276,-1.195666 2.389,-2.472703 0.663,-0.76007 1.219,-3.439167 2.036,-4.117871 0.82,-0.679697 1.993,-0.823574 2.987,-0.823574 0.278,0 23.058,0 23.334,0 0.996,0 2.165,0.141893 2.988,0.823574 0.819,0.680689 1.376,3.358794 2.036,4.117871 1.112,1.277037 2.39,2.472703 2.39,2.472703 l 1.79,1.15201 z" style="display:inline;" gorn="0.4.19.0.0.0.0"/>
                    </g>
                </g>
            </g>
        </g>
        <path stroke-width="0.294395" id="pravPrukont-5"  fill="none" stroke="#c9c9c9" d="m 50.578355,26.092301 v 4.1935 c 0,0.20955 0.13758,0.38136 0.30374,0.38136 0.16792,0 0.3041,-0.17181 0.3041,-0.38136 l 0.32244,-5.33686 c 0,-0.20955 0.13652,-0.38101 0.30374,-0.38101 0.16722,0 0.30339,0.17146 0.30339,0.38101 l 0.32209,6.8891 c 0,0.20884 0.13794,0.38029 0.3041,0.38029 0.16687,0 0.30445,-0.17145 0.30445,-0.38029 v -8.45439 c 0,-0.20814 0.20602,-0.38065 0.45685,-0.38065 h 0.51682" style="display:inline" gorn="0.4.20"/>
        <path stroke-width="0.294395" id="pravPrukont-5-3"  fill="none" stroke="#c9c9c9" d="m 52.853293,15.659876 v 4.193499 c 0,0.20955 0.13758,0.38136 0.30374,0.38136 0.16792,0 0.3041,-0.17181 0.3041,-0.38136 l 0.32244,-5.336859 c 0,-0.20955 0.13652,-0.38101 0.30374,-0.38101 0.16722,0 0.30339,0.17146 0.30339,0.38101 l 0.32209,6.889099 c 0,0.208841 0.13794,0.380291 0.3041,0.380291 0.16687,0 0.30445,-0.17145 0.30445,-0.380291 v -8.454389 c 0,-0.20814 0.20602,-0.38065 0.45685,-0.38065 h 0.51682" style="display:inline" gorn="0.4.21"/>
        <path stroke-width="0.351412" id="path531"  fill="#1a1a1a" d="m 4.1897268,34.923475 0.631477,-0.406407 c 0,0 0.450148,-0.421809 0.842793,-0.872323 0.233893,-0.268138 0.429687,-1.213271 0.718261,-1.452705 0.289633,-0.239784 0.703092,-0.290541 1.053756,-0.290541 0.09772,0 8.1344152,0 8.2321352,0 0.351017,0 0.763417,0.05006 1.053403,0.290541 0.28928,0.239784 0.486131,1.184917 0.719319,1.452705 0.39194,0.450514 0.842793,0.872323 0.842793,0.872323 l 0.631477,0.406407 z" gorn="0.4.22"/>
        <path stroke-width="0.351412" id="path533"  d="m 5.1013118,34.617532 0.164396,-0.05076 c 0,0 0,-0.188677 0.365833,-0.388905 0.219782,-0.120417 0.401464,-0.172224 0.671694,-0.279339 0.270936,-0.107115 0.655467,-0.129519 0.984611,-0.129519 0.09102,0 8.4378062,0 8.5305872,0 0.328792,0 0.71297,0.0224 0.9832,0.129519 0.270935,0.106415 0.453676,0.158922 0.671694,0.279339 0.367245,0.200228 0.366892,0.388905 0.366892,0.388905 l 0.161573,0.04936 z" gorn="0.4.23"/>
        <g  transform="matrix(0.3527806,0,0,0.3527806,1.7964918,40.194358)">
            <g >
                <g >
                    <g >
                        <path stroke-width="0.831263" id="path349" clip-path="url(#clipPath1638)"  fill="none" stroke="#c9c9c9" d="m 2.3163242,-65.753022 v -39.726048 c 0,-0.58543 0.388,-1.07163 0.863,-1.07163 0.475,0 0.86,0.48521 0.86,1.07163 l 0.913,19.375827 c 0,0.589401 0.391,1.071639 0.863,1.071639 0.472,0 0.863,-0.482238 0.863,-1.071639 l 0.913,-15.010877 c 0,-0.58841 0.389,-1.07164 0.861,-1.07164 0.475,0 0.861,0.48323 0.861,1.07164 v 11.794969" gorn="0.4.24.0.0.0.0"/>
                    </g>
                </g>
            </g>
        </g>
        <g  transform="matrix(0.3527806,0,0,0.3527806,1.7964918,40.702358)">
            <g >
                <g >
                    <g >
                        <path stroke-width="0.831263" id="path351" clip-path="url(#clipPath1632)"  fill="none" stroke="#c9c9c9" d="m 144.88632,-102.43184 v 14.344081 c 0,0.589401 0.583,1.071639 1.295,1.071639 h 1.465" gorn="0.4.25.0.0.0.0"/>
                    </g>
                </g>
            </g>
        </g>
        <g  transform="matrix(0.3527806,0,0,0.3527806,1.7964918,40.194358)">
            <g >
                <g >
                    <g >
                        <rect width="3.46" stroke-width="0.996122" id="rect353" clip-path="url(#clipPath1626)" x="1.8773242" height="11.931903"  fill="#c9c9c9" gorn="0.4.26.0.0.0.0" y="-69.99691"/>
                    </g>
                </g>
            </g>
        </g>
        <g  transform="matrix(0.3527806,0,0,0.3527806,1.7964918,40.194358)">
            <g >
                <g >
                    <g >
                        <rect width="2.95" stroke-width="0.996122" id="rect355" clip-path="url(#clipPath1620)" x="142.04033" height="11.935872"  fill="#c9c9c9" gorn="0.4.27.0.0.0.0" y="-102.36834"/>
                    </g>
                </g>
            </g>
        </g>
        <g  transform="translate(-14.986773,-8.4576968)">
            <g >
                <g >
                    <g >
                        <path stroke-width="0.351412" id="path357" clip-path="url(#clipPath2462)"  fill="#353535" d="m 65.976518,19.021407 c 0,0.624488 -0.616308,1.13416 -1.369848,1.13416 H 21.593543 c -0.753539,0 -1.369847,-0.509672 -1.369847,-1.13416 v -8.317174 c 0,-0.623438 0.616308,-1.1338099 1.369847,-1.1338099 H 64.60667 c 0.753893,0 1.3702,0.5103719 1.3702,1.1338099 z" gorn="0.4.28.0.0.0.0"/>
                    </g>
                </g>
            </g>
        </g>
        <g  transform="translate(-14.986773,-8.4576968)">
            <g >
                <g >
                    <g >
                        <path stroke-width="0.351412" id="path359" clip-path="url(#clipPath2454)"  fill="#ce925d" d="m 52.806159,9.5875755 h 11.891882 c 0.753539,0 1.369847,0.5100215 1.369847,1.1341605 v 8.319273 c 0,0.623788 -0.616308,1.13416 -1.369847,1.13416 H 52.806159 Z" gorn="0.4.29.0.0.0.0"/>
                    </g>
                </g>
            </g>
        </g>
        <g  transform="translate(-14.986773,-8.4576968)">
            <g >
                <g >
                    <g >
                        <path opacity="0.35" stroke-width="0.351412" id="path361" clip-path="url(#clipPath2446)"  enable-background="new    " d="m 21.69726,19.722205 c -0.566918,0 -1.290471,-0.434761 -1.290471,-0.950034 v -2.380685 c 0,0.515972 0.723553,1.324586 1.290471,1.324586 h 42.700917 c 0.567271,0 1.290824,-0.808614 1.290824,-1.324586 v 2.381035 c 0,0.515973 -0.723553,0.950035 -1.290824,0.950035 z" gorn="0.4.30.0.0.0.0"/>
                    </g>
                </g>
            </g>
        </g>
        <g  transform="translate(-14.986773,-8.4576968)">
            <g >
                <g >
                    <g >
                        <path stroke-width="0.351412" id="path363" clip-path="url(#clipPath2438)"  fill="#b2b2b2" d="m 65.938064,14.79281 c 0,2.371235 -0.109362,4.292656 -0.243771,4.292656 -0.134409,0 -0.134762,-8.584612 0,-8.584612 0.134762,0 0.243771,1.921421 0.243771,4.291956" gorn="0.4.31.0.0.0.0"/>
                    </g>
                </g>
            </g>
        </g>
        <g  transform="translate(-14.986773,-8.4576968)">
            <g >
                <g >
                    <g >
                        <path stroke-width="0.351412" id="path365" clip-path="url(#clipPath2430)"  fill="#7c7c7c" d="m 65.847047,16.256016 c -0.08961,0 -0.08961,-3.171797 0,-3.171797 h -0.0028 c 0,0.195677 0.19156,0.3539 0.42757,0.3539 h 0.193676 c 0.235658,0 0.427218,0.158572 0.427218,0.35425 v 1.754097 c 0,0.194978 -0.19156,0.35425 -0.427218,0.35425 h -0.193676 c -0.23601,0 -0.42757,0.158223 -0.42757,0.35355 z" gorn="0.4.32.0.0.0.0"/>
                    </g>
                </g>
            </g>
        </g>
        <path stroke-width="0.351412" id="path367" clip-path="url(#clipPath8549)"  fill="#e0e0e0" d="m 14.35736,5.6087611 -0.181682,0.453314 H 13.59994 l 0.962032,-2.3985384 h 0.819157 l 0.981083,2.3985384 h -0.564096 l -0.189091,-0.453314 z m 0.62936,-1.5927247 h -0.0078 L 14.484713,5.260462 h 1.000486 z" gorn="0.4.33"/>
        <path stroke-width="0.351412" id="path369" clip-path="url(#clipPath8537)"  fill="#e0e0e0" d="m 11.54852,5.6087611 -0.181682,0.453314 H 10.7911 l 0.962033,-2.3985384 h 0.819157 l 0.981083,2.3985384 h -0.564097 l -0.188737,-0.453314 z m 0.629361,-1.5927247 h -0.0078 L 11.675874,5.260462 h 1.000486 z" gorn="0.4.34"/>
        <path stroke-width="0.351412" id="path371" clip-path="url(#clipPath8525)"  fill="#e0e0e0" d="m 17.098112,5.6087611 -0.181682,0.453314 h -0.57468 l 0.960975,-2.3985384 h 0.819156 l 0.981436,2.3985384 H 18.539221 L 18.35013,5.6087611 Z m 0.629361,-1.5927247 h -0.0074 l -0.49496,1.2444256 h 1.000486 z" gorn="0.4.35"/>
        <path stroke-width="0.351412" id="path373" clip-path="url(#clipPath8513)"  fill="#e0e0e0" d="M 20.701413,6.0631253 V 3.6645868 h 1.442167 c 0.567977,0 0.852671,0.095214 0.852671,0.6241381 0,0.2740887 -0.06103,0.460665 -0.412401,0.5303248 v 0.013302 c 0.405698,0.038505 0.482957,0.2593866 0.482957,0.5621793 0,0.5310249 -0.262822,0.6689444 -0.873485,0.6689444 z m 0.556335,-1.3945968 h 0.798695 c 0.314328,0 0.382767,-0.080161 0.382767,-0.3356974 0,-0.2558861 -0.123826,-0.2751388 -0.397936,-0.2751388 H 21.25669 Z m 0,1.0011412 h 0.761301 c 0.330908,0 0.490012,-0.019253 0.490012,-0.3136442 0,-0.262187 -0.0695,-0.3388478 -0.396878,-0.3388478 h -0.853729 z" gorn="0.4.36"/>
        <path stroke-width="0.351412" id="path375" clip-path="url(#clipPath8501)"  fill="#e0e0e0" d="m 24.786965,5.8516954 h -0.01164 c -0.09666,0.2247317 -0.394055,0.2303325 -0.630066,0.2303325 -0.459673,0 -0.757067,-0.080161 -0.757067,-0.5341754 0,-0.4029068 0.255061,-0.5149226 0.757067,-0.5149226 0.247652,0 0.490718,0.00315 0.606783,0.1918271 h 0.01552 V 5.0070262 c 0,-0.2719883 -0.02716,-0.3679019 -0.432861,-0.3679019 -0.212727,0 -0.382767,0.016802 -0.382767,0.233483 h -0.48719 c 0,-0.4893691 0.406756,-0.5079217 0.869251,-0.5079217 0.650175,0 0.919346,0.083312 0.919346,0.6461912 V 6.0624252 H 24.765798 Z M 23.875027,5.5478525 c 0,0.2366334 0.115007,0.2593866 0.444151,0.2593866 0.258588,0 0.448384,-0.018553 0.448384,-0.2593866 0,-0.2334829 -0.20814,-0.2397838 -0.448384,-0.2397838 -0.247299,0 -0.444151,0 -0.444151,0.2397838 z" gorn="0.4.37"/>
        <path stroke-width="0.351412" id="path377" clip-path="url(#clipPath8489)"  fill="#e0e0e0" d="m 25.491115,4.3835883 h 0.255413 V 4.0027345 h 0.486838 v 0.3808538 h 0.77647 v 0.3069933 h -0.77647 V 5.551003 c 0.0046,0.1536717 0.0046,0.2236816 0.20814,0.2236816 0.274464,0 0.243419,-0.1788753 0.243419,-0.3539 h 0.428981 c 0.0078,0.5075716 -0.147109,0.6612433 -0.6724,0.6612433 -0.533051,0 -0.695683,-0.1022144 -0.695683,-0.5278745 V 4.6905816 H 25.49041 Z" gorn="0.4.38"/>
        <path stroke-width="0.351412" id="path379" clip-path="url(#clipPath8477)"  fill="#e0e0e0" d="m 27.134367,4.3835883 h 0.255061 V 4.0027345 h 0.486837 v 0.3808538 h 0.776823 V 4.6905816 H 27.876265 V 5.551003 c 0.0039,0.1536717 0.0039,0.2236816 0.208141,0.2236816 0.274816,0 0.243771,-0.1788753 0.243771,-0.3539 h 0.428981 c 0.0074,0.5075716 -0.147109,0.6612433 -0.672752,0.6612433 -0.532346,0 -0.694625,-0.1022144 -0.694625,-0.5278745 V 4.6905816 h -0.255414 z" gorn="0.4.39"/>
        <path stroke-width="0.351412" id="path381" clip-path="url(#clipPath8465)"  fill="#e0e0e0" d="m 30.829039,5.5289499 c 0,0.5278745 -0.367598,0.5534281 -0.946511,0.5534281 -0.776823,0 -0.93381,-0.2047789 -0.93381,-0.8537705 0,-0.6017349 0.115006,-0.8628717 0.93381,-0.8628717 0.835385,0 0.946511,0.2016284 0.946511,0.9339317 h -1.394895 c 0,0.361251 0.01164,0.4767673 0.448031,0.4767673 0.270583,0 0.460732,0.00315 0.460732,-0.2471349 z M 30.342201,5.0427313 c 0,-0.3454988 -0.06174,-0.3717525 -0.460731,-0.3717525 -0.42122,0 -0.448031,0.07351 -0.448031,0.3717525 z" gorn="0.4.40"/>
        <path stroke-width="0.351412" id="path383" clip-path="url(#clipPath8453)"  fill="#e0e0e0" d="m 31.668656,4.3835883 -0.01058,0.2208811 h 0.0194 c 0.09666,-0.1855261 0.305508,-0.2394337 0.540813,-0.2394337 0.428981,0 0.533404,0.2114298 0.533404,0.5278744 v 0.134419 H 32.2959 v -0.086462 c 0,-0.1694239 -0.01976,-0.2688379 -0.247652,-0.2688379 -0.289633,0 -0.374653,0.1386195 -0.367597,0.3553001 v 1.0364962 h -0.48719 V 4.3842884 Z" gorn="0.4.41"/>
        <path stroke-width="0.351412" id="path385" clip-path="url(#clipPath8441)"  fill="#e0e0e0" d="m 34.207618,6.1303347 c -0.112889,0.3808538 -0.206023,0.6773456 -0.772589,0.6773456 -0.0695,0 -0.138996,-0.00875 -0.208493,-0.012952 V 6.4908856 c 0.03492,0.00315 0.07091,0.0098 0.10407,0.0098 0.305155,0 0.351722,-0.2432843 0.395114,-0.4389619 h -0.235305 l -0.668519,-1.679537 h 0.503418 l 0.513649,1.4299517 h 0.0071 L 34.24078,4.3821881 h 0.494598 z" gorn="0.4.42"/>
        <g  transform="translate(-14.986773,-8.4576968)">
            <g >
                <g >
                    <g >
                        <path opacity="0.35" stroke-width="0.351412" id="path391" clip-path="url(#clipPath2414)"  fill="#ffffff" enable-background="new    " d="m 64.647593,12.697064 c 0,0.378054 -0.49601,0.684697 -1.108084,0.684697 H 22.519592 c -0.611016,0 -1.107731,-0.28004 -1.107731,-0.658093 v -2.063541 c 0,-0.378404 0.49601,-0.7116506 1.107731,-0.7116506 h 41.019564 c 0.612075,0 1.10879,0.3066436 1.10879,0.6850466 v 2.063541 z" gorn="0.4.43.0.0.0.0"/>
                    </g>
                </g>
            </g>
        </g>
        <g  transform="translate(-14.986773,-8.4576968)">
            <g >
                <g >
                    <g >
                        <path stroke-width="0.351412" id="path395" clip-path="url(#clipPath2542)"  fill="#353535" d="m 19.582694,30.492875 c 0,0.623438 0.615955,1.13416 1.369847,1.13416 h 43.012422 c 0.753539,0 1.369847,-0.510722 1.369847,-1.13416 v -8.318224 c 0,-0.623437 -0.616308,-1.13416 -1.369847,-1.13416 H 20.952541 c -0.753892,0 -1.369847,0.510372 -1.369847,1.13416 z" gorn="0.4.44.0.0.0.0"/>
                    </g>
                </g>
            </g>
        </g>
        <g  transform="translate(-14.986773,-8.4576968)">
            <g >
                <g >
                    <g >
                        <path stroke-width="0.351412" id="path397" clip-path="url(#clipPath2534)"  fill="#ce925d" d="M 32.844422,21.041542 H 20.952541 c -0.753892,0 -1.369847,0.510372 -1.369847,1.13381 v 8.318223 c 0,0.623438 0.615955,1.13416 1.369847,1.13416 h 11.891881 z" gorn="0.4.45.0.0.0.0"/>
                    </g>
                </g>
            </g>
        </g>
        <g  transform="translate(-14.986773,-8.4576968)">
            <g >
                <g >
                    <g >
                        <path opacity="0.35" stroke-width="0.351412" id="path399" clip-path="url(#clipPath2526)"  enable-background="new    " d="m 63.861598,31.194024 c 0.566918,0 1.290118,-0.435461 1.290118,-0.950384 v -2.380686 c 0,0.515623 -0.7232,1.323887 -1.290118,1.323887 H 21.159976 c -0.566919,0 -1.290472,-0.808264 -1.290472,-1.323887 v 2.380686 c 0,0.515973 0.723553,0.950384 1.290472,0.950384 z" gorn="0.4.46.0.0.0.0"/>
                    </g>
                </g>
            </g>
        </g>
        <g  transform="translate(-14.986773,-8.4576968)">
            <g >
                <g >
                    <g >
                        <path stroke-width="0.351412" id="path401" clip-path="url(#clipPath2518)"  fill="#b2b2b2" d="m 19.621147,26.263928 c 0,2.371235 0.109714,4.292656 0.244477,4.292656 0.135115,0 0.135115,-8.584611 0,-8.584611 -0.135115,0 -0.244477,1.921771 -0.244477,4.291955" gorn="0.4.47.0.0.0.0"/>
                    </g>
                </g>
            </g>
        </g>
        <g  transform="translate(-14.986773,-8.4576968)">
            <g >
                <g >
                    <g >
                        <path stroke-width="0.351412" id="path403" clip-path="url(#clipPath2510)"  fill="#7c7c7c" d="m 19.712164,27.727835 c 0.08925,0 0.08925,-3.172148 0,-3.172148 l 0.0025,3.5e-4 c 0,0.195328 -0.191208,0.3539 -0.426512,0.3539 h -0.194735 c -0.234952,0 -0.42757,0.159273 -0.42757,0.35425 v 1.754098 c 0,0.194977 0.192618,0.35425 0.42757,0.35425 h 0.194382 c 0.235305,0 0.426512,0.158222 0.426512,0.35425 z" gorn="0.4.48.0.0.0.0"/>
                    </g>
                </g>
            </g>
        </g>
        <path stroke-width="0.351412" id="path405" clip-path="url(#clipPath8689)"  fill="#e0e0e0" d="m 41.504885,17.988958 0.182035,-0.454014 h 0.575738 l -0.962386,2.398888 h -0.819156 l -0.981083,-2.398888 h 0.564449 l 0.189443,0.454014 z m -0.62936,1.592725 h 0.0074 l 0.494598,-1.244426 h -1.000838 z" gorn="0.4.49"/>
        <path stroke-width="0.351412" id="path407" clip-path="url(#clipPath8677)"  fill="#e0e0e0" d="m 44.32713,17.988958 0.182035,-0.454014 h 0.575738 l -0.962386,2.398888 h -0.819156 l -0.981083,-2.398888 h 0.564449 l 0.189443,0.454014 z m -0.629361,1.592725 h 0.0074 l 0.494598,-1.244426 h -1.000838 z" gorn="0.4.50"/>
        <path stroke-width="0.351412" id="path409" clip-path="url(#clipPath8665)"  fill="#e0e0e0" d="m 38.764133,17.988958 0.181682,-0.454014 h 0.57609 L 38.55952,19.933832 H 37.740363 L 36.75928,17.534944 h 0.564097 l 0.189443,0.454014 z m -0.629714,1.592725 h 0.0078 l 0.494246,-1.244426 h -1.001191 z" gorn="0.4.51"/>
        <path stroke-width="0.351412" id="path411" clip-path="url(#clipPath8653)"  fill="#e0e0e0" d="m 35.161537,17.533894 v 2.398888 h -1.442873 c -0.567624,0 -0.85267,-0.09486 -0.85267,-0.623788 0,-0.274439 0.06103,-0.460665 0.4124,-0.529975 v -0.01365 c -0.405697,-0.03851 -0.482604,-0.259386 -0.482604,-0.562179 0,-0.531375 0.261764,-0.668594 0.873838,-0.668594 z m -0.556688,0.393805 h -0.760947 c -0.331261,0 -0.490365,0.01925 -0.490365,0.313294 0,0.262187 0.06985,0.339198 0.397583,0.339198 h 0.853024 z m 0,1.001142 h -0.799401 c -0.313974,0 -0.382414,0.07981 -0.382414,0.336047 0,0.255886 0.123474,0.275489 0.397584,0.275489 h 0.784584 z" gorn="0.4.52"/>
        <path stroke-width="0.351412" id="path413" clip-path="url(#clipPath8641)"  fill="#e0e0e0" d="m 31.075632,17.745324 h 0.01164 c 0.09631,-0.225082 0.393703,-0.230333 0.629713,-0.230333 0.460026,0 0.757773,0.07981 0.757773,0.533825 0,0.403257 -0.25506,0.515273 -0.757773,0.515273 -0.247299,0 -0.490365,-0.0031 -0.606077,-0.192177 h -0.01552 v 0.217731 c 0,0.271988 0.02716,0.367552 0.432509,0.367552 0.212727,0 0.382767,-0.0161 0.382767,-0.233133 h 0.488248 c 0,0.489019 -0.40605,0.507571 -0.869957,0.507571 -0.64841,0 -0.918993,-0.08331 -0.918993,-0.646541 v -1.051898 h 0.486837 z m 0.911585,0.303842 c 0,-0.236633 -0.115006,-0.259036 -0.44415,-0.259036 -0.259294,0 -0.448385,0.0182 -0.448385,0.259036 0,0.233483 0.207788,0.240134 0.448385,0.240134 0.247651,0 0.44415,0 0.44415,-0.240134 z" gorn="0.4.53"/>
        <path stroke-width="0.351412" id="path415" clip-path="url(#clipPath8629)"  fill="#e0e0e0" d="m 30.371482,19.213781 h -0.25506 v 0.380503 h -0.48719 v -0.380503 h -0.77647 v -0.306644 h 0.77647 v -0.861121 c -0.0046,-0.153672 -0.0046,-0.224732 -0.208141,-0.224732 -0.274463,0 -0.243418,0.179576 -0.243418,0.35565 h -0.428629 c -0.0078,-0.508271 0.14711,-0.661593 0.6724,-0.661593 0.533051,0 0.695683,0.102215 0.695683,0.527525 v 0.863571 h 0.255061 z" gorn="0.4.54"/>
        <path stroke-width="0.351412" id="path417" clip-path="url(#clipPath8617)"  fill="#e0e0e0" d="m 28.72823,19.213781 h -0.25506 v 0.380503 H 27.986333 V 19.213781 H 27.20951 v -0.306644 h 0.776823 v -0.861121 c -0.0039,-0.153672 -0.0039,-0.224732 -0.207788,-0.224732 -0.275169,0 -0.243772,0.179576 -0.243772,0.35565 h -0.429334 c -0.0071,-0.508271 0.147463,-0.661593 0.673106,-0.661593 0.531993,0 0.694625,0.102215 0.694625,0.527525 v 0.863571 h 0.25506 z" gorn="0.4.55"/>
        <path stroke-width="0.351412" id="path419" clip-path="url(#clipPath8605)"  fill="#e0e0e0" d="m 25.033559,18.068419 c 0,-0.527874 0.367597,-0.553428 0.94651,-0.553428 0.776823,0 0.93381,0.204779 0.93381,0.854121 0,0.602085 -0.115006,0.863221 -0.93381,0.863221 -0.835384,0 -0.94651,-0.201628 -0.94651,-0.934281 h 1.394894 c 0,-0.361251 -0.01164,-0.476768 -0.448031,-0.476768 -0.270935,0 -0.460731,-0.0031 -0.460731,0.247135 z m 0.486837,0.486219 c 0,0.345498 0.06174,0.372102 0.460732,0.372102 0.421572,0 0.448384,-0.07316 0.448384,-0.372102 z" gorn="0.4.56"/>
        <path stroke-width="0.351412" id="path421" clip-path="url(#clipPath8593)"  fill="#e0e0e0" d="m 24.193941,19.213781 0.01058,-0.220881 h -0.0194 c -0.09666,0.185876 -0.305508,0.239433 -0.541166,0.239433 -0.428628,0 -0.533051,-0.211429 -0.533051,-0.527874 V 18.57004 h 0.455792 v 0.08646 c 0,0.169424 0.0194,0.268838 0.247299,0.268838 0.289633,0 0.374653,-0.13862 0.367951,-0.35495 v -1.036496 h 0.486837 v 1.679187 z" gorn="0.4.57"/>
        <path stroke-width="0.351412" id="path423" clip-path="url(#clipPath8581)"  fill="#e0e0e0" d="m 21.654979,17.466334 c 0.11289,-0.380854 0.205671,-0.677695 0.772237,-0.677695 0.0695,0 0.139348,0.0088 0.208846,0.0126 v 0.304193 c -0.03492,-0.0032 -0.07056,-0.0095 -0.104423,-0.0095 -0.305508,0 -0.351722,0.243284 -0.395467,0.438962 h 0.235657 l 0.668519,1.679537 h -0.503417 l -0.514002,-1.429952 h -0.0074 l -0.394409,1.429952 h -0.494598 z" gorn="0.4.58"/>
        <g  transform="translate(-14.986773,-8.4576968)">
            <g >
                <g >
                    <g >
                        <path opacity="0.35" stroke-width="0.351412" id="path429" clip-path="url(#clipPath2494)"  fill="#ffffff" enable-background="new    " d="m 20.911265,24.168183 c 0,0.378753 0.49601,0.684346 1.107379,0.684346 h 41.019917 c 0.611016,0 1.108084,-0.279689 1.108084,-0.657742 v -2.063542 c 0,-0.378403 -0.496716,-0.71165 -1.108084,-0.71165 H 22.019349 c -0.611016,0 -1.107731,0.306643 -1.107731,0.685047 z" gorn="0.4.59.0.0.0.0"/>
                    </g>
                </g>
            </g>
        </g>
        <g  transform="translate(-14.986773,-8.4576968)">
            <g >
                <g >
                    <g >
                        <path stroke-width="0.351412" id="path519" clip-path="url(#clipPath2566)"  fill="#1a1a1a" d="m 19.439112,8.9238819 0.631477,0.4060573 c 0,0 0.450148,0.4221595 0.842793,0.8723228 0.233894,0.268488 0.429687,1.213271 0.718261,1.453055 0.289633,0.239084 0.703092,0.290891 1.053756,0.290891 0.09772,0 8.134415,0 8.232135,0 0.351017,0 0.763417,-0.05076 1.053403,-0.290891 0.28928,-0.239784 0.486132,-1.184567 0.71932,-1.453055 0.391939,-0.4501633 0.842793,-0.8723228 0.842793,-0.8723228 l 0.631477,-0.4060573 z" gorn="0.4.60.0.0.0.0"/>
                    </g>
                </g>
            </g>
        </g>
        <g  transform="translate(-14.986773,-8.4576968)">
            <g >
                <g >
                    <g >
                        <path opacity="0.2" stroke-width="0.351412" id="path521" clip-path="url(#clipPath2558)"  fill="#ffffff" enable-background="new    " d="m 20.350697,9.2301751 0.164396,0.050757 c 0,0 0,0.1886766 0.365833,0.3889048 0.219783,0.1197169 0.401465,0.1722243 0.671694,0.2793394 0.270936,0.1067657 0.655467,0.1295187 0.984611,0.1295187 0.09102,0 8.437806,0 8.530588,0 0.328791,0 0.712969,-0.02275 0.983199,-0.1295187 0.270936,-0.1071151 0.453676,-0.1596225 0.671695,-0.2793394 0.367244,-0.2005783 0.366891,-0.3889048 0.366891,-0.3889048 l 0.161574,-0.050407 z" gorn="0.4.61.0.0.0.0"/>
                    </g>
                </g>
            </g>
        </g>
        <g  transform="translate(-14.986773,-8.4576968)">
            <g >
                <g >
                    <g >
                        <path stroke-width="0.351412" id="path525" clip-path="url(#clipPath2590)"  fill="#1a1a1a" d="m 51.548144,8.9238819 0.631477,0.4060573 c 0,0 0.450148,0.4221595 0.842793,0.8723228 0.233893,0.268488 0.430039,1.213271 0.718261,1.453055 0.28928,0.239084 0.703092,0.290891 1.053756,0.290891 0.09807,0 8.134415,0 8.231782,0 0.35137,0 0.76377,-0.05076 1.054109,-0.290891 0.288574,-0.239784 0.485426,-1.184567 0.718261,-1.453055 0.392292,-0.4501633 0.843146,-0.8723228 0.843146,-0.8723228 l 0.631477,-0.4060573 z" gorn="0.4.62.0.0.0.0"/>
                    </g>
                </g>
            </g>
        </g>
        <g  transform="translate(-14.986773,-8.4576968)">
            <g >
                <g >
                    <g >
                        <path opacity="0.2" stroke-width="0.351412" id="path527" clip-path="url(#clipPath2582)"  fill="#ffffff" enable-background="new    " d="m 52.459729,9.2301751 0.165101,0.050757 c 0,0 0,0.1886766 0.365481,0.3889048 0.219782,0.1197169 0.401464,0.1722243 0.671694,0.2793394 0.271994,0.1067657 0.655466,0.1295187 0.984611,0.1295187 0.09102,0 8.438159,0 8.53094,0 0.328792,0 0.71297,-0.02275 0.983553,-0.1295187 0.270935,-0.1071151 0.45297,-0.1596225 0.672047,-0.2793394 0.366539,-0.2005783 0.366186,-0.3889048 0.366186,-0.3889048 l 0.161573,-0.050407 z" gorn="0.4.63.0.0.0.0"/>
                    </g>
                </g>
            </g>
        </g>
        <rect width="57.922733" stroke-width="0.367524" id="rect3114" height="0.5" x="0.032646179"  fill="#999999" style="fill-rule:evenodd;-inkscape-stop-color:#000000" stroke="none" gorn="0.4.64" y="0"/>
        <rect width="57.922733" stroke-width="0.367524" id="rect3114-1" height="0.5" x="0"  fill="#999999" style="fill-rule:evenodd;-inkscape-stop-color:#000000" stroke="none" gorn="0.4.65" y="34.971172"/>
        <rect width="0.5" stroke-width="0.351408" id="rect3138" height="35.197689" x="0.032646179"  fill="#999999" style="fill-rule:evenodd;-inkscape-stop-color:#000000" stroke="none" gorn="0.4.66" y="0.22744751"/>
        <rect width="0.5" stroke-width="0.351409" id="rect3138-4" height="35.197689" x="57.455116"  fill="#999999" style="fill-rule:evenodd;-inkscape-stop-color:#000000" stroke="none" gorn="0.4.67" y="0.19479752"/>
        <rect width="1.0913123" stroke-width="0.360464" id="rect824" height="8.858613" x="52.822166"  fill="#cccccc" style="fill-rule:evenodd;-inkscape-stop-color:#000000" stroke="#cccccc" gorn="0.4.68" y="15.758464"/>
        <ellipse cx="71.11322" stroke-width="0.351" id="connector0pin" cy="9.9742603"  rx="0.40331909" fill="#ffffff" style="fill-rule:evenodd;stroke-dasharray:none;stop-color:#000000" ry="0.40331927" stroke="#ff0000" gorn="0.4.69"/>
        <ellipse cx="71.078514" stroke-width="0.351" id="connector1pin" cy="12.549512"  rx="0.40331909" fill="#ffffff" style="fill-rule:evenodd;stroke-dasharray:none;stop-color:#000000" ry="0.40331927" stroke="#0000ff" gorn="0.4.70"/>
        <rect width="14.346653" stroke-width="0.293837" id="rect15459" height="0.33016273" x="56.156799"  fill="#0000ff" style="fill-rule:evenodd;stroke-dasharray:none;stop-color:#000000" stroke="#0000ff" gorn="0.4.71" y="12.44212"/>
        <rect width="16.799299" stroke-width="0.310055" id="rect15459-8" height="0.31394511" x="53.869381"  fill="#ff0000" style="fill-rule:evenodd;stroke-dasharray:none;stop-color:#000000" stroke="#ff0000" gorn="0.4.72" y="9.7743788"/>
    </g>
</svg>
