<?xml version='1.0' encoding='UTF-8' standalone='no'?>
<!-- Generator: Adobe Illustrator 13.0.2, SVG Export Plug-In . SVG Version: 6.00 Build 14948)  -->
<svg xmlns="http://www.w3.org/2000/svg" width="2.4000001in" height="1.4in" version="1.1" y="0px"  gorn="0" x="0px" id="svg548" viewBox="0 0 172.79863 100.79919">
    <desc >
        <referenceFile >BatteryPack_3xAAA-breadboard.svg</referenceFile>
    </desc>
    <defs  id="defs552"/>
    <g transform="matrix(1,0,0,0.99225806,1.7131225,1.0278735)" >
        <g >
            <g >
                <g >
                    <g  gorn="0.2.0.0.0.0" style="display:inline" id="breadboard" clip-path="url(#clipPath3932)">
                        <rect width="3" height="1" y="25.906"  gorn="0.2.0.0.0.0.0" fill="none" x="150.42599" id="connector1pin"/>
                        <line x1="153.10001" stroke-linecap="round" stroke-width="2.5034" x2="158.10001"  stroke="#ff0000" gorn="0.2.0.0.0.0.1" fill="none" y1="25.906" id="connector1leg" y2="25.906"/>
                        <path d="m 147.45,131.049 c 0,1.014 -1.094,1.718 -2.055,1.718 H 2.059 c -1.362,0 -2.057,-0.576 -2.057,-1.718 V 1.715 C 0.002,0.81 0.85,0 2.059,0 h 143.336 c 1.113,0 2.055,0.682 2.055,1.715 v 63.228 z"  gorn="0.2.0.0.0.0.2" fill="#1a1a1a" id="path347"/>
                        <path d="M 2.145,47.336 V 7.3 c 0,-0.59 0.388,-1.08 0.863,-1.08 0.475,0 0.86,0.489 0.86,1.08 l 0.913,19.527 c 0,0.594 0.391,1.08 0.863,1.08 0.472,0 0.863,-0.486 0.863,-1.08 L 7.42,11.699 c 0,-0.593 0.389,-1.08 0.861,-1.08 0.475,0 0.861,0.487 0.861,1.08 v 11.887" stroke-width="0.8345"  stroke="#c9c9c9" gorn="0.2.0.0.0.0.3" fill="none" id="path349"/>
                        <path d="m 144.715,10.371 v 14.456 c 0,0.594 0.583,1.08 1.295,1.08 h 1.465" stroke-width="0.8345"  stroke="#c9c9c9" gorn="0.2.0.0.0.0.4" fill="none" id="path351"/>
                        <rect width="3.46" height="12.025" y="43.058998"  gorn="0.2.0.0.0.0.5" fill="#c9c9c9" x="1.706" id="rect353"/>
                        <rect width="2.95" height="12.029" y="10.435"  gorn="0.2.0.0.0.0.6" fill="#c9c9c9" x="141.869" id="rect355"/>
                        <g  gorn="0.2.0.0.0.0.7" id="g393">
                            <path d="m 139.273,28.955 c 0,1.784 -1.747,3.24 -3.883,3.24 H 13.464 c -2.136,0 -3.883,-1.456 -3.883,-3.24 V 5.195 c 0,-1.781 1.747,-3.239 3.883,-3.239 H 135.39 c 2.137,0 3.884,1.458 3.884,3.239 z"  gorn="0.2.0.0.0.0.7.0" fill="#353535" id="path357"/>
                            <path d="m 101.94,2.005 h 33.709 c 2.136,0 3.883,1.457 3.883,3.24 v 23.766 c 0,1.782 -1.747,3.24 -3.883,3.24 H 101.94 Z"  gorn="0.2.0.0.0.0.7.1" fill="#ce925d" id="path359"/>
                            <path enable-background="new    " d="m 13.758,30.957 c -1.607,0 -3.658,-1.242 -3.658,-2.714 v -6.801 c 0,1.474 2.051,3.784 3.658,3.784 h 121.041 c 1.608,0 3.659,-2.31 3.659,-3.784 v 6.802 c 0,1.474 -2.051,2.714 -3.659,2.714 z"  gorn="0.2.0.0.0.0.7.2" opacity="0.35" id="path361"/>
                            <path d="m 139.164,16.875 c 0,6.774 -0.31,12.263 -0.691,12.263 -0.381,0 -0.382,-24.524 0,-24.524 0.382,0 0.691,5.489 0.691,12.261"  gorn="0.2.0.0.0.0.7.3" fill="#b2b2b2" id="path363"/>
                            <path d="m 138.906,21.055 c -0.254,0 -0.254,-9.061 0,-9.061 h -0.008 c 0,0.559 0.543,1.011 1.212,1.011 h 0.549 c 0.668,0 1.211,0.453 1.211,1.012 v 5.011 c 0,0.557 -0.543,1.012 -1.211,1.012 h -0.549 c -0.669,0 -1.212,0.452 -1.212,1.01 z"  gorn="0.2.0.0.0.0.7.4" fill="#7c7c7c" id="path365"/>
                            <g  gorn="0.2.0.0.0.0.7.5" id="g389">
                                <g  gorn="0.2.0.0.0.0.7.5.0" id="g387">
                                    <path d="m 35.434,14.8 -0.515,1.295 h -1.632 l 2.727,-6.852 h 2.322 l 2.781,6.852 H 39.518 L 38.982,14.8 Z m 1.784,-4.55 h -0.022 l -1.401,3.555 h 2.836 z"  gorn="0.2.0.0.0.0.7.5.0.0" fill="#e0e0e0" id="path367"/>
                                    <path d="m 27.472,14.8 -0.515,1.295 h -1.632 l 2.727,-6.852 h 2.322 l 2.781,6.852 H 31.556 L 31.021,14.8 Z m 1.784,-4.55 h -0.022 l -1.401,3.555 h 2.836 z"  gorn="0.2.0.0.0.0.7.5.0.1" fill="#e0e0e0" id="path369"/>
                                    <path d="m 43.203,14.8 -0.515,1.295 h -1.629 l 2.724,-6.852 h 2.322 l 2.782,6.852 H 47.288 L 46.752,14.8 Z m 1.784,-4.55 h -0.021 l -1.403,3.555 h 2.836 z"  gorn="0.2.0.0.0.0.7.5.0.2" fill="#e0e0e0" id="path371"/>
                                    <path d="M 53.417,16.098 V 9.246 h 4.088 c 1.61,0 2.417,0.272 2.417,1.783 0,0.783 -0.173,1.316 -1.169,1.515 v 0.038 c 1.15,0.11 1.369,0.741 1.369,1.606 0,1.517 -0.745,1.911 -2.476,1.911 z m 1.577,-3.984 h 2.264 c 0.891,0 1.085,-0.229 1.085,-0.959 0,-0.731 -0.351,-0.786 -1.128,-0.786 h -2.224 z m 0,2.86 h 2.158 c 0.938,0 1.389,-0.055 1.389,-0.896 0,-0.749 -0.197,-0.968 -1.125,-0.968 h -2.42 z"  gorn="0.2.0.0.0.0.7.5.0.3" fill="#e0e0e0" id="path373"/>
                                    <path d="m 64.998,15.494 h -0.033 c -0.274,0.642 -1.117,0.658 -1.786,0.658 -1.303,0 -2.146,-0.229 -2.146,-1.526 0,-1.151 0.723,-1.471 2.146,-1.471 0.702,0 1.391,0.009 1.72,0.548 h 0.044 v -0.622 c 0,-0.777 -0.077,-1.051 -1.227,-1.051 -0.603,0 -1.085,0.048 -1.085,0.667 H 61.25 c 0,-1.398 1.153,-1.451 2.464,-1.451 1.843,0 2.606,0.238 2.606,1.846 v 3.004 h -1.382 z m -2.585,-0.868 c 0,0.676 0.326,0.741 1.259,0.741 0.733,0 1.271,-0.053 1.271,-0.741 0,-0.667 -0.59,-0.685 -1.271,-0.685 -0.701,0 -1.259,0 -1.259,0.685 z"  gorn="0.2.0.0.0.0.7.5.0.4" fill="#e0e0e0" id="path375"/>
                                    <path d="m 66.994,11.3 h 0.724 v -1.088 h 1.38 V 11.3 h 2.201 v 0.877 h -2.201 v 2.458 c 0.013,0.439 0.013,0.639 0.59,0.639 0.778,0 0.69,-0.511 0.69,-1.011 h 1.216 c 0.022,1.45 -0.417,1.889 -1.906,1.889 -1.511,0 -1.972,-0.292 -1.972,-1.508 v -2.467 h -0.724 z"  gorn="0.2.0.0.0.0.7.5.0.5" fill="#e0e0e0" id="path377"/>
                                    <path d="m 71.652,11.3 h 0.723 v -1.088 h 1.38 V 11.3 h 2.202 v 0.877 h -2.202 v 2.458 c 0.011,0.439 0.011,0.639 0.59,0.639 0.779,0 0.691,-0.511 0.691,-1.011 h 1.216 c 0.021,1.45 -0.417,1.889 -1.907,1.889 -1.509,0 -1.969,-0.292 -1.969,-1.508 v -2.467 h -0.724 z"  gorn="0.2.0.0.0.0.7.5.0.6" fill="#e0e0e0" id="path379"/>
                                    <path d="m 82.125,14.572 c 0,1.508 -1.042,1.581 -2.683,1.581 -2.202,0 -2.647,-0.585 -2.647,-2.439 0,-1.719 0.326,-2.465 2.647,-2.465 2.368,0 2.683,0.576 2.683,2.668 h -3.954 c 0,1.032 0.033,1.362 1.27,1.362 0.767,0 1.306,0.009 1.306,-0.706 z m -1.38,-1.389 c 0,-0.987 -0.175,-1.062 -1.306,-1.062 -1.194,0 -1.27,0.21 -1.27,1.062 z"  gorn="0.2.0.0.0.0.7.5.0.7" fill="#e0e0e0" id="path381"/>
                                    <path d="m 84.505,11.3 -0.03,0.631 h 0.055 c 0.274,-0.53 0.866,-0.684 1.533,-0.684 1.216,0 1.512,0.604 1.512,1.508 v 0.384 h -1.292 v -0.247 c 0,-0.484 -0.056,-0.768 -0.702,-0.768 -0.821,0 -1.062,0.396 -1.042,1.015 V 16.1 h -1.381 v -4.798 z"  gorn="0.2.0.0.0.0.7.5.0.8" fill="#e0e0e0" id="path383"/>
                                    <path d="m 91.702,16.29 c -0.32,1.088 -0.584,1.935 -2.19,1.935 -0.197,0 -0.394,-0.025 -0.591,-0.037 V 17.32 c 0.099,0.009 0.201,0.028 0.295,0.028 0.865,0 0.997,-0.695 1.12,-1.254 h -0.667 l -1.895,-4.798 h 1.427 l 1.456,4.085 h 0.02 l 1.119,-4.085 h 1.402 z"  gorn="0.2.0.0.0.0.7.5.0.9" fill="#e0e0e0" id="path385"/>
                                </g>
                            </g>
                            <path enable-background="new    " d="m 135.506,10.888 c 0,1.08 -1.406,1.956 -3.141,1.956 H 16.089 c -1.732,0 -3.14,-0.8 -3.14,-1.88 V 5.069 c 0,-1.081 1.406,-2.033 3.14,-2.033 h 116.275 c 1.735,0 3.143,0.876 3.143,1.957 v 5.895 z"  gorn="0.2.0.0.0.0.7.6" fill="#ffffff" opacity="0.35" id="path391"/>
                        </g>
                        <g  gorn="0.2.0.0.0.0.8" id="g431">
                            <path d="m 7.764,61.726 c 0,1.781 1.746,3.24 3.883,3.24 h 121.924 c 2.136,0 3.883,-1.459 3.883,-3.24 V 37.963 c 0,-1.781 -1.747,-3.24 -3.883,-3.24 H 11.647 c -2.137,0 -3.883,1.458 -3.883,3.24 z"  gorn="0.2.0.0.0.0.8.0" fill="#353535" id="path395"/>
                            <path d="M 45.356,34.726 H 11.647 c -2.137,0 -3.883,1.458 -3.883,3.239 v 23.763 c 0,1.781 1.746,3.24 3.883,3.24 h 33.709 z"  gorn="0.2.0.0.0.0.8.1" fill="#ce925d" id="path397"/>
                            <path enable-background="new    " d="m 133.278,63.729 c 1.607,0 3.657,-1.244 3.657,-2.715 v -6.801 c 0,1.473 -2.05,3.782 -3.657,3.782 H 12.235 c -1.607,0 -3.658,-2.309 -3.658,-3.782 v 6.801 c 0,1.474 2.051,2.715 3.658,2.715 z"  gorn="0.2.0.0.0.0.8.2" opacity="0.35" id="path399"/>
                            <path d="m 7.873,49.645 c 0,6.774 0.311,12.263 0.693,12.263 0.383,0 0.383,-24.524 0,-24.524 -0.383,0 -0.693,5.49 -0.693,12.261"  gorn="0.2.0.0.0.0.8.3" fill="#b2b2b2" id="path401"/>
                            <path d="m 8.131,53.827 c 0.253,0 0.253,-9.062 0,-9.062 l 0.007,10e-4 c 0,0.558 -0.542,1.011 -1.209,1.011 H 6.377 c -0.666,0 -1.212,0.455 -1.212,1.012 V 51.8 c 0,0.557 0.546,1.012 1.212,1.012 h 0.551 c 0.667,0 1.209,0.452 1.209,1.012 z"  gorn="0.2.0.0.0.0.8.4" fill="#7c7c7c" id="path403"/>
                            <g  gorn="0.2.0.0.0.0.8.5" id="g427">
                                <g  gorn="0.2.0.0.0.0.8.5.0" id="g425">
                                    <path d="m 112.387,50.167 0.516,-1.297 h 1.632 l -2.728,6.853 h -2.322 l -2.781,-6.853 h 1.6 l 0.537,1.297 z m -1.784,4.55 h 0.021 l 1.402,-3.555 h -2.837 z"  gorn="0.2.0.0.0.0.8.5.0.0" fill="#e0e0e0" id="path405"/>
                                    <path d="m 120.387,50.167 0.516,-1.297 h 1.632 l -2.728,6.853 h -2.322 l -2.781,-6.853 h 1.6 l 0.537,1.297 z m -1.784,4.55 h 0.021 l 1.402,-3.555 h -2.837 z"  gorn="0.2.0.0.0.0.8.5.0.1" fill="#e0e0e0" id="path407"/>
                                    <path d="m 104.618,50.167 0.515,-1.297 h 1.633 l -2.728,6.853 h -2.322 L 98.935,48.87 h 1.599 l 0.537,1.297 z m -1.785,4.55 h 0.022 l 1.401,-3.555 h -2.838 z"  gorn="0.2.0.0.0.0.8.5.0.2" fill="#e0e0e0" id="path409"/>
                                    <path d="m 94.406,48.867 v 6.853 h -4.09 c -1.609,0 -2.417,-0.271 -2.417,-1.782 0,-0.784 0.173,-1.316 1.169,-1.514 v -0.039 c -1.15,-0.11 -1.368,-0.741 -1.368,-1.606 0,-1.518 0.742,-1.91 2.477,-1.91 z m -1.578,1.125 h -2.157 c -0.939,0 -1.39,0.055 -1.39,0.895 0,0.749 0.198,0.969 1.127,0.969 h 2.418 z m 0,2.86 h -2.266 c -0.89,0 -1.084,0.228 -1.084,0.96 0,0.731 0.35,0.787 1.127,0.787 h 2.224 z"  gorn="0.2.0.0.0.0.8.5.0.3" fill="#e0e0e0" id="path411"/>
                                    <path d="m 82.824,49.471 h 0.033 c 0.273,-0.643 1.116,-0.658 1.785,-0.658 1.304,0 2.148,0.228 2.148,1.525 0,1.152 -0.723,1.472 -2.148,1.472 -0.701,0 -1.39,-0.009 -1.718,-0.549 H 82.88 v 0.622 c 0,0.777 0.077,1.05 1.226,1.05 0.603,0 1.085,-0.046 1.085,-0.666 h 1.384 c 0,1.397 -1.151,1.45 -2.466,1.45 -1.838,0 -2.605,-0.238 -2.605,-1.847 v -3.005 h 1.38 z m 2.584,0.868 c 0,-0.676 -0.326,-0.74 -1.259,-0.74 -0.735,0 -1.271,0.052 -1.271,0.74 0,0.667 0.589,0.686 1.271,0.686 0.702,0 1.259,0 1.259,-0.686 z"  gorn="0.2.0.0.0.0.8.5.0.4" fill="#e0e0e0" id="path413"/>
                                    <path d="m 80.828,53.666 h -0.723 v 1.087 H 78.724 V 53.666 H 76.523 V 52.79 h 2.201 v -2.46 c -0.013,-0.439 -0.013,-0.642 -0.59,-0.642 -0.778,0 -0.69,0.513 -0.69,1.016 h -1.215 c -0.022,-1.452 0.417,-1.89 1.906,-1.89 1.511,0 1.972,0.292 1.972,1.507 v 2.467 h 0.723 z"  gorn="0.2.0.0.0.0.8.5.0.5" fill="#e0e0e0" id="path415"/>
                                    <path d="m 76.17,53.666 h -0.723 v 1.087 h -1.38 V 53.666 H 71.865 V 52.79 h 2.202 v -2.46 c -0.011,-0.439 -0.011,-0.642 -0.589,-0.642 -0.78,0 -0.691,0.513 -0.691,1.016 H 71.57 c -0.02,-1.452 0.418,-1.89 1.908,-1.89 1.508,0 1.969,0.292 1.969,1.507 v 2.467 h 0.723 z"  gorn="0.2.0.0.0.0.8.5.0.6" fill="#e0e0e0" id="path417"/>
                                    <path d="m 65.697,50.394 c 0,-1.508 1.042,-1.581 2.683,-1.581 2.202,0 2.647,0.585 2.647,2.44 0,1.72 -0.326,2.466 -2.647,2.466 -2.368,0 -2.683,-0.576 -2.683,-2.669 h 3.954 c 0,-1.032 -0.033,-1.362 -1.27,-1.362 -0.768,0 -1.306,-0.009 -1.306,0.706 z m 1.38,1.389 c 0,0.987 0.175,1.063 1.306,1.063 1.195,0 1.271,-0.209 1.271,-1.063 z"  gorn="0.2.0.0.0.0.8.5.0.7" fill="#e0e0e0" id="path419"/>
                                    <path d="m 63.317,53.666 0.03,-0.631 h -0.055 c -0.274,0.531 -0.866,0.684 -1.534,0.684 -1.215,0 -1.511,-0.604 -1.511,-1.508 v -0.384 h 1.292 v 0.247 c 0,0.484 0.055,0.768 0.701,0.768 0.821,0 1.062,-0.396 1.043,-1.014 v -2.961 h 1.38 v 4.797 z"  gorn="0.2.0.0.0.0.8.5.0.8" fill="#e0e0e0" id="path421"/>
                                    <path d="m 56.12,48.674 c 0.32,-1.088 0.583,-1.936 2.189,-1.936 0.197,0 0.395,0.025 0.592,0.036 v 0.869 c -0.099,-0.009 -0.2,-0.027 -0.296,-0.027 -0.866,0 -0.997,0.695 -1.121,1.254 h 0.668 l 1.895,4.798 H 58.62 l -1.457,-4.085 h -0.021 l -1.118,4.085 h -1.402 z"  gorn="0.2.0.0.0.0.8.5.0.9" fill="#e0e0e0" id="path423"/>
                                </g>
                            </g>
                            <path enable-background="new    " d="m 11.53,43.658 c 0,1.082 1.406,1.955 3.139,1.955 h 116.276 c 1.732,0 3.141,-0.799 3.141,-1.879 v -5.895 c 0,-1.081 -1.408,-2.033 -3.141,-2.033 H 14.671 c -1.732,0 -3.14,0.876 -3.14,1.957 z"  gorn="0.2.0.0.0.0.8.6" fill="#ffffff" opacity="0.35" id="path429"/>
                        </g>
                        <g  gorn="0.2.0.0.0.0.9" id="g523">
                            <path d="m 7.357,0.109 1.79,1.16 c 0,0 1.276,1.206 2.389,2.492 0.663,0.767 1.218,3.466 2.036,4.151 0.821,0.683 1.993,0.831 2.987,0.831 0.277,0 23.058,0 23.335,0 0.995,0 2.164,-0.145 2.986,-0.831 0.82,-0.685 1.378,-3.384 2.039,-4.151 1.111,-1.286 2.389,-2.492 2.389,-2.492 l 1.79,-1.16 z"  gorn="0.2.0.0.0.0.9.0" fill="#1a1a1a" id="path519"/>
                            <path enable-background="new    " d="m 9.941,0.984 0.466,0.145 c 0,0 0,0.539 1.037,1.111 0.623,0.342 1.138,0.492 1.904,0.798 0.768,0.305 1.858,0.37 2.791,0.37 0.258,0 23.918,0 24.181,0 0.932,0 2.021,-0.065 2.787,-0.37 0.768,-0.306 1.286,-0.456 1.904,-0.798 1.041,-0.573 1.04,-1.111 1.04,-1.111 l 0.458,-0.144 z"  gorn="0.2.0.0.0.0.9.1" fill="#ffffff" opacity="0.2" id="path521"/>
                        </g>
                        <g  gorn="0.2.0.0.0.0.10" id="g529">
                            <path d="m 98.374,0.109 1.79,1.16 c 0,0 1.276,1.206 2.389,2.492 0.663,0.767 1.219,3.466 2.036,4.151 0.82,0.683 1.993,0.831 2.987,0.831 0.278,0 23.058,0 23.334,0 0.996,0 2.165,-0.145 2.988,-0.831 0.818,-0.685 1.376,-3.384 2.036,-4.151 1.112,-1.286 2.39,-2.492 2.39,-2.492 l 1.79,-1.16 z"  gorn="0.2.0.0.0.0.10.0" fill="#1a1a1a" id="path525"/>
                            <path enable-background="new    " d="m 100.958,0.984 0.468,0.145 c 0,0 0,0.539 1.036,1.111 0.623,0.342 1.138,0.492 1.904,0.798 0.771,0.305 1.858,0.37 2.791,0.37 0.258,0 23.919,0 24.182,0 0.932,0 2.021,-0.065 2.788,-0.37 0.768,-0.306 1.284,-0.456 1.905,-0.798 1.039,-0.573 1.038,-1.111 1.038,-1.111 l 0.458,-0.144 z"  gorn="0.2.0.0.0.0.10.1" fill="#ffffff" opacity="0.2" id="path527"/>
                        </g>
                        <path d="M 147.467,25.906 H 153.1" stroke-width="2.5034"  stroke="#ff0000" gorn="0.2.0.0.0.0.11" fill="none" id="path545"/>
                    </g>
                </g>
            </g>
        </g>
    </g>
    <g  gorn="0.3" style="display:inline" id="layer3">
        <path d="m 149.05181,65.526936 h 5.633" stroke-width="2.49369"  stroke="#000000" gorn="0.3.0" fill="none" style="display:inline" id="path543"/>
        <rect width="136.70717" height="1.0278735" y="66.811775" stroke-width="0.996122"  stroke="none" gorn="0.3.1" fill="#c9c9c9" fill-opacity="1" x="5.8246164" style="font-variation-settings:normal;opacity:1;vector-effect:none;fill-rule:evenodd;stroke-linecap:butt;stroke-linejoin:miter;stroke-miterlimit:4;stroke-dasharray:none;stroke-dashoffset:0;-inkscape-stop-color:#000000;stop-opacity:1" id="rect2509" stroke-opacity="1"/>
        <rect width="3.5975571" height="21.585344" y="45.569057" stroke-width="0.996122"  stroke="none" gorn="0.3.2" fill="#c9c9c9" fill-opacity="1" x="138.93423" style="font-variation-settings:normal;opacity:1;vector-effect:none;fill-rule:evenodd;stroke-linecap:butt;stroke-linejoin:miter;stroke-miterlimit:4;stroke-dasharray:none;stroke-dashoffset:0;-inkscape-stop-color:#000000;stop-opacity:1" id="rect2511" stroke-opacity="1"/>
        <rect width="2.9123082" height="23.127153" y="66.811775" stroke-width="0.996122"  stroke="none" gorn="0.3.3" fill="#c9c9c9" fill-opacity="1" x="3.7688694" style="font-variation-settings:normal;opacity:1;vector-effect:none;fill-rule:evenodd;stroke-linecap:butt;stroke-linejoin:miter;stroke-miterlimit:4;stroke-dasharray:none;stroke-dashoffset:0;-inkscape-stop-color:#000000;stop-opacity:1" id="rect2513" stroke-opacity="1"/>
    </g>
    <g transform="translate(1.4982061,-31.998497)" >
        <g >
            <g >
                <g >
                    <g  gorn="0.4.0.0.0.0" style="display:inline" id="nizhbat">
                        <path d="m 7.764,127.822 c 0,1.78 1.746,3.24 3.883,3.24 h 121.924 c 2.136,0 3.883,-1.46 3.883,-3.24 v -23.763 c 0,-1.781 -1.747,-3.24 -3.883,-3.24 H 11.647 c -2.137,0 -3.883,1.459 -3.883,3.24 z"  gorn="0.4.0.0.0.0.0" fill="#353535" id="path481"/>
                        <path d="M 45.356,100.822 H 11.647 c -2.137,0 -3.883,1.458 -3.883,3.239 v 23.764 c 0,1.781 1.746,3.239 3.883,3.239 h 33.709 z"  gorn="0.4.0.0.0.0.1" fill="#ce925d" id="path483"/>
                        <path enable-background="new    " d="m 133.278,129.825 c 1.607,0 3.657,-1.244 3.657,-2.715 v -6.802 c 0,1.474 -2.05,3.782 -3.657,3.782 H 12.235 c -1.607,0 -3.658,-2.309 -3.658,-3.782 v 6.802 c 0,1.474 2.051,2.715 3.658,2.715 z"  gorn="0.4.0.0.0.0.2" opacity="0.35" id="path485"/>
                        <path d="m 7.873,115.741 c 0,6.773 0.311,12.264 0.693,12.264 0.383,0 0.383,-24.525 0,-24.525 -0.383,-0.001 -0.693,5.489 -0.693,12.261"  gorn="0.4.0.0.0.0.3" fill="#b2b2b2" id="path487"/>
                        <path d="m 8.131,119.922 c 0.253,0 0.253,-9.062 0,-9.062 l 0.007,0.001 c 0,0.559 -0.542,1.011 -1.209,1.011 H 6.377 c -0.666,0 -1.212,0.455 -1.212,1.012 v 5.012 c 0,0.557 0.546,1.012 1.212,1.012 h 0.551 c 0.667,0 1.209,0.452 1.209,1.013 z"  gorn="0.4.0.0.0.0.4" fill="#7c7c7c" id="path489"/>
                        <g  gorn="0.4.0.0.0.0.5" id="g513">
                            <g  gorn="0.4.0.0.0.0.5.0" id="g511">
                                <path d="m 112.387,116.262 0.516,-1.297 h 1.632 l -2.728,6.853 h -2.322 l -2.781,-6.853 h 1.6 l 0.537,1.297 z m -1.784,4.551 h 0.021 l 1.402,-3.555 h -2.837 z"  gorn="0.4.0.0.0.0.5.0.0" fill="#e0e0e0" id="path491"/>
                                <path d="m 120.387,116.262 0.516,-1.297 h 1.632 l -2.728,6.853 h -2.322 l -2.781,-6.853 h 1.6 l 0.537,1.297 z m -1.784,4.551 h 0.021 l 1.402,-3.555 h -2.837 z"  gorn="0.4.0.0.0.0.5.0.1" fill="#e0e0e0" id="path493"/>
                                <path d="m 104.618,116.262 0.515,-1.297 h 1.633 l -2.728,6.853 h -2.322 l -2.781,-6.853 h 1.599 l 0.537,1.297 z m -1.785,4.551 h 0.022 l 1.401,-3.555 h -2.838 z"  gorn="0.4.0.0.0.0.5.0.2" fill="#e0e0e0" id="path495"/>
                                <path d="m 94.406,114.963 v 6.852 h -4.09 c -1.609,0 -2.417,-0.271 -2.417,-1.781 0,-0.784 0.173,-1.316 1.169,-1.515 v -0.039 c -1.15,-0.11 -1.368,-0.741 -1.368,-1.606 0,-1.518 0.742,-1.91 2.477,-1.91 h 4.229 z m -1.578,1.125 h -2.157 c -0.939,0 -1.39,0.055 -1.39,0.895 0,0.749 0.198,0.969 1.127,0.969 h 2.418 z m 0,2.86 h -2.266 c -0.89,0 -1.084,0.229 -1.084,0.96 0,0.731 0.35,0.786 1.127,0.786 h 2.224 z"  gorn="0.4.0.0.0.0.5.0.3" fill="#e0e0e0" id="path497"/>
                                <path d="m 82.824,115.567 h 0.033 c 0.273,-0.643 1.116,-0.658 1.785,-0.658 1.304,0 2.148,0.228 2.148,1.525 0,1.151 -0.723,1.472 -2.148,1.472 -0.701,0 -1.39,-0.009 -1.718,-0.55 H 82.88 v 0.623 c 0,0.776 0.077,1.05 1.226,1.05 0.603,0 1.085,-0.046 1.085,-0.666 h 1.384 c 0,1.397 -1.151,1.45 -2.466,1.45 -1.838,0 -2.605,-0.238 -2.605,-1.847 v -3.005 h 1.38 z m 2.584,0.867 c 0,-0.676 -0.326,-0.739 -1.259,-0.739 -0.735,0 -1.271,0.052 -1.271,0.739 0,0.668 0.589,0.686 1.271,0.686 0.702,0.002 1.259,0.002 1.259,-0.686 z"  gorn="0.4.0.0.0.0.5.0.4" fill="#e0e0e0" id="path499"/>
                                <path d="m 80.828,119.762 h -0.723 v 1.087 h -1.381 v -1.087 h -2.201 v -0.877 h 2.201 v -2.459 c -0.013,-0.439 -0.013,-0.643 -0.59,-0.643 -0.778,0 -0.69,0.514 -0.69,1.016 h -1.215 c -0.022,-1.451 0.417,-1.89 1.906,-1.89 1.511,0 1.972,0.292 1.972,1.507 v 2.467 h 0.723 z"  gorn="0.4.0.0.0.0.5.0.5" fill="#e0e0e0" id="path501"/>
                                <path d="m 76.17,119.762 h -0.723 v 1.087 h -1.38 v -1.087 h -2.202 v -0.877 h 2.202 v -2.459 c -0.011,-0.439 -0.011,-0.643 -0.589,-0.643 -0.78,0 -0.691,0.514 -0.691,1.016 H 71.57 c -0.02,-1.451 0.418,-1.89 1.908,-1.89 1.508,0 1.969,0.292 1.969,1.507 v 2.467 h 0.723 z"  gorn="0.4.0.0.0.0.5.0.6" fill="#e0e0e0" id="path503"/>
                                <path d="m 65.697,116.489 c 0,-1.508 1.042,-1.58 2.683,-1.58 2.202,0 2.647,0.585 2.647,2.439 0,1.721 -0.326,2.467 -2.647,2.467 -2.368,0 -2.683,-0.576 -2.683,-2.67 h 3.954 c 0,-1.031 -0.033,-1.361 -1.27,-1.361 -0.768,0 -1.306,-0.01 -1.306,0.705 z m 1.38,1.39 c 0,0.986 0.175,1.062 1.306,1.062 1.195,0 1.271,-0.209 1.271,-1.062 z"  gorn="0.4.0.0.0.0.5.0.7" fill="#e0e0e0" id="path505"/>
                                <path d="m 63.317,119.762 0.03,-0.631 h -0.055 c -0.274,0.531 -0.866,0.684 -1.534,0.684 -1.215,0 -1.511,-0.604 -1.511,-1.508 v -0.385 h 1.292 v 0.246 c 0,0.484 0.055,0.768 0.701,0.768 0.821,0 1.062,-0.396 1.043,-1.014 v -2.961 h 1.38 v 4.797 z"  gorn="0.4.0.0.0.0.5.0.8" fill="#e0e0e0" id="path507"/>
                                <path d="m 56.12,114.77 c 0.32,-1.088 0.583,-1.936 2.189,-1.936 0.197,0 0.395,0.025 0.592,0.036 v 0.868 c -0.099,-0.009 -0.2,-0.027 -0.296,-0.027 -0.866,0 -0.997,0.695 -1.121,1.254 h 0.668 l 1.895,4.799 H 58.62 l -1.457,-4.086 h -0.021 l -1.118,4.086 h -1.402 z"  gorn="0.4.0.0.0.0.5.0.9" fill="#e0e0e0" id="path509"/>
                            </g>
                        </g>
                        <path enable-background="new    " d="m 11.53,109.753 c 0,1.082 1.406,1.955 3.139,1.955 h 116.276 c 1.732,0 3.141,-0.799 3.141,-1.88 v -5.895 c 0,-1.08 -1.408,-2.033 -3.141,-2.033 H 14.671 c -1.732,0 -3.14,0.877 -3.14,1.957 z"  gorn="0.4.0.0.0.0.6" fill="#ffffff" opacity="0.35" id="path515"/>
                    </g>
                </g>
            </g>
        </g>
    </g>
    <path d="m 101.18997,101.67409 1.79,-1.15201 c 0,0 1.276,-1.195666 2.389,-2.472703 0.663,-0.76007 1.219,-3.439167 2.036,-4.117871 0.82,-0.679697 1.993,-0.823574 2.987,-0.823574 0.278,0 23.058,0 23.334,0 0.996,0 2.165,0.141893 2.988,0.823574 0.819,0.680689 1.376,3.358794 2.036,4.117871 1.112,1.277037 2.39,2.472703 2.39,2.472703 l 1.79,1.15201 z" stroke-width="0.996122"  gorn="0.5" fill="#1a1a1a" style="display:inline;" id="path537" clip-path="url(#clipPath4028)"/>
    <path d="m 139.40422,74.328321 v 11.887 c 0,0.594 0.39,1.081 0.861,1.081 0.476,0 0.862,-0.487 0.862,-1.081 l 0.914,-15.128 c 0,-0.594 0.387,-1.08 0.861,-1.08 0.474,0 0.86,0.486 0.86,1.08 l 0.913,19.528 c 0,0.592 0.391,1.078 0.862,1.078 0.473,0 0.863,-0.486 0.863,-1.078 v -23.965 c 0,-0.59 0.584,-1.079 1.295,-1.079 h 1.465" stroke-width="0.8345"  stroke="#c9c9c9" gorn="0.6" fill="none" style="display:inline" id="pravPrukont"/>
    <rect width="2.9989998" height="0.99225807" y="105.88878" stroke-width="0.996122"  gorn="0.7" fill="none" x="134.86505" style="display:inline;" id="connector0pin"/>
    <rect width="2.9989998" height="0.99225807" y="66.145432" stroke-width="0.996122"  gorn="0.8" fill="none" x="149.5265" style="display:inline;" id="connector0pin-0"/>
    <line x1="154.67899" stroke-linecap="round" stroke-width="2.49369" x2="159.67899"  stroke="#000000" gorn="0.9" fill="none" style="display:inline" y1="65.526939" id="connector0leg" y2="65.526939"/>
    <g transform="matrix(0.99999996,0,0,0.99225809,0.55295902,-32.377749)" >
        <g >
            <g >
                <g >
                    <g  gorn="0.10.0.0.0.0" style="display:inline" id="g535">
                        <path d="m 7.357,132.767 1.79,-1.161 c 0,0 1.276,-1.205 2.389,-2.492 0.663,-0.766 1.218,-3.466 2.036,-4.15 0.821,-0.685 1.993,-0.83 2.987,-0.83 0.277,0 23.058,0 23.335,0 0.995,0 2.164,0.143 2.986,0.83 0.82,0.685 1.378,3.385 2.039,4.15 1.111,1.287 2.389,2.492 2.389,2.492 l 1.79,1.161 z"  gorn="0.10.0.0.0.0.0" fill="#1a1a1a" id="path531"/>
                        <path d="m 9.941,131.893 0.466,-0.145 c 0,0 0,-0.539 1.037,-1.111 0.623,-0.344 1.138,-0.492 1.904,-0.798 0.768,-0.306 1.858,-0.37 2.791,-0.37 0.258,0 23.918,0 24.181,0 0.932,0 2.021,0.064 2.787,0.37 0.768,0.304 1.286,0.454 1.904,0.798 1.041,0.572 1.04,1.111 1.04,1.111 l 0.458,0.141 z"  gorn="0.10.0.0.0.0.1" id="path533"/>
                    </g>
                </g>
            </g>
        </g>
    </g>
</svg>
