<?xml version='1.0' encoding='utf-8'?>
<!DOCTYPE svg>
<!-- Generator: Adobe Illustrator 14.0.0, SVG Export Plug-In . SVG Version: 6.00 Build 43363)  -->
<svg xmlns="http://www.w3.org/2000/svg" x="0px" gorn="0" version="1.1" height="0.1in" y="0px" viewBox="0 0 29.879 7.2"  id="Layer_1" width="0.414986in">
    <desc >
        <referenceFile >diode-breadboard.svg</referenceFile>
    </desc>
    <g gorn="0.1"  id="breadboard">
        <rect x="0.011" gorn="0.1.0" height="1" y="2.583" fill="none"  id="connector0pin" width="1"/>
        <rect x="25.576" gorn="0.1.1" height="1" y="2.583" fill="none"  id="connector1pin" width="1"/>
        <line y2="3.63" stroke-linecap="round" stroke-width="2.094" x2="2.094" gorn="0.1.2" y1="3.63" stroke="#8C8C8C" fill="none"  id="connector0leg" x1="1.047"/>
        <line y2="3.63" stroke-linecap="round" stroke-width="2.094" x2="28.832" gorn="0.1.3" y1="3.63" stroke="#8C8C8C" fill="none"  id="connector1leg" x1="27.785"/>
        <rect x="2.094" gorn="0.1.4" height="2.094" y="2.583" fill="#8C8C8C"  id="rect7" width="25.691"/>
        <g >
            <path gorn="0.1.5.0" d="M9.159,0H7.002c-0.475,0-0.393,7.193,0,7.193h2.157c0.396,0,11.114,0,11.508,0h2.158&#xd;&#xa;&#x9;&#x9;&#x9;&#x9;c0.515,0,0.558-7.193,0-7.193h-2.158C20.27,0,9.553,0,9.159,0z" fill="#1A1A1A"  id="Body_1_"/>
            <rect x="9.783" enable-background="new    " gorn="0.1.5.1" height="7.193" opacity="0.74" y="0" fill="#FFFFFF"  id="rect16" width="1.992"/>
            <path enable-background="new    " gorn="0.1.5.2" opacity="0.4" d="M7.289,0.358c0.726,0,1.145,0,1.866,0&#xd;&#xa;&#x9;&#x9;&#x9;&#x9;c0.719,0,10.786,0,11.508,0c0.021,0,0.229,0,0.479,0c0.563,0,1.066,0,1.311,0c0.354,0,1.146,0.36-0.354,0.36&#xd;&#xa;&#x9;&#x9;&#x9;&#x9;c-1.08,0-0.726,0-1.438,0c-0.717,0-10.791,0-11.508,0c-0.723,0-1.145,0-1.866,0C6.931,0.719,6.573,0.358,7.289,0.358z" fill="#FFFFFF"  id="Reflex_1_"/>
            <path enable-background="new    " gorn="0.1.5.3" opacity="0.4" d="M22.822,7.194c-0.727,0.014-1.438,0-2.156,0&#xd;&#xa;&#x9;&#x9;&#x9;&#x9;c-0.902,0-12.942,0-13.667,0c-0.091,0-0.202-0.723-0.182-0.723c1.293,0,1.613,0,2.336,0c0.723,0,10.789,0,11.509,0&#xd;&#xa;&#x9;&#x9;&#x9;&#x9;c0.721,0,1.67,0,2.393,0C23.076,6.471,22.969,7.192,22.822,7.194z"  id="Shaddow_1_"/>
        </g>
    </g>
</svg>
