<?xml version='1.0' encoding='UTF-8' standalone='no'?>
<svg
  xmlns:dc="http://purl.org/dc/elements/1.1/"
  xmlns:cc="http://creativecommons.org/ns#"
  xmlns:rdf="http://www.w3.org/1999/02/22-rdf-syntax-ns#"
  xmlns:svg="http://www.w3.org/2000/svg"
  xmlns="http://www.w3.org/2000/svg"
  version="1.1"
  y="0px"
  id="Ebene_1"
  gorn="0"
  enable-background="new 0 0 72.566 96.945"
  x="0px"
  width="1.0078853in"
  viewBox="0 0 1007.8856 1346.4588"
  xml:space="preserve"
  height="1.3464583in">
  <metadata
    id="metadata66">
    <rdf:RDF>
      <cc:Work
        rdf:about="">
        <dc:format>image/svg+xml</dc:format>
        <dc:type
          rdf:resource="http://purl.org/dc/dcmitype/StillImage"
        />
        <dc:title/>
      </cc:Work>
    </rdf:RDF>
  </metadata>
  <defs
    id="defs64">
        </defs>
  <desc
    id="desc2">
    <referenceFile>ESP32-CAM_1_pcb.svg</referenceFile>
  </desc>
  <g
    id="silkscreen">
    <path
      id="board-outline"
      gorn="0.1.4"
      d="M 830.42797,8.0000026 C 923.87212,8.0000026 999.88577,84.125028 999.88577,177.68061 V 1318.6949 C 999.88577,1329.5977 991.02469,1338.4588 980.14972,1338.4588 L 660.26183,1338.5004 C 660.03961,1338.4171 659.72017,1338.1254 659.62294,1338.1254 659.60905,1338.1254 659.59517,1338.1254 659.59517,1338.1393 V 1306.1949 C 659.59517,1295.8338 650.20631,1287.0838 639.10912,1287.0838 H 316.11013 C 306.72127,1287.0838 297.01296,1294.2504 297.01296,1306.1949 L 297.05463,1337.7782 C 296.9713,1338.0143 296.56852,1338.4032 296.69352,1338.4588 H 108.15244 C 97.624696,1338.4588 88.06917,1329.681 85.624733,1317.9449 V 1079.9587 C 85.624733,1073.9031 82.333077,1068.5142 76.819205,1065.7642 L 7.9999751,1034.1531 V 177.68061 C 7.9999751,84.138917 84.013627,8.0000026 177.44389,8.0000026 H 830.42797 M 830.42797,0 H 177.45778 C 80.416416,0 0,79.125026 0,177.68061 V 1034.1392 C 0,1036.917 1.3888846,1039.6948 4.1527648,1041.0837 L 73.471993,1073.0142 C 76.249762,1074.417 77.624758,1077.1948 77.624758,1079.9587 V 1318.7088 C 80.416416,1333.9727 92.902488,1346.4588 108.15244,1346.4588 H 296.67963 C 300.84628,1346.4588 305.01294,1342.2921 305.01294,1338.1254 V 1306.181 C 305.01294,1299.2365 310.5407,1295.0699 316.11013,1295.0699 H 639.12301 C 646.05354,1295.0699 651.59519,1300.6254 651.59519,1306.181 V 1338.1254 C 651.59519,1342.2921 655.74796,1346.4588 659.91461,1346.4588 H 980.16361 C 995.42745,1346.4588 1007.8857,1333.9727 1007.8857,1318.6949 V 177.68061 C 1007.8857,79.125026 928.85821,0 830.42797,0 Z"
      stroke-width="10"
    />
  </g>
  <g
    id="copper1">
    <g
      id="copper0">
      <circle
        r="29"
        cx="53.958164"
        cy="286.11096"
        id="connector0pin"
        gorn="0.2.0.0"
        fill="none"
        stroke="#f7bd13"
        stroke-width="20"
      />
      <circle
        r="29"
        cx="53.958164"
        cy="386.11203"
        id="connector1pin"
        gorn="0.2.0.1"
        fill="none"
        stroke="#f7bd13"
        stroke-width="20"
      />
      <circle
        r="29"
        cx="53.958164"
        cy="486.11136"
        id="connector2pin"
        gorn="0.2.0.2"
        fill="none"
        stroke="#f7bd13"
        stroke-width="20"
      />
      <circle
        r="29"
        cx="53.958164"
        cy="586.11072"
        id="connector3pin"
        gorn="0.2.0.3"
        fill="none"
        stroke="#f7bd13"
        stroke-width="20"
      />
      <circle
        r="29"
        cx="53.958164"
        cy="686.11176"
        id="connector4pin"
        gorn="0.2.0.4"
        fill="none"
        stroke="#f7bd13"
        stroke-width="20"
      />
      <circle
        r="29"
        cx="53.958164"
        cy="786.11108"
        id="connector5pin"
        gorn="0.2.0.5"
        fill="none"
        stroke="#f7bd13"
        stroke-width="20"
      />
      <circle
        r="29"
        cx="53.958164"
        cy="886.11212"
        id="connector6pin"
        gorn="0.2.0.6"
        fill="none"
        stroke="#f7bd13"
        stroke-width="20"
      />
      <circle
        r="29"
        cx="53.958164"
        cy="986.11151"
        id="connector7pin"
        gorn="0.2.0.7"
        fill="none"
        stroke="#f7bd13"
        stroke-width="20"
      />
      <circle
        r="29"
        cx="953.94147"
        cy="986.11151"
        id="connector8pin"
        gorn="0.2.0.8"
        fill="none"
        stroke="#f7bd13"
        stroke-width="20"
      />
      <circle
        r="29"
        cx="953.94147"
        cy="886.11212"
        id="connector9pin"
        gorn="0.2.0.9"
        fill="none"
        stroke="#f7bd13"
        stroke-width="20"
      />
      <circle
        r="29"
        cx="953.94147"
        cy="786.11108"
        id="connector10pin"
        gorn="0.2.0.10"
        fill="none"
        stroke="#f7bd13"
        stroke-width="20"
      />
      <circle
        r="29"
        cx="953.94147"
        cy="686.11176"
        id="connector11pin"
        gorn="0.2.0.11"
        fill="none"
        stroke="#f7bd13"
        stroke-width="20"
      />
      <circle
        r="29"
        cx="953.94147"
        cy="586.11072"
        id="connector12pin"
        gorn="0.2.0.12"
        fill="none"
        stroke="#f7bd13"
        stroke-width="20"
      />
      <circle
        r="29"
        cx="953.94147"
        cy="486.11136"
        id="connector13pin"
        gorn="0.2.0.13"
        fill="none"
        stroke="#f7bd13"
        stroke-width="20"
      />
      <circle
        r="29"
        cx="953.94147"
        cy="386.11203"
        id="connector14pin"
        gorn="0.2.0.14"
        fill="none"
        stroke="#f7bd13"
        stroke-width="20"
      />
      <circle
        r="29"
        cx="953.94147"
        cy="286.11096"
        id="connector15pin"
        gorn="0.2.0.15"
        fill="none"
        stroke="#f7bd13"
        stroke-width="20"
      />
    </g>
  </g>
</svg>
